<?xml version="1.0" encoding="UTF-8" standalone="no"?><svg xmlns="http://www.w3.org/2000/svg" xmlns:xlink="http://www.w3.org/1999/xlink" contentScriptType="application/ecmascript" contentStyleType="text/css" height="584px" preserveAspectRatio="none" style="width:817px;height:584px;" version="1.1" viewBox="0 0 817 584" width="817px" zoomAndPan="magnify"><defs><filter height="300%" id="fwcvf7rk10mff" width="300%" x="-1" y="-1"><feGaussianBlur result="blurOut" stdDeviation="2.0"/><feColorMatrix in="blurOut" result="blurOut2" type="matrix" values="0 0 0 0 0 0 0 0 0 0 0 0 0 0 0 0 0 0 .4 0"/><feOffset dx="4.0" dy="4.0" in="blurOut2" result="blurOut3"/><feBlend in="SourceGraphic" in2="blurOut3" mode="normal"/></filter></defs><g><rect fill="#FEFECE" filter="url(#fwcvf7rk10mff)" height="40" rx="12.5" ry="12.5" style="stroke:#A80036;stroke-width:1.5;" width="173" x="630.15" y="93.5"/><text fill="#000000" font-family="sans-serif" font-size="14" lengthAdjust="spacingAndGlyphs" textLength="163" x="635.15" y="119.2285">Tâche n'est pas en retard</text><rect fill="#FEFECE" filter="url(#fwcvf7rk10mff)" height="40" rx="12.5" ry="12.5" style="stroke:#A80036;stroke-width:1.5;" width="112" x="270.65" y="451"/><text fill="#000000" font-family="sans-serif" font-size="14" lengthAdjust="spacingAndGlyphs" textLength="102" x="275.65" y="476.7285">Tâche en retard</text><g id="Case1"><rect fill="#FEFECE" filter="url(#fwcvf7rk10mff)" height="52.7031" rx="12.5" ry="12.5" style="stroke:#A80036;stroke-width:1.5;" width="151" x="389.15" y="320"/><line style="stroke:#A80036;stroke-width:1.5;" x1="389.15" x2="540.15" y1="347.6094" y2="347.6094"/><text fill="#000000" font-family="sans-serif" font-size="14" lengthAdjust="spacingAndGlyphs" textLength="131" x="399.15" y="339.5332">Vérifier la date de fin</text><text fill="#000000" font-family="sans-serif" font-size="12" lengthAdjust="spacingAndGlyphs" textLength="91" x="394.15" y="365.0664">do/Vérifie la date</text></g><g id="Case2"><rect fill="#FEFECE" filter="url(#fwcvf7rk10mff)" height="52.7031" rx="12.5" ry="12.5" style="stroke:#A80036;stroke-width:1.5;" width="164" x="193.65" y="87"/><line style="stroke:#A80036;stroke-width:1.5;" x1="193.65" x2="357.65" y1="114.6094" y2="114.6094"/><text fill="#000000" font-family="sans-serif" font-size="14" lengthAdjust="spacingAndGlyphs" textLength="144" x="203.65" y="106.5332">Vérifier le pourcentage</text><text fill="#000000" font-family="sans-serif" font-size="12" lengthAdjust="spacingAndGlyphs" textLength="136" x="198.65" y="132.0664">do/Vérifie le pourcentage</text></g><polygon fill="#FEFECE" filter="url(#fwcvf7rk10mff)" points="473.65,218,485.65,230,473.65,242,461.65,230,473.65,218" style="stroke:#A80036;stroke-width:1.5;"/><ellipse cx="716.65" cy="16" fill="#000000" filter="url(#fwcvf7rk10mff)" rx="10" ry="10" style="stroke:none;stroke-width:1.0;"/><ellipse cx="326.65" cy="562" fill="none" filter="url(#fwcvf7rk10mff)" rx="10" ry="10" style="stroke:#000000;stroke-width:1.0;"/><ellipse cx="327.15" cy="562.5" fill="#000000" rx="6" ry="6" style="stroke:none;stroke-width:1.0;"/><!--MD5=[0851647b0d029610cd0ab4962f9816f7]
link *start to s1--><path d="M716.65,26.16 C716.65,40.3 716.65,67.93 716.65,88.14 " fill="none" id="*start-to-s1" style="stroke:#000000;stroke-width:1.0;"/><polygon fill="#000000" points="716.65,93.37,720.65,84.37,716.65,88.37,712.65,84.37,716.65,93.37" style="stroke:#000000;stroke-width:1.0;"/><!--MD5=[f06597743fdf31481e9787451d9ccd20]
link s1 to c1--><path d="M676.25,133.54 C619.91,160.08 520.76,206.81 486.06,223.15 " fill="none" id="s1-to-c1" style="stroke:#000000;stroke-width:1.0;"/><polygon fill="#000000" points="481.42,225.34,491.2664,225.1196,485.9425,223.2076,487.8545,217.8836,481.42,225.34" style="stroke:#000000;stroke-width:1.0;"/><!--MD5=[db4759b07d429d2325e8d60d94f4b190]
link c1 to Case1--><path d="M472.82,241.57 C471.53,258 468.99,290.32 467.08,314.58 " fill="none" id="c1-to-Case1" style="stroke:#0000FF;stroke-width:1.0;"/><polygon fill="#0000FF" points="466.69,319.63,471.3969,310.9787,467.0899,314.646,463.4226,310.3389,466.69,319.63" style="stroke:#0000FF;stroke-width:1.0;"/><text fill="#0000FF" font-family="sans-serif" font-size="13" lengthAdjust="spacingAndGlyphs" textLength="100" x="471.65" y="286.4951">[type = Ponctuel]</text><!--MD5=[acc4c46804281c5aab0989bbe3209192]
link c1 to Case2--><path d="M466.55,224.89 C444.09,211.9 373.21,170.92 324.44,142.71 " fill="none" id="c1-to-Case2" style="stroke:#FF0000;stroke-width:1.0;"/><polygon fill="#FF0000" points="320.09,140.2,325.883,148.165,324.4197,142.7007,329.8841,141.2374,320.09,140.2" style="stroke:#FF0000;stroke-width:1.0;"/><text fill="#FF0000" font-family="sans-serif" font-size="13" lengthAdjust="spacingAndGlyphs" textLength="113" x="399.65" y="184.4951">[type = Long cours]</text><!--MD5=[49eb724ff6fd7a957fd5790e9e248f1a]
link s2 to Case2--><path d="M323.92,450.94 C315.56,392.65 290.27,216.42 280.03,145.02 " fill="none" id="s2-to-Case2" style="stroke:#008000;stroke-width:1.0;"/><polygon fill="#008000" points="279.32,140.07,276.6215,149.542,280.0211,145.0206,284.5425,148.4202,279.32,140.07" style="stroke:#008000;stroke-width:1.0;"/><text fill="#008000" font-family="sans-serif" font-size="13" lengthAdjust="spacingAndGlyphs" textLength="105" x="301.65" y="286.4951">[type=Long cours]</text><!--MD5=[7fb63b11b6c3a68e4bc0e99e4862cb84]
link Case2 to s2--><path d="M193.31,137.95 C112.28,165.72 6,217.51 45.65,290 C92.22,375.13 198.13,425.91 265.8,450.85 " fill="none" id="Case2-to-s2" style="stroke:#FF0000;stroke-width:1.0;"/><polygon fill="#FF0000" points="270.6,452.6,263.5155,445.7582,265.9027,450.8867,260.7742,453.2739,270.6,452.6" style="stroke:#FF0000;stroke-width:1.0;"/><text fill="#FF0000" font-family="sans-serif" font-size="13" lengthAdjust="spacingAndGlyphs" textLength="236" x="46.65" y="286.4951">[pourcentage actuel &lt; pourcentage seuil]</text><!--MD5=[feecdfac5bcfd1ac637cb1a50c063d90]
link s2 to *end--><path d="M326.65,491.31 C326.65,507.89 326.65,531.41 326.65,546.44 " fill="none" id="s2-to-*end" style="stroke:#000000;stroke-width:1.0;"/><polygon fill="#000000" points="326.65,551.56,330.65,542.56,326.65,546.56,322.65,542.56,326.65,551.56" style="stroke:#000000;stroke-width:1.0;"/><!--MD5=[8e104f77d65e2d44816dee192d5391d9]
link Case1 to s2--><path d="M435.72,373.18 C411.07,395.07 375.97,426.22 352.3,447.23 " fill="none" id="Case1-to-s2" style="stroke:#0000FF;stroke-width:1.0;"/><polygon fill="#0000FF" points="348.31,450.77,357.6934,447.7781,352.0463,447.4473,352.3771,441.8001,348.31,450.77" style="stroke:#0000FF;stroke-width:1.0;"/><text fill="#0000FF" font-family="sans-serif" font-size="13" lengthAdjust="spacingAndGlyphs" textLength="158" x="401.65" y="417.4951">[date actuelle &gt; date de fin]</text><!--MD5=[f15dbae706cd09d1042a4459e70ff771]
link Case2 to s1--><path d="M357.83,113.5 C433.66,113.5 546.11,113.5 624.86,113.5 " fill="none" id="Case2-to-s1" style="stroke:#FF0000;stroke-width:1.0;"/><polygon fill="#FF0000" points="630,113.5,621,109.5,625,113.5,621,117.5,630,113.5" style="stroke:#FF0000;stroke-width:1.0;"/><text fill="#FF0000" font-family="sans-serif" font-size="13" lengthAdjust="spacingAndGlyphs" textLength="236" x="375.9" y="106.9951">[pourcentage actuel &gt; pourcentage seuil]</text><!--MD5=[9d7321cd0581d7b0ffa9a2749171bb61]
@startuml TaskLate

skinparam component{
    ArrowColor black
}

state "Tâche n'est pas en retard" as s1
state "Tâche en retard" as s2
state "Vérifier la date de fin" as Case1
state "Vérifier le pourcentage" as Case2
'state f1 <<fork>>
'state j1 <<join>>
state c1 <<choice>>

Case1: do/Vérifie la date
Case2: do/Vérifie le pourcentage

hide empty description
'Comment the following to have a vertical view:
'left to right direction

[*]- ->s1
s1- ->c1
c1-[#blue]-> Case1 : <color:blue>[type = Ponctuel]
c1-[#red]-> Case2 : <color:red>[type = Long cours]
s2 -[#green]-> Case2: <color:green>[type=Long cours]
s2- ->[*]

Case1 -[#blue]-> s2: <color:blue>[date actuelle > date de fin]
Case2 -right[#red]-> s2: <color:red>[pourcentage actuel < pourcentage seuil]
Case2 -right[#red]-> s1: <color:red>[pourcentage actuel > pourcentage seuil]

@enduml

@startuml TaskLate

skinparam component{
    ArrowColor black
}

state "Tâche n'est pas en retard" as s1
state "Tâche en retard" as s2
state "Vérifier la date de fin" as Case1
state "Vérifier le pourcentage" as Case2
state c1 <<choice>>

Case1: do/Vérifie la date
Case2: do/Vérifie le pourcentage

hide empty description

[*]- ->s1
s1- ->c1
c1-[#blue]-> Case1 : <color:blue>[type = Ponctuel]
c1-[#red]-> Case2 : <color:red>[type = Long cours]
s2 -[#green]-> Case2: <color:green>[type=Long cours]
s2- ->[*]

Case1 -[#blue]-> s2: <color:blue>[date actuelle > date de fin]
Case2 -right[#red]-> s2: <color:red>[pourcentage actuel < pourcentage seuil]
Case2 -right[#red]-> s1: <color:red>[pourcentage actuel > pourcentage seuil]

@enduml

PlantUML version 1.2020.22(Sun Dec 06 10:36:27 CET 2020)
(GPL source distribution)
Java Runtime: Java(TM) SE Runtime Environment
JVM: Java HotSpot(TM) 64-Bit Server VM
Default Encoding: Cp1252
Language: fr
Country: FR
--></g></svg>