<?xml version="1.0" encoding="UTF-8" standalone="no"?><svg xmlns="http://www.w3.org/2000/svg" xmlns:xlink="http://www.w3.org/1999/xlink" contentScriptType="application/ecmascript" contentStyleType="text/css" height="1099px" preserveAspectRatio="none" style="width:825px;height:1099px;" version="1.1" viewBox="0 0 825 1099" width="825px" zoomAndPan="magnify"><defs><filter height="300%" id="fnsyt2248g3cz" width="300%" x="-1" y="-1"><feGaussianBlur result="blurOut" stdDeviation="2.0"/><feColorMatrix in="blurOut" result="blurOut2" type="matrix" values="0 0 0 0 0 0 0 0 0 0 0 0 0 0 0 0 0 0 .4 0"/><feOffset dx="4.0" dy="4.0" in="blurOut2" result="blurOut3"/><feBlend in="SourceGraphic" in2="blurOut3" mode="normal"/></filter></defs><g><rect fill="#FFFFFF" filter="url(#fnsyt2248g3cz)" height="829.4297" style="stroke:#A80036;stroke-width:1.0;" width="10" x="275" y="166.3125"/><rect fill="#FFFFFF" filter="url(#fnsyt2248g3cz)" height="456.2422" style="stroke:#A80036;stroke-width:1.0;" width="10" x="515" y="196.6641"/><rect fill="#FFFFFF" filter="url(#fnsyt2248g3cz)" height="162.5938" style="stroke:#A80036;stroke-width:1.0;" width="10" x="744" y="459.9609"/><rect fill="#FFFFFF" filter="url(#fnsyt2248g3cz)" height="486.5938" style="stroke:#000000;stroke-width:2.0;" width="798.5" x="10" y="211.6641"/><rect fill="#FFFFFF" height="407.5391" style="stroke:none;stroke-width:1.0;" width="798.5" x="10" y="290.7188"/><rect fill="#FFFFFF" filter="url(#fnsyt2248g3cz)" height="216.2969" style="stroke:#000000;stroke-width:2.0;" width="776.5" x="22" y="474.9609"/><rect fill="#FFFFFF" height="106.8906" style="stroke:none;stroke-width:1.0;" width="776.5" x="22" y="584.3672"/><rect fill="#FFFFFF" filter="url(#fnsyt2248g3cz)" height="137.0781" style="stroke:#000000;stroke-width:2.0;" width="471" x="12" y="812.9609"/><rect fill="#FFFFFF" filter="url(#fnsyt2248g3cz)" height="48.7031" style="stroke:#000000;stroke-width:2.0;" width="311.5" x="22" y="894.3359"/><line style="stroke:#A80036;stroke-width:1.0;stroke-dasharray:5.0,5.0;" x1="66" x2="66" y1="89.6094" y2="1013.7422"/><line style="stroke:#A80036;stroke-width:1.0;stroke-dasharray:5.0,5.0;" x1="279.5" x2="279.5" y1="89.6094" y2="1013.7422"/><line style="stroke:#A80036;stroke-width:1.0;stroke-dasharray:5.0,5.0;" x1="520" x2="520" y1="89.6094" y2="1013.7422"/><line style="stroke:#A80036;stroke-width:1.0;stroke-dasharray:5.0,5.0;" x1="748.5" x2="748.5" y1="89.6094" y2="1013.7422"/><text fill="#000000" font-family="sans-serif" font-size="14" lengthAdjust="spacingAndGlyphs" textLength="62" x="32" y="86.5332">Utilisateur</text><ellipse cx="66" cy="15" fill="#FEFECE" filter="url(#fnsyt2248g3cz)" rx="8" ry="8" style="stroke:#A80036;stroke-width:2.0;"/><path d="M66,23 L66,50 M53,31 L79,31 M66,50 L53,65 M66,50 L79,65 " fill="none" filter="url(#fnsyt2248g3cz)" style="stroke:#A80036;stroke-width:2.0;"/><text fill="#000000" font-family="sans-serif" font-size="14" lengthAdjust="spacingAndGlyphs" textLength="62" x="32" y="1027.2754">Utilisateur</text><ellipse cx="66" cy="1040.3516" fill="#FEFECE" filter="url(#fnsyt2248g3cz)" rx="8" ry="8" style="stroke:#A80036;stroke-width:2.0;"/><path d="M66,1048.3516 L66,1075.3516 M53,1056.3516 L79,1056.3516 M66,1075.3516 L53,1090.3516 M66,1075.3516 L79,1090.3516 " fill="none" filter="url(#fnsyt2248g3cz)" style="stroke:#A80036;stroke-width:2.0;"/><rect fill="#FEFECE" filter="url(#fnsyt2248g3cz)" height="31.6094" style="stroke:#A80036;stroke-width:1.5;" width="83" x="236.5" y="53"/><text fill="#000000" font-family="sans-serif" font-size="14" lengthAdjust="spacingAndGlyphs" textLength="69" x="243.5" y="74.5332">Application</text><rect fill="#FEFECE" filter="url(#fnsyt2248g3cz)" height="31.6094" style="stroke:#A80036;stroke-width:1.5;" width="83" x="236.5" y="1012.7422"/><text fill="#000000" font-family="sans-serif" font-size="14" lengthAdjust="spacingAndGlyphs" textLength="69" x="243.5" y="1034.2754">Application</text><rect fill="#FEFECE" filter="url(#fnsyt2248g3cz)" height="31.6094" style="stroke:#A80036;stroke-width:1.5;" width="64" x="486" y="53"/><text fill="#000000" font-family="sans-serif" font-size="14" lengthAdjust="spacingAndGlyphs" textLength="50" x="493" y="74.5332">Serveur</text><rect fill="#FEFECE" filter="url(#fnsyt2248g3cz)" height="31.6094" style="stroke:#A80036;stroke-width:1.5;" width="64" x="486" y="1012.7422"/><text fill="#000000" font-family="sans-serif" font-size="14" lengthAdjust="spacingAndGlyphs" textLength="50" x="493" y="1034.2754">Serveur</text><rect fill="#FEFECE" filter="url(#fnsyt2248g3cz)" height="31.6094" style="stroke:#A80036;stroke-width:1.5;" width="75" x="709.5" y="53"/><text fill="#000000" font-family="sans-serif" font-size="14" lengthAdjust="spacingAndGlyphs" textLength="61" x="716.5" y="74.5332">Database</text><rect fill="#FEFECE" filter="url(#fnsyt2248g3cz)" height="31.6094" style="stroke:#A80036;stroke-width:1.5;" width="75" x="709.5" y="1012.7422"/><text fill="#000000" font-family="sans-serif" font-size="14" lengthAdjust="spacingAndGlyphs" textLength="61" x="716.5" y="1034.2754">Database</text><rect fill="#FFFFFF" filter="url(#fnsyt2248g3cz)" height="829.4297" style="stroke:#A80036;stroke-width:1.0;" width="10" x="275" y="166.3125"/><rect fill="#FFFFFF" filter="url(#fnsyt2248g3cz)" height="456.2422" style="stroke:#A80036;stroke-width:1.0;" width="10" x="515" y="196.6641"/><rect fill="#FFFFFF" filter="url(#fnsyt2248g3cz)" height="162.5938" style="stroke:#A80036;stroke-width:1.0;" width="10" x="744" y="459.9609"/><rect fill="#EEEEEE" filter="url(#fnsyt2248g3cz)" height="3" style="stroke:#EEEEEE;stroke-width:1.0;" width="818.5" x="0" y="120.7852"/><line style="stroke:#000000;stroke-width:1.0;" x1="0" x2="818.5" y1="120.7852" y2="120.7852"/><line style="stroke:#000000;stroke-width:1.0;" x1="0" x2="818.5" y1="123.7852" y2="123.7852"/><rect fill="#EEEEEE" filter="url(#fnsyt2248g3cz)" height="24.3516" style="stroke:#000000;stroke-width:2.0;" width="107" x="355.75" y="109.6094"/><text fill="#000000" font-family="sans-serif" font-size="13" font-weight="bold" lengthAdjust="spacingAndGlyphs" textLength="89" x="361.75" y="127.1045">Page de bilan</text><polygon fill="#A80036" points="263,162.3125,273,166.3125,263,170.3125,267,166.3125" style="stroke:#A80036;stroke-width:1.0;"/><line style="stroke:#A80036;stroke-width:1.0;" x1="66" x2="269" y1="166.3125" y2="166.3125"/><text fill="#000000" font-family="sans-serif" font-size="13" lengthAdjust="spacingAndGlyphs" textLength="162" x="73" y="161.4561">Naviguer vers la vue du bilan</text><polygon fill="#A80036" points="503,192.6641,513,196.6641,503,200.6641,507,196.6641" style="stroke:#A80036;stroke-width:1.0;"/><line style="stroke:#A80036;stroke-width:1.0;" x1="285" x2="509" y1="196.6641" y2="196.6641"/><text fill="#000000" font-family="sans-serif" font-size="13" lengthAdjust="spacingAndGlyphs" textLength="197" x="292" y="191.8076">Requête GET de la page de la vue</text><path d="M10,211.6641 L71,211.6641 L71,219.6641 L61,229.6641 L10,229.6641 L10,211.6641 " fill="#EEEEEE" style="stroke:#000000;stroke-width:1.0;"/><rect fill="none" height="486.5938" style="stroke:#000000;stroke-width:2.0;" width="798.5" x="10" y="211.6641"/><text fill="#000000" font-family="sans-serif" font-size="13" font-weight="bold" lengthAdjust="spacingAndGlyphs" textLength="16" x="25" y="226.1592">alt</text><text fill="#000000" font-family="sans-serif" font-size="11" font-weight="bold" lengthAdjust="spacingAndGlyphs" textLength="40" x="86" y="225.083">[Echec]</text><polygon fill="#A80036" points="296,248.3672,286,252.3672,296,256.3672,292,252.3672" style="stroke:#A80036;stroke-width:1.0;"/><line style="stroke:#A80036;stroke-width:1.0;stroke-dasharray:2.0,2.0;" x1="290" x2="514" y1="252.3672" y2="252.3672"/><text fill="#000000" font-family="sans-serif" font-size="13" lengthAdjust="spacingAndGlyphs" textLength="119" x="302" y="247.5107">Requête non-résolue</text><polygon fill="#A80036" points="77,278.7188,67,282.7188,77,286.7188,73,282.7188" style="stroke:#A80036;stroke-width:1.0;"/><line style="stroke:#A80036;stroke-width:1.0;" x1="71" x2="274" y1="282.7188" y2="282.7188"/><text fill="#000000" font-family="sans-serif" font-size="13" lengthAdjust="spacingAndGlyphs" textLength="146" x="83" y="277.8623">Afficher une page d'erreur</text><line style="stroke:#000000;stroke-width:1.0;stroke-dasharray:2.0,2.0;" x1="10" x2="808.5" y1="291.7188" y2="291.7188"/><text fill="#000000" font-family="sans-serif" font-size="11" font-weight="bold" lengthAdjust="spacingAndGlyphs" textLength="48" x="15" y="303.1377">[Succès]</text><polygon fill="#A80036" points="296,324.9063,286,328.9063,296,332.9063,292,328.9063" style="stroke:#A80036;stroke-width:1.0;"/><line style="stroke:#A80036;stroke-width:1.0;stroke-dasharray:2.0,2.0;" x1="290" x2="514" y1="328.9063" y2="328.9063"/><text fill="#000000" font-family="sans-serif" font-size="13" lengthAdjust="spacingAndGlyphs" textLength="94" x="302" y="324.0498">Requête résolue</text><path d="M20,371.9063 L20,397.9063 L108,397.9063 L108,381.9063 L98,371.9063 L20,371.9063 " fill="#FBFB77" filter="url(#fnsyt2248g3cz)" style="stroke:#A80036;stroke-width:1.0;"/><path d="M98,371.9063 L98,381.9063 L108,381.9063 L98,371.9063 " fill="#FBFB77" style="stroke:#A80036;stroke-width:1.0;"/><text fill="#000000" font-family="sans-serif" font-size="13" lengthAdjust="spacingAndGlyphs" textLength="67" x="26" y="390.4014">Bilan global</text><polygon fill="#A80036" points="503,425.6094,513,429.6094,503,433.6094,507,429.6094" style="stroke:#A80036;stroke-width:1.0;"/><line style="stroke:#A80036;stroke-width:1.0;" x1="285" x2="509" y1="429.6094" y2="429.6094"/><text fill="#000000" font-family="sans-serif" font-size="13" lengthAdjust="spacingAndGlyphs" textLength="206" x="292" y="424.7529">Requête GET de la liste des tâches</text><polygon fill="#A80036" points="732,455.9609,742,459.9609,732,463.9609,736,459.9609" style="stroke:#A80036;stroke-width:1.0;"/><line style="stroke:#A80036;stroke-width:1.0;" x1="525" x2="738" y1="459.9609" y2="459.9609"/><text fill="#000000" font-family="sans-serif" font-size="13" lengthAdjust="spacingAndGlyphs" textLength="200" x="532" y="455.1045">Récupérer la collection des tâches</text><path d="M22,474.9609 L83,474.9609 L83,482.9609 L73,492.9609 L22,492.9609 L22,474.9609 " fill="#EEEEEE" style="stroke:#000000;stroke-width:1.0;"/><rect fill="none" height="216.2969" style="stroke:#000000;stroke-width:2.0;" width="776.5" x="22" y="474.9609"/><text fill="#000000" font-family="sans-serif" font-size="13" font-weight="bold" lengthAdjust="spacingAndGlyphs" textLength="16" x="37" y="489.4561">alt</text><text fill="#000000" font-family="sans-serif" font-size="11" font-weight="bold" lengthAdjust="spacingAndGlyphs" textLength="48" x="98" y="488.3799">[Succès]</text><polygon fill="#A80036" points="536,511.6641,526,515.6641,536,519.6641,532,515.6641" style="stroke:#A80036;stroke-width:1.0;"/><line style="stroke:#A80036;stroke-width:1.0;stroke-dasharray:2.0,2.0;" x1="530" x2="743" y1="515.6641" y2="515.6641"/><text fill="#000000" font-family="sans-serif" font-size="13" lengthAdjust="spacingAndGlyphs" textLength="122" x="542" y="510.8076">Envoi de la collection</text><polygon fill="#A80036" points="296,542.0156,286,546.0156,296,550.0156,292,546.0156" style="stroke:#A80036;stroke-width:1.0;"/><line style="stroke:#A80036;stroke-width:1.0;stroke-dasharray:2.0,2.0;" x1="290" x2="514" y1="546.0156" y2="546.0156"/><text fill="#000000" font-family="sans-serif" font-size="13" lengthAdjust="spacingAndGlyphs" textLength="94" x="302" y="541.1592">Requête résolue</text><polygon fill="#A80036" points="77,572.3672,67,576.3672,77,580.3672,73,576.3672" style="stroke:#A80036;stroke-width:1.0;"/><line style="stroke:#A80036;stroke-width:1.0;" x1="71" x2="274" y1="576.3672" y2="576.3672"/><text fill="#000000" font-family="sans-serif" font-size="13" lengthAdjust="spacingAndGlyphs" textLength="89" x="83" y="571.5107">Afficher la page</text><line style="stroke:#000000;stroke-width:1.0;stroke-dasharray:2.0,2.0;" x1="22" x2="798.5" y1="585.3672" y2="585.3672"/><text fill="#000000" font-family="sans-serif" font-size="11" font-weight="bold" lengthAdjust="spacingAndGlyphs" textLength="40" x="27" y="596.7861">[Echec]</text><line style="stroke:#A80036;stroke-width:2.0;" x1="531" x2="541" y1="617.5547" y2="627.5547"/><line style="stroke:#A80036;stroke-width:2.0;" x1="531" x2="541" y1="627.5547" y2="617.5547"/><line style="stroke:#A80036;stroke-width:1.0;stroke-dasharray:2.0,2.0;" x1="537" x2="748" y1="622.5547" y2="622.5547"/><text fill="#000000" font-family="sans-serif" font-size="13" lengthAdjust="spacingAndGlyphs" textLength="93" x="542" y="617.6982">Echec de l'envoi</text><polygon fill="#A80036" points="296,648.9063,286,652.9063,296,656.9063,292,652.9063" style="stroke:#A80036;stroke-width:1.0;"/><line style="stroke:#A80036;stroke-width:1.0;stroke-dasharray:2.0,2.0;" x1="290" x2="519" y1="652.9063" y2="652.9063"/><text fill="#000000" font-family="sans-serif" font-size="13" lengthAdjust="spacingAndGlyphs" textLength="119" x="302" y="648.0498">Requête non-résolue</text><polygon fill="#A80036" points="77,679.2578,67,683.2578,77,687.2578,73,683.2578" style="stroke:#A80036;stroke-width:1.0;"/><line style="stroke:#A80036;stroke-width:1.0;" x1="71" x2="274" y1="683.2578" y2="683.2578"/><text fill="#000000" font-family="sans-serif" font-size="13" lengthAdjust="spacingAndGlyphs" textLength="185" x="83" y="678.4014">Afficher la page sans les tâches</text><path d="M7,740.2578 L7,766.2578 L120,766.2578 L120,750.2578 L110,740.2578 L7,740.2578 " fill="#FBFB77" filter="url(#fnsyt2248g3cz)" style="stroke:#A80036;stroke-width:1.0;"/><path d="M110,740.2578 L110,750.2578 L120,750.2578 L110,740.2578 " fill="#FBFB77" style="stroke:#A80036;stroke-width:1.0;"/><text fill="#000000" font-family="sans-serif" font-size="13" lengthAdjust="spacingAndGlyphs" textLength="92" x="13" y="758.7529">Bilan périodique</text><polygon fill="#A80036" points="263,793.9609,273,797.9609,263,801.9609,267,797.9609" style="stroke:#A80036;stroke-width:1.0;"/><line style="stroke:#A80036;stroke-width:1.0;" x1="66" x2="269" y1="797.9609" y2="797.9609"/><text fill="#000000" font-family="sans-serif" font-size="13" lengthAdjust="spacingAndGlyphs" textLength="124" x="73" y="793.1045">Introduire une période</text><path d="M12,812.9609 L85,812.9609 L85,820.9609 L75,830.9609 L12,830.9609 L12,812.9609 " fill="#EEEEEE" style="stroke:#000000;stroke-width:1.0;"/><rect fill="none" height="137.0781" style="stroke:#000000;stroke-width:2.0;" width="471" x="12" y="812.9609"/><text fill="#000000" font-family="sans-serif" font-size="13" font-weight="bold" lengthAdjust="spacingAndGlyphs" textLength="28" x="27" y="827.4561">loop</text><text fill="#000000" font-family="sans-serif" font-size="11" font-weight="bold" lengthAdjust="spacingAndGlyphs" textLength="135" x="100" y="826.3799">[Tant qu'il y a une erreur</text><text fill="#000000" font-family="sans-serif" font-size="11" font-weight="bold" lengthAdjust="spacingAndGlyphs" textLength="81" x="100" y="840.2158">sur la période]</text><line style="stroke:#A80036;stroke-width:1.0;" x1="285" x2="327" y1="866.3359" y2="866.3359"/><line style="stroke:#A80036;stroke-width:1.0;" x1="327" x2="327" y1="866.3359" y2="879.3359"/><line style="stroke:#A80036;stroke-width:1.0;" x1="286" x2="327" y1="879.3359" y2="879.3359"/><polygon fill="#A80036" points="296,875.3359,286,879.3359,296,883.3359,292,879.3359" style="stroke:#A80036;stroke-width:1.0;"/><text fill="#000000" font-family="sans-serif" font-size="13" lengthAdjust="spacingAndGlyphs" textLength="179" x="292" y="861.4795">Vérifier la cohérence des dates</text><path d="M22,894.3359 L83,894.3359 L83,902.3359 L73,912.3359 L22,912.3359 L22,894.3359 " fill="#EEEEEE" style="stroke:#000000;stroke-width:1.0;"/><rect fill="none" height="48.7031" style="stroke:#000000;stroke-width:2.0;" width="311.5" x="22" y="894.3359"/><text fill="#000000" font-family="sans-serif" font-size="13" font-weight="bold" lengthAdjust="spacingAndGlyphs" textLength="16" x="37" y="908.8311">alt</text><text fill="#000000" font-family="sans-serif" font-size="11" font-weight="bold" lengthAdjust="spacingAndGlyphs" textLength="131" x="98" y="907.7549">[Erreur dans la période]</text><polygon fill="#A80036" points="77,931.0391,67,935.0391,77,939.0391,73,935.0391" style="stroke:#A80036;stroke-width:1.0;"/><line style="stroke:#A80036;stroke-width:1.0;stroke-dasharray:2.0,2.0;" x1="71" x2="274" y1="935.0391" y2="935.0391"/><text fill="#000000" font-family="sans-serif" font-size="13" lengthAdjust="spacingAndGlyphs" textLength="164" x="83" y="930.1826">Attente de nouvelles entrées</text><polygon fill="#A80036" points="77,991.7422,67,995.7422,77,999.7422,73,995.7422" style="stroke:#A80036;stroke-width:1.0;"/><line style="stroke:#A80036;stroke-width:1.0;" x1="71" x2="279" y1="995.7422" y2="995.7422"/><text fill="#000000" font-family="sans-serif" font-size="13" lengthAdjust="spacingAndGlyphs" textLength="107" x="83" y="974.5342">Afficher les tâches</text><text fill="#000000" font-family="sans-serif" font-size="13" lengthAdjust="spacingAndGlyphs" textLength="167" x="83" y="990.8857">correspondantes à la période</text><!--MD5=[3303431b9c8a0e841285cfde94087670]
@startuml Bilan

actor Utilisateur
participant Application
participant Serveur
participant Database

== Page de bilan ==
Utilisateur -> Application: Naviguer vers la vue du bilan
activate Application
Application -> Serveur: Requête GET de la page de la vue
activate Serveur
alt Echec
    Serveur - -> Application: Requête non-résolue
    Application -> Utilisateur: Afficher une page d'erreur
else Succès
    Serveur - -> Application: Requête résolue
    ||30||
    'Afficher le bilan global
    note over Utilisateur: Bilan global
    Application -> Serveur: Requête GET de la liste des tâches
    Serveur -> Database: Récupérer la collection des tâches
    activate Database
    alt Succès
        Database - -> Serveur: Envoi de la collection
        Serveur - -> Application: Requête résolue
        Application -> Utilisateur: Afficher la page
    else Echec
        Database - -x Serveur: Echec de l'envoi
        deactivate Database
        Serveur - -> Application: Requête non-résolue
        deactivate Serveur
        Application -> Utilisateur: Afficher la page sans les tâches
    end
end

||30||
'Afficher le bilan périodique
note over Utilisateur: Bilan périodique
Utilisateur -> Application: Introduire une période
loop Tant qu'il y a une erreur \nsur la période
    Application -> Application: Vérifier la cohérence des dates
    alt Erreur dans la période
        Application - -> Utilisateur:Attente de nouvelles entrées
    end
end
Application -> Utilisateur: Afficher les tâches \ncorrespondantes à la période

deactivate Application
@enduml

@startuml Bilan

actor Utilisateur
participant Application
participant Serveur
participant Database

== Page de bilan ==
Utilisateur -> Application: Naviguer vers la vue du bilan
activate Application
Application -> Serveur: Requête GET de la page de la vue
activate Serveur
alt Echec
    Serveur - -> Application: Requête non-résolue
    Application -> Utilisateur: Afficher une page d'erreur
else Succès
    Serveur - -> Application: Requête résolue
    ||30||
    note over Utilisateur: Bilan global
    Application -> Serveur: Requête GET de la liste des tâches
    Serveur -> Database: Récupérer la collection des tâches
    activate Database
    alt Succès
        Database - -> Serveur: Envoi de la collection
        Serveur - -> Application: Requête résolue
        Application -> Utilisateur: Afficher la page
    else Echec
        Database - -x Serveur: Echec de l'envoi
        deactivate Database
        Serveur - -> Application: Requête non-résolue
        deactivate Serveur
        Application -> Utilisateur: Afficher la page sans les tâches
    end
end

||30||
note over Utilisateur: Bilan périodique
Utilisateur -> Application: Introduire une période
loop Tant qu'il y a une erreur \nsur la période
    Application -> Application: Vérifier la cohérence des dates
    alt Erreur dans la période
        Application - -> Utilisateur:Attente de nouvelles entrées
    end
end
Application -> Utilisateur: Afficher les tâches \ncorrespondantes à la période

deactivate Application
@enduml

PlantUML version 1.2020.22(Sun Dec 06 10:36:27 CET 2020)
(GPL source distribution)
Java Runtime: Java(TM) SE Runtime Environment
JVM: Java HotSpot(TM) 64-Bit Server VM
Default Encoding: Cp1252
Language: fr
Country: FR
--></g></svg>