<?xml version="1.0" encoding="UTF-8" standalone="no"?><svg xmlns="http://www.w3.org/2000/svg" xmlns:xlink="http://www.w3.org/1999/xlink" contentScriptType="application/ecmascript" contentStyleType="text/css" height="1798px" preserveAspectRatio="none" style="width:947px;height:1798px;" version="1.1" viewBox="0 0 947 1798" width="947px" zoomAndPan="magnify"><defs><filter height="300%" id="f1kji0q3rgbjno" width="300%" x="-1" y="-1"><feGaussianBlur result="blurOut" stdDeviation="2.0"/><feColorMatrix in="blurOut" result="blurOut2" type="matrix" values="0 0 0 0 0 0 0 0 0 0 0 0 0 0 0 0 0 0 .4 0"/><feOffset dx="4.0" dy="4.0" in="blurOut2" result="blurOut3"/><feBlend in="SourceGraphic" in2="blurOut3" mode="normal"/></filter></defs><g><rect fill="#FFFFFF" filter="url(#f1kji0q3rgbjno)" height="1528.3594" style="stroke:#A80036;stroke-width:1.0;" width="10" x="375" y="166.3125"/><rect fill="#FFFFFF" filter="url(#f1kji0q3rgbjno)" height="132.2422" style="stroke:#A80036;stroke-width:1.0;" width="10" x="614" y="196.6641"/><rect fill="#FFFFFF" filter="url(#f1kji0q3rgbjno)" height="91.0547" style="stroke:#A80036;stroke-width:1.0;" width="10" x="614" y="635.7188"/><rect fill="#FFFFFF" filter="url(#f1kji0q3rgbjno)" height="245.1641" style="stroke:#A80036;stroke-width:1.0;" width="10" x="614" y="996.2344"/><rect fill="#FFFFFF" filter="url(#f1kji0q3rgbjno)" height="228.8125" style="stroke:#A80036;stroke-width:1.0;" width="10" x="614" y="1419.1563"/><rect fill="#FFFFFF" filter="url(#f1kji0q3rgbjno)" height="30.3516" style="stroke:#A80036;stroke-width:1.0;" width="10" x="891" y="666.0703"/><rect fill="#FFFFFF" filter="url(#f1kji0q3rgbjno)" height="30.3516" style="stroke:#A80036;stroke-width:1.0;" width="10" x="891" y="1042.9375"/><rect fill="#FFFFFF" filter="url(#f1kji0q3rgbjno)" height="30.3516" style="stroke:#A80036;stroke-width:1.0;" width="10" x="891" y="1180.6953"/><rect fill="#FFFFFF" filter="url(#f1kji0q3rgbjno)" height="30.3516" style="stroke:#A80036;stroke-width:1.0;" width="10" x="891" y="1449.5078"/><rect fill="#FFFFFF" filter="url(#f1kji0q3rgbjno)" height="30.3516" style="stroke:#A80036;stroke-width:1.0;" width="10" x="891" y="1587.2656"/><rect fill="#FFFFFF" filter="url(#f1kji0q3rgbjno)" height="155.5938" style="stroke:#000000;stroke-width:2.0;" width="608" x="55" y="211.6641"/><rect fill="#FFFFFF" height="76.5391" style="stroke:none;stroke-width:1.0;" width="608" x="55" y="290.7188"/><rect fill="#FFFFFF" filter="url(#f1kji0q3rgbjno)" height="124.4063" style="stroke:#000000;stroke-width:2.0;" width="503" x="45" y="481.9609"/><rect fill="#FFFFFF" filter="url(#f1kji0q3rgbjno)" height="48.7031" style="stroke:#000000;stroke-width:2.0;" width="378.5" x="55" y="550.6641"/><rect fill="#FFFFFF" filter="url(#f1kji0q3rgbjno)" height="124.4063" style="stroke:#000000;stroke-width:2.0;" width="503" x="45" y="842.4766"/><rect fill="#FFFFFF" filter="url(#f1kji0q3rgbjno)" height="48.7031" style="stroke:#000000;stroke-width:2.0;" width="378.5" x="55" y="911.1797"/><line style="stroke:#A80036;stroke-width:1.0;stroke-dasharray:5.0,5.0;" x1="99" x2="99" y1="89.6094" y2="1712.6719"/><line style="stroke:#A80036;stroke-width:1.0;stroke-dasharray:5.0,5.0;" x1="379.5" x2="379.5" y1="89.6094" y2="1712.6719"/><line style="stroke:#A80036;stroke-width:1.0;stroke-dasharray:5.0,5.0;" x1="619" x2="619" y1="89.6094" y2="1712.6719"/><line style="stroke:#A80036;stroke-width:1.0;stroke-dasharray:5.0,5.0;" x1="895.5" x2="895.5" y1="89.6094" y2="1712.6719"/><text fill="#000000" font-family="sans-serif" font-size="14" lengthAdjust="spacingAndGlyphs" textLength="62" x="65" y="86.5332">Utilisateur</text><ellipse cx="99" cy="15" fill="#FEFECE" filter="url(#f1kji0q3rgbjno)" rx="8" ry="8" style="stroke:#A80036;stroke-width:2.0;"/><path d="M99,23 L99,50 M86,31 L112,31 M99,50 L86,65 M99,50 L112,65 " fill="none" filter="url(#f1kji0q3rgbjno)" style="stroke:#A80036;stroke-width:2.0;"/><text fill="#000000" font-family="sans-serif" font-size="14" lengthAdjust="spacingAndGlyphs" textLength="62" x="65" y="1726.2051">Utilisateur</text><ellipse cx="99" cy="1739.2813" fill="#FEFECE" filter="url(#f1kji0q3rgbjno)" rx="8" ry="8" style="stroke:#A80036;stroke-width:2.0;"/><path d="M99,1747.2813 L99,1774.2813 M86,1755.2813 L112,1755.2813 M99,1774.2813 L86,1789.2813 M99,1774.2813 L112,1789.2813 " fill="none" filter="url(#f1kji0q3rgbjno)" style="stroke:#A80036;stroke-width:2.0;"/><rect fill="#FEFECE" filter="url(#f1kji0q3rgbjno)" height="31.6094" style="stroke:#A80036;stroke-width:1.5;" width="83" x="336.5" y="53"/><text fill="#000000" font-family="sans-serif" font-size="14" lengthAdjust="spacingAndGlyphs" textLength="69" x="343.5" y="74.5332">Application</text><rect fill="#FEFECE" filter="url(#f1kji0q3rgbjno)" height="31.6094" style="stroke:#A80036;stroke-width:1.5;" width="83" x="336.5" y="1711.6719"/><text fill="#000000" font-family="sans-serif" font-size="14" lengthAdjust="spacingAndGlyphs" textLength="69" x="343.5" y="1733.2051">Application</text><rect fill="#FEFECE" filter="url(#f1kji0q3rgbjno)" height="31.6094" style="stroke:#A80036;stroke-width:1.5;" width="64" x="585" y="53"/><text fill="#000000" font-family="sans-serif" font-size="14" lengthAdjust="spacingAndGlyphs" textLength="50" x="592" y="74.5332">Serveur</text><rect fill="#FEFECE" filter="url(#f1kji0q3rgbjno)" height="31.6094" style="stroke:#A80036;stroke-width:1.5;" width="64" x="585" y="1711.6719"/><text fill="#000000" font-family="sans-serif" font-size="14" lengthAdjust="spacingAndGlyphs" textLength="50" x="592" y="1733.2051">Serveur</text><rect fill="#FEFECE" filter="url(#f1kji0q3rgbjno)" height="31.6094" style="stroke:#A80036;stroke-width:1.5;" width="75" x="856.5" y="53"/><text fill="#000000" font-family="sans-serif" font-size="14" lengthAdjust="spacingAndGlyphs" textLength="61" x="863.5" y="74.5332">Database</text><rect fill="#FEFECE" filter="url(#f1kji0q3rgbjno)" height="31.6094" style="stroke:#A80036;stroke-width:1.5;" width="75" x="856.5" y="1711.6719"/><text fill="#000000" font-family="sans-serif" font-size="14" lengthAdjust="spacingAndGlyphs" textLength="61" x="863.5" y="1733.2051">Database</text><rect fill="#FFFFFF" filter="url(#f1kji0q3rgbjno)" height="1528.3594" style="stroke:#A80036;stroke-width:1.0;" width="10" x="375" y="166.3125"/><rect fill="#FFFFFF" filter="url(#f1kji0q3rgbjno)" height="132.2422" style="stroke:#A80036;stroke-width:1.0;" width="10" x="614" y="196.6641"/><rect fill="#FFFFFF" filter="url(#f1kji0q3rgbjno)" height="91.0547" style="stroke:#A80036;stroke-width:1.0;" width="10" x="614" y="635.7188"/><rect fill="#FFFFFF" filter="url(#f1kji0q3rgbjno)" height="245.1641" style="stroke:#A80036;stroke-width:1.0;" width="10" x="614" y="996.2344"/><rect fill="#FFFFFF" filter="url(#f1kji0q3rgbjno)" height="228.8125" style="stroke:#A80036;stroke-width:1.0;" width="10" x="614" y="1419.1563"/><rect fill="#FFFFFF" filter="url(#f1kji0q3rgbjno)" height="30.3516" style="stroke:#A80036;stroke-width:1.0;" width="10" x="891" y="666.0703"/><rect fill="#FFFFFF" filter="url(#f1kji0q3rgbjno)" height="30.3516" style="stroke:#A80036;stroke-width:1.0;" width="10" x="891" y="1042.9375"/><rect fill="#FFFFFF" filter="url(#f1kji0q3rgbjno)" height="30.3516" style="stroke:#A80036;stroke-width:1.0;" width="10" x="891" y="1180.6953"/><rect fill="#FFFFFF" filter="url(#f1kji0q3rgbjno)" height="30.3516" style="stroke:#A80036;stroke-width:1.0;" width="10" x="891" y="1449.5078"/><rect fill="#FFFFFF" filter="url(#f1kji0q3rgbjno)" height="30.3516" style="stroke:#A80036;stroke-width:1.0;" width="10" x="891" y="1587.2656"/><rect fill="#EEEEEE" filter="url(#f1kji0q3rgbjno)" height="3" style="stroke:#EEEEEE;stroke-width:1.0;" width="940.5" x="0" y="120.7852"/><line style="stroke:#000000;stroke-width:1.0;" x1="0" x2="940.5" y1="120.7852" y2="120.7852"/><line style="stroke:#000000;stroke-width:1.0;" x1="0" x2="940.5" y1="123.7852" y2="123.7852"/><rect fill="#EEEEEE" filter="url(#f1kji0q3rgbjno)" height="24.3516" style="stroke:#000000;stroke-width:2.0;" width="221" x="359.75" y="109.6094"/><text fill="#000000" font-family="sans-serif" font-size="13" font-weight="bold" lengthAdjust="spacingAndGlyphs" textLength="207" x="365.75" y="127.1045">Page de formulaire de catégorie</text><polygon fill="#A80036" points="363,162.3125,373,166.3125,363,170.3125,367,166.3125" style="stroke:#A80036;stroke-width:1.0;"/><line style="stroke:#A80036;stroke-width:1.0;" x1="99" x2="369" y1="166.3125" y2="166.3125"/><text fill="#000000" font-family="sans-serif" font-size="13" lengthAdjust="spacingAndGlyphs" textLength="191" x="106" y="161.4561">Naviguer vers la vue du formulaire</text><polygon fill="#A80036" points="602,192.6641,612,196.6641,602,200.6641,606,196.6641" style="stroke:#A80036;stroke-width:1.0;"/><line style="stroke:#A80036;stroke-width:1.0;" x1="385" x2="608" y1="196.6641" y2="196.6641"/><text fill="#000000" font-family="sans-serif" font-size="13" lengthAdjust="spacingAndGlyphs" textLength="197" x="392" y="191.8076">Requête GET de la page de la vue</text><path d="M55,211.6641 L116,211.6641 L116,219.6641 L106,229.6641 L55,229.6641 L55,211.6641 " fill="#EEEEEE" style="stroke:#000000;stroke-width:1.0;"/><rect fill="none" height="155.5938" style="stroke:#000000;stroke-width:2.0;" width="608" x="55" y="211.6641"/><text fill="#000000" font-family="sans-serif" font-size="13" font-weight="bold" lengthAdjust="spacingAndGlyphs" textLength="16" x="70" y="226.1592">alt</text><text fill="#000000" font-family="sans-serif" font-size="11" font-weight="bold" lengthAdjust="spacingAndGlyphs" textLength="48" x="131" y="225.083">[Succès]</text><polygon fill="#A80036" points="396,248.3672,386,252.3672,396,256.3672,392,252.3672" style="stroke:#A80036;stroke-width:1.0;"/><line style="stroke:#A80036;stroke-width:1.0;stroke-dasharray:2.0,2.0;" x1="390" x2="613" y1="252.3672" y2="252.3672"/><text fill="#000000" font-family="sans-serif" font-size="13" lengthAdjust="spacingAndGlyphs" textLength="94" x="402" y="247.5107">Requête résolue</text><polygon fill="#A80036" points="110,278.7188,100,282.7188,110,286.7188,106,282.7188" style="stroke:#A80036;stroke-width:1.0;"/><line style="stroke:#A80036;stroke-width:1.0;" x1="104" x2="374" y1="282.7188" y2="282.7188"/><text fill="#000000" font-family="sans-serif" font-size="13" lengthAdjust="spacingAndGlyphs" textLength="89" x="116" y="277.8623">Afficher la page</text><line style="stroke:#000000;stroke-width:1.0;stroke-dasharray:2.0,2.0;" x1="55" x2="663" y1="291.7188" y2="291.7188"/><text fill="#000000" font-family="sans-serif" font-size="11" font-weight="bold" lengthAdjust="spacingAndGlyphs" textLength="40" x="60" y="303.1377">[Echec]</text><polygon fill="#A80036" points="396,324.9063,386,328.9063,396,332.9063,392,328.9063" style="stroke:#A80036;stroke-width:1.0;"/><line style="stroke:#A80036;stroke-width:1.0;stroke-dasharray:2.0,2.0;" x1="390" x2="618" y1="328.9063" y2="328.9063"/><text fill="#000000" font-family="sans-serif" font-size="13" lengthAdjust="spacingAndGlyphs" textLength="119" x="402" y="324.0498">Requête non-résolue</text><polygon fill="#A80036" points="110,355.2578,100,359.2578,110,363.2578,106,359.2578" style="stroke:#A80036;stroke-width:1.0;"/><line style="stroke:#A80036;stroke-width:1.0;" x1="104" x2="374" y1="359.2578" y2="359.2578"/><text fill="#000000" font-family="sans-serif" font-size="13" lengthAdjust="spacingAndGlyphs" textLength="146" x="116" y="354.4014">Afficher une page d'erreur</text><path d="M17,409.2578 L17,435.2578 L177,435.2578 L177,419.2578 L167,409.2578 L17,409.2578 " fill="#FBFB77" filter="url(#f1kji0q3rgbjno)" style="stroke:#A80036;stroke-width:1.0;"/><path d="M167,409.2578 L167,419.2578 L177,419.2578 L167,409.2578 " fill="#FBFB77" style="stroke:#A80036;stroke-width:1.0;"/><text fill="#000000" font-family="sans-serif" font-size="13" lengthAdjust="spacingAndGlyphs" textLength="139" x="23" y="427.7529">Création d'une catégorie</text><polygon fill="#A80036" points="363,462.9609,373,466.9609,363,470.9609,367,466.9609" style="stroke:#A80036;stroke-width:1.0;"/><line style="stroke:#A80036;stroke-width:1.0;" x1="99" x2="369" y1="466.9609" y2="466.9609"/><text fill="#000000" font-family="sans-serif" font-size="13" lengthAdjust="spacingAndGlyphs" textLength="163" x="106" y="462.1045">Créer une nouvelle catégorie</text><path d="M45,481.9609 L118,481.9609 L118,489.9609 L108,499.9609 L45,499.9609 L45,481.9609 " fill="#EEEEEE" style="stroke:#000000;stroke-width:1.0;"/><rect fill="none" height="124.4063" style="stroke:#000000;stroke-width:2.0;" width="503" x="45" y="481.9609"/><text fill="#000000" font-family="sans-serif" font-size="13" font-weight="bold" lengthAdjust="spacingAndGlyphs" textLength="28" x="60" y="496.4561">loop</text><text fill="#000000" font-family="sans-serif" font-size="11" font-weight="bold" lengthAdjust="spacingAndGlyphs" textLength="204" x="133" y="495.3799">[Tant qu'il y a une erreur sur le form]</text><line style="stroke:#A80036;stroke-width:1.0;" x1="385" x2="427" y1="522.6641" y2="522.6641"/><line style="stroke:#A80036;stroke-width:1.0;" x1="427" x2="427" y1="522.6641" y2="535.6641"/><line style="stroke:#A80036;stroke-width:1.0;" x1="386" x2="427" y1="535.6641" y2="535.6641"/><polygon fill="#A80036" points="396,531.6641,386,535.6641,396,539.6641,392,535.6641" style="stroke:#A80036;stroke-width:1.0;"/><text fill="#000000" font-family="sans-serif" font-size="13" lengthAdjust="spacingAndGlyphs" textLength="144" x="392" y="517.8076">Vérifier la validité du form</text><path d="M55,550.6641 L116,550.6641 L116,558.6641 L106,568.6641 L55,568.6641 L55,550.6641 " fill="#EEEEEE" style="stroke:#000000;stroke-width:1.0;"/><rect fill="none" height="48.7031" style="stroke:#000000;stroke-width:2.0;" width="378.5" x="55" y="550.6641"/><text fill="#000000" font-family="sans-serif" font-size="13" font-weight="bold" lengthAdjust="spacingAndGlyphs" textLength="16" x="70" y="565.1592">alt</text><text fill="#000000" font-family="sans-serif" font-size="11" font-weight="bold" lengthAdjust="spacingAndGlyphs" textLength="147" x="131" y="564.083">[Erreur dans le formulaire]</text><polygon fill="#A80036" points="110,587.3672,100,591.3672,110,595.3672,106,591.3672" style="stroke:#A80036;stroke-width:1.0;"/><line style="stroke:#A80036;stroke-width:1.0;stroke-dasharray:2.0,2.0;" x1="104" x2="374" y1="591.3672" y2="591.3672"/><text fill="#000000" font-family="sans-serif" font-size="13" lengthAdjust="spacingAndGlyphs" textLength="164" x="116" y="586.5107">Attente de nouvelles entrées</text><polygon fill="#A80036" points="602,631.7188,612,635.7188,602,639.7188,606,635.7188" style="stroke:#A80036;stroke-width:1.0;"/><line style="stroke:#A80036;stroke-width:1.0;" x1="385" x2="608" y1="635.7188" y2="635.7188"/><text fill="#000000" font-family="sans-serif" font-size="13" lengthAdjust="spacingAndGlyphs" textLength="176" x="392" y="630.8623">Requête POST de la catégorie</text><polygon fill="#A80036" points="879,662.0703,889,666.0703,879,670.0703,883,666.0703" style="stroke:#A80036;stroke-width:1.0;"/><line style="stroke:#A80036;stroke-width:1.0;" x1="624" x2="885" y1="666.0703" y2="666.0703"/><text fill="#000000" font-family="sans-serif" font-size="13" lengthAdjust="spacingAndGlyphs" textLength="203" x="631" y="661.2139">Ajout de la catégorie à la collection</text><polygon fill="#A80036" points="635,692.4219,625,696.4219,635,700.4219,631,696.4219" style="stroke:#A80036;stroke-width:1.0;"/><line style="stroke:#A80036;stroke-width:1.0;stroke-dasharray:2.0,2.0;" x1="629" x2="895" y1="696.4219" y2="696.4219"/><text fill="#000000" font-family="sans-serif" font-size="13" lengthAdjust="spacingAndGlyphs" textLength="44" x="641" y="691.5654">Succès</text><polygon fill="#A80036" points="396,722.7734,386,726.7734,396,730.7734,392,726.7734" style="stroke:#A80036;stroke-width:1.0;"/><line style="stroke:#A80036;stroke-width:1.0;stroke-dasharray:2.0,2.0;" x1="390" x2="618" y1="726.7734" y2="726.7734"/><text fill="#000000" font-family="sans-serif" font-size="13" lengthAdjust="spacingAndGlyphs" textLength="94" x="402" y="721.917">Requête résolue</text><path d="M5,769.7734 L5,795.7734 L190,795.7734 L190,779.7734 L180,769.7734 L5,769.7734 " fill="#FBFB77" filter="url(#f1kji0q3rgbjno)" style="stroke:#A80036;stroke-width:1.0;"/><path d="M180,769.7734 L180,779.7734 L190,779.7734 L180,769.7734 " fill="#FBFB77" style="stroke:#A80036;stroke-width:1.0;"/><text fill="#000000" font-family="sans-serif" font-size="13" lengthAdjust="spacingAndGlyphs" textLength="164" x="11" y="788.2686">Renommage d'une catégorie</text><polygon fill="#A80036" points="363,823.4766,373,827.4766,363,831.4766,367,827.4766" style="stroke:#A80036;stroke-width:1.0;"/><line style="stroke:#A80036;stroke-width:1.0;" x1="99" x2="369" y1="827.4766" y2="827.4766"/><text fill="#000000" font-family="sans-serif" font-size="13" lengthAdjust="spacingAndGlyphs" textLength="184" x="106" y="822.6201">Modifier une catégorie existante</text><path d="M45,842.4766 L118,842.4766 L118,850.4766 L108,860.4766 L45,860.4766 L45,842.4766 " fill="#EEEEEE" style="stroke:#000000;stroke-width:1.0;"/><rect fill="none" height="124.4063" style="stroke:#000000;stroke-width:2.0;" width="503" x="45" y="842.4766"/><text fill="#000000" font-family="sans-serif" font-size="13" font-weight="bold" lengthAdjust="spacingAndGlyphs" textLength="28" x="60" y="856.9717">loop</text><text fill="#000000" font-family="sans-serif" font-size="11" font-weight="bold" lengthAdjust="spacingAndGlyphs" textLength="204" x="133" y="855.8955">[Tant qu'il y a une erreur sur le form]</text><line style="stroke:#A80036;stroke-width:1.0;" x1="385" x2="427" y1="883.1797" y2="883.1797"/><line style="stroke:#A80036;stroke-width:1.0;" x1="427" x2="427" y1="883.1797" y2="896.1797"/><line style="stroke:#A80036;stroke-width:1.0;" x1="386" x2="427" y1="896.1797" y2="896.1797"/><polygon fill="#A80036" points="396,892.1797,386,896.1797,396,900.1797,392,896.1797" style="stroke:#A80036;stroke-width:1.0;"/><text fill="#000000" font-family="sans-serif" font-size="13" lengthAdjust="spacingAndGlyphs" textLength="144" x="392" y="878.3232">Vérifier la validité du form</text><path d="M55,911.1797 L116,911.1797 L116,919.1797 L106,929.1797 L55,929.1797 L55,911.1797 " fill="#EEEEEE" style="stroke:#000000;stroke-width:1.0;"/><rect fill="none" height="48.7031" style="stroke:#000000;stroke-width:2.0;" width="378.5" x="55" y="911.1797"/><text fill="#000000" font-family="sans-serif" font-size="13" font-weight="bold" lengthAdjust="spacingAndGlyphs" textLength="16" x="70" y="925.6748">alt</text><text fill="#000000" font-family="sans-serif" font-size="11" font-weight="bold" lengthAdjust="spacingAndGlyphs" textLength="147" x="131" y="924.5986">[Erreur dans le formulaire]</text><polygon fill="#A80036" points="110,947.8828,100,951.8828,110,955.8828,106,951.8828" style="stroke:#A80036;stroke-width:1.0;"/><line style="stroke:#A80036;stroke-width:1.0;stroke-dasharray:2.0,2.0;" x1="104" x2="374" y1="951.8828" y2="951.8828"/><text fill="#000000" font-family="sans-serif" font-size="13" lengthAdjust="spacingAndGlyphs" textLength="164" x="116" y="947.0264">Attente de nouvelles entrées</text><polygon fill="#A80036" points="602,992.2344,612,996.2344,602,1000.2344,606,996.2344" style="stroke:#A80036;stroke-width:1.0;"/><line style="stroke:#A80036;stroke-width:1.0;" x1="385" x2="608" y1="996.2344" y2="996.2344"/><text fill="#000000" font-family="sans-serif" font-size="13" lengthAdjust="spacingAndGlyphs" textLength="166" x="392" y="991.3779">Requête PUT de la catégorie</text><polygon fill="#A80036" points="879,1038.9375,889,1042.9375,879,1046.9375,883,1042.9375" style="stroke:#A80036;stroke-width:1.0;"/><line style="stroke:#A80036;stroke-width:1.0;" x1="624" x2="885" y1="1042.9375" y2="1042.9375"/><text fill="#000000" font-family="sans-serif" font-size="13" lengthAdjust="spacingAndGlyphs" textLength="185" x="631" y="1021.7295">Mise à jour de la catégorie dans</text><text fill="#000000" font-family="sans-serif" font-size="13" lengthAdjust="spacingAndGlyphs" textLength="158" x="631" y="1038.0811">la collection des catégories</text><polygon fill="#A80036" points="635,1069.2891,625,1073.2891,635,1077.2891,631,1073.2891" style="stroke:#A80036;stroke-width:1.0;"/><line style="stroke:#A80036;stroke-width:1.0;stroke-dasharray:2.0,2.0;" x1="629" x2="895" y1="1073.2891" y2="1073.2891"/><text fill="#000000" font-family="sans-serif" font-size="13" lengthAdjust="spacingAndGlyphs" textLength="44" x="641" y="1068.4326">Succès</text><polygon fill="#A80036" points="396,1099.6406,386,1103.6406,396,1107.6406,392,1103.6406" style="stroke:#A80036;stroke-width:1.0;"/><line style="stroke:#A80036;stroke-width:1.0;stroke-dasharray:2.0,2.0;" x1="390" x2="613" y1="1103.6406" y2="1103.6406"/><text fill="#000000" font-family="sans-serif" font-size="13" lengthAdjust="spacingAndGlyphs" textLength="94" x="402" y="1098.7842">Requête résolue</text><polygon fill="#A80036" points="602,1129.9922,612,1133.9922,602,1137.9922,606,1133.9922" style="stroke:#A80036;stroke-width:1.0;"/><line style="stroke:#A80036;stroke-width:1.0;" x1="385" x2="608" y1="1133.9922" y2="1133.9922"/><text fill="#000000" font-family="sans-serif" font-size="13" lengthAdjust="spacingAndGlyphs" textLength="205" x="392" y="1129.1357">Requête PUT de la liste des tâches</text><polygon fill="#A80036" points="879,1176.6953,889,1180.6953,879,1184.6953,883,1180.6953" style="stroke:#A80036;stroke-width:1.0;"/><line style="stroke:#A80036;stroke-width:1.0;" x1="624" x2="885" y1="1180.6953" y2="1180.6953"/><text fill="#000000" font-family="sans-serif" font-size="13" lengthAdjust="spacingAndGlyphs" textLength="185" x="631" y="1159.4873">Mise à jour des catégories de la</text><text fill="#000000" font-family="sans-serif" font-size="13" lengthAdjust="spacingAndGlyphs" textLength="123" x="631" y="1175.8389">collection des tâches</text><polygon fill="#A80036" points="635,1207.0469,625,1211.0469,635,1215.0469,631,1211.0469" style="stroke:#A80036;stroke-width:1.0;"/><line style="stroke:#A80036;stroke-width:1.0;stroke-dasharray:2.0,2.0;" x1="629" x2="895" y1="1211.0469" y2="1211.0469"/><text fill="#000000" font-family="sans-serif" font-size="13" lengthAdjust="spacingAndGlyphs" textLength="44" x="641" y="1206.1904">Succès</text><polygon fill="#A80036" points="396,1237.3984,386,1241.3984,396,1245.3984,392,1241.3984" style="stroke:#A80036;stroke-width:1.0;"/><line style="stroke:#A80036;stroke-width:1.0;stroke-dasharray:2.0,2.0;" x1="390" x2="618" y1="1241.3984" y2="1241.3984"/><text fill="#000000" font-family="sans-serif" font-size="13" lengthAdjust="spacingAndGlyphs" textLength="94" x="402" y="1236.542">Requête résolue</text><polygon fill="#A80036" points="110,1284.1016,100,1288.1016,110,1292.1016,106,1288.1016" style="stroke:#A80036;stroke-width:1.0;"/><line style="stroke:#A80036;stroke-width:1.0;stroke-dasharray:2.0,2.0;" x1="104" x2="374" y1="1288.1016" y2="1288.1016"/><text fill="#000000" font-family="sans-serif" font-size="13" lengthAdjust="spacingAndGlyphs" textLength="190" x="116" y="1266.8936">Modification des catégories dans</text><text fill="#000000" font-family="sans-serif" font-size="13" lengthAdjust="spacingAndGlyphs" textLength="106" x="116" y="1283.2451">la liste des tâches</text><path d="M5,1331.1016 L5,1357.1016 L189,1357.1016 L189,1341.1016 L179,1331.1016 L5,1331.1016 " fill="#FBFB77" filter="url(#f1kji0q3rgbjno)" style="stroke:#A80036;stroke-width:1.0;"/><path d="M179,1331.1016 L179,1341.1016 L189,1341.1016 L179,1331.1016 " fill="#FBFB77" style="stroke:#A80036;stroke-width:1.0;"/><text fill="#000000" font-family="sans-serif" font-size="13" lengthAdjust="spacingAndGlyphs" textLength="163" x="11" y="1349.5967">Suppression d'une catégorie</text><polygon fill="#A80036" points="363,1384.8047,373,1388.8047,363,1392.8047,367,1388.8047" style="stroke:#A80036;stroke-width:1.0;"/><line style="stroke:#A80036;stroke-width:1.0;" x1="99" x2="369" y1="1388.8047" y2="1388.8047"/><text fill="#000000" font-family="sans-serif" font-size="13" lengthAdjust="spacingAndGlyphs" textLength="141" x="106" y="1383.9482">Supprimer une catégorie</text><polygon fill="#A80036" points="602,1415.1563,612,1419.1563,602,1423.1563,606,1419.1563" style="stroke:#A80036;stroke-width:1.0;"/><line style="stroke:#A80036;stroke-width:1.0;" x1="385" x2="608" y1="1419.1563" y2="1419.1563"/><text fill="#000000" font-family="sans-serif" font-size="13" lengthAdjust="spacingAndGlyphs" textLength="191" x="392" y="1414.2998">Requête DELETE de la catégorie</text><polygon fill="#A80036" points="879,1445.5078,889,1449.5078,879,1453.5078,883,1449.5078" style="stroke:#A80036;stroke-width:1.0;"/><line style="stroke:#A80036;stroke-width:1.0;" x1="624" x2="885" y1="1449.5078" y2="1449.5078"/><text fill="#000000" font-family="sans-serif" font-size="13" lengthAdjust="spacingAndGlyphs" textLength="225" x="631" y="1444.6514">Supprimer le document de la collection</text><polygon fill="#A80036" points="635,1475.8594,625,1479.8594,635,1483.8594,631,1479.8594" style="stroke:#A80036;stroke-width:1.0;"/><line style="stroke:#A80036;stroke-width:1.0;stroke-dasharray:2.0,2.0;" x1="629" x2="895" y1="1479.8594" y2="1479.8594"/><text fill="#000000" font-family="sans-serif" font-size="13" lengthAdjust="spacingAndGlyphs" textLength="44" x="641" y="1475.0029">Succès</text><polygon fill="#A80036" points="396,1506.2109,386,1510.2109,396,1514.2109,392,1510.2109" style="stroke:#A80036;stroke-width:1.0;"/><line style="stroke:#A80036;stroke-width:1.0;stroke-dasharray:2.0,2.0;" x1="390" x2="613" y1="1510.2109" y2="1510.2109"/><text fill="#000000" font-family="sans-serif" font-size="13" lengthAdjust="spacingAndGlyphs" textLength="99" x="402" y="1505.3545">Requête Résolue</text><polygon fill="#A80036" points="602,1536.5625,612,1540.5625,602,1544.5625,606,1540.5625" style="stroke:#A80036;stroke-width:1.0;"/><line style="stroke:#A80036;stroke-width:1.0;" x1="385" x2="608" y1="1540.5625" y2="1540.5625"/><text fill="#000000" font-family="sans-serif" font-size="13" lengthAdjust="spacingAndGlyphs" textLength="205" x="392" y="1535.7061">Requête PUT de la liste des tâches</text><polygon fill="#A80036" points="879,1583.2656,889,1587.2656,879,1591.2656,883,1587.2656" style="stroke:#A80036;stroke-width:1.0;"/><line style="stroke:#A80036;stroke-width:1.0;" x1="624" x2="885" y1="1587.2656" y2="1587.2656"/><text fill="#000000" font-family="sans-serif" font-size="13" lengthAdjust="spacingAndGlyphs" textLength="244" x="631" y="1566.0576">Mise à jour des catégories de la collection</text><text fill="#000000" font-family="sans-serif" font-size="13" lengthAdjust="spacingAndGlyphs" textLength="124" x="631" y="1582.4092">de la liste des tâches</text><polygon fill="#A80036" points="635,1613.6172,625,1617.6172,635,1621.6172,631,1617.6172" style="stroke:#A80036;stroke-width:1.0;"/><line style="stroke:#A80036;stroke-width:1.0;stroke-dasharray:2.0,2.0;" x1="629" x2="895" y1="1617.6172" y2="1617.6172"/><text fill="#000000" font-family="sans-serif" font-size="13" lengthAdjust="spacingAndGlyphs" textLength="44" x="641" y="1612.7607">Succès</text><polygon fill="#A80036" points="396,1643.9688,386,1647.9688,396,1651.9688,392,1647.9688" style="stroke:#A80036;stroke-width:1.0;"/><line style="stroke:#A80036;stroke-width:1.0;stroke-dasharray:2.0,2.0;" x1="390" x2="618" y1="1647.9688" y2="1647.9688"/><text fill="#000000" font-family="sans-serif" font-size="13" lengthAdjust="spacingAndGlyphs" textLength="94" x="402" y="1643.1123">Requête résolue</text><polygon fill="#A80036" points="110,1690.6719,100,1694.6719,110,1698.6719,106,1694.6719" style="stroke:#A80036;stroke-width:1.0;"/><line style="stroke:#A80036;stroke-width:1.0;stroke-dasharray:2.0,2.0;" x1="104" x2="379" y1="1694.6719" y2="1694.6719"/><text fill="#000000" font-family="sans-serif" font-size="13" lengthAdjust="spacingAndGlyphs" textLength="240" x="116" y="1673.4639">Remplacement de la catégorie supprimée</text><text fill="#000000" font-family="sans-serif" font-size="13" lengthAdjust="spacingAndGlyphs" textLength="252" x="116" y="1689.8154">dans la liste des tâche par "sans catégorie"</text><!--MD5=[f0badb06ca7709e7d5f4492b458caeb0]
@startuml CategoryForm

actor Utilisateur
participant Application
participant Serveur
participant Database

== Page de formulaire de catégorie==
Utilisateur -> Application: Naviguer vers la vue du formulaire
activate Application
Application -> Serveur: Requête GET de la page de la vue
activate Serveur
alt Succès
    Serveur - -> Application: Requête résolue
    Application -> Utilisateur: Afficher la page
else Echec
    Serveur - -> Application: Requête non-résolue
    deactivate Serveur
    Application -> Utilisateur: Afficher une page d'erreur
end
||30||
'Créer une nouvelle catégorie
note over Utilisateur: Création d'une catégorie
Utilisateur -> Application: Créer une nouvelle catégorie
loop Tant qu'il y a une erreur sur le form
    Application -> Application: Vérifier la validité du form
    alt Erreur dans le formulaire
        Application - -> Utilisateur:Attente de nouvelles entrées
    end
end
Application -> Serveur: Requête POST de la catégorie
activate Serveur
Serveur -> Database: Ajout de la catégorie à la collection
activate Database
Database - -> Serveur: Succès
deactivate Database
Serveur - -> Application: Requête résolue
deactivate Serveur

||30||
'Renommer une catégorie
note over Utilisateur: Renommage d'une catégorie
Utilisateur -> Application: Modifier une catégorie existante
loop Tant qu'il y a une erreur sur le form
    Application -> Application: Vérifier la validité du form
    alt Erreur dans le formulaire
        Application - -> Utilisateur:Attente de nouvelles entrées
    end
end
Application -> Serveur: Requête PUT de la catégorie
activate Serveur
Serveur -> Database: Mise à jour de la catégorie dans \nla collection des catégories
activate Database
Database - -> Serveur: Succès
deactivate Database
Serveur - -> Application: Requête résolue
Application -> Serveur: Requête PUT de la liste des tâches
Serveur -> Database: Mise à jour des catégories de la \ncollection des tâches
activate Database
Database - -> Serveur: Succès
deactivate Database
Serveur - -> Application: Requête résolue
deactivate Serveur
Application - -> Utilisateur: Modification des catégories dans \nla liste des tâches
||30||
'Supprimer une catégorie
note over Utilisateur: Suppression d'une catégorie
Utilisateur -> Application: Supprimer une catégorie
Application -> Serveur: Requête DELETE de la catégorie
activate Serveur
Serveur -> Database: Supprimer le document de la collection
activate Database
Database - -> Serveur: Succès
deactivate Database
Serveur - -> Application: Requête Résolue
Application -> Serveur: Requête PUT de la liste des tâches
Serveur -> Database: Mise à jour des catégories de la collection \nde la liste des tâches
activate Database
Database - -> Serveur: Succès
deactivate Database
Serveur - -> Application: Requête résolue
deactivate Serveur
Application - -> Utilisateur: Remplacement de la catégorie supprimée \ndans la liste des tâche par "sans catégorie"
deactivate Application
@enduml

@startuml CategoryForm

actor Utilisateur
participant Application
participant Serveur
participant Database

== Page de formulaire de catégorie==
Utilisateur -> Application: Naviguer vers la vue du formulaire
activate Application
Application -> Serveur: Requête GET de la page de la vue
activate Serveur
alt Succès
    Serveur - -> Application: Requête résolue
    Application -> Utilisateur: Afficher la page
else Echec
    Serveur - -> Application: Requête non-résolue
    deactivate Serveur
    Application -> Utilisateur: Afficher une page d'erreur
end
||30||
note over Utilisateur: Création d'une catégorie
Utilisateur -> Application: Créer une nouvelle catégorie
loop Tant qu'il y a une erreur sur le form
    Application -> Application: Vérifier la validité du form
    alt Erreur dans le formulaire
        Application - -> Utilisateur:Attente de nouvelles entrées
    end
end
Application -> Serveur: Requête POST de la catégorie
activate Serveur
Serveur -> Database: Ajout de la catégorie à la collection
activate Database
Database - -> Serveur: Succès
deactivate Database
Serveur - -> Application: Requête résolue
deactivate Serveur

||30||
note over Utilisateur: Renommage d'une catégorie
Utilisateur -> Application: Modifier une catégorie existante
loop Tant qu'il y a une erreur sur le form
    Application -> Application: Vérifier la validité du form
    alt Erreur dans le formulaire
        Application - -> Utilisateur:Attente de nouvelles entrées
    end
end
Application -> Serveur: Requête PUT de la catégorie
activate Serveur
Serveur -> Database: Mise à jour de la catégorie dans \nla collection des catégories
activate Database
Database - -> Serveur: Succès
deactivate Database
Serveur - -> Application: Requête résolue
Application -> Serveur: Requête PUT de la liste des tâches
Serveur -> Database: Mise à jour des catégories de la \ncollection des tâches
activate Database
Database - -> Serveur: Succès
deactivate Database
Serveur - -> Application: Requête résolue
deactivate Serveur
Application - -> Utilisateur: Modification des catégories dans \nla liste des tâches
||30||
note over Utilisateur: Suppression d'une catégorie
Utilisateur -> Application: Supprimer une catégorie
Application -> Serveur: Requête DELETE de la catégorie
activate Serveur
Serveur -> Database: Supprimer le document de la collection
activate Database
Database - -> Serveur: Succès
deactivate Database
Serveur - -> Application: Requête Résolue
Application -> Serveur: Requête PUT de la liste des tâches
Serveur -> Database: Mise à jour des catégories de la collection \nde la liste des tâches
activate Database
Database - -> Serveur: Succès
deactivate Database
Serveur - -> Application: Requête résolue
deactivate Serveur
Application - -> Utilisateur: Remplacement de la catégorie supprimée \ndans la liste des tâche par "sans catégorie"
deactivate Application
@enduml

PlantUML version 1.2020.22(Sun Dec 06 10:36:27 CET 2020)
(GPL source distribution)
Java Runtime: Java(TM) SE Runtime Environment
JVM: Java HotSpot(TM) 64-Bit Server VM
Default Encoding: Cp1252
Language: fr
Country: FR
--></g></svg>