<svg xmlns="http://www.w3.org/2000/svg" xmlns:xlink="http://www.w3.org/1999/xlink" xmlns:lucid="lucid" width="1468" height="1162"><g transform="translate(-160 -60)" lucid:page-tab-id="0_0"><path d="M0 0h1870.87v1322.83H0z" fill="#fff"/><path d="M708 968c0-4.42 3.58-8 8-8h344c4.42 0 8 3.58 8 8v226c0 4.42-3.58 8-8 8H716c-4.42 0-8-3.58-8-8z" stroke="#2988fa" stroke-width="4" fill="#fff"/><path d="M708 997.6h360m-360 80.7h360" stroke="#2988fa" stroke-width="4" fill="none"/><use xlink:href="#a" transform="matrix(1,0,0,1,716,968) translate(83.27500000000002 14.6)"/><use xlink:href="#b" transform="matrix(1,0,0,1,720,1005.6) translate(0 25.299999999999997)"/><use xlink:href="#c" transform="matrix(1,0,0,1,720,1005.6) translate(10.95 25.299999999999997)"/><use xlink:href="#d" transform="matrix(1,0,0,1,720,1005.6) translate(153.75 25.299999999999997)"/><use xlink:href="#e" transform="matrix(1,0,0,1,720,1005.6) translate(0 46.9)"/><use xlink:href="#f" transform="matrix(1,0,0,1,720,1005.6) translate(15.5 46.9)"/><use xlink:href="#g" transform="matrix(1,0,0,1,720,1005.6) translate(98.4 46.9)"/><use xlink:href="#e" transform="matrix(1,0,0,1,720,1086.3) translate(0 25.19999999999999)"/><use xlink:href="#h" transform="matrix(1,0,0,1,720,1086.3) translate(15.5 25.19999999999999)"/><use xlink:href="#i" transform="matrix(1,0,0,1,720,1086.3) translate(160.25 25.19999999999999)"/><use xlink:href="#e" transform="matrix(1,0,0,1,720,1086.3) translate(0 46.79999999999999)"/><use xlink:href="#j" transform="matrix(1,0,0,1,720,1086.3) translate(15.5 46.79999999999999)"/><use xlink:href="#i" transform="matrix(1,0,0,1,720,1086.3) translate(159.25 46.79999999999999)"/><use xlink:href="#e" transform="matrix(1,0,0,1,720,1086.3) translate(0 68.39999999999999)"/><use xlink:href="#k" transform="matrix(1,0,0,1,720,1086.3) translate(15.5 68.39999999999999)"/><use xlink:href="#i" transform="matrix(1,0,0,1,720,1086.3) translate(171.2 68.39999999999999)"/><use xlink:href="#e" transform="matrix(1,0,0,1,720,1086.3) translate(0 90)"/><use xlink:href="#l" transform="matrix(1,0,0,1,720,1086.3) translate(15.5 90)"/><use xlink:href="#m" transform="matrix(1,0,0,1,720,1086.3) translate(105.35000000000001 90)"/><path d="M708 539.5c0-4.42 3.58-8 8-8h344c4.42 0 8 3.58 8 8v162c0 4.42-3.58 8-8 8H716c-4.42 0-8-3.58-8-8z" stroke="#2988fa" stroke-width="4" fill="#fff"/><path d="M708 569.1h360M708 671.5h360" stroke="#2988fa" stroke-width="4" fill="none"/><use xlink:href="#n" transform="matrix(1,0,0,1,716,539.5) translate(133.1 14.6)"/><use xlink:href="#e" transform="matrix(1,0,0,1,720,577.1) translate(0 14.69999999999999)"/><use xlink:href="#o" transform="matrix(1,0,0,1,720,577.1) translate(15.5 14.69999999999999)"/><use xlink:href="#p" transform="matrix(1,0,0,1,720,577.1) translate(103.4 14.69999999999999)"/><use xlink:href="#q" transform="matrix(1,0,0,1,720,577.1) translate(113.4 14.69999999999999)"/><use xlink:href="#r" transform="matrix(1,0,0,1,720,577.1) translate(167.3 14.69999999999999)"/><use xlink:href="#e" transform="matrix(1,0,0,1,720,577.1) translate(0 36.29999999999999)"/><use xlink:href="#s" transform="matrix(1,0,0,1,720,577.1) translate(15.5 36.29999999999999)"/><use xlink:href="#p" transform="matrix(1,0,0,1,720,577.1) translate(126.35000000000001 36.29999999999999)"/><use xlink:href="#t" transform="matrix(1,0,0,1,720,577.1) translate(136.35000000000002 36.29999999999999)"/><use xlink:href="#e" transform="matrix(1,0,0,1,720,577.1) translate(0 57.89999999999999)"/><use xlink:href="#u" transform="matrix(1,0,0,1,720,577.1) translate(15.5 57.89999999999999)"/><use xlink:href="#p" transform="matrix(1,0,0,1,720,577.1) translate(160.35 57.89999999999999)"/><use xlink:href="#t" transform="matrix(1,0,0,1,720,577.1) translate(170.35 57.89999999999999)"/><use xlink:href="#e" transform="matrix(1,0,0,1,720,577.1) translate(0 79.5)"/><use xlink:href="#v" transform="matrix(1,0,0,1,720,577.1) translate(15.5 79.5)"/><use xlink:href="#p" transform="matrix(1,0,0,1,720,577.1) translate(137.35000000000002 79.5)"/><use xlink:href="#w" transform="matrix(1,0,0,1,720,577.1) translate(147.35000000000002 79.5)"/><use xlink:href="#x" transform="matrix(1,0,0,1,720,577.1) translate(216.3 79.5)"/><use xlink:href="#y" transform="matrix(1,0,0,1,720,577.1) translate(231.8 79.5)"/><path d="M888 712.5v214.75" stroke="#c92d39" stroke-width="2" fill="none"/><path d="M889 712.53h-2v-1.03h2z" fill="#c92d39"/><path d="M888 956.6l-14.85-14.86L888 926.6l14.85 15.14z" stroke="#c92d39" stroke-width="2" fill="#c92d39"/><path d="M1188 464c0-4.42 3.58-8 8-8h404c4.42 0 8 3.58 8 8v313c0 4.42-3.58 8-8 8h-404c-4.42 0-8-3.58-8-8z" stroke="#2988fa" stroke-width="4" fill="#fff"/><path d="M1188 493.6h420m-420 102.3h420" stroke="#2988fa" stroke-width="4" fill="none"/><use xlink:href="#z" transform="matrix(1,0,0,1,1196,464) translate(131.1 14.6)"/><use xlink:href="#A" transform="matrix(1,0,0,1,1200,501.6) translate(0 25.5)"/><use xlink:href="#B" transform="matrix(1,0,0,1,1200,501.6) translate(10.95 25.5)"/><use xlink:href="#C" transform="matrix(1,0,0,1,1200,501.6) translate(186.7 25.5)"/><use xlink:href="#D" transform="matrix(1,0,0,1,1200,501.6) translate(0 47.1)"/><use xlink:href="#E" transform="matrix(1,0,0,1,1200,501.6) translate(15.5 47.1)"/><use xlink:href="#F" transform="matrix(1,0,0,1,1200,501.6) translate(98.4 47.1)"/><use xlink:href="#D" transform="matrix(1,0,0,1,1200,501.6) translate(0 68.7)"/><use xlink:href="#G" transform="matrix(1,0,0,1,1200,501.6) translate(15.5 68.7)"/><use xlink:href="#H" transform="matrix(1,0,0,1,1200,501.6) translate(162.35000000000002 68.7)"/><use xlink:href="#I" transform="matrix(1,0,0,1,1200,501.6) translate(172.35000000000002 68.7)"/><g><use xlink:href="#D" transform="matrix(1,0,0,1,1200,603.9) translate(0 25.300000000000004)"/><use xlink:href="#J" transform="matrix(1,0,0,1,1200,603.9) translate(15.5 25.300000000000004)"/><use xlink:href="#F" transform="matrix(1,0,0,1,1200,603.9) translate(149.25 25.300000000000004)"/><use xlink:href="#D" transform="matrix(1,0,0,1,1200,603.9) translate(0 46.900000000000006)"/><use xlink:href="#K" transform="matrix(1,0,0,1,1200,603.9) translate(15.5 46.900000000000006)"/><use xlink:href="#L" transform="matrix(1,0,0,1,1200,603.9) translate(196.19999999999996 46.900000000000006)"/><use xlink:href="#M" transform="matrix(1,0,0,1,1200,603.9) translate(250.09999999999997 46.900000000000006)"/><use xlink:href="#D" transform="matrix(1,0,0,1,1200,603.9) translate(0 68.50000000000001)"/><use xlink:href="#N" transform="matrix(1,0,0,1,1200,603.9) translate(15.5 68.50000000000001)"/><use xlink:href="#O" transform="matrix(1,0,0,1,1200,603.9) translate(67.4 68.50000000000001)"/><use xlink:href="#D" transform="matrix(1,0,0,1,1200,603.9) translate(0 90.10000000000002)"/><use xlink:href="#P" transform="matrix(1,0,0,1,1200,603.9) translate(15.5 90.10000000000002)"/><use xlink:href="#O" transform="matrix(1,0,0,1,1200,603.9) translate(86.35000000000001 90.10000000000002)"/><use xlink:href="#D" transform="matrix(1,0,0,1,1200,603.9) translate(0 111.70000000000002)"/><use xlink:href="#Q" transform="matrix(1,0,0,1,1200,603.9) translate(15.5 111.70000000000002)"/><use xlink:href="#O" transform="matrix(1,0,0,1,1200,603.9) translate(98.30000000000001 111.70000000000002)"/><use xlink:href="#D" transform="matrix(1,0,0,1,1200,603.9) translate(0 133.3)"/><use xlink:href="#R" transform="matrix(1,0,0,1,1200,603.9) translate(15.5 133.3)"/><use xlink:href="#S" transform="matrix(1,0,0,1,1200,603.9) translate(77.35000000000001 133.3)"/><use xlink:href="#D" transform="matrix(1,0,0,1,1200,603.9) translate(0 154.9)"/><use xlink:href="#T" transform="matrix(1,0,0,1,1200,603.9) translate(15.5 154.9)"/><use xlink:href="#m" transform="matrix(1,0,0,1,1200,603.9) translate(277.19999999999993 154.9)"/></g><path d="M1155.25 620.5H1071" stroke="#c92d39" stroke-width="2" fill="none"/><path d="M1184.6 620.5l-14.86 14.85-15.15-14.85 15.14-14.85z" stroke="#c92d39" stroke-width="2" fill="#c92d39"/><path d="M1071.03 621.5H1070v-2h1.03z" fill="#c92d39"/><path d="M1188 88c0-4.42 3.58-8 8-8h404c4.42 0 8 3.58 8 8v205c0 4.42-3.58 8-8 8h-404c-4.42 0-8-3.58-8-8z" stroke="#2988fa" stroke-width="4" fill="#fff"/><path d="M1188 117.6h420m-420 59.2h420" stroke="#2988fa" stroke-width="4" fill="none"/><g><use xlink:href="#U" transform="matrix(1,0,0,1,1196,88) translate(113.19999999999999 14.6)"/></g><g><use xlink:href="#b" transform="matrix(1,0,0,1,1200,125.6) translate(0 14.799999999999999)"/><use xlink:href="#V" transform="matrix(1,0,0,1,1200,125.6) translate(10.95 14.799999999999999)"/><use xlink:href="#p" transform="matrix(1,0,0,1,1200,125.6) translate(48.900000000000006 14.799999999999999)"/><use xlink:href="#W" transform="matrix(1,0,0,1,1200,125.6) translate(58.900000000000006 14.799999999999999)"/><use xlink:href="#e" transform="matrix(1,0,0,1,1200,125.6) translate(0 36.4)"/><use xlink:href="#X" transform="matrix(1,0,0,1,1200,125.6) translate(15.5 36.4)"/><use xlink:href="#p" transform="matrix(1,0,0,1,1200,125.6) translate(75.5 36.4)"/><use xlink:href="#Y" transform="matrix(1,0,0,1,1200,125.6) translate(85.5 36.4)"/></g><g><use xlink:href="#D" transform="matrix(1,0,0,1,1200,184.8) translate(0 14.899999999999993)"/><use xlink:href="#Z" transform="matrix(1,0,0,1,1200,184.8) translate(15.5 14.899999999999993)"/><use xlink:href="#H" transform="matrix(1,0,0,1,1200,184.8) translate(271.09999999999997 14.899999999999993)"/><use xlink:href="#aa" transform="matrix(1,0,0,1,1200,184.8) translate(281.09999999999997 14.899999999999993)"/><use xlink:href="#D" transform="matrix(1,0,0,1,1200,184.8) translate(0 36.49999999999999)"/><use xlink:href="#ab" transform="matrix(1,0,0,1,1200,184.8) translate(15.5 36.49999999999999)"/><use xlink:href="#H" transform="matrix(1,0,0,1,1200,184.8) translate(290.04999999999995 36.49999999999999)"/><use xlink:href="#aa" transform="matrix(1,0,0,1,1200,184.8) translate(300.04999999999995 36.49999999999999)"/><use xlink:href="#D" transform="matrix(1,0,0,1,1200,184.8) translate(0 58.099999999999994)"/><use xlink:href="#ac" transform="matrix(1,0,0,1,1200,184.8) translate(15.5 58.099999999999994)"/><use xlink:href="#H" transform="matrix(1,0,0,1,1200,184.8) translate(266.09999999999997 58.099999999999994)"/><use xlink:href="#ad" transform="matrix(1,0,0,1,1200,184.8) translate(276.09999999999997 58.099999999999994)"/><use xlink:href="#D" transform="matrix(1,0,0,1,1200,184.8) translate(0 79.70000000000002)"/><use xlink:href="#ae" transform="matrix(1,0,0,1,1200,184.8) translate(15.5 79.70000000000002)"/><use xlink:href="#H" transform="matrix(1,0,0,1,1200,184.8) translate(296.09999999999997 79.70000000000002)"/><use xlink:href="#aa" transform="matrix(1,0,0,1,1200,184.8) translate(306.09999999999997 79.70000000000002)"/><use xlink:href="#D" transform="matrix(1,0,0,1,1200,184.8) translate(0 101.30000000000001)"/><use xlink:href="#af" transform="matrix(1,0,0,1,1200,184.8) translate(15.5 101.30000000000001)"/><use xlink:href="#ag" transform="matrix(1,0,0,1,1200,184.8) translate(233.29999999999998 101.30000000000001)"/><use xlink:href="#H" transform="matrix(1,0,0,1,1200,184.8) translate(277.2 101.30000000000001)"/><use xlink:href="#ah" transform="matrix(1,0,0,1,1200,184.8) translate(287.2 101.30000000000001)"/></g><path d="M1398 304v119.25" stroke="#c92d39" stroke-width="2" fill="none"/><path d="M1399 304.03h-2V303h2z" fill="#c92d39"/><path d="M1398 452.6l-14.85-14.86L1398 422.6l14.85 15.14z" stroke="#c92d39" stroke-width="2" fill="#c92d39"/><path d="M1185 190.5h-11.26m-11.26 0h-22.5m-11.27 0h-22.5m-11.27 0h-11.26l-4.15.54-3.83 1.6h-.03m-5.85 5.86l-1.6 3.85-.55 4.15v9.17m0 9.16v18.34m0 9.16v18.34m0 9.16v18.34m0 9.16v18.34m0 9.16V344l-.54 4.15-1.6 3.84m-5.86 5.86l-3.84 1.6-4.16.54h-9.84m-9.85 0h-19.7m-9.83 0h-19.7m-9.84 0h-19.68m-9.84 0h-19.7m-9.84 0H904l-4.15.54-3.84 1.6m-5.86 5.86l-1.6 3.85L888 376v10.1m0 10.12v20.23m0 10.1v20.23m0 10.12v20.22m0 10.1v20.24m0 10.1v10.12" stroke="#c92d39" stroke-width="2" fill="none"/><path d="M1186 191.5h-1.03v-2h1.03z" fill="#c92d39"/><path d="M877.82 510.32L888 527.54l10.18-17.22" stroke="#c92d39" stroke-width="2" fill="none"/><path d="M180 248c0-4.42 3.58-8 8-8h416c4.42 0 8 3.58 8 8v140c0 4.42-3.58 8-8 8H188c-4.42 0-8-3.58-8-8z" stroke="#2988fa" stroke-width="4" fill="#fff"/><path d="M180 277.6h432m-432 80.8h432" stroke="#2988fa" stroke-width="4" fill="none"/><g><use xlink:href="#ai" transform="matrix(1,0,0,1,188,248) translate(179.625 14.6)"/></g><g><use xlink:href="#e" transform="matrix(1,0,0,1,192,285.6) translate(0 14.500000000000002)"/><use xlink:href="#aj" transform="matrix(1,0,0,1,192,285.6) translate(15.5 14.500000000000002)"/><use xlink:href="#p" transform="matrix(1,0,0,1,192,285.6) translate(134.35000000000002 14.500000000000002)"/><use xlink:href="#ak" transform="matrix(1,0,0,1,192,285.6) translate(144.35000000000002 14.500000000000002)"/><use xlink:href="#e" transform="matrix(1,0,0,1,192,285.6) translate(0 36.1)"/><use xlink:href="#al" transform="matrix(1,0,0,1,192,285.6) translate(15.5 36.1)"/><use xlink:href="#p" transform="matrix(1,0,0,1,192,285.6) translate(69.4 36.1)"/><use xlink:href="#am" transform="matrix(1,0,0,1,192,285.6) translate(79.4 36.1)"/><use xlink:href="#e" transform="matrix(1,0,0,1,192,285.6) translate(0 57.7)"/><use xlink:href="#an" transform="matrix(1,0,0,1,192,285.6) translate(15.5 57.7)"/><use xlink:href="#ao" transform="matrix(1,0,0,1,192,285.6) translate(109.05000000000001 57.7)"/></g><path d="M1185 190.5h-9.9m-9.92 0h-19.82m-9.9 0h-19.83m-9.9 0h-19.83m-9.9 0h-19.83m-9.9 0h-19.83m-9.9 0H996.7m-9.9 0h-19.83m-9.9 0h-19.83m-9.9 0H907.5m-9.9 0h-19.82m-9.9 0h-19.83m-9.9 0H818.3m-9.9 0h-19.83m-9.92 0h-19.82m-9.9 0h-19.83m-9.9 0H699.4m-9.9 0h-19.83m-9.9 0h-19.83m-9.9 0H610.2m-9.9 0h-19.83m-9.9 0h-19.83m-9.9 0H521m-9.9 0h-19.82m-9.9 0h-19.83m-9.9 0H431.8m-9.9 0H412l-4.15.54-3.84 1.6m-5.86 5.86l-1.6 3.85-.54 4.15v9.9m0 9.9v9.88" stroke="#c92d39" stroke-width="2" fill="none"/><path d="M1186 191.5h-1.03v-2h1.03z" fill="#c92d39"/><path d="M385.82 218.82L396 236.04l10.18-17.22M1100.75 1081H1382c8.84 0 16-7.16 16-16V788" stroke="#c92d39" stroke-width="2" fill="none"/><path d="M1071.4 1081l14.86-14.85 15.15 14.85-15.14 14.85z" stroke="#c92d39" stroke-width="2" fill="#c92d39"/><path d="M1399 788.03h-2V787h2z" fill="#c92d39"/><path d="M388 750v9.55m0 9.54v19.08m0 9.55v19.1m0 9.53v19.1m0 9.54v19.1m0 9.54v19.1m0 9.53v19.1m0 9.54V960m0 9.55v19.1m0 9.53v19.1m0 9.54v19.1m0 9.53v9.55l.54 4.15 1.6 3.84m5.86 5.86l3.85 1.6 4.15.54h10m10 0h20.02m10 0h20.02m10 0h20.02m10 0h20.02m10 0h20.02m10 0h20.02m10 0h20m10.02 0h20m10.02 0h20m10.02 0h10" stroke="#c92d39" stroke-width="2" fill="none"/><path d="M389 750.03h-2V749h2z" fill="#c92d39"/><path d="M686.82 1091.18l17.22-10.18-17.22-10.18" stroke="#c92d39" stroke-width="2" fill="none"/><path d="M440 466h140c4.42 0 8 3.58 8 8v265c0 4.42-3.58 8-8 8H196c-4.42 0-8-3.58-8-8V448c0-4.42 3.58-8 8-8h224c4.42 0 9.5 3.25 11.35 7.26zm-252 0h252" stroke="#19967d" stroke-width="4" fill="#ffeca9"/><g><use xlink:href="#ap" transform="matrix(1,0,0,1,196,440) translate(0 16.6)"/></g><path d="M208 668c0-4.42 3.58-8 8-8h184c4.42 0 8 3.58 8 8v44c0 4.42-3.58 8-8 8H216c-4.42 0-8-3.58-8-8z" stroke="#2988fa" stroke-width="4" fill="#fff"/><g><use xlink:href="#aq" transform="matrix(1,0,0,1,216,668) translate(15.599999999999994 25.6)"/></g><path d="M208 488c0-4.42 3.58-8 8-8h184c4.42 0 8 3.58 8 8v97c0 4.42-3.58 8-8 8H216c-4.42 0-8-3.58-8-8z" stroke="#2988fa" stroke-width="4" fill="#fff"/><path d="M208 517.6h200m-200 37.6h200" stroke="#2988fa" stroke-width="4" fill="none"/><g><use xlink:href="#ar" transform="matrix(1,0,0,1,216,488) translate(64.57499999999999 14.6)"/></g><g><use xlink:href="#e" transform="matrix(1,0,0,1,220,525.6) translate(0 14.6)"/><use xlink:href="#as" transform="matrix(1,0,0,1,220,525.6) translate(15.5 14.6)"/><use xlink:href="#at" transform="matrix(1,0,0,1,220,525.6) translate(75.45 14.6)"/></g><path d="M303.42 657v-10.15m0-10.16V626.5h.06v-9.92m0-9.88v-9.88" stroke="#c92d39" stroke-width="2" fill="none"/><path d="M304.42 658h-2v-1.03h2z" fill="#c92d39"/><path d="M313.67 614.18l-10.18-17.22-10.2 17.22" stroke="#c92d39" stroke-width="2" fill="none"/><defs><path fill="#706148" d="M67-125c0 53 21 87 73 88 37 1 54-22 65-47l45 17C233-25 199 4 140 4 58 4 20-42 15-125 8-235 124-281 211-232c18 10 29 29 36 50l-46 12c-8-25-30-41-62-41-52 0-71 34-72 86" id="au"/><path fill="#706148" d="M133-34C117-15 103 5 69 4 32 3 11-16 11-54c-1-60 55-63 116-61 1-26-3-47-28-47-18 1-26 9-28 27l-52-2c7-38 36-58 82-57s74 22 75 68l1 82c-1 14 12 18 25 15v27c-30 8-71 5-69-32zm-48 3c29 0 43-24 42-57-32 0-66-3-65 30 0 17 8 27 23 27" id="av"/><path fill="#706148" d="M115-3C79 11 28 4 28-45v-112H4v-33h27l15-45h31v45h36v33H77v99c-1 23 16 31 38 25v30" id="aw"/><path fill="#706148" d="M185-48c-13 30-37 53-82 52C43 2 14-33 14-96s30-98 90-98c62 0 83 45 84 108H66c0 31 8 55 39 56 18 0 30-7 34-22zm-45-69c5-46-57-63-70-21-2 6-4 13-4 21h74" id="ax"/><path fill="#706148" d="M195-6C206 82 75 100 31 46c-4-6-6-13-8-21l49-6c3 16 16 24 34 25 40 0 42-37 40-79-11 22-30 35-61 35-53 0-70-43-70-97 0-56 18-96 73-97 30 0 46 14 59 34l2-30h47zm-90-29c32 0 41-27 41-63 0-35-9-62-40-62-32 0-39 29-40 63 0 36 9 62 39 62" id="ay"/><path fill="#706148" d="M110-194c64 0 96 36 96 99 0 64-35 99-97 99-61 0-95-36-95-99 0-62 34-99 96-99zm-1 164c35 0 45-28 45-65 0-40-10-65-43-65-34 0-45 26-45 65 0 36 10 65 43 65" id="az"/><path fill="#706148" d="M135-150c-39-12-60 13-60 57V0H25l-1-190h47c2 13-1 29 3 40 6-28 27-53 61-41v41" id="aA"/><path fill="#706148" d="M123 10C108 53 80 86 19 72V37c35 8 53-11 59-39L3-190h52l48 148c12-52 28-100 44-148h51" id="aB"/><path fill="#706148" d="M220-157c-53 9-28 100-34 157h-49v-107c1-27-5-49-29-50C55-147 81-57 75 0H25l-1-190h47c2 12-1 28 3 38 10-53 101-56 108 0 13-22 24-43 59-42 82 1 51 116 57 194h-49v-107c-1-25-5-48-29-50" id="aC"/><path fill="#706148" d="M135-194c53 0 70 44 70 98 0 56-19 98-73 100-31 1-45-17-59-34 3 33 2 69 2 105H25l-1-265h48c2 10 0 23 3 31 11-24 29-35 60-35zM114-30c33 0 39-31 40-66 0-38-9-64-40-64-56 0-55 130 0 130" id="aD"/><path fill="#706148" d="M135-194c87-1 58 113 63 194h-50c-7-57 23-157-34-157-59 0-34 97-39 157H25l-1-190h47c2 12-1 28 3 38 12-26 28-41 61-42" id="aE"/><g id="a"><use transform="matrix(0.05,0,0,0.05,0,0)" xlink:href="#au"/><use transform="matrix(0.05,0,0,0.05,12.950000000000001,0)" xlink:href="#av"/><use transform="matrix(0.05,0,0,0.05,22.950000000000003,0)" xlink:href="#aw"/><use transform="matrix(0.05,0,0,0.05,28.900000000000002,0)" xlink:href="#ax"/><use transform="matrix(0.05,0,0,0.05,38.900000000000006,0)" xlink:href="#ay"/><use transform="matrix(0.05,0,0,0.05,49.85000000000001,0)" xlink:href="#az"/><use transform="matrix(0.05,0,0,0.05,60.80000000000001,0)" xlink:href="#aA"/><use transform="matrix(0.05,0,0,0.05,67.80000000000001,0)" xlink:href="#aB"/><use transform="matrix(0.05,0,0,0.05,77.80000000000001,0)" xlink:href="#au"/><use transform="matrix(0.05,0,0,0.05,90.75000000000001,0)" xlink:href="#az"/><use transform="matrix(0.05,0,0,0.05,101.70000000000002,0)" xlink:href="#aC"/><use transform="matrix(0.05,0,0,0.05,117.7,0)" xlink:href="#aD"/><use transform="matrix(0.05,0,0,0.05,128.65,0)" xlink:href="#az"/><use transform="matrix(0.05,0,0,0.05,139.6,0)" xlink:href="#aE"/><use transform="matrix(0.05,0,0,0.05,150.54999999999998,0)" xlink:href="#ax"/><use transform="matrix(0.05,0,0,0.05,160.54999999999998,0)" xlink:href="#aE"/><use transform="matrix(0.05,0,0,0.05,171.49999999999997,0)" xlink:href="#aw"/></g><path fill="#706148" d="M16-82v-28h88v28H16" id="aF"/><use transform="matrix(0.05,0,0,0.05,0,0)" xlink:href="#aF" id="b"/><path fill="#706148" d="M212-179c-10-28-35-45-73-45-59 0-87 40-87 99 0 60 29 101 89 101 43 0 62-24 78-52l27 14C228-24 195 4 139 4 59 4 22-46 18-125c-6-104 99-153 187-111 19 9 31 26 39 46" id="aG"/><path fill="#706148" d="M141-36C126-15 110 5 73 4 37 3 15-17 15-53c-1-64 63-63 125-63 3-35-9-54-41-54-24 1-41 7-42 31l-33-3c5-37 33-52 76-52 45 0 72 20 72 64v82c-1 20 7 32 28 27v20c-31 9-61-2-59-35zM48-53c0 20 12 33 32 33 41-3 63-29 60-74-43 2-92-5-92 41" id="aH"/><path fill="#706148" d="M59-47c-2 24 18 29 38 22v24C64 9 27 4 27-40v-127H5v-23h24l9-43h21v43h35v23H59v120" id="aI"/><path fill="#706148" d="M100-194c63 0 86 42 84 106H49c0 40 14 67 53 68 26 1 43-12 49-29l28 8c-11 28-37 45-77 45C44 4 14-33 15-96c1-61 26-98 85-98zm52 81c6-60-76-77-97-28-3 7-6 17-6 28h103" id="aJ"/><path fill="#706148" d="M177-190C167-65 218 103 67 71c-23-6-38-20-44-43l32-5c15 47 100 32 89-28v-30C133-14 115 1 83 1 29 1 15-40 15-95c0-56 16-97 71-98 29-1 48 16 59 35 1-10 0-23 2-32h30zM94-22c36 0 50-32 50-73 0-42-14-75-50-75-39 0-46 34-46 75s6 73 46 73" id="aK"/><path fill="#706148" d="M100-194c62-1 85 37 85 99 1 63-27 99-86 99S16-35 15-95c0-66 28-99 85-99zM99-20c44 1 53-31 53-75 0-43-8-75-51-75s-53 32-53 75 10 74 51 75" id="aL"/><path fill="#706148" d="M114-163C36-179 61-72 57 0H25l-1-190h30c1 12-1 29 2 39 6-27 23-49 58-41v29" id="aM"/><path fill="#706148" d="M179-190L93 31C79 59 56 82 12 73V49c39 6 53-20 64-50L1-190h34L92-34l54-156h33" id="aN"/><path fill="#706148" d="M185-189c-5-48-123-54-124 2 14 75 158 14 163 119 3 78-121 87-175 55-17-10-28-26-33-46l33-7c5 56 141 63 141-1 0-78-155-14-162-118-5-82 145-84 179-34 5 7 8 16 11 25" id="aO"/><path fill="#706148" d="M108 0H70L1-190h34L89-25l56-165h34" id="aP"/><path fill="#706148" d="M24-231v-30h32v30H24zM24 0v-190h32V0H24" id="aQ"/><path fill="#706148" d="M96-169c-40 0-48 33-48 73s9 75 48 75c24 0 41-14 43-38l32 2c-6 37-31 61-74 61-59 0-76-41-82-99-10-93 101-131 147-64 4 7 5 14 7 22l-32 3c-4-21-16-35-41-35" id="aR"/><path fill="#706148" d="M33-154v-36h34v36H33zM33 0v-36h34V0H33" id="aS"/><g id="c"><use transform="matrix(0.05,0,0,0.05,0,0)" xlink:href="#aG"/><use transform="matrix(0.05,0,0,0.05,12.950000000000001,0)" xlink:href="#aH"/><use transform="matrix(0.05,0,0,0.05,22.950000000000003,0)" xlink:href="#aI"/><use transform="matrix(0.05,0,0,0.05,27.950000000000003,0)" xlink:href="#aJ"/><use transform="matrix(0.05,0,0,0.05,37.95,0)" xlink:href="#aK"/><use transform="matrix(0.05,0,0,0.05,47.95,0)" xlink:href="#aL"/><use transform="matrix(0.05,0,0,0.05,57.95,0)" xlink:href="#aM"/><use transform="matrix(0.05,0,0,0.05,63.900000000000006,0)" xlink:href="#aN"/><use transform="matrix(0.05,0,0,0.05,72.9,0)" xlink:href="#aO"/><use transform="matrix(0.05,0,0,0.05,84.9,0)" xlink:href="#aJ"/><use transform="matrix(0.05,0,0,0.05,94.9,0)" xlink:href="#aM"/><use transform="matrix(0.05,0,0,0.05,100.85000000000001,0)" xlink:href="#aP"/><use transform="matrix(0.05,0,0,0.05,109.85000000000001,0)" xlink:href="#aQ"/><use transform="matrix(0.05,0,0,0.05,113.80000000000001,0)" xlink:href="#aR"/><use transform="matrix(0.05,0,0,0.05,122.80000000000001,0)" xlink:href="#aJ"/><use transform="matrix(0.05,0,0,0.05,132.8,0)" xlink:href="#aS"/></g><path fill="#834187" d="M212-179c-10-28-35-45-73-45-59 0-87 40-87 99 0 60 29 101 89 101 43 0 62-24 78-52l27 14C228-24 195 4 139 4 59 4 22-46 18-125c-6-104 99-153 187-111 19 9 31 26 39 46" id="aT"/><path fill="#834187" d="M141-36C126-15 110 5 73 4 37 3 15-17 15-53c-1-64 63-63 125-63 3-35-9-54-41-54-24 1-41 7-42 31l-33-3c5-37 33-52 76-52 45 0 72 20 72 64v82c-1 20 7 32 28 27v20c-31 9-61-2-59-35zM48-53c0 20 12 33 32 33 41-3 63-29 60-74-43 2-92-5-92 41" id="aU"/><path fill="#834187" d="M59-47c-2 24 18 29 38 22v24C64 9 27 4 27-40v-127H5v-23h24l9-43h21v43h35v23H59v120" id="aV"/><path fill="#834187" d="M100-194c63 0 86 42 84 106H49c0 40 14 67 53 68 26 1 43-12 49-29l28 8c-11 28-37 45-77 45C44 4 14-33 15-96c1-61 26-98 85-98zm52 81c6-60-76-77-97-28-3 7-6 17-6 28h103" id="aW"/><path fill="#834187" d="M177-190C167-65 218 103 67 71c-23-6-38-20-44-43l32-5c15 47 100 32 89-28v-30C133-14 115 1 83 1 29 1 15-40 15-95c0-56 16-97 71-98 29-1 48 16 59 35 1-10 0-23 2-32h30zM94-22c36 0 50-32 50-73 0-42-14-75-50-75-39 0-46 34-46 75s6 73 46 73" id="aX"/><path fill="#834187" d="M100-194c62-1 85 37 85 99 1 63-27 99-86 99S16-35 15-95c0-66 28-99 85-99zM99-20c44 1 53-31 53-75 0-43-8-75-51-75s-53 32-53 75 10 74 51 75" id="aY"/><path fill="#834187" d="M114-163C36-179 61-72 57 0H25l-1-190h30c1 12-1 29 2 39 6-27 23-49 58-41v29" id="aZ"/><path fill="#834187" d="M179-190L93 31C79 59 56 82 12 73V49c39 6 53-20 64-50L1-190h34L92-34l54-156h33" id="ba"/><path fill="#834187" d="M185-189c-5-48-123-54-124 2 14 75 158 14 163 119 3 78-121 87-175 55-17-10-28-26-33-46l33-7c5 56 141 63 141-1 0-78-155-14-162-118-5-82 145-84 179-34 5 7 8 16 11 25" id="bb"/><path fill="#834187" d="M108 0H70L1-190h34L89-25l56-165h34" id="bc"/><path fill="#834187" d="M24-231v-30h32v30H24zM24 0v-190h32V0H24" id="bd"/><path fill="#834187" d="M96-169c-40 0-48 33-48 73s9 75 48 75c24 0 41-14 43-38l32 2c-6 37-31 61-74 61-59 0-76-41-82-99-10-93 101-131 147-64 4 7 5 14 7 22l-32 3c-4-21-16-35-41-35" id="be"/><g id="d"><use transform="matrix(0.05,0,0,0.05,0,0)" xlink:href="#aT"/><use transform="matrix(0.05,0,0,0.05,12.950000000000001,0)" xlink:href="#aU"/><use transform="matrix(0.05,0,0,0.05,22.950000000000003,0)" xlink:href="#aV"/><use transform="matrix(0.05,0,0,0.05,27.950000000000003,0)" xlink:href="#aW"/><use transform="matrix(0.05,0,0,0.05,37.95,0)" xlink:href="#aX"/><use transform="matrix(0.05,0,0,0.05,47.95,0)" xlink:href="#aY"/><use transform="matrix(0.05,0,0,0.05,57.95,0)" xlink:href="#aZ"/><use transform="matrix(0.05,0,0,0.05,63.900000000000006,0)" xlink:href="#ba"/><use transform="matrix(0.05,0,0,0.05,72.9,0)" xlink:href="#bb"/><use transform="matrix(0.05,0,0,0.05,84.9,0)" xlink:href="#aW"/><use transform="matrix(0.05,0,0,0.05,94.9,0)" xlink:href="#aZ"/><use transform="matrix(0.05,0,0,0.05,100.85000000000001,0)" xlink:href="#bc"/><use transform="matrix(0.05,0,0,0.05,109.85000000000001,0)" xlink:href="#bd"/><use transform="matrix(0.05,0,0,0.05,113.80000000000001,0)" xlink:href="#be"/><use transform="matrix(0.05,0,0,0.05,122.80000000000001,0)" xlink:href="#aW"/></g><path fill="#706148" d="M118-107v75H92v-75H18v-26h74v-75h26v75h74v26h-74" id="bf"/><use transform="matrix(0.05,0,0,0.05,0,0)" xlink:href="#bf" id="e"/><g id="f"><use transform="matrix(0.05,0,0,0.05,0,0)" xlink:href="#aG"/><use transform="matrix(0.05,0,0,0.05,12.950000000000001,0)" xlink:href="#aH"/><use transform="matrix(0.05,0,0,0.05,22.950000000000003,0)" xlink:href="#aI"/><use transform="matrix(0.05,0,0,0.05,27.950000000000003,0)" xlink:href="#aJ"/><use transform="matrix(0.05,0,0,0.05,37.95,0)" xlink:href="#aK"/><use transform="matrix(0.05,0,0,0.05,47.95,0)" xlink:href="#aL"/><use transform="matrix(0.05,0,0,0.05,57.95,0)" xlink:href="#aM"/><use transform="matrix(0.05,0,0,0.05,63.900000000000006,0)" xlink:href="#aN"/><use transform="matrix(0.05,0,0,0.05,72.9,0)" xlink:href="#aS"/></g><g id="g"><use transform="matrix(0.05,0,0,0.05,0,0)" xlink:href="#aT"/><use transform="matrix(0.05,0,0,0.05,12.950000000000001,0)" xlink:href="#aU"/><use transform="matrix(0.05,0,0,0.05,22.950000000000003,0)" xlink:href="#aV"/><use transform="matrix(0.05,0,0,0.05,27.950000000000003,0)" xlink:href="#aW"/><use transform="matrix(0.05,0,0,0.05,37.95,0)" xlink:href="#aX"/><use transform="matrix(0.05,0,0,0.05,47.95,0)" xlink:href="#aY"/><use transform="matrix(0.05,0,0,0.05,57.95,0)" xlink:href="#aZ"/><use transform="matrix(0.05,0,0,0.05,63.900000000000006,0)" xlink:href="#ba"/></g><path fill="#706148" d="M87 75C49 33 22-17 22-94c0-76 28-126 65-167h31c-38 41-64 92-64 168S80 34 118 75H87" id="bg"/><path fill="#706148" d="M33-261c38 41 65 92 65 168S71 34 33 75H2C39 34 66-17 66-93S39-220 2-261h31" id="bh"/><g id="h"><use transform="matrix(0.05,0,0,0.05,0,0)" xlink:href="#aR"/><use transform="matrix(0.05,0,0,0.05,9,0)" xlink:href="#aM"/><use transform="matrix(0.05,0,0,0.05,14.949999999999998,0)" xlink:href="#aJ"/><use transform="matrix(0.05,0,0,0.05,24.95,0)" xlink:href="#aH"/><use transform="matrix(0.05,0,0,0.05,34.95,0)" xlink:href="#aI"/><use transform="matrix(0.05,0,0,0.05,39.95,0)" xlink:href="#aJ"/><use transform="matrix(0.05,0,0,0.05,49.95,0)" xlink:href="#aG"/><use transform="matrix(0.05,0,0,0.05,62.900000000000006,0)" xlink:href="#aH"/><use transform="matrix(0.05,0,0,0.05,72.9,0)" xlink:href="#aI"/><use transform="matrix(0.05,0,0,0.05,77.9,0)" xlink:href="#aJ"/><use transform="matrix(0.05,0,0,0.05,87.9,0)" xlink:href="#aK"/><use transform="matrix(0.05,0,0,0.05,97.9,0)" xlink:href="#aL"/><use transform="matrix(0.05,0,0,0.05,107.9,0)" xlink:href="#aM"/><use transform="matrix(0.05,0,0,0.05,113.85000000000001,0)" xlink:href="#aN"/><use transform="matrix(0.05,0,0,0.05,122.85000000000001,0)" xlink:href="#bg"/><use transform="matrix(0.05,0,0,0.05,128.8,0)" xlink:href="#bh"/><use transform="matrix(0.05,0,0,0.05,134.75,0)" xlink:href="#aS"/></g><path fill="#0c7cba" d="M108 0H70L1-190h34L89-25l56-165h34" id="bi"/><path fill="#0c7cba" d="M100-194c62-1 85 37 85 99 1 63-27 99-86 99S16-35 15-95c0-66 28-99 85-99zM99-20c44 1 53-31 53-75 0-43-8-75-51-75s-53 32-53 75 10 74 51 75" id="bj"/><path fill="#0c7cba" d="M24-231v-30h32v30H24zM24 0v-190h32V0H24" id="bk"/><path fill="#0c7cba" d="M85-194c31 0 48 13 60 33l-1-100h32l1 261h-30c-2-10 0-23-3-31C134-8 116 4 85 4 32 4 16-35 15-94c0-66 23-100 70-100zm9 24c-40 0-46 34-46 75 0 40 6 74 45 74 42 0 51-32 51-76 0-42-9-74-50-73" id="bl"/><g id="i"><use transform="matrix(0.05,0,0,0.05,0,0)" xlink:href="#bi"/><use transform="matrix(0.05,0,0,0.05,9,0)" xlink:href="#bj"/><use transform="matrix(0.05,0,0,0.05,19,0)" xlink:href="#bk"/><use transform="matrix(0.05,0,0,0.05,22.95,0)" xlink:href="#bl"/></g><path fill="#706148" d="M85-194c31 0 48 13 60 33l-1-100h32l1 261h-30c-2-10 0-23-3-31C134-8 116 4 85 4 32 4 16-35 15-94c0-66 23-100 70-100zm9 24c-40 0-46 34-46 75 0 40 6 74 45 74 42 0 51-32 51-76 0-42-9-74-50-73" id="bm"/><path fill="#706148" d="M24 0v-261h32V0H24" id="bn"/><g id="j"><use transform="matrix(0.05,0,0,0.05,0,0)" xlink:href="#bm"/><use transform="matrix(0.05,0,0,0.05,10,0)" xlink:href="#aJ"/><use transform="matrix(0.05,0,0,0.05,20,0)" xlink:href="#bn"/><use transform="matrix(0.05,0,0,0.05,23.95,0)" xlink:href="#aJ"/><use transform="matrix(0.05,0,0,0.05,33.95,0)" xlink:href="#aI"/><use transform="matrix(0.05,0,0,0.05,38.95,0)" xlink:href="#aJ"/><use transform="matrix(0.05,0,0,0.05,48.95,0)" xlink:href="#aG"/><use transform="matrix(0.05,0,0,0.05,61.900000000000006,0)" xlink:href="#aH"/><use transform="matrix(0.05,0,0,0.05,71.9,0)" xlink:href="#aI"/><use transform="matrix(0.05,0,0,0.05,76.9,0)" xlink:href="#aJ"/><use transform="matrix(0.05,0,0,0.05,86.9,0)" xlink:href="#aK"/><use transform="matrix(0.05,0,0,0.05,96.9,0)" xlink:href="#aL"/><use transform="matrix(0.05,0,0,0.05,106.9,0)" xlink:href="#aM"/><use transform="matrix(0.05,0,0,0.05,112.85000000000001,0)" xlink:href="#aN"/><use transform="matrix(0.05,0,0,0.05,121.85000000000001,0)" xlink:href="#bg"/><use transform="matrix(0.05,0,0,0.05,127.80000000000001,0)" xlink:href="#bh"/><use transform="matrix(0.05,0,0,0.05,133.75,0)" xlink:href="#aS"/></g><path fill="#706148" d="M117-194c89-4 53 116 60 194h-32v-121c0-31-8-49-39-48C34-167 62-67 57 0H25l-1-190h30c1 10-1 24 2 32 11-22 29-35 61-36" id="bo"/><path fill="#706148" d="M210-169c-67 3-38 105-44 169h-31v-121c0-29-5-50-35-48C34-165 62-65 56 0H25l-1-190h30c1 10-1 24 2 32 10-44 99-50 107 0 11-21 27-35 58-36 85-2 47 119 55 194h-31v-121c0-29-5-49-35-48" id="bp"/><g id="k"><use transform="matrix(0.05,0,0,0.05,0,0)" xlink:href="#aM"/><use transform="matrix(0.05,0,0,0.05,5.95,0)" xlink:href="#aJ"/><use transform="matrix(0.05,0,0,0.05,15.949999999999998,0)" xlink:href="#bo"/><use transform="matrix(0.05,0,0,0.05,25.950000000000003,0)" xlink:href="#aH"/><use transform="matrix(0.05,0,0,0.05,35.95,0)" xlink:href="#bp"/><use transform="matrix(0.05,0,0,0.05,50.900000000000006,0)" xlink:href="#aJ"/><use transform="matrix(0.05,0,0,0.05,60.900000000000006,0)" xlink:href="#aG"/><use transform="matrix(0.05,0,0,0.05,73.85000000000001,0)" xlink:href="#aH"/><use transform="matrix(0.05,0,0,0.05,83.85000000000001,0)" xlink:href="#aI"/><use transform="matrix(0.05,0,0,0.05,88.85000000000001,0)" xlink:href="#aJ"/><use transform="matrix(0.05,0,0,0.05,98.85000000000001,0)" xlink:href="#aK"/><use transform="matrix(0.05,0,0,0.05,108.85000000000001,0)" xlink:href="#aL"/><use transform="matrix(0.05,0,0,0.05,118.85000000000001,0)" xlink:href="#aM"/><use transform="matrix(0.05,0,0,0.05,124.80000000000001,0)" xlink:href="#aN"/><use transform="matrix(0.05,0,0,0.05,133.8,0)" xlink:href="#bg"/><use transform="matrix(0.05,0,0,0.05,139.75,0)" xlink:href="#bh"/><use transform="matrix(0.05,0,0,0.05,145.7,0)" xlink:href="#aS"/></g><path fill="#706148" d="M140-251c81 0 123 46 123 126C263-46 219 4 140 4 59 4 17-45 17-125s42-126 123-126zm0 227c63 0 89-41 89-101s-29-99-89-99c-61 0-89 39-89 99S79-25 140-24" id="bq"/><path fill="#706148" d="M33 0v-248h34V0H33" id="br"/><g id="l"><use transform="matrix(0.05,0,0,0.05,0,0)" xlink:href="#bo"/><use transform="matrix(0.05,0,0,0.05,10,0)" xlink:href="#aK"/><use transform="matrix(0.05,0,0,0.05,20,0)" xlink:href="#bq"/><use transform="matrix(0.05,0,0,0.05,34,0)" xlink:href="#bo"/><use transform="matrix(0.05,0,0,0.05,44,0)" xlink:href="#br"/><use transform="matrix(0.05,0,0,0.05,49,0)" xlink:href="#bo"/><use transform="matrix(0.05,0,0,0.05,59,0)" xlink:href="#aQ"/><use transform="matrix(0.05,0,0,0.05,62.95,0)" xlink:href="#aI"/><use transform="matrix(0.05,0,0,0.05,67.95,0)" xlink:href="#bg"/><use transform="matrix(0.05,0,0,0.05,73.9,0)" xlink:href="#bh"/><use transform="matrix(0.05,0,0,0.05,79.85000000000001,0)" xlink:href="#aS"/></g><g id="m"><use transform="matrix(0.05,0,0,0.05,0,0)" xlink:href="#bi"/><use transform="matrix(0.05,0,0,0.05,9,0)" xlink:href="#bj"/><use transform="matrix(0.05,0,0,0.05,19,0)" xlink:href="#bk"/><use transform="matrix(0.05,0,0,0.05,22.95,0)" xlink:href="#bl"/></g><g id="n"><use transform="matrix(0.05,0,0,0.05,0,0)" xlink:href="#au"/><use transform="matrix(0.05,0,0,0.05,12.950000000000001,0)" xlink:href="#av"/><use transform="matrix(0.05,0,0,0.05,22.950000000000003,0)" xlink:href="#aw"/><use transform="matrix(0.05,0,0,0.05,28.900000000000002,0)" xlink:href="#ax"/><use transform="matrix(0.05,0,0,0.05,38.900000000000006,0)" xlink:href="#ay"/><use transform="matrix(0.05,0,0,0.05,49.85000000000001,0)" xlink:href="#az"/><use transform="matrix(0.05,0,0,0.05,60.80000000000001,0)" xlink:href="#aA"/><use transform="matrix(0.05,0,0,0.05,67.80000000000001,0)" xlink:href="#aB"/></g><path fill="#706148" d="M135-143c-3-34-86-38-87 0 15 53 115 12 119 90S17 21 10-45l28-5c4 36 97 45 98 0-10-56-113-15-118-90-4-57 82-63 122-42 12 7 21 19 24 35" id="bs"/><g id="o"><use transform="matrix(0.05,0,0,0.05,0,0)" xlink:href="#aR"/><use transform="matrix(0.05,0,0,0.05,9,0)" xlink:href="#aH"/><use transform="matrix(0.05,0,0,0.05,19,0)" xlink:href="#aI"/><use transform="matrix(0.05,0,0,0.05,24,0)" xlink:href="#aJ"/><use transform="matrix(0.05,0,0,0.05,34,0)" xlink:href="#aK"/><use transform="matrix(0.05,0,0,0.05,44,0)" xlink:href="#aL"/><use transform="matrix(0.05,0,0,0.05,54,0)" xlink:href="#aM"/><use transform="matrix(0.05,0,0,0.05,59.95,0)" xlink:href="#aQ"/><use transform="matrix(0.05,0,0,0.05,63.900000000000006,0)" xlink:href="#aJ"/><use transform="matrix(0.05,0,0,0.05,73.9,0)" xlink:href="#bs"/></g><use transform="matrix(0.05,0,0,0.05,0,0)" xlink:href="#aS" id="p"/><path fill="#ef8d22" d="M135-143c-3-34-86-38-87 0 15 53 115 12 119 90S17 21 10-45l28-5c4 36 97 45 98 0-10-56-113-15-118-90-4-57 82-63 122-42 12 7 21 19 24 35" id="bt"/><path fill="#ef8d22" d="M59-47c-2 24 18 29 38 22v24C64 9 27 4 27-40v-127H5v-23h24l9-43h21v43h35v23H59v120" id="bu"/><path fill="#ef8d22" d="M114-163C36-179 61-72 57 0H25l-1-190h30c1 12-1 29 2 39 6-27 23-49 58-41v29" id="bv"/><path fill="#ef8d22" d="M24-231v-30h32v30H24zM24 0v-190h32V0H24" id="bw"/><path fill="#ef8d22" d="M117-194c89-4 53 116 60 194h-32v-121c0-31-8-49-39-48C34-167 62-67 57 0H25l-1-190h30c1 10-1 24 2 32 11-22 29-35 61-36" id="bx"/><path fill="#ef8d22" d="M177-190C167-65 218 103 67 71c-23-6-38-20-44-43l32-5c15 47 100 32 89-28v-30C133-14 115 1 83 1 29 1 15-40 15-95c0-56 16-97 71-98 29-1 48 16 59 35 1-10 0-23 2-32h30zM94-22c36 0 50-32 50-73 0-42-14-75-50-75-39 0-46 34-46 75s6 73 46 73" id="by"/><path fill="#ef8d22" d="M26 75v-336h71v23H56V52h41v23H26" id="bz"/><g id="q"><use transform="matrix(0.05,0,0,0.05,0,0)" xlink:href="#bt"/><use transform="matrix(0.05,0,0,0.05,9,0)" xlink:href="#bu"/><use transform="matrix(0.05,0,0,0.05,14,0)" xlink:href="#bv"/><use transform="matrix(0.05,0,0,0.05,19.95,0)" xlink:href="#bw"/><use transform="matrix(0.05,0,0,0.05,23.9,0)" xlink:href="#bx"/><use transform="matrix(0.05,0,0,0.05,33.9,0)" xlink:href="#by"/><use transform="matrix(0.05,0,0,0.05,43.9,0)" xlink:href="#bz"/></g><path fill="#ef8d22" d="M3 75V52h41v-290H3v-23h71V75H3" id="bA"/><use transform="matrix(0.05,0,0,0.05,0,0)" xlink:href="#bA" id="r"/><path fill="#706148" d="M206 0h-36l-40-164L89 0H53L-1-190h32L70-26l43-164h34l41 164 42-164h31" id="bB"/><g id="s"><use transform="matrix(0.05,0,0,0.05,0,0)" xlink:href="#bo"/><use transform="matrix(0.05,0,0,0.05,10,0)" xlink:href="#aJ"/><use transform="matrix(0.05,0,0,0.05,20,0)" xlink:href="#bB"/><use transform="matrix(0.05,0,0,0.05,32.95,0)" xlink:href="#aG"/><use transform="matrix(0.05,0,0,0.05,45.900000000000006,0)" xlink:href="#aH"/><use transform="matrix(0.05,0,0,0.05,55.900000000000006,0)" xlink:href="#aI"/><use transform="matrix(0.05,0,0,0.05,60.900000000000006,0)" xlink:href="#aJ"/><use transform="matrix(0.05,0,0,0.05,70.9,0)" xlink:href="#aK"/><use transform="matrix(0.05,0,0,0.05,80.9,0)" xlink:href="#aL"/><use transform="matrix(0.05,0,0,0.05,90.9,0)" xlink:href="#aM"/><use transform="matrix(0.05,0,0,0.05,96.85000000000001,0)" xlink:href="#aN"/></g><g id="t"><use transform="matrix(0.05,0,0,0.05,0,0)" xlink:href="#bt"/><use transform="matrix(0.05,0,0,0.05,9,0)" xlink:href="#bu"/><use transform="matrix(0.05,0,0,0.05,14,0)" xlink:href="#bv"/><use transform="matrix(0.05,0,0,0.05,19.95,0)" xlink:href="#bw"/><use transform="matrix(0.05,0,0,0.05,23.9,0)" xlink:href="#bx"/><use transform="matrix(0.05,0,0,0.05,33.9,0)" xlink:href="#by"/></g><g id="u"><use transform="matrix(0.05,0,0,0.05,0,0)" xlink:href="#bs"/><use transform="matrix(0.05,0,0,0.05,9,0)" xlink:href="#aJ"/><use transform="matrix(0.05,0,0,0.05,19,0)" xlink:href="#bn"/><use transform="matrix(0.05,0,0,0.05,22.95,0)" xlink:href="#aJ"/><use transform="matrix(0.05,0,0,0.05,32.95,0)" xlink:href="#aR"/><use transform="matrix(0.05,0,0,0.05,41.95,0)" xlink:href="#aI"/><use transform="matrix(0.05,0,0,0.05,46.95,0)" xlink:href="#aJ"/><use transform="matrix(0.05,0,0,0.05,56.95,0)" xlink:href="#bm"/><use transform="matrix(0.05,0,0,0.05,66.95,0)" xlink:href="#aG"/><use transform="matrix(0.05,0,0,0.05,79.9,0)" xlink:href="#aH"/><use transform="matrix(0.05,0,0,0.05,89.9,0)" xlink:href="#aI"/><use transform="matrix(0.05,0,0,0.05,94.9,0)" xlink:href="#aJ"/><use transform="matrix(0.05,0,0,0.05,104.9,0)" xlink:href="#aK"/><use transform="matrix(0.05,0,0,0.05,114.9,0)" xlink:href="#aL"/><use transform="matrix(0.05,0,0,0.05,124.9,0)" xlink:href="#aM"/><use transform="matrix(0.05,0,0,0.05,130.85,0)" xlink:href="#aN"/></g><path fill="#706148" d="M233-177c-1 41-23 64-60 70L243 0h-38l-65-103H63V0H30v-248c88 3 205-21 203 71zM63-129c60-2 137 13 137-47 0-61-80-42-137-45v92" id="bC"/><g id="v"><use transform="matrix(0.05,0,0,0.05,0,0)" xlink:href="#aI"/><use transform="matrix(0.05,0,0,0.05,5,0)" xlink:href="#aL"/><use transform="matrix(0.05,0,0,0.05,15,0)" xlink:href="#aK"/><use transform="matrix(0.05,0,0,0.05,25,0)" xlink:href="#aK"/><use transform="matrix(0.05,0,0,0.05,35,0)" xlink:href="#bn"/><use transform="matrix(0.05,0,0,0.05,38.95,0)" xlink:href="#aJ"/><use transform="matrix(0.05,0,0,0.05,48.95,0)" xlink:href="#bC"/><use transform="matrix(0.05,0,0,0.05,61.900000000000006,0)" xlink:href="#aJ"/><use transform="matrix(0.05,0,0,0.05,71.9,0)" xlink:href="#bo"/><use transform="matrix(0.05,0,0,0.05,81.9,0)" xlink:href="#aH"/><use transform="matrix(0.05,0,0,0.05,91.9,0)" xlink:href="#bp"/><use transform="matrix(0.05,0,0,0.05,106.85000000000001,0)" xlink:href="#aJ"/></g><path fill="#ef8d22" d="M115-194c53 0 69 39 70 98 0 66-23 100-70 100C84 3 66-7 56-30L54 0H23l1-261h32v101c10-23 28-34 59-34zm-8 174c40 0 45-34 45-75 0-40-5-75-45-74-42 0-51 32-51 76 0 43 10 73 51 73" id="bD"/><path fill="#ef8d22" d="M100-194c62-1 85 37 85 99 1 63-27 99-86 99S16-35 15-95c0-66 28-99 85-99zM99-20c44 1 53-31 53-75 0-43-8-75-51-75s-53 32-53 75 10 74 51 75" id="bE"/><path fill="#ef8d22" d="M24 0v-261h32V0H24" id="bF"/><path fill="#ef8d22" d="M100-194c63 0 86 42 84 106H49c0 40 14 67 53 68 26 1 43-12 49-29l28 8c-11 28-37 45-77 45C44 4 14-33 15-96c1-61 26-98 85-98zm52 81c6-60-76-77-97-28-3 7-6 17-6 28h103" id="bG"/><path fill="#ef8d22" d="M141-36C126-15 110 5 73 4 37 3 15-17 15-53c-1-64 63-63 125-63 3-35-9-54-41-54-24 1-41 7-42 31l-33-3c5-37 33-52 76-52 45 0 72 20 72 64v82c-1 20 7 32 28 27v20c-31 9-61-2-59-35zM48-53c0 20 12 33 32 33 41-3 63-29 60-74-43 2-92-5-92 41" id="bH"/><g id="w"><use transform="matrix(0.05,0,0,0.05,0,0)" xlink:href="#bD"/><use transform="matrix(0.05,0,0,0.05,10,0)" xlink:href="#bE"/><use transform="matrix(0.05,0,0,0.05,20,0)" xlink:href="#bE"/><use transform="matrix(0.05,0,0,0.05,30,0)" xlink:href="#bF"/><use transform="matrix(0.05,0,0,0.05,33.95,0)" xlink:href="#bG"/><use transform="matrix(0.05,0,0,0.05,43.95,0)" xlink:href="#bH"/><use transform="matrix(0.05,0,0,0.05,53.95,0)" xlink:href="#bx"/></g><path fill="#0c7cba" d="M18-150v-26h174v26H18zm0 90v-26h174v26H18" id="bI"/><use transform="matrix(0.05,0,0,0.05,0,0)" xlink:href="#bI" id="x"/><path fill="#0c7cba" d="M101-234c-31-9-42 10-38 44h38v23H63V0H32v-167H5v-23h27c-7-52 17-82 69-68v24" id="bJ"/><path fill="#0c7cba" d="M141-36C126-15 110 5 73 4 37 3 15-17 15-53c-1-64 63-63 125-63 3-35-9-54-41-54-24 1-41 7-42 31l-33-3c5-37 33-52 76-52 45 0 72 20 72 64v82c-1 20 7 32 28 27v20c-31 9-61-2-59-35zM48-53c0 20 12 33 32 33 41-3 63-29 60-74-43 2-92-5-92 41" id="bK"/><path fill="#0c7cba" d="M24 0v-261h32V0H24" id="bL"/><path fill="#0c7cba" d="M135-143c-3-34-86-38-87 0 15 53 115 12 119 90S17 21 10-45l28-5c4 36 97 45 98 0-10-56-113-15-118-90-4-57 82-63 122-42 12 7 21 19 24 35" id="bM"/><path fill="#0c7cba" d="M100-194c63 0 86 42 84 106H49c0 40 14 67 53 68 26 1 43-12 49-29l28 8c-11 28-37 45-77 45C44 4 14-33 15-96c1-61 26-98 85-98zm52 81c6-60-76-77-97-28-3 7-6 17-6 28h103" id="bN"/><g id="y"><use transform="matrix(0.05,0,0,0.05,0,0)" xlink:href="#bJ"/><use transform="matrix(0.05,0,0,0.05,5,0)" xlink:href="#bK"/><use transform="matrix(0.05,0,0,0.05,15,0)" xlink:href="#bL"/><use transform="matrix(0.05,0,0,0.05,18.95,0)" xlink:href="#bM"/><use transform="matrix(0.05,0,0,0.05,27.950000000000003,0)" xlink:href="#bN"/></g><path fill="#706148" d="M169-182c-1-43-94-46-97-3 18 66 151 10 154 114 3 95-165 93-204 36-6-8-10-19-12-30l50-8c3 46 112 56 116 5-17-69-150-10-154-114-4-87 153-88 188-35 5 8 8 18 10 28" id="bO"/><path fill="#706148" d="M128 0H69L1-190h53L99-40l48-150h52" id="bP"/><path fill="#706148" d="M25-224v-37h50v37H25zM25 0v-190h50V0H25" id="bQ"/><path fill="#706148" d="M190-63c-7 42-38 67-86 67-59 0-84-38-90-98-12-110 154-137 174-36l-49 2c-2-19-15-32-35-32-30 0-35 28-38 64-6 74 65 87 74 30" id="bR"/><g id="z"><use transform="matrix(0.05,0,0,0.05,0,0)" xlink:href="#au"/><use transform="matrix(0.05,0,0,0.05,12.950000000000001,0)" xlink:href="#av"/><use transform="matrix(0.05,0,0,0.05,22.950000000000003,0)" xlink:href="#aw"/><use transform="matrix(0.05,0,0,0.05,28.900000000000002,0)" xlink:href="#ax"/><use transform="matrix(0.05,0,0,0.05,38.900000000000006,0)" xlink:href="#ay"/><use transform="matrix(0.05,0,0,0.05,49.85000000000001,0)" xlink:href="#az"/><use transform="matrix(0.05,0,0,0.05,60.80000000000001,0)" xlink:href="#aA"/><use transform="matrix(0.05,0,0,0.05,67.80000000000001,0)" xlink:href="#aB"/><use transform="matrix(0.05,0,0,0.05,77.80000000000001,0)" xlink:href="#bO"/><use transform="matrix(0.05,0,0,0.05,89.80000000000001,0)" xlink:href="#ax"/><use transform="matrix(0.05,0,0,0.05,99.80000000000001,0)" xlink:href="#aA"/><use transform="matrix(0.05,0,0,0.05,106.80000000000001,0)" xlink:href="#bP"/><use transform="matrix(0.05,0,0,0.05,116.80000000000001,0)" xlink:href="#bQ"/><use transform="matrix(0.05,0,0,0.05,121.80000000000001,0)" xlink:href="#bR"/><use transform="matrix(0.05,0,0,0.05,131.8,0)" xlink:href="#ax"/></g><use transform="matrix(0.05,0,0,0.05,0,0)" xlink:href="#aF" id="A"/><path fill="#706148" d="M197 0v-115H63V0H30v-248h33v105h134v-105h34V0h-34" id="bS"/><path fill="#706148" d="M115-194c55 1 70 41 70 98S169 2 115 4C84 4 66-9 55-30l1 105H24l-1-265h31l2 30c10-21 28-34 59-34zm-8 174c40 0 45-34 45-75s-6-73-45-74c-42 0-51 32-51 76 0 43 10 73 51 73" id="bT"/><g id="B"><use transform="matrix(0.05,0,0,0.05,0,0)" xlink:href="#aG"/><use transform="matrix(0.05,0,0,0.05,12.950000000000001,0)" xlink:href="#aH"/><use transform="matrix(0.05,0,0,0.05,22.950000000000003,0)" xlink:href="#aI"/><use transform="matrix(0.05,0,0,0.05,27.950000000000003,0)" xlink:href="#aJ"/><use transform="matrix(0.05,0,0,0.05,37.95,0)" xlink:href="#aK"/><use transform="matrix(0.05,0,0,0.05,47.95,0)" xlink:href="#aL"/><use transform="matrix(0.05,0,0,0.05,57.95,0)" xlink:href="#aM"/><use transform="matrix(0.05,0,0,0.05,63.900000000000006,0)" xlink:href="#aN"/><use transform="matrix(0.05,0,0,0.05,72.9,0)" xlink:href="#bS"/><use transform="matrix(0.05,0,0,0.05,85.85000000000001,0)" xlink:href="#aI"/><use transform="matrix(0.05,0,0,0.05,90.85000000000001,0)" xlink:href="#aI"/><use transform="matrix(0.05,0,0,0.05,95.85000000000001,0)" xlink:href="#bT"/><use transform="matrix(0.05,0,0,0.05,105.85000000000001,0)" xlink:href="#aO"/><use transform="matrix(0.05,0,0,0.05,117.85000000000001,0)" xlink:href="#aJ"/><use transform="matrix(0.05,0,0,0.05,127.85000000000001,0)" xlink:href="#aM"/><use transform="matrix(0.05,0,0,0.05,133.8,0)" xlink:href="#aP"/><use transform="matrix(0.05,0,0,0.05,142.8,0)" xlink:href="#aQ"/><use transform="matrix(0.05,0,0,0.05,146.75,0)" xlink:href="#aR"/><use transform="matrix(0.05,0,0,0.05,155.75,0)" xlink:href="#aJ"/><use transform="matrix(0.05,0,0,0.05,165.75,0)" xlink:href="#aS"/></g><path fill="#834187" d="M197 0v-115H63V0H30v-248h33v105h134v-105h34V0h-34" id="bU"/><path fill="#834187" d="M115-194c55 1 70 41 70 98S169 2 115 4C84 4 66-9 55-30l1 105H24l-1-265h31l2 30c10-21 28-34 59-34zm-8 174c40 0 45-34 45-75s-6-73-45-74c-42 0-51 32-51 76 0 43 10 73 51 73" id="bV"/><g id="C"><use transform="matrix(0.05,0,0,0.05,0,0)" xlink:href="#aT"/><use transform="matrix(0.05,0,0,0.05,12.950000000000001,0)" xlink:href="#aU"/><use transform="matrix(0.05,0,0,0.05,22.950000000000003,0)" xlink:href="#aV"/><use transform="matrix(0.05,0,0,0.05,27.950000000000003,0)" xlink:href="#aW"/><use transform="matrix(0.05,0,0,0.05,37.95,0)" xlink:href="#aX"/><use transform="matrix(0.05,0,0,0.05,47.95,0)" xlink:href="#aY"/><use transform="matrix(0.05,0,0,0.05,57.95,0)" xlink:href="#aZ"/><use transform="matrix(0.05,0,0,0.05,63.900000000000006,0)" xlink:href="#ba"/><use transform="matrix(0.05,0,0,0.05,72.9,0)" xlink:href="#bU"/><use transform="matrix(0.05,0,0,0.05,85.85000000000001,0)" xlink:href="#aV"/><use transform="matrix(0.05,0,0,0.05,90.85000000000001,0)" xlink:href="#aV"/><use transform="matrix(0.05,0,0,0.05,95.85000000000001,0)" xlink:href="#bV"/><use transform="matrix(0.05,0,0,0.05,105.85000000000001,0)" xlink:href="#bb"/><use transform="matrix(0.05,0,0,0.05,117.85000000000001,0)" xlink:href="#aW"/><use transform="matrix(0.05,0,0,0.05,127.85000000000001,0)" xlink:href="#aZ"/><use transform="matrix(0.05,0,0,0.05,133.8,0)" xlink:href="#bc"/><use transform="matrix(0.05,0,0,0.05,142.8,0)" xlink:href="#bd"/><use transform="matrix(0.05,0,0,0.05,146.75,0)" xlink:href="#be"/><use transform="matrix(0.05,0,0,0.05,155.75,0)" xlink:href="#aW"/></g><use transform="matrix(0.05,0,0,0.05,0,0)" xlink:href="#bf" id="D"/><g id="E"><use transform="matrix(0.05,0,0,0.05,0,0)" xlink:href="#aG"/><use transform="matrix(0.05,0,0,0.05,12.950000000000001,0)" xlink:href="#aH"/><use transform="matrix(0.05,0,0,0.05,22.950000000000003,0)" xlink:href="#aI"/><use transform="matrix(0.05,0,0,0.05,27.950000000000003,0)" xlink:href="#aJ"/><use transform="matrix(0.05,0,0,0.05,37.95,0)" xlink:href="#aK"/><use transform="matrix(0.05,0,0,0.05,47.95,0)" xlink:href="#aL"/><use transform="matrix(0.05,0,0,0.05,57.95,0)" xlink:href="#aM"/><use transform="matrix(0.05,0,0,0.05,63.900000000000006,0)" xlink:href="#aN"/><use transform="matrix(0.05,0,0,0.05,72.9,0)" xlink:href="#aS"/></g><g id="F"><use transform="matrix(0.05,0,0,0.05,0,0)" xlink:href="#aT"/><use transform="matrix(0.05,0,0,0.05,12.950000000000001,0)" xlink:href="#aU"/><use transform="matrix(0.05,0,0,0.05,22.950000000000003,0)" xlink:href="#aV"/><use transform="matrix(0.05,0,0,0.05,27.950000000000003,0)" xlink:href="#aW"/><use transform="matrix(0.05,0,0,0.05,37.95,0)" xlink:href="#aX"/><use transform="matrix(0.05,0,0,0.05,47.95,0)" xlink:href="#aY"/><use transform="matrix(0.05,0,0,0.05,57.95,0)" xlink:href="#aZ"/><use transform="matrix(0.05,0,0,0.05,63.900000000000006,0)" xlink:href="#ba"/></g><path fill="#706148" d="M84 4C-5 8 30-112 23-190h32v120c0 31 7 50 39 49 72-2 45-101 50-169h31l1 190h-30c-1-10 1-25-2-33-11 22-28 36-60 37" id="bW"/><g id="G"><use transform="matrix(0.05,0,0,0.05,0,0)" xlink:href="#bW"/><use transform="matrix(0.05,0,0,0.05,10,0)" xlink:href="#bT"/><use transform="matrix(0.05,0,0,0.05,20,0)" xlink:href="#bm"/><use transform="matrix(0.05,0,0,0.05,30,0)" xlink:href="#aH"/><use transform="matrix(0.05,0,0,0.05,40,0)" xlink:href="#aI"/><use transform="matrix(0.05,0,0,0.05,45,0)" xlink:href="#aJ"/><use transform="matrix(0.05,0,0,0.05,55,0)" xlink:href="#aG"/><use transform="matrix(0.05,0,0,0.05,67.95,0)" xlink:href="#aH"/><use transform="matrix(0.05,0,0,0.05,77.95,0)" xlink:href="#aI"/><use transform="matrix(0.05,0,0,0.05,82.95,0)" xlink:href="#aJ"/><use transform="matrix(0.05,0,0,0.05,92.95,0)" xlink:href="#aK"/><use transform="matrix(0.05,0,0,0.05,102.95,0)" xlink:href="#aL"/><use transform="matrix(0.05,0,0,0.05,112.95,0)" xlink:href="#aM"/><use transform="matrix(0.05,0,0,0.05,118.9,0)" xlink:href="#aQ"/><use transform="matrix(0.05,0,0,0.05,122.85000000000001,0)" xlink:href="#aJ"/><use transform="matrix(0.05,0,0,0.05,132.85000000000002,0)" xlink:href="#bs"/></g><use transform="matrix(0.05,0,0,0.05,0,0)" xlink:href="#aS" id="H"/><path fill="#834187" d="M30 0v-248h187v28H63v79h144v27H63v87h162V0H30" id="bX"/><path fill="#834187" d="M117-194c89-4 53 116 60 194h-32v-121c0-31-8-49-39-48C34-167 62-67 57 0H25l-1-190h30c1 10-1 24 2 32 11-22 29-35 61-36" id="bY"/><path fill="#834187" d="M210-169c-67 3-38 105-44 169h-31v-121c0-29-5-50-35-48C34-165 62-65 56 0H25l-1-190h30c1 10-1 24 2 32 10-44 99-50 107 0 11-21 27-35 58-36 85-2 47 119 55 194h-31v-121c0-29-5-49-35-48" id="bZ"/><g id="I"><use transform="matrix(0.05,0,0,0.05,0,0)" xlink:href="#bX"/><use transform="matrix(0.05,0,0,0.05,12,0)" xlink:href="#bc"/><use transform="matrix(0.05,0,0,0.05,21,0)" xlink:href="#aW"/><use transform="matrix(0.05,0,0,0.05,31,0)" xlink:href="#bY"/><use transform="matrix(0.05,0,0,0.05,41,0)" xlink:href="#aV"/><use transform="matrix(0.05,0,0,0.05,46,0)" xlink:href="#bX"/><use transform="matrix(0.05,0,0,0.05,58,0)" xlink:href="#bZ"/><use transform="matrix(0.05,0,0,0.05,72.95,0)" xlink:href="#bd"/><use transform="matrix(0.05,0,0,0.05,76.9,0)" xlink:href="#aV"/><use transform="matrix(0.05,0,0,0.05,81.9,0)" xlink:href="#aV"/><use transform="matrix(0.05,0,0,0.05,86.9,0)" xlink:href="#aW"/><use transform="matrix(0.05,0,0,0.05,96.9,0)" xlink:href="#aZ"/></g><g id="J"><use transform="matrix(0.05,0,0,0.05,0,0)" xlink:href="#aK"/><use transform="matrix(0.05,0,0,0.05,10,0)" xlink:href="#aJ"/><use transform="matrix(0.05,0,0,0.05,20,0)" xlink:href="#aI"/><use transform="matrix(0.05,0,0,0.05,25,0)" xlink:href="#aG"/><use transform="matrix(0.05,0,0,0.05,37.95,0)" xlink:href="#aH"/><use transform="matrix(0.05,0,0,0.05,47.95,0)" xlink:href="#aI"/><use transform="matrix(0.05,0,0,0.05,52.95,0)" xlink:href="#aJ"/><use transform="matrix(0.05,0,0,0.05,62.95,0)" xlink:href="#aK"/><use transform="matrix(0.05,0,0,0.05,72.95,0)" xlink:href="#aL"/><use transform="matrix(0.05,0,0,0.05,82.95,0)" xlink:href="#aM"/><use transform="matrix(0.05,0,0,0.05,88.9,0)" xlink:href="#aQ"/><use transform="matrix(0.05,0,0,0.05,92.85000000000001,0)" xlink:href="#aJ"/><use transform="matrix(0.05,0,0,0.05,102.85000000000001,0)" xlink:href="#bs"/><use transform="matrix(0.05,0,0,0.05,111.85000000000001,0)" xlink:href="#bg"/><use transform="matrix(0.05,0,0,0.05,117.80000000000001,0)" xlink:href="#bh"/><use transform="matrix(0.05,0,0,0.05,123.75,0)" xlink:href="#aS"/></g><path fill="#706148" d="M30 0v-248h33v221h125V0H30" id="ca"/><path fill="#706148" d="M101-234c-31-9-42 10-38 44h38v23H63V0H32v-167H5v-23h27c-7-52 17-82 69-68v24" id="cb"/><g id="K"><use transform="matrix(0.05,0,0,0.05,0,0)" xlink:href="#aK"/><use transform="matrix(0.05,0,0,0.05,10,0)" xlink:href="#aJ"/><use transform="matrix(0.05,0,0,0.05,20,0)" xlink:href="#aI"/><use transform="matrix(0.05,0,0,0.05,25,0)" xlink:href="#ca"/><use transform="matrix(0.05,0,0,0.05,35,0)" xlink:href="#aQ"/><use transform="matrix(0.05,0,0,0.05,38.95,0)" xlink:href="#bs"/><use transform="matrix(0.05,0,0,0.05,47.95,0)" xlink:href="#aI"/><use transform="matrix(0.05,0,0,0.05,52.95,0)" xlink:href="#bq"/><use transform="matrix(0.05,0,0,0.05,66.95,0)" xlink:href="#cb"/><use transform="matrix(0.05,0,0,0.05,71.95,0)" xlink:href="#aG"/><use transform="matrix(0.05,0,0,0.05,84.9,0)" xlink:href="#aH"/><use transform="matrix(0.05,0,0,0.05,94.9,0)" xlink:href="#aI"/><use transform="matrix(0.05,0,0,0.05,99.9,0)" xlink:href="#aJ"/><use transform="matrix(0.05,0,0,0.05,109.9,0)" xlink:href="#aK"/><use transform="matrix(0.05,0,0,0.05,119.9,0)" xlink:href="#aL"/><use transform="matrix(0.05,0,0,0.05,129.9,0)" xlink:href="#aM"/><use transform="matrix(0.05,0,0,0.05,135.85,0)" xlink:href="#aQ"/><use transform="matrix(0.05,0,0,0.05,139.79999999999998,0)" xlink:href="#aJ"/><use transform="matrix(0.05,0,0,0.05,149.79999999999998,0)" xlink:href="#bs"/><use transform="matrix(0.05,0,0,0.05,158.79999999999998,0)" xlink:href="#bg"/><use transform="matrix(0.05,0,0,0.05,164.74999999999997,0)" xlink:href="#bh"/><use transform="matrix(0.05,0,0,0.05,170.69999999999996,0)" xlink:href="#aS"/></g><g id="L"><use transform="matrix(0.05,0,0,0.05,0,0)" xlink:href="#bt"/><use transform="matrix(0.05,0,0,0.05,9,0)" xlink:href="#bu"/><use transform="matrix(0.05,0,0,0.05,14,0)" xlink:href="#bv"/><use transform="matrix(0.05,0,0,0.05,19.95,0)" xlink:href="#bw"/><use transform="matrix(0.05,0,0,0.05,23.9,0)" xlink:href="#bx"/><use transform="matrix(0.05,0,0,0.05,33.9,0)" xlink:href="#by"/><use transform="matrix(0.05,0,0,0.05,43.9,0)" xlink:href="#bz"/></g><use transform="matrix(0.05,0,0,0.05,0,0)" xlink:href="#bA" id="M"/><g id="N"><use transform="matrix(0.05,0,0,0.05,0,0)" xlink:href="#aH"/><use transform="matrix(0.05,0,0,0.05,10,0)" xlink:href="#bm"/><use transform="matrix(0.05,0,0,0.05,20,0)" xlink:href="#bm"/><use transform="matrix(0.05,0,0,0.05,30,0)" xlink:href="#bg"/><use transform="matrix(0.05,0,0,0.05,35.95,0)" xlink:href="#bh"/><use transform="matrix(0.05,0,0,0.05,41.900000000000006,0)" xlink:href="#aS"/></g><g id="O"><use transform="matrix(0.05,0,0,0.05,0,0)" xlink:href="#bi"/><use transform="matrix(0.05,0,0,0.05,9,0)" xlink:href="#bj"/><use transform="matrix(0.05,0,0,0.05,19,0)" xlink:href="#bk"/><use transform="matrix(0.05,0,0,0.05,22.95,0)" xlink:href="#bl"/></g><g id="P"><use transform="matrix(0.05,0,0,0.05,0,0)" xlink:href="#bm"/><use transform="matrix(0.05,0,0,0.05,10,0)" xlink:href="#aJ"/><use transform="matrix(0.05,0,0,0.05,20,0)" xlink:href="#bn"/><use transform="matrix(0.05,0,0,0.05,23.95,0)" xlink:href="#aJ"/><use transform="matrix(0.05,0,0,0.05,33.95,0)" xlink:href="#aI"/><use transform="matrix(0.05,0,0,0.05,38.95,0)" xlink:href="#aJ"/><use transform="matrix(0.05,0,0,0.05,48.95,0)" xlink:href="#bg"/><use transform="matrix(0.05,0,0,0.05,54.900000000000006,0)" xlink:href="#bh"/><use transform="matrix(0.05,0,0,0.05,60.85,0)" xlink:href="#aS"/></g><g id="Q"><use transform="matrix(0.05,0,0,0.05,0,0)" xlink:href="#aM"/><use transform="matrix(0.05,0,0,0.05,5.95,0)" xlink:href="#aJ"/><use transform="matrix(0.05,0,0,0.05,15.949999999999998,0)" xlink:href="#bo"/><use transform="matrix(0.05,0,0,0.05,25.950000000000003,0)" xlink:href="#aH"/><use transform="matrix(0.05,0,0,0.05,35.95,0)" xlink:href="#bp"/><use transform="matrix(0.05,0,0,0.05,50.900000000000006,0)" xlink:href="#aJ"/><use transform="matrix(0.05,0,0,0.05,60.900000000000006,0)" xlink:href="#bg"/><use transform="matrix(0.05,0,0,0.05,66.85000000000001,0)" xlink:href="#bh"/><use transform="matrix(0.05,0,0,0.05,72.80000000000001,0)" xlink:href="#aS"/></g><g id="R"><use transform="matrix(0.05,0,0,0.05,0,0)" xlink:href="#aM"/><use transform="matrix(0.05,0,0,0.05,5.95,0)" xlink:href="#aJ"/><use transform="matrix(0.05,0,0,0.05,15.949999999999998,0)" xlink:href="#bs"/><use transform="matrix(0.05,0,0,0.05,24.95,0)" xlink:href="#aJ"/><use transform="matrix(0.05,0,0,0.05,34.95,0)" xlink:href="#aI"/><use transform="matrix(0.05,0,0,0.05,39.95,0)" xlink:href="#bg"/><use transform="matrix(0.05,0,0,0.05,45.900000000000006,0)" xlink:href="#bh"/><use transform="matrix(0.05,0,0,0.05,51.85,0)" xlink:href="#aS"/></g><g id="S"><use transform="matrix(0.05,0,0,0.05,0,0)" xlink:href="#bi"/><use transform="matrix(0.05,0,0,0.05,9,0)" xlink:href="#bj"/><use transform="matrix(0.05,0,0,0.05,19,0)" xlink:href="#bk"/><use transform="matrix(0.05,0,0,0.05,22.95,0)" xlink:href="#bl"/></g><path fill="#706148" d="M127-220V0H93v-220H8v-28h204v28h-85" id="cc"/><path fill="#706148" d="M143 0L79-87 56-68V0H24v-261h32v163l83-92h37l-77 82L181 0h-38" id="cd"/><path fill="#706148" d="M68-38c1 34 0 65-14 84H32c9-13 17-26 17-46H33v-38h35" id="ce"/><g id="T"><use transform="matrix(0.05,0,0,0.05,0,0)" xlink:href="#bW"/><use transform="matrix(0.05,0,0,0.05,10,0)" xlink:href="#bT"/><use transform="matrix(0.05,0,0,0.05,20,0)" xlink:href="#bm"/><use transform="matrix(0.05,0,0,0.05,30,0)" xlink:href="#aH"/><use transform="matrix(0.05,0,0,0.05,40,0)" xlink:href="#aI"/><use transform="matrix(0.05,0,0,0.05,45,0)" xlink:href="#aJ"/><use transform="matrix(0.05,0,0,0.05,55,0)" xlink:href="#br"/><use transform="matrix(0.05,0,0,0.05,60,0)" xlink:href="#bo"/><use transform="matrix(0.05,0,0,0.05,70,0)" xlink:href="#cc"/><use transform="matrix(0.05,0,0,0.05,78.95,0)" xlink:href="#aH"/><use transform="matrix(0.05,0,0,0.05,88.95,0)" xlink:href="#bs"/><use transform="matrix(0.05,0,0,0.05,97.95,0)" xlink:href="#cd"/><use transform="matrix(0.05,0,0,0.05,106.95,0)" xlink:href="#ca"/><use transform="matrix(0.05,0,0,0.05,116.95,0)" xlink:href="#aQ"/><use transform="matrix(0.05,0,0,0.05,120.9,0)" xlink:href="#bs"/><use transform="matrix(0.05,0,0,0.05,129.9,0)" xlink:href="#aI"/><use transform="matrix(0.05,0,0,0.05,134.9,0)" xlink:href="#bg"/><use transform="matrix(0.05,0,0,0.05,140.85,0)" xlink:href="#bs"/><use transform="matrix(0.05,0,0,0.05,149.85,0)" xlink:href="#aJ"/><use transform="matrix(0.05,0,0,0.05,159.85,0)" xlink:href="#bn"/><use transform="matrix(0.05,0,0,0.05,163.79999999999998,0)" xlink:href="#aJ"/><use transform="matrix(0.05,0,0,0.05,173.79999999999998,0)" xlink:href="#aR"/><use transform="matrix(0.05,0,0,0.05,182.79999999999998,0)" xlink:href="#aI"/><use transform="matrix(0.05,0,0,0.05,187.79999999999998,0)" xlink:href="#aJ"/><use transform="matrix(0.05,0,0,0.05,197.79999999999998,0)" xlink:href="#bm"/><use transform="matrix(0.05,0,0,0.05,207.79999999999995,0)" xlink:href="#ce"/><use transform="matrix(0.05,0,0,0.05,212.79999999999995,0)" xlink:href="#bo"/><use transform="matrix(0.05,0,0,0.05,222.79999999999995,0)" xlink:href="#aJ"/><use transform="matrix(0.05,0,0,0.05,232.79999999999995,0)" xlink:href="#bB"/><use transform="matrix(0.05,0,0,0.05,245.74999999999997,0)" xlink:href="#bh"/><use transform="matrix(0.05,0,0,0.05,251.69999999999996,0)" xlink:href="#aS"/></g><path fill="#706148" d="M186 0v-106H76V0H24v-248h52v99h110v-99h50V0h-50" id="cf"/><g id="U"><use transform="matrix(0.05,0,0,0.05,0,0)" xlink:href="#au"/><use transform="matrix(0.05,0,0,0.05,12.950000000000001,0)" xlink:href="#av"/><use transform="matrix(0.05,0,0,0.05,22.950000000000003,0)" xlink:href="#aw"/><use transform="matrix(0.05,0,0,0.05,28.900000000000002,0)" xlink:href="#ax"/><use transform="matrix(0.05,0,0,0.05,38.900000000000006,0)" xlink:href="#ay"/><use transform="matrix(0.05,0,0,0.05,49.85000000000001,0)" xlink:href="#az"/><use transform="matrix(0.05,0,0,0.05,60.80000000000001,0)" xlink:href="#aA"/><use transform="matrix(0.05,0,0,0.05,67.80000000000001,0)" xlink:href="#aB"/><use transform="matrix(0.05,0,0,0.05,77.80000000000001,0)" xlink:href="#cf"/><use transform="matrix(0.05,0,0,0.05,90.75000000000001,0)" xlink:href="#aw"/><use transform="matrix(0.05,0,0,0.05,96.70000000000002,0)" xlink:href="#aw"/><use transform="matrix(0.05,0,0,0.05,102.65000000000003,0)" xlink:href="#aD"/><use transform="matrix(0.05,0,0,0.05,113.60000000000002,0)" xlink:href="#bO"/><use transform="matrix(0.05,0,0,0.05,125.60000000000002,0)" xlink:href="#ax"/><use transform="matrix(0.05,0,0,0.05,135.60000000000002,0)" xlink:href="#aA"/><use transform="matrix(0.05,0,0,0.05,142.60000000000002,0)" xlink:href="#bP"/><use transform="matrix(0.05,0,0,0.05,152.60000000000002,0)" xlink:href="#bQ"/><use transform="matrix(0.05,0,0,0.05,157.60000000000002,0)" xlink:href="#bR"/><use transform="matrix(0.05,0,0,0.05,167.60000000000002,0)" xlink:href="#ax"/></g><g id="V"><use transform="matrix(0.05,0,0,0.05,0,0)" xlink:href="#bS"/><use transform="matrix(0.05,0,0,0.05,12.950000000000001,0)" xlink:href="#aI"/><use transform="matrix(0.05,0,0,0.05,17.950000000000003,0)" xlink:href="#aI"/><use transform="matrix(0.05,0,0,0.05,22.950000000000003,0)" xlink:href="#bT"/></g><path fill="#834187" d="M24 0v-261h32V0H24" id="cg"/><g id="W"><use transform="matrix(0.05,0,0,0.05,0,0)" xlink:href="#bU"/><use transform="matrix(0.05,0,0,0.05,12.950000000000001,0)" xlink:href="#aV"/><use transform="matrix(0.05,0,0,0.05,17.950000000000003,0)" xlink:href="#aV"/><use transform="matrix(0.05,0,0,0.05,22.950000000000003,0)" xlink:href="#bV"/><use transform="matrix(0.05,0,0,0.05,32.95,0)" xlink:href="#aT"/><use transform="matrix(0.05,0,0,0.05,45.900000000000006,0)" xlink:href="#cg"/><use transform="matrix(0.05,0,0,0.05,49.85000000000001,0)" xlink:href="#bd"/><use transform="matrix(0.05,0,0,0.05,53.80000000000001,0)" xlink:href="#aW"/><use transform="matrix(0.05,0,0,0.05,63.80000000000001,0)" xlink:href="#bY"/><use transform="matrix(0.05,0,0,0.05,73.80000000000001,0)" xlink:href="#aV"/></g><g id="X"><use transform="matrix(0.05,0,0,0.05,0,0)" xlink:href="#bW"/><use transform="matrix(0.05,0,0,0.05,10,0)" xlink:href="#bT"/><use transform="matrix(0.05,0,0,0.05,20,0)" xlink:href="#bm"/><use transform="matrix(0.05,0,0,0.05,30,0)" xlink:href="#aH"/><use transform="matrix(0.05,0,0,0.05,40,0)" xlink:href="#aI"/><use transform="matrix(0.05,0,0,0.05,45,0)" xlink:href="#aJ"/></g><g id="Y"><use transform="matrix(0.05,0,0,0.05,0,0)" xlink:href="#bX"/><use transform="matrix(0.05,0,0,0.05,12,0)" xlink:href="#bc"/><use transform="matrix(0.05,0,0,0.05,21,0)" xlink:href="#aW"/><use transform="matrix(0.05,0,0,0.05,31,0)" xlink:href="#bY"/><use transform="matrix(0.05,0,0,0.05,41,0)" xlink:href="#aV"/><use transform="matrix(0.05,0,0,0.05,46,0)" xlink:href="#bX"/><use transform="matrix(0.05,0,0,0.05,58,0)" xlink:href="#bZ"/><use transform="matrix(0.05,0,0,0.05,72.95,0)" xlink:href="#bd"/><use transform="matrix(0.05,0,0,0.05,76.9,0)" xlink:href="#aV"/><use transform="matrix(0.05,0,0,0.05,81.9,0)" xlink:href="#aV"/><use transform="matrix(0.05,0,0,0.05,86.9,0)" xlink:href="#aW"/><use transform="matrix(0.05,0,0,0.05,96.9,0)" xlink:href="#aZ"/></g><g id="Z"><use transform="matrix(0.05,0,0,0.05,0,0)" xlink:href="#aH"/><use transform="matrix(0.05,0,0,0.05,10,0)" xlink:href="#bm"/><use transform="matrix(0.05,0,0,0.05,20,0)" xlink:href="#bm"/><use transform="matrix(0.05,0,0,0.05,30,0)" xlink:href="#aO"/><use transform="matrix(0.05,0,0,0.05,42,0)" xlink:href="#aJ"/><use transform="matrix(0.05,0,0,0.05,52,0)" xlink:href="#aM"/><use transform="matrix(0.05,0,0,0.05,57.95,0)" xlink:href="#aP"/><use transform="matrix(0.05,0,0,0.05,66.95,0)" xlink:href="#aJ"/><use transform="matrix(0.05,0,0,0.05,76.95,0)" xlink:href="#aM"/><use transform="matrix(0.05,0,0,0.05,82.9,0)" xlink:href="#aG"/><use transform="matrix(0.05,0,0,0.05,95.85000000000001,0)" xlink:href="#aH"/><use transform="matrix(0.05,0,0,0.05,105.85000000000001,0)" xlink:href="#aI"/><use transform="matrix(0.05,0,0,0.05,110.85000000000001,0)" xlink:href="#aJ"/><use transform="matrix(0.05,0,0,0.05,120.85000000000001,0)" xlink:href="#aK"/><use transform="matrix(0.05,0,0,0.05,130.85000000000002,0)" xlink:href="#aL"/><use transform="matrix(0.05,0,0,0.05,140.85000000000002,0)" xlink:href="#aM"/><use transform="matrix(0.05,0,0,0.05,146.8,0)" xlink:href="#aQ"/><use transform="matrix(0.05,0,0,0.05,150.75,0)" xlink:href="#aJ"/><use transform="matrix(0.05,0,0,0.05,160.75,0)" xlink:href="#bs"/><use transform="matrix(0.05,0,0,0.05,169.75,0)" xlink:href="#bg"/><use transform="matrix(0.05,0,0,0.05,175.7,0)" xlink:href="#aR"/><use transform="matrix(0.05,0,0,0.05,184.7,0)" xlink:href="#aH"/><use transform="matrix(0.05,0,0,0.05,194.7,0)" xlink:href="#aI"/><use transform="matrix(0.05,0,0,0.05,199.7,0)" xlink:href="#aJ"/><use transform="matrix(0.05,0,0,0.05,209.69999999999996,0)" xlink:href="#aK"/><use transform="matrix(0.05,0,0,0.05,219.69999999999996,0)" xlink:href="#aL"/><use transform="matrix(0.05,0,0,0.05,229.69999999999996,0)" xlink:href="#aM"/><use transform="matrix(0.05,0,0,0.05,235.64999999999998,0)" xlink:href="#aN"/><use transform="matrix(0.05,0,0,0.05,244.64999999999998,0)" xlink:href="#bh"/></g><path fill="#0c7cba" d="M117-194c89-4 53 116 60 194h-32v-121c0-31-8-49-39-48C34-167 62-67 57 0H25l-1-190h30c1 10-1 24 2 32 11-22 29-35 61-36" id="ch"/><path fill="#0c7cba" d="M179-190L93 31C79 59 56 82 12 73V49c39 6 53-20 64-50L1-190h34L92-34l54-156h33" id="ci"/><g id="aa"><use transform="matrix(0.05,0,0,0.05,0,0)" xlink:href="#bK"/><use transform="matrix(0.05,0,0,0.05,10,0)" xlink:href="#ch"/><use transform="matrix(0.05,0,0,0.05,20,0)" xlink:href="#ci"/></g><g id="ab"><use transform="matrix(0.05,0,0,0.05,0,0)" xlink:href="#bm"/><use transform="matrix(0.05,0,0,0.05,10,0)" xlink:href="#aJ"/><use transform="matrix(0.05,0,0,0.05,20,0)" xlink:href="#bn"/><use transform="matrix(0.05,0,0,0.05,23.95,0)" xlink:href="#aJ"/><use transform="matrix(0.05,0,0,0.05,33.95,0)" xlink:href="#aI"/><use transform="matrix(0.05,0,0,0.05,38.95,0)" xlink:href="#aJ"/><use transform="matrix(0.05,0,0,0.05,48.95,0)" xlink:href="#aO"/><use transform="matrix(0.05,0,0,0.05,60.95,0)" xlink:href="#aJ"/><use transform="matrix(0.05,0,0,0.05,70.95,0)" xlink:href="#aM"/><use transform="matrix(0.05,0,0,0.05,76.9,0)" xlink:href="#aP"/><use transform="matrix(0.05,0,0,0.05,85.9,0)" xlink:href="#aJ"/><use transform="matrix(0.05,0,0,0.05,95.9,0)" xlink:href="#aM"/><use transform="matrix(0.05,0,0,0.05,101.85000000000001,0)" xlink:href="#aG"/><use transform="matrix(0.05,0,0,0.05,114.80000000000001,0)" xlink:href="#aH"/><use transform="matrix(0.05,0,0,0.05,124.80000000000001,0)" xlink:href="#aI"/><use transform="matrix(0.05,0,0,0.05,129.8,0)" xlink:href="#aJ"/><use transform="matrix(0.05,0,0,0.05,139.8,0)" xlink:href="#aK"/><use transform="matrix(0.05,0,0,0.05,149.8,0)" xlink:href="#aL"/><use transform="matrix(0.05,0,0,0.05,159.8,0)" xlink:href="#aM"/><use transform="matrix(0.05,0,0,0.05,165.75,0)" xlink:href="#aQ"/><use transform="matrix(0.05,0,0,0.05,169.7,0)" xlink:href="#aJ"/><use transform="matrix(0.05,0,0,0.05,179.7,0)" xlink:href="#bs"/><use transform="matrix(0.05,0,0,0.05,188.7,0)" xlink:href="#bg"/><use transform="matrix(0.05,0,0,0.05,194.64999999999998,0)" xlink:href="#aR"/><use transform="matrix(0.05,0,0,0.05,203.64999999999998,0)" xlink:href="#aH"/><use transform="matrix(0.05,0,0,0.05,213.64999999999998,0)" xlink:href="#aI"/><use transform="matrix(0.05,0,0,0.05,218.64999999999998,0)" xlink:href="#aJ"/><use transform="matrix(0.05,0,0,0.05,228.64999999999998,0)" xlink:href="#aK"/><use transform="matrix(0.05,0,0,0.05,238.64999999999998,0)" xlink:href="#aL"/><use transform="matrix(0.05,0,0,0.05,248.64999999999998,0)" xlink:href="#aM"/><use transform="matrix(0.05,0,0,0.05,254.59999999999997,0)" xlink:href="#aN"/><use transform="matrix(0.05,0,0,0.05,263.59999999999997,0)" xlink:href="#bh"/></g><g id="ac"><use transform="matrix(0.05,0,0,0.05,0,0)" xlink:href="#aK"/><use transform="matrix(0.05,0,0,0.05,10,0)" xlink:href="#aJ"/><use transform="matrix(0.05,0,0,0.05,20,0)" xlink:href="#aI"/><use transform="matrix(0.05,0,0,0.05,25,0)" xlink:href="#aO"/><use transform="matrix(0.05,0,0,0.05,37,0)" xlink:href="#aJ"/><use transform="matrix(0.05,0,0,0.05,47,0)" xlink:href="#aM"/><use transform="matrix(0.05,0,0,0.05,52.95,0)" xlink:href="#aP"/><use transform="matrix(0.05,0,0,0.05,61.95,0)" xlink:href="#aJ"/><use transform="matrix(0.05,0,0,0.05,71.95,0)" xlink:href="#aM"/><use transform="matrix(0.05,0,0,0.05,77.9,0)" xlink:href="#aG"/><use transform="matrix(0.05,0,0,0.05,90.85000000000001,0)" xlink:href="#aH"/><use transform="matrix(0.05,0,0,0.05,100.85000000000001,0)" xlink:href="#aI"/><use transform="matrix(0.05,0,0,0.05,105.85000000000001,0)" xlink:href="#aJ"/><use transform="matrix(0.05,0,0,0.05,115.85000000000001,0)" xlink:href="#aK"/><use transform="matrix(0.05,0,0,0.05,125.85000000000001,0)" xlink:href="#aL"/><use transform="matrix(0.05,0,0,0.05,135.85000000000002,0)" xlink:href="#aM"/><use transform="matrix(0.05,0,0,0.05,141.8,0)" xlink:href="#aQ"/><use transform="matrix(0.05,0,0,0.05,145.75,0)" xlink:href="#aJ"/><use transform="matrix(0.05,0,0,0.05,155.75,0)" xlink:href="#bs"/><use transform="matrix(0.05,0,0,0.05,164.75,0)" xlink:href="#bg"/><use transform="matrix(0.05,0,0,0.05,170.7,0)" xlink:href="#aR"/><use transform="matrix(0.05,0,0,0.05,179.7,0)" xlink:href="#aH"/><use transform="matrix(0.05,0,0,0.05,189.7,0)" xlink:href="#aI"/><use transform="matrix(0.05,0,0,0.05,194.7,0)" xlink:href="#aJ"/><use transform="matrix(0.05,0,0,0.05,204.7,0)" xlink:href="#aK"/><use transform="matrix(0.05,0,0,0.05,214.69999999999996,0)" xlink:href="#aL"/><use transform="matrix(0.05,0,0,0.05,224.69999999999996,0)" xlink:href="#aM"/><use transform="matrix(0.05,0,0,0.05,230.64999999999998,0)" xlink:href="#aN"/><use transform="matrix(0.05,0,0,0.05,239.64999999999998,0)" xlink:href="#bh"/></g><g id="ad"><use transform="matrix(0.05,0,0,0.05,0,0)" xlink:href="#bK"/><use transform="matrix(0.05,0,0,0.05,10,0)" xlink:href="#ch"/><use transform="matrix(0.05,0,0,0.05,20,0)" xlink:href="#ci"/></g><g id="ae"><use transform="matrix(0.05,0,0,0.05,0,0)" xlink:href="#bW"/><use transform="matrix(0.05,0,0,0.05,10,0)" xlink:href="#bT"/><use transform="matrix(0.05,0,0,0.05,20,0)" xlink:href="#bm"/><use transform="matrix(0.05,0,0,0.05,30,0)" xlink:href="#aH"/><use transform="matrix(0.05,0,0,0.05,40,0)" xlink:href="#aI"/><use transform="matrix(0.05,0,0,0.05,45,0)" xlink:href="#aJ"/><use transform="matrix(0.05,0,0,0.05,55,0)" xlink:href="#aO"/><use transform="matrix(0.05,0,0,0.05,67,0)" xlink:href="#aJ"/><use transform="matrix(0.05,0,0,0.05,77,0)" xlink:href="#aM"/><use transform="matrix(0.05,0,0,0.05,82.95,0)" xlink:href="#aP"/><use transform="matrix(0.05,0,0,0.05,91.95,0)" xlink:href="#aJ"/><use transform="matrix(0.05,0,0,0.05,101.95,0)" xlink:href="#aM"/><use transform="matrix(0.05,0,0,0.05,107.9,0)" xlink:href="#aG"/><use transform="matrix(0.05,0,0,0.05,120.85000000000001,0)" xlink:href="#aH"/><use transform="matrix(0.05,0,0,0.05,130.85000000000002,0)" xlink:href="#aI"/><use transform="matrix(0.05,0,0,0.05,135.85000000000002,0)" xlink:href="#aJ"/><use transform="matrix(0.05,0,0,0.05,145.85000000000002,0)" xlink:href="#aK"/><use transform="matrix(0.05,0,0,0.05,155.85000000000002,0)" xlink:href="#aL"/><use transform="matrix(0.05,0,0,0.05,165.85000000000002,0)" xlink:href="#aM"/><use transform="matrix(0.05,0,0,0.05,171.8,0)" xlink:href="#aQ"/><use transform="matrix(0.05,0,0,0.05,175.75,0)" xlink:href="#aJ"/><use transform="matrix(0.05,0,0,0.05,185.75,0)" xlink:href="#bs"/><use transform="matrix(0.05,0,0,0.05,194.75,0)" xlink:href="#bg"/><use transform="matrix(0.05,0,0,0.05,200.7,0)" xlink:href="#aR"/><use transform="matrix(0.05,0,0,0.05,209.69999999999996,0)" xlink:href="#aH"/><use transform="matrix(0.05,0,0,0.05,219.69999999999996,0)" xlink:href="#aI"/><use transform="matrix(0.05,0,0,0.05,224.69999999999996,0)" xlink:href="#aJ"/><use transform="matrix(0.05,0,0,0.05,234.69999999999996,0)" xlink:href="#aK"/><use transform="matrix(0.05,0,0,0.05,244.69999999999996,0)" xlink:href="#aL"/><use transform="matrix(0.05,0,0,0.05,254.69999999999996,0)" xlink:href="#aM"/><use transform="matrix(0.05,0,0,0.05,260.65,0)" xlink:href="#aN"/><use transform="matrix(0.05,0,0,0.05,269.65,0)" xlink:href="#bh"/></g><g id="af"><use transform="matrix(0.05,0,0,0.05,0,0)" xlink:href="#bW"/><use transform="matrix(0.05,0,0,0.05,10,0)" xlink:href="#bT"/><use transform="matrix(0.05,0,0,0.05,20,0)" xlink:href="#bm"/><use transform="matrix(0.05,0,0,0.05,30,0)" xlink:href="#aH"/><use transform="matrix(0.05,0,0,0.05,40,0)" xlink:href="#aI"/><use transform="matrix(0.05,0,0,0.05,45,0)" xlink:href="#aJ"/><use transform="matrix(0.05,0,0,0.05,55,0)" xlink:href="#br"/><use transform="matrix(0.05,0,0,0.05,60,0)" xlink:href="#bo"/><use transform="matrix(0.05,0,0,0.05,70,0)" xlink:href="#cc"/><use transform="matrix(0.05,0,0,0.05,78.95,0)" xlink:href="#aH"/><use transform="matrix(0.05,0,0,0.05,88.95,0)" xlink:href="#bs"/><use transform="matrix(0.05,0,0,0.05,97.95,0)" xlink:href="#cd"/><use transform="matrix(0.05,0,0,0.05,106.95,0)" xlink:href="#ca"/><use transform="matrix(0.05,0,0,0.05,116.95,0)" xlink:href="#aQ"/><use transform="matrix(0.05,0,0,0.05,120.9,0)" xlink:href="#bs"/><use transform="matrix(0.05,0,0,0.05,129.9,0)" xlink:href="#aI"/><use transform="matrix(0.05,0,0,0.05,134.9,0)" xlink:href="#bg"/><use transform="matrix(0.05,0,0,0.05,140.85,0)" xlink:href="#bs"/><use transform="matrix(0.05,0,0,0.05,149.85,0)" xlink:href="#aJ"/><use transform="matrix(0.05,0,0,0.05,159.85,0)" xlink:href="#bn"/><use transform="matrix(0.05,0,0,0.05,163.79999999999998,0)" xlink:href="#aJ"/><use transform="matrix(0.05,0,0,0.05,173.79999999999998,0)" xlink:href="#aR"/><use transform="matrix(0.05,0,0,0.05,182.79999999999998,0)" xlink:href="#aI"/><use transform="matrix(0.05,0,0,0.05,187.79999999999998,0)" xlink:href="#aJ"/><use transform="matrix(0.05,0,0,0.05,197.79999999999998,0)" xlink:href="#bm"/><use transform="matrix(0.05,0,0,0.05,207.79999999999995,0)" xlink:href="#ce"/></g><g id="ag"><use transform="matrix(0.05,0,0,0.05,0,0)" xlink:href="#bo"/><use transform="matrix(0.05,0,0,0.05,10,0)" xlink:href="#aJ"/><use transform="matrix(0.05,0,0,0.05,20,0)" xlink:href="#bB"/><use transform="matrix(0.05,0,0,0.05,32.95,0)" xlink:href="#bh"/></g><g id="ah"><use transform="matrix(0.05,0,0,0.05,0,0)" xlink:href="#bi"/><use transform="matrix(0.05,0,0,0.05,9,0)" xlink:href="#bj"/><use transform="matrix(0.05,0,0,0.05,19,0)" xlink:href="#bk"/><use transform="matrix(0.05,0,0,0.05,22.95,0)" xlink:href="#bl"/></g><path fill="#706148" d="M121-226c-27-7-43 5-38 36h38v33H83V0H34v-157H6v-33h28c-9-59 32-81 87-68v32" id="cj"/><g id="ai"><use transform="matrix(0.05,0,0,0.05,0,0)" xlink:href="#au"/><use transform="matrix(0.05,0,0,0.05,12.950000000000001,0)" xlink:href="#az"/><use transform="matrix(0.05,0,0,0.05,23.900000000000002,0)" xlink:href="#aE"/><use transform="matrix(0.05,0,0,0.05,34.85,0)" xlink:href="#cj"/><use transform="matrix(0.05,0,0,0.05,40.800000000000004,0)" xlink:href="#bQ"/><use transform="matrix(0.05,0,0,0.05,45.800000000000004,0)" xlink:href="#ay"/></g><path fill="#706148" d="M205 0l-28-72H64L36 0H1l101-248h38L239 0h-34zm-38-99l-47-123c-12 45-31 82-46 123h93" id="ck"/><path fill="#706148" d="M30-248c87 1 191-15 191 75 0 78-77 80-158 76V0H30v-248zm33 125c57 0 124 11 124-50 0-59-68-47-124-48v98" id="cl"/><path fill="#706148" d="M-5 72V49h209v23H-5" id="cm"/><path fill="#706148" d="M232-93c-1 65-40 97-104 97C67 4 28-28 28-90v-158h33c8 89-33 224 67 224 102 0 64-133 71-224h33v155" id="cn"/><path fill="#706148" d="M30 0v-248h187v28H63v79h144v27H63v87h162V0H30" id="co"/><g id="aj"><use transform="matrix(0.05,0,0,0.05,0,0)" xlink:href="#ck"/><use transform="matrix(0.05,0,0,0.05,12,0)" xlink:href="#cl"/><use transform="matrix(0.05,0,0,0.05,24,0)" xlink:href="#br"/><use transform="matrix(0.05,0,0,0.05,29,0)" xlink:href="#cm"/><use transform="matrix(0.05,0,0,0.05,39,0)" xlink:href="#bC"/><use transform="matrix(0.05,0,0,0.05,51.95,0)" xlink:href="#bq"/><use transform="matrix(0.05,0,0,0.05,65.95,0)" xlink:href="#cn"/><use transform="matrix(0.05,0,0,0.05,78.9,0)" xlink:href="#cc"/><use transform="matrix(0.05,0,0,0.05,89.85000000000001,0)" xlink:href="#co"/><use transform="matrix(0.05,0,0,0.05,101.85000000000001,0)" xlink:href="#aO"/></g><path fill="#ef8d22" d="M24-231v-30h32v30H24zM-9 49c24 4 33-6 33-30v-209h32V24c2 40-23 58-65 49V49" id="cp"/><path fill="#ef8d22" d="M96-169c-40 0-48 33-48 73s9 75 48 75c24 0 41-14 43-38l32 2c-6 37-31 61-74 61-59 0-76-41-82-99-10-93 101-131 147-64 4 7 5 14 7 22l-32 3c-4-21-16-35-41-35" id="cq"/><g id="ak"><use transform="matrix(0.05,0,0,0.05,0,0)" xlink:href="#bE"/><use transform="matrix(0.05,0,0,0.05,10,0)" xlink:href="#bD"/><use transform="matrix(0.05,0,0,0.05,20,0)" xlink:href="#cp"/><use transform="matrix(0.05,0,0,0.05,23.95,0)" xlink:href="#bG"/><use transform="matrix(0.05,0,0,0.05,33.95,0)" xlink:href="#cq"/><use transform="matrix(0.05,0,0,0.05,42.95,0)" xlink:href="#bu"/></g><g id="al"><use transform="matrix(0.05,0,0,0.05,0,0)" xlink:href="#cc"/><use transform="matrix(0.05,0,0,0.05,10.950000000000001,0)" xlink:href="#br"/><use transform="matrix(0.05,0,0,0.05,15.950000000000001,0)" xlink:href="#cc"/><use transform="matrix(0.05,0,0,0.05,26.900000000000002,0)" xlink:href="#ca"/><use transform="matrix(0.05,0,0,0.05,36.900000000000006,0)" xlink:href="#co"/></g><g id="am"><use transform="matrix(0.05,0,0,0.05,0,0)" xlink:href="#bt"/><use transform="matrix(0.05,0,0,0.05,9,0)" xlink:href="#bu"/><use transform="matrix(0.05,0,0,0.05,14,0)" xlink:href="#bv"/><use transform="matrix(0.05,0,0,0.05,19.95,0)" xlink:href="#bw"/><use transform="matrix(0.05,0,0,0.05,23.9,0)" xlink:href="#bx"/><use transform="matrix(0.05,0,0,0.05,33.9,0)" xlink:href="#by"/></g><path fill="#706148" d="M190 0L58-211 59 0H30v-248h39L202-35l-2-213h31V0h-41" id="cr"/><path fill="#706148" d="M30-248c118-7 216 8 213 122C240-48 200 0 122 0H30v-248zM63-27c89 8 146-16 146-99s-60-101-146-95v194" id="cs"/><path fill="#706148" d="M137-103V0h-34v-103L8-248h37l75 118 75-118h37" id="ct"/><g id="an"><use transform="matrix(0.05,0,0,0.05,0,0)" xlink:href="#bq"/><use transform="matrix(0.05,0,0,0.05,14,0)" xlink:href="#cr"/><use transform="matrix(0.05,0,0,0.05,26.950000000000003,0)" xlink:href="#co"/><use transform="matrix(0.05,0,0,0.05,38.95,0)" xlink:href="#cm"/><use transform="matrix(0.05,0,0,0.05,48.95,0)" xlink:href="#cs"/><use transform="matrix(0.05,0,0,0.05,61.900000000000006,0)" xlink:href="#ck"/><use transform="matrix(0.05,0,0,0.05,72.55000000000001,0)" xlink:href="#ct"/><use transform="matrix(0.05,0,0,0.05,83.55000000000001,0)" xlink:href="#aS"/></g><path fill="#ef8d22" d="M84 4C-5 8 30-112 23-190h32v120c0 31 7 50 39 49 72-2 45-101 50-169h31l1 190h-30c-1-10 1-25-2-33-11 22-28 36-60 37" id="cu"/><path fill="#ef8d22" d="M210-169c-67 3-38 105-44 169h-31v-121c0-29-5-50-35-48C34-165 62-65 56 0H25l-1-190h30c1 10-1 24 2 32 10-44 99-50 107 0 11-21 27-35 58-36 85-2 47 119 55 194h-31v-121c0-29-5-49-35-48" id="cv"/><g id="ao"><use transform="matrix(0.05,0,0,0.05,0,0)" xlink:href="#bx"/><use transform="matrix(0.05,0,0,0.05,10,0)" xlink:href="#cu"/><use transform="matrix(0.05,0,0,0.05,20,0)" xlink:href="#cv"/><use transform="matrix(0.05,0,0,0.05,34.95,0)" xlink:href="#bD"/><use transform="matrix(0.05,0,0,0.05,44.95,0)" xlink:href="#bG"/><use transform="matrix(0.05,0,0,0.05,54.95,0)" xlink:href="#bv"/></g><path d="M133-34C117-15 103 5 69 4 32 3 11-16 11-54c-1-60 55-63 116-61 1-26-3-47-28-47-18 1-26 9-28 27l-52-2c7-38 36-58 82-57s74 22 75 68l1 82c-1 14 12 18 25 15v27c-30 8-71 5-69-32zm-48 3c29 0 43-24 42-57-32 0-66-3-65 30 0 17 8 27 23 27" id="cw"/><path d="M135-194c53 0 70 44 70 98 0 56-19 98-73 100-31 1-45-17-59-34 3 33 2 69 2 105H25l-1-265h48c2 10 0 23 3 31 11-24 29-35 60-35zM114-30c33 0 39-31 40-66 0-38-9-64-40-64-56 0-55 130 0 130" id="cx"/><path d="M4 7l51-268h42L46 7H4" id="cy"/><path d="M14-72v-43h91v43H14" id="cz"/><path d="M135-150c-39-12-60 13-60 57V0H25l-1-190h47c2 13-1 29 3 40 6-28 27-53 61-41v41" id="cA"/><path d="M110-194c64 0 96 36 96 99 0 64-35 99-97 99-61 0-95-36-95-99 0-62 34-99 96-99zm-1 164c35 0 45-28 45-65 0-40-10-65-43-65-34 0-45 26-45 65 0 36 10 65 43 65" id="cB"/><path d="M85 4C-2 5 27-109 22-190h50c7 57-23 150 33 157 60-5 35-97 40-157h50l1 190h-47c-2-12 1-28-3-38-12 25-28 42-61 42" id="cC"/><path d="M115-3C79 11 28 4 28-45v-112H4v-33h27l15-45h31v45h36v33H77v99c-1 23 16 31 38 25v30" id="cD"/><path d="M25-224v-37h50v37H25zM25 0v-190h50V0H25" id="cE"/><path d="M135-194c87-1 58 113 63 194h-50c-7-57 23-157-34-157-59 0-34 97-39 157H25l-1-190h47c2 12-1 28 3 38 12-26 28-41 61-42" id="cF"/><path d="M195-6C206 82 75 100 31 46c-4-6-6-13-8-21l49-6c3 16 16 24 34 25 40 0 42-37 40-79-11 22-30 35-61 35-53 0-70-43-70-97 0-56 18-96 73-97 30 0 46 14 59 34l2-30h47zm-90-29c32 0 41-27 41-63 0-35-9-62-40-62-32 0-39 29-40 63 0 36 9 62 39 62" id="cG"/><path d="M24 0v-54h51V0H24" id="cH"/><path d="M220-157c-53 9-28 100-34 157h-49v-107c1-27-5-49-29-50C55-147 81-57 75 0H25l-1-190h47c2 12-1 28 3 38 10-53 101-56 108 0 13-22 24-43 59-42 82 1 51 116 57 194h-49v-107c-1-25-5-48-29-50" id="cI"/><path d="M88-194c31-1 46 15 58 34l-1-101h50l1 261h-48c-2-10 0-23-3-31C134-8 116 4 84 4 32 4 16-41 15-95c0-56 19-97 73-99zm17 164c33 0 40-30 41-66 1-37-9-64-41-64s-38 30-39 65c0 43 13 65 39 65" id="cJ"/><path d="M25 0v-261h50V0H25" id="cK"/><path d="M185-48c-13 30-37 53-82 52C43 2 14-33 14-96s30-98 90-98c62 0 83 45 84 108H66c0 31 8 55 39 56 18 0 30-7 34-22zm-45-69c5-46-57-63-70-21-2 6-4 13-4 21h74" id="cL"/><path d="M137-138c1-29-70-34-71-4 15 46 118 7 119 86 1 83-164 76-172 9l43-7c4 19 20 25 44 25 33 8 57-30 24-41C81-84 22-81 20-136c-2-80 154-74 161-7" id="cM"/><g id="ap"><use transform="matrix(0.05,0,0,0.05,0,0)" xlink:href="#cw"/><use transform="matrix(0.05,0,0,0.05,10,0)" xlink:href="#cx"/><use transform="matrix(0.05,0,0,0.05,20.950000000000003,0)" xlink:href="#cx"/><use transform="matrix(0.05,0,0,0.05,31.900000000000006,0)" xlink:href="#cy"/><use transform="matrix(0.05,0,0,0.05,36.900000000000006,0)" xlink:href="#cw"/><use transform="matrix(0.05,0,0,0.05,46.900000000000006,0)" xlink:href="#cx"/><use transform="matrix(0.05,0,0,0.05,57.85,0)" xlink:href="#cx"/><use transform="matrix(0.05,0,0,0.05,68.80000000000001,0)" xlink:href="#cz"/><use transform="matrix(0.05,0,0,0.05,74.75000000000001,0)" xlink:href="#cA"/><use transform="matrix(0.05,0,0,0.05,81.75000000000001,0)" xlink:href="#cB"/><use transform="matrix(0.05,0,0,0.05,92.70000000000002,0)" xlink:href="#cC"/><use transform="matrix(0.05,0,0,0.05,103.65000000000003,0)" xlink:href="#cD"/><use transform="matrix(0.05,0,0,0.05,109.60000000000002,0)" xlink:href="#cE"/><use transform="matrix(0.05,0,0,0.05,114.60000000000002,0)" xlink:href="#cF"/><use transform="matrix(0.05,0,0,0.05,125.55000000000003,0)" xlink:href="#cG"/><use transform="matrix(0.05,0,0,0.05,136.50000000000003,0)" xlink:href="#cH"/><use transform="matrix(0.05,0,0,0.05,141.50000000000003,0)" xlink:href="#cI"/><use transform="matrix(0.05,0,0,0.05,157.50000000000003,0)" xlink:href="#cB"/><use transform="matrix(0.05,0,0,0.05,168.45000000000002,0)" xlink:href="#cJ"/><use transform="matrix(0.05,0,0,0.05,179.4,0)" xlink:href="#cC"/><use transform="matrix(0.05,0,0,0.05,190.35,0)" xlink:href="#cK"/><use transform="matrix(0.05,0,0,0.05,195.35,0)" xlink:href="#cL"/><use transform="matrix(0.05,0,0,0.05,205.35000000000002,0)" xlink:href="#cH"/><use transform="matrix(0.05,0,0,0.05,210.35000000000002,0)" xlink:href="#cD"/><use transform="matrix(0.05,0,0,0.05,216.29999999999995,0)" xlink:href="#cM"/></g><path fill="#706148" d="M240 0l2-218c-23 76-54 145-80 218h-23L58-218 59 0H30v-248h44l77 211c21-75 51-140 76-211h43V0h-30" id="cN"/><g id="aq"><use transform="matrix(0.05,0,0,0.05,0,0)" xlink:href="#ck"/><use transform="matrix(0.05,0,0,0.05,12,0)" xlink:href="#bT"/><use transform="matrix(0.05,0,0,0.05,22,0)" xlink:href="#bT"/><use transform="matrix(0.05,0,0,0.05,32,0)" xlink:href="#bC"/><use transform="matrix(0.05,0,0,0.05,44.95,0)" xlink:href="#aL"/><use transform="matrix(0.05,0,0,0.05,54.95,0)" xlink:href="#bW"/><use transform="matrix(0.05,0,0,0.05,64.95,0)" xlink:href="#aI"/><use transform="matrix(0.05,0,0,0.05,69.95,0)" xlink:href="#aQ"/><use transform="matrix(0.05,0,0,0.05,73.9,0)" xlink:href="#bo"/><use transform="matrix(0.05,0,0,0.05,83.9,0)" xlink:href="#aK"/><use transform="matrix(0.05,0,0,0.05,93.9,0)" xlink:href="#cN"/><use transform="matrix(0.05,0,0,0.05,108.85000000000001,0)" xlink:href="#aL"/><use transform="matrix(0.05,0,0,0.05,118.85000000000001,0)" xlink:href="#bm"/><use transform="matrix(0.05,0,0,0.05,128.85000000000002,0)" xlink:href="#bW"/><use transform="matrix(0.05,0,0,0.05,138.85000000000002,0)" xlink:href="#bn"/><use transform="matrix(0.05,0,0,0.05,142.8,0)" xlink:href="#aJ"/></g><path fill="#706148" d="M85 4C-2 5 27-109 22-190h50c7 57-23 150 33 157 60-5 35-97 40-157h50l1 190h-47c-2-12 1-28-3-38-12 25-28 42-61 42" id="cO"/><path fill="#706148" d="M137-138c1-29-70-34-71-4 15 46 118 7 119 86 1 83-164 76-172 9l43-7c4 19 20 25 44 25 33 8 57-30 24-41C81-84 22-81 20-136c-2-80 154-74 161-7" id="cP"/><g id="ar"><use transform="matrix(0.05,0,0,0.05,0,0)" xlink:href="#aA"/><use transform="matrix(0.05,0,0,0.05,7,0)" xlink:href="#az"/><use transform="matrix(0.05,0,0,0.05,17.950000000000003,0)" xlink:href="#cO"/><use transform="matrix(0.05,0,0,0.05,28.900000000000006,0)" xlink:href="#aw"/><use transform="matrix(0.05,0,0,0.05,34.85000000000001,0)" xlink:href="#ax"/><use transform="matrix(0.05,0,0,0.05,44.85000000000001,0)" xlink:href="#cP"/></g><g id="as"><use transform="matrix(0.05,0,0,0.05,0,0)" xlink:href="#aM"/><use transform="matrix(0.05,0,0,0.05,5.95,0)" xlink:href="#aL"/><use transform="matrix(0.05,0,0,0.05,15.949999999999998,0)" xlink:href="#bW"/><use transform="matrix(0.05,0,0,0.05,25.950000000000003,0)" xlink:href="#aI"/><use transform="matrix(0.05,0,0,0.05,30.950000000000003,0)" xlink:href="#aJ"/><use transform="matrix(0.05,0,0,0.05,40.95,0)" xlink:href="#bs"/><use transform="matrix(0.05,0,0,0.05,49.95,0)" xlink:href="#aS"/></g><g id="at"><use transform="matrix(0.05,0,0,0.05,0,0)" xlink:href="#bC"/><use transform="matrix(0.05,0,0,0.05,12.950000000000001,0)" xlink:href="#aL"/><use transform="matrix(0.05,0,0,0.05,22.950000000000003,0)" xlink:href="#bW"/><use transform="matrix(0.05,0,0,0.05,32.95,0)" xlink:href="#aI"/><use transform="matrix(0.05,0,0,0.05,37.95,0)" xlink:href="#aJ"/><use transform="matrix(0.05,0,0,0.05,47.95,0)" xlink:href="#bs"/></g></defs></g></svg>