<svg xmlns="http://www.w3.org/2000/svg" xmlns:xlink="http://www.w3.org/1999/xlink" xmlns:lucid="lucid" width="1400" height="927"><g transform="translate(-235.43307086614163 -169)" lucid:page-tab-id="0_0"><path d="M0 0h1870.87v1322.83H0z" fill="#fff"/><path d="M255.43 788c0-4.42 3.58-8 8-8h384c4.42 0 8 3.58 8 8v226c0 4.42-3.58 8-8 8h-384c-4.42 0-8-3.58-8-8z" stroke="#2988fa" stroke-width="4" fill="#fff"/><path d="M255.43 817.6h400m-400 80.7h400" stroke="#2988fa" stroke-width="4" fill="none"/><use xlink:href="#a" transform="matrix(1,0,0,1,263.43307086614163,788) translate(106.42500000000001 14.6)"/><use xlink:href="#b" transform="matrix(1,0,0,1,267.43307086614163,825.6) translate(0 25.299999999999997)"/><use xlink:href="#c" transform="matrix(1,0,0,1,267.43307086614163,825.6) translate(10.95 25.299999999999997)"/><use xlink:href="#d" transform="matrix(1,0,0,1,267.43307086614163,825.6) translate(112.80000000000001 25.299999999999997)"/><use xlink:href="#e" transform="matrix(1,0,0,1,267.43307086614163,825.6) translate(122.80000000000001 25.299999999999997)"/><use xlink:href="#f" transform="matrix(1,0,0,1,267.43307086614163,825.6) translate(0 46.9)"/><use xlink:href="#g" transform="matrix(1,0,0,1,267.43307086614163,825.6) translate(15.5 46.9)"/><use xlink:href="#d" transform="matrix(1,0,0,1,267.43307086614163,825.6) translate(81.45 46.9)"/><use xlink:href="#h" transform="matrix(1,0,0,1,267.43307086614163,825.6) translate(91.45 46.9)"/><use xlink:href="#i" transform="matrix(1,0,0,1,267.43307086614163,825.6) translate(138.4 46.9)"/><use xlink:href="#f" transform="matrix(1,0,0,1,267.43307086614163,906.3000000000001) translate(0 25.19999999999999)"/><use xlink:href="#j" transform="matrix(1,0,0,1,267.43307086614163,906.3000000000001) translate(15.5 25.19999999999999)"/><use xlink:href="#k" transform="matrix(1,0,0,1,267.43307086614163,906.3000000000001) translate(232.24999999999997 25.19999999999999)"/><use xlink:href="#f" transform="matrix(1,0,0,1,267.43307086614163,906.3000000000001) translate(0 46.79999999999999)"/><use xlink:href="#l" transform="matrix(1,0,0,1,267.43307086614163,906.3000000000001) translate(15.5 46.79999999999999)"/><use xlink:href="#k" transform="matrix(1,0,0,1,267.43307086614163,906.3000000000001) translate(248.2 46.79999999999999)"/><use xlink:href="#f" transform="matrix(1,0,0,1,267.43307086614163,906.3000000000001) translate(0 68.39999999999999)"/><use xlink:href="#m" transform="matrix(1,0,0,1,267.43307086614163,906.3000000000001) translate(15.5 68.39999999999999)"/><use xlink:href="#d" transform="matrix(1,0,0,1,267.43307086614163,906.3000000000001) translate(283.24999999999994 68.39999999999999)"/><use xlink:href="#k" transform="matrix(1,0,0,1,267.43307086614163,906.3000000000001) translate(293.24999999999994 68.39999999999999)"/><use xlink:href="#f" transform="matrix(1,0,0,1,267.43307086614163,906.3000000000001) translate(0 90)"/><use xlink:href="#n" transform="matrix(1,0,0,1,267.43307086614163,906.3000000000001) translate(15.5 90)"/><use xlink:href="#o" transform="matrix(1,0,0,1,267.43307086614163,906.3000000000001) translate(282.99999999999994 90)"/><path d="M735.43 308c0-4.42 3.58-8 8-8h404c4.42 0 8 3.58 8 8v226c0 4.42-3.58 8-8 8h-404c-4.42 0-8-3.58-8-8z" stroke="#2988fa" stroke-width="4" fill="#fff"/><path d="M735.43 337.6h420m-420 59.1h420" stroke="#2988fa" stroke-width="4" fill="none"/><use xlink:href="#p" transform="matrix(1,0,0,1,743.4330708661416,308) translate(126.225 14.6)"/><use xlink:href="#b" transform="matrix(1,0,0,1,747.4330708661416,345.6) translate(0 25.6)"/><use xlink:href="#q" transform="matrix(1,0,0,1,747.4330708661416,345.6) translate(10.95 25.6)"/><use xlink:href="#d" transform="matrix(1,0,0,1,747.4330708661416,345.6) translate(101.85000000000001 25.6)"/><use xlink:href="#r" transform="matrix(1,0,0,1,747.4330708661416,345.6) translate(111.85000000000001 25.6)"/><use xlink:href="#f" transform="matrix(1,0,0,1,747.4330708661416,404.70000000000005) translate(0 25.39999999999999)"/><use xlink:href="#s" transform="matrix(1,0,0,1,747.4330708661416,404.70000000000005) translate(15.5 25.39999999999999)"/><use xlink:href="#k" transform="matrix(1,0,0,1,747.4330708661416,404.70000000000005) translate(100.35000000000001 25.39999999999999)"/><use xlink:href="#f" transform="matrix(1,0,0,1,747.4330708661416,404.70000000000005) translate(0 46.99999999999999)"/><use xlink:href="#t" transform="matrix(1,0,0,1,747.4330708661416,404.70000000000005) translate(15.5 46.99999999999999)"/><use xlink:href="#k" transform="matrix(1,0,0,1,747.4330708661416,404.70000000000005) translate(103.35000000000001 46.99999999999999)"/><use xlink:href="#f" transform="matrix(1,0,0,1,747.4330708661416,404.70000000000005) translate(0 68.6)"/><use xlink:href="#u" transform="matrix(1,0,0,1,747.4330708661416,404.70000000000005) translate(15.5 68.6)"/><use xlink:href="#k" transform="matrix(1,0,0,1,747.4330708661416,404.70000000000005) translate(200.25 68.6)"/><use xlink:href="#f" transform="matrix(1,0,0,1,747.4330708661416,404.70000000000005) translate(0 90.20000000000002)"/><use xlink:href="#v" transform="matrix(1,0,0,1,747.4330708661416,404.70000000000005) translate(15.5 90.20000000000002)"/><use xlink:href="#d" transform="matrix(1,0,0,1,747.4330708661416,404.70000000000005) translate(289.94999999999993 90.20000000000002)"/><use xlink:href="#w" transform="matrix(1,0,0,1,747.4330708661416,404.70000000000005) translate(299.94999999999993 90.20000000000002)"/><use xlink:href="#f" transform="matrix(1,0,0,1,747.4330708661416,404.70000000000005) translate(0 111.80000000000001)"/><use xlink:href="#x" transform="matrix(1,0,0,1,747.4330708661416,404.70000000000005) translate(15.5 111.80000000000001)"/><use xlink:href="#o" transform="matrix(1,0,0,1,747.4330708661416,404.70000000000005) translate(187.2 111.80000000000001)"/><path d="M1195.43 308c0-4.42 3.58-8 8-8h404c4.42 0 8 3.58 8 8v224c0 4.42-3.58 8-8 8h-404c-4.42 0-8-3.58-8-8z" stroke="#2988fa" stroke-width="4" fill="#fff"/><path d="M1195.43 337.6h420m-420 79.6h420" stroke="#2988fa" stroke-width="4" fill="none"/><g><use xlink:href="#y" transform="matrix(1,0,0,1,1203.4330708661416,308) translate(133.25 14.6)"/></g><g><use xlink:href="#b" transform="matrix(1,0,0,1,1207.4330708661416,345.6) translate(0 35.6)"/><use xlink:href="#z" transform="matrix(1,0,0,1,1207.4330708661416,345.6) translate(10.95 35.6)"/><use xlink:href="#A" transform="matrix(1,0,0,1,1207.4330708661416,345.6) translate(67.85000000000001 35.6)"/></g><g><use xlink:href="#f" transform="matrix(1,0,0,1,1207.4330708661416,425.20000000000005) translate(0 35.5)"/><use xlink:href="#B" transform="matrix(1,0,0,1,1207.4330708661416,425.20000000000005) translate(15.5 35.5)"/><use xlink:href="#C" transform="matrix(1,0,0,1,1207.4330708661416,425.20000000000005) translate(189.35000000000002 35.5)"/><use xlink:href="#k" transform="matrix(1,0,0,1,1207.4330708661416,425.20000000000005) translate(291.20000000000005 35.5)"/><use xlink:href="#f" transform="matrix(1,0,0,1,1207.4330708661416,425.20000000000005) translate(0 57.1)"/><use xlink:href="#D" transform="matrix(1,0,0,1,1207.4330708661416,425.20000000000005) translate(15.5 57.1)"/><use xlink:href="#C" transform="matrix(1,0,0,1,1207.4330708661416,425.20000000000005) translate(247.14999999999998 57.1)"/><use xlink:href="#k" transform="matrix(1,0,0,1,1207.4330708661416,425.20000000000005) translate(349 57.1)"/><use xlink:href="#f" transform="matrix(1,0,0,1,1207.4330708661416,425.20000000000005) translate(0 78.70000000000002)"/><use xlink:href="#E" transform="matrix(1,0,0,1,1207.4330708661416,425.20000000000005) translate(15.5 78.70000000000002)"/><use xlink:href="#F" transform="matrix(1,0,0,1,1207.4330708661416,425.20000000000005) translate(251.29999999999995 78.70000000000002)"/></g><path d="M955.43 734c0-4.42 3.58-8 8-8h404c4.42 0 8 3.58 8 8v334c0 4.42-3.58 8-8 8h-404c-4.42 0-8-3.58-8-8z" stroke="#2988fa" stroke-width="4" fill="#fff"/><path d="M955.43 763.6h420m-420 102.3h420" stroke="#2988fa" stroke-width="4" fill="none"/><g><use xlink:href="#G" transform="matrix(1,0,0,1,963.4330708661414,734) translate(150.2 14.6)"/></g><g><use xlink:href="#H" transform="matrix(1,0,0,1,967.4330708661414,771.6) translate(0 25.5)"/><use xlink:href="#I" transform="matrix(1,0,0,1,967.4330708661414,771.6) translate(10.95 25.5)"/><use xlink:href="#J" transform="matrix(1,0,0,1,967.4330708661414,771.6) translate(143.75 25.5)"/><use xlink:href="#K" transform="matrix(1,0,0,1,967.4330708661414,771.6) translate(153.75 25.5)"/><use xlink:href="#H" transform="matrix(1,0,0,1,967.4330708661414,771.6) translate(0 47.1)"/><use xlink:href="#L" transform="matrix(1,0,0,1,967.4330708661414,771.6) translate(10.95 47.1)"/><use xlink:href="#M" transform="matrix(1,0,0,1,967.4330708661414,771.6) translate(163.7 47.1)"/><use xlink:href="#N" transform="matrix(1,0,0,1,967.4330708661414,771.6) translate(0 68.7)"/><use xlink:href="#O" transform="matrix(1,0,0,1,967.4330708661414,771.6) translate(15.5 68.7)"/><use xlink:href="#J" transform="matrix(1,0,0,1,967.4330708661414,771.6) translate(81.45 68.7)"/><use xlink:href="#P" transform="matrix(1,0,0,1,967.4330708661414,771.6) translate(91.45 68.7)"/><use xlink:href="#Q" transform="matrix(1,0,0,1,967.4330708661414,771.6) translate(138.4 68.7)"/></g><g><use xlink:href="#N" transform="matrix(1,0,0,1,967.4330708661414,873.9) translate(0 25.500000000000007)"/><use xlink:href="#R" transform="matrix(1,0,0,1,967.4330708661414,873.9) translate(15.5 25.500000000000007)"/><use xlink:href="#J" transform="matrix(1,0,0,1,967.4330708661414,873.9) translate(190.3 25.500000000000007)"/><use xlink:href="#S" transform="matrix(1,0,0,1,967.4330708661414,873.9) translate(200.3 25.500000000000007)"/><use xlink:href="#N" transform="matrix(1,0,0,1,967.4330708661414,873.9) translate(0 47.10000000000001)"/><use xlink:href="#T" transform="matrix(1,0,0,1,967.4330708661414,873.9) translate(15.5 47.10000000000001)"/><use xlink:href="#S" transform="matrix(1,0,0,1,967.4330708661414,873.9) translate(251.29999999999995 47.10000000000001)"/><use xlink:href="#N" transform="matrix(1,0,0,1,967.4330708661414,873.9) translate(0 68.70000000000002)"/><use xlink:href="#U" transform="matrix(1,0,0,1,967.4330708661414,873.9) translate(15.5 68.70000000000002)"/><use xlink:href="#S" transform="matrix(1,0,0,1,967.4330708661414,873.9) translate(253.09999999999997 68.70000000000002)"/><use xlink:href="#V" transform="matrix(1,0,0,1,967.4330708661414,873.9) translate(0 90.30000000000003)"/><use xlink:href="#N" transform="matrix(1,0,0,1,967.4330708661414,873.9) translate(0 111.90000000000002)"/><use xlink:href="#W" transform="matrix(1,0,0,1,967.4330708661414,873.9) translate(15.5 111.90000000000002)"/><use xlink:href="#X" transform="matrix(1,0,0,1,967.4330708661414,873.9) translate(103.35000000000001 111.90000000000002)"/><use xlink:href="#N" transform="matrix(1,0,0,1,967.4330708661414,873.9) translate(0 133.5)"/><use xlink:href="#Y" transform="matrix(1,0,0,1,967.4330708661414,873.9) translate(15.5 133.5)"/><use xlink:href="#S" transform="matrix(1,0,0,1,967.4330708661414,873.9) translate(139.3 133.5)"/><use xlink:href="#N" transform="matrix(1,0,0,1,967.4330708661414,873.9) translate(0 155.1)"/><use xlink:href="#Z" transform="matrix(1,0,0,1,967.4330708661414,873.9) translate(15.5 155.1)"/><use xlink:href="#aa" transform="matrix(1,0,0,1,967.4330708661414,873.9) translate(270.99999999999994 155.1)"/><use xlink:href="#N" transform="matrix(1,0,0,1,967.4330708661414,873.9) translate(0 176.70000000000002)"/><use xlink:href="#ab" transform="matrix(1,0,0,1,967.4330708661414,873.9) translate(15.5 176.70000000000002)"/><use xlink:href="#ac" transform="matrix(1,0,0,1,967.4330708661414,873.9) translate(95.30000000000001 176.70000000000002)"/></g><path d="M952.43 901H688.18" stroke="#c92d39" stroke-width="2" fill="none"/><path d="M953.43 902h-1.02v-2h1.03z" fill="#c92d39"/><path d="M658.85 901l14.85-14.85L688.85 901l-15.15 14.85z" stroke="#c92d39" stroke-width="2" fill="#c92d39"/><path d="M455.43 610.82v9.23m0 9.23v18.47m0 9.23v18.46m0 9.24v18.46m0 9.23v18.47m0 9.23v18.47m0 9.23V777M465.6 628.18l-10.17-17.22-10.18 17.22" stroke="#c92d39" stroke-width="2" fill="none"/><path d="M456.43 778h-2v-1.03h2z" fill="#c92d39"/><path d="M945.43 545v73c0 8.84 7.17 16 16 16h148c8.84 0 16 7.16 16 16v43.25" stroke="#c92d39" stroke-width="2" fill="none"/><path d="M946.43 545.03h-2V544h2z" fill="#c92d39"/><path d="M1125.43 722.6l-14.85-14.86 14.85-15.15 14.85 15.14z" stroke="#c92d39" stroke-width="2" fill="#c92d39"/><path d="M1405.43 543v74c0 8.84-7.16 16-16 16h-150c-8.83 0-16 7.16-16 16v44.25" stroke="#c92d39" stroke-width="2" fill="none"/><path d="M1406.43 543.03h-2V542h2z" fill="#c92d39"/><path d="M1223.43 722.6l-14.85-14.86 14.85-15.15 14.85 15.14z" stroke="#c92d39" stroke-width="2" fill="#c92d39"/><path d="M575.9 610.82v8.9m0 8.9v17.8m0 8.9v17.8m0 8.9v17.82m0 8.9v8.9l.53 4.15 1.6 3.83m5.86 5.87l3.83 1.6 4.16.54h10m10.02 0h20.03m10.02 0H662m10.02 0h20.03m10 0h20.05m10 0h20.04m10.02 0h20.03m10 0h20.04m10.02 0h20.03m10 0h20.04m10 0h20.04m10.02 0h20.03m10.02 0h10M586.07 628.18l-10.18-17.22-10.2 17.22" stroke="#c92d39" stroke-width="2" fill="none"/><path d="M953.43 733.8v.84h-1v-2h1.24z" fill="#c92d39"/><path d="M945.43 297v-13.67m0-13.66V256l-.54-4.15-1.6-3.84m-5.87-5.86l-3.85-1.6-4.15-.54h-9.64m-9.65 0h-19.3m-9.63 0h-19.3m-9.63 0H833m-9.65 0h-19.28m-9.65 0h-19.28m-9.65 0h-19.3m-9.64 0h-19.28m-9.65 0h-19.28m-9.65 0h-19.28m-9.65 0H630.5m-9.66 0h-19.28m-9.65 0h-19.28m-9.64 0h-9.64l-4.15.54-3.85 1.6m-5.87 5.86l-1.6 3.85-.54 4.15v13.4m0 13.4v13.38" stroke="#c92d39" stroke-width="2" fill="none"/><path d="M946.43 298h-2v-1.03h2z" fill="#c92d39"/><path d="M527.16 278.82l10.18 17.22 10.18-17.22M1405.43 297v-11.22m0-11.22V252.1m0-11.2v-22.46m0-11.22V196l-.54-4.15-1.6-3.84m-5.87-5.86l-3.85-1.6-4.15-.54h-9.87m-9.87 0h-19.75m-9.87 0h-19.74m-9.87 0h-19.75m-9.87 0h-19.74m-9.86 0h-19.74m-9.87 0h-19.75m-9.87 0h-19.73m-9.87 0h-19.74m-9.87 0h-19.75m-9.87 0h-19.75m-9.87 0h-19.74m-9.87 0h-19.74m-9.86 0H994.6m-9.88 0h-19.74m-9.87 0h-19.73m-9.87 0h-19.74m-9.88 0h-19.74m-9.87 0h-19.74m-9.87 0h-19.74m-9.87 0H787.3m-9.87 0H757.7m-9.88 0h-19.74m-9.87 0h-19.73m-9.88 0h-19.75m-9.87 0h-19.74m-9.87 0h-19.74m-9.87 0H580m-9.86 0H550.4m-9.87 0H520.8m-9.88 0h-19.74m-9.88 0h-9.87l-4.15.54-3.84 1.6m-5.86 5.86l-1.6 3.85-.55 4.15v11.13m0 11.13v22.27m0 11.13v22.26m0 11.13v11.13" stroke="#c92d39" stroke-width="2" fill="none"/><path d="M1406.43 298h-2v-1.03h2z" fill="#c92d39"/><path d="M445.25 278.82l10.18 17.22 10.18-17.22" stroke="#c92d39" stroke-width="2" fill="none"/><path d="M275.43 308c0-4.42 3.58-8 8-8h344c4.42 0 8 3.58 8 8v291c0 4.42-3.58 8-8 8h-344c-4.42 0-8-3.58-8-8z" stroke="#2988fa" stroke-width="4" fill="#fff"/><path d="M275.43 337.6h360m-360 232h360" stroke="#2988fa" stroke-width="4" fill="none"/><g><use xlink:href="#ad" transform="matrix(1,0,0,1,283.43307086614163,308) translate(152.2 14.6)"/></g><g><use xlink:href="#f" transform="matrix(1,0,0,1,287.43307086614163,345.6) translate(0 14.400000000000015)"/><use xlink:href="#ae" transform="matrix(1,0,0,1,287.43307086614163,345.6) translate(15.5 14.400000000000015)"/><use xlink:href="#af" transform="matrix(1,0,0,1,287.43307086614163,345.6) translate(53.4 14.400000000000015)"/><use xlink:href="#f" transform="matrix(1,0,0,1,287.43307086614163,345.6) translate(0 36.000000000000014)"/><use xlink:href="#ag" transform="matrix(1,0,0,1,287.43307086614163,345.6) translate(15.5 36.000000000000014)"/><use xlink:href="#af" transform="matrix(1,0,0,1,287.43307086614163,345.6) translate(59.5 36.000000000000014)"/><use xlink:href="#f" transform="matrix(1,0,0,1,287.43307086614163,345.6) translate(0 57.600000000000016)"/><use xlink:href="#ah" transform="matrix(1,0,0,1,287.43307086614163,345.6) translate(15.5 57.600000000000016)"/><use xlink:href="#af" transform="matrix(1,0,0,1,287.43307086614163,345.6) translate(94.45 57.600000000000016)"/><use xlink:href="#f" transform="matrix(1,0,0,1,287.43307086614163,345.6) translate(0 79.20000000000003)"/><use xlink:href="#ai" transform="matrix(1,0,0,1,287.43307086614163,345.6) translate(15.5 79.20000000000003)"/><use xlink:href="#w" transform="matrix(1,0,0,1,287.43307086614163,345.6) translate(150.45 79.20000000000003)"/><use xlink:href="#f" transform="matrix(1,0,0,1,287.43307086614163,345.6) translate(0 100.80000000000003)"/><use xlink:href="#aj" transform="matrix(1,0,0,1,287.43307086614163,345.6) translate(15.5 100.80000000000003)"/><use xlink:href="#ak" transform="matrix(1,0,0,1,287.43307086614163,345.6) translate(126.35000000000001 100.80000000000003)"/><use xlink:href="#f" transform="matrix(1,0,0,1,287.43307086614163,345.6) translate(0 122.40000000000002)"/><use xlink:href="#al" transform="matrix(1,0,0,1,287.43307086614163,345.6) translate(15.5 122.40000000000002)"/><use xlink:href="#am" transform="matrix(1,0,0,1,287.43307086614163,345.6) translate(98.4 122.40000000000002)"/><use xlink:href="#f" transform="matrix(1,0,0,1,287.43307086614163,345.6) translate(0 144.00000000000003)"/><use xlink:href="#an" transform="matrix(1,0,0,1,287.43307086614163,345.6) translate(15.5 144.00000000000003)"/><use xlink:href="#af" transform="matrix(1,0,0,1,287.43307086614163,345.6) translate(93.45 144.00000000000003)"/><use xlink:href="#f" transform="matrix(1,0,0,1,287.43307086614163,345.6) translate(0 165.6)"/><use xlink:href="#ao" transform="matrix(1,0,0,1,287.43307086614163,345.6) translate(15.5 165.6)"/><use xlink:href="#w" transform="matrix(1,0,0,1,287.43307086614163,345.6) translate(90.4 165.6)"/><use xlink:href="#f" transform="matrix(1,0,0,1,287.43307086614163,345.6) translate(0 187.20000000000002)"/><use xlink:href="#ap" transform="matrix(1,0,0,1,287.43307086614163,345.6) translate(15.5 187.20000000000002)"/><use xlink:href="#af" transform="matrix(1,0,0,1,287.43307086614163,345.6) translate(150.3 187.20000000000002)"/><use xlink:href="#f" transform="matrix(1,0,0,1,287.43307086614163,345.6) translate(0 208.79999999999998)"/><use xlink:href="#aq" transform="matrix(1,0,0,1,287.43307086614163,345.6) translate(15.5 208.79999999999998)"/><use xlink:href="#ar" transform="matrix(1,0,0,1,287.43307086614163,345.6) translate(73.45 208.79999999999998)"/><use xlink:href="#as" transform="matrix(1,0,0,1,287.43307086614163,345.6) translate(142.4 208.79999999999998)"/><use xlink:href="#at" transform="matrix(1,0,0,1,287.43307086614163,345.6) translate(157.9 208.79999999999998)"/></g><defs><path fill="#706148" d="M136-208V0H84v-208H4v-40h212v40h-80" id="au"/><path fill="#706148" d="M133-34C117-15 103 5 69 4 32 3 11-16 11-54c-1-60 55-63 116-61 1-26-3-47-28-47-18 1-26 9-28 27l-52-2c7-38 36-58 82-57s74 22 75 68l1 82c-1 14 12 18 25 15v27c-30 8-71 5-69-32zm-48 3c29 0 43-24 42-57-32 0-66-3-65 30 0 17 8 27 23 27" id="av"/><path fill="#706148" d="M137-138c1-29-70-34-71-4 15 46 118 7 119 86 1 83-164 76-172 9l43-7c4 19 20 25 44 25 33 8 57-30 24-41C81-84 22-81 20-136c-2-80 154-74 161-7" id="aw"/><path fill="#706148" d="M147 0L96-86 75-71V0H25v-261h50v150l67-79h53l-66 74L201 0h-54" id="ax"/><path fill="#706148" d="M24 0v-248h52v208h133V0H24" id="ay"/><path fill="#706148" d="M25-224v-37h50v37H25zM25 0v-190h50V0H25" id="az"/><path fill="#706148" d="M115-3C79 11 28 4 28-45v-112H4v-33h27l15-45h31v45h36v33H77v99c-1 23 16 31 38 25v30" id="aA"/><path fill="#706148" d="M67-125c0 53 21 87 73 88 37 1 54-22 65-47l45 17C233-25 199 4 140 4 58 4 20-42 15-125 8-235 124-281 211-232c18 10 29 29 36 50l-46 12c-8-25-30-41-62-41-52 0-71 34-72 86" id="aB"/><path fill="#706148" d="M110-194c64 0 96 36 96 99 0 64-35 99-97 99-61 0-95-36-95-99 0-62 34-99 96-99zm-1 164c35 0 45-28 45-65 0-40-10-65-43-65-34 0-45 26-45 65 0 36 10 65 43 65" id="aC"/><path fill="#706148" d="M220-157c-53 9-28 100-34 157h-49v-107c1-27-5-49-29-50C55-147 81-57 75 0H25l-1-190h47c2 12-1 28 3 38 10-53 101-56 108 0 13-22 24-43 59-42 82 1 51 116 57 194h-49v-107c-1-25-5-48-29-50" id="aD"/><path fill="#706148" d="M135-194c53 0 70 44 70 98 0 56-19 98-73 100-31 1-45-17-59-34 3 33 2 69 2 105H25l-1-265h48c2 10 0 23 3 31 11-24 29-35 60-35zM114-30c33 0 39-31 40-66 0-38-9-64-40-64-56 0-55 130 0 130" id="aE"/><path fill="#706148" d="M135-194c87-1 58 113 63 194h-50c-7-57 23-157-34-157-59 0-34 97-39 157H25l-1-190h47c2 12-1 28 3 38 12-26 28-41 61-42" id="aF"/><path fill="#706148" d="M185-48c-13 30-37 53-82 52C43 2 14-33 14-96s30-98 90-98c62 0 83 45 84 108H66c0 31 8 55 39 56 18 0 30-7 34-22zm-45-69c5-46-57-63-70-21-2 6-4 13-4 21h74" id="aG"/><g id="a"><use transform="matrix(0.05,0,0,0.05,0,0)" xlink:href="#au"/><use transform="matrix(0.05,0,0,0.05,9.600000000000001,0)" xlink:href="#av"/><use transform="matrix(0.05,0,0,0.05,19.6,0)" xlink:href="#aw"/><use transform="matrix(0.05,0,0,0.05,29.6,0)" xlink:href="#ax"/><use transform="matrix(0.05,0,0,0.05,39.6,0)" xlink:href="#ay"/><use transform="matrix(0.05,0,0,0.05,50.550000000000004,0)" xlink:href="#az"/><use transform="matrix(0.05,0,0,0.05,55.550000000000004,0)" xlink:href="#aw"/><use transform="matrix(0.05,0,0,0.05,65.55000000000001,0)" xlink:href="#aA"/><use transform="matrix(0.05,0,0,0.05,71.50000000000001,0)" xlink:href="#aB"/><use transform="matrix(0.05,0,0,0.05,84.45000000000002,0)" xlink:href="#aC"/><use transform="matrix(0.05,0,0,0.05,95.40000000000002,0)" xlink:href="#aD"/><use transform="matrix(0.05,0,0,0.05,111.40000000000003,0)" xlink:href="#aE"/><use transform="matrix(0.05,0,0,0.05,122.35000000000002,0)" xlink:href="#aC"/><use transform="matrix(0.05,0,0,0.05,133.3,0)" xlink:href="#aF"/><use transform="matrix(0.05,0,0,0.05,144.25,0)" xlink:href="#aG"/><use transform="matrix(0.05,0,0,0.05,154.25,0)" xlink:href="#aF"/><use transform="matrix(0.05,0,0,0.05,165.2,0)" xlink:href="#aA"/></g><path fill="#706148" d="M16-82v-28h88v28H16" id="aH"/><use transform="matrix(0.05,0,0,0.05,0,0)" xlink:href="#aH" id="b"/><path fill="#706148" d="M127-220V0H93v-220H8v-28h204v28h-85" id="aI"/><path fill="#706148" d="M141-36C126-15 110 5 73 4 37 3 15-17 15-53c-1-64 63-63 125-63 3-35-9-54-41-54-24 1-41 7-42 31l-33-3c5-37 33-52 76-52 45 0 72 20 72 64v82c-1 20 7 32 28 27v20c-31 9-61-2-59-35zM48-53c0 20 12 33 32 33 41-3 63-29 60-74-43 2-92-5-92 41" id="aJ"/><path fill="#706148" d="M135-143c-3-34-86-38-87 0 15 53 115 12 119 90S17 21 10-45l28-5c4 36 97 45 98 0-10-56-113-15-118-90-4-57 82-63 122-42 12 7 21 19 24 35" id="aK"/><path fill="#706148" d="M143 0L79-87 56-68V0H24v-261h32v163l83-92h37l-77 82L181 0h-38" id="aL"/><path fill="#706148" d="M185-189c-5-48-123-54-124 2 14 75 158 14 163 119 3 78-121 87-175 55-17-10-28-26-33-46l33-7c5 56 141 63 141-1 0-78-155-14-162-118-5-82 145-84 179-34 5 7 8 16 11 25" id="aM"/><path fill="#706148" d="M100-194c63 0 86 42 84 106H49c0 40 14 67 53 68 26 1 43-12 49-29l28 8c-11 28-37 45-77 45C44 4 14-33 15-96c1-61 26-98 85-98zm52 81c6-60-76-77-97-28-3 7-6 17-6 28h103" id="aN"/><path fill="#706148" d="M114-163C36-179 61-72 57 0H25l-1-190h30c1 12-1 29 2 39 6-27 23-49 58-41v29" id="aO"/><path fill="#706148" d="M108 0H70L1-190h34L89-25l56-165h34" id="aP"/><path fill="#706148" d="M24-231v-30h32v30H24zM24 0v-190h32V0H24" id="aQ"/><path fill="#706148" d="M96-169c-40 0-48 33-48 73s9 75 48 75c24 0 41-14 43-38l32 2c-6 37-31 61-74 61-59 0-76-41-82-99-10-93 101-131 147-64 4 7 5 14 7 22l-32 3c-4-21-16-35-41-35" id="aR"/><g id="c"><use transform="matrix(0.05,0,0,0.05,0,0)" xlink:href="#aI"/><use transform="matrix(0.05,0,0,0.05,8.950000000000001,0)" xlink:href="#aJ"/><use transform="matrix(0.05,0,0,0.05,18.950000000000003,0)" xlink:href="#aK"/><use transform="matrix(0.05,0,0,0.05,27.950000000000003,0)" xlink:href="#aL"/><use transform="matrix(0.05,0,0,0.05,36.95,0)" xlink:href="#aM"/><use transform="matrix(0.05,0,0,0.05,48.95,0)" xlink:href="#aN"/><use transform="matrix(0.05,0,0,0.05,58.95,0)" xlink:href="#aO"/><use transform="matrix(0.05,0,0,0.05,64.9,0)" xlink:href="#aP"/><use transform="matrix(0.05,0,0,0.05,73.9,0)" xlink:href="#aQ"/><use transform="matrix(0.05,0,0,0.05,77.85000000000001,0)" xlink:href="#aR"/><use transform="matrix(0.05,0,0,0.05,86.85000000000001,0)" xlink:href="#aN"/></g><path fill="#706148" d="M33-154v-36h34v36H33zM33 0v-36h34V0H33" id="aS"/><use transform="matrix(0.05,0,0,0.05,0,0)" xlink:href="#aS" id="d"/><path fill="#834187" d="M127-220V0H93v-220H8v-28h204v28h-85" id="aT"/><path fill="#834187" d="M141-36C126-15 110 5 73 4 37 3 15-17 15-53c-1-64 63-63 125-63 3-35-9-54-41-54-24 1-41 7-42 31l-33-3c5-37 33-52 76-52 45 0 72 20 72 64v82c-1 20 7 32 28 27v20c-31 9-61-2-59-35zM48-53c0 20 12 33 32 33 41-3 63-29 60-74-43 2-92-5-92 41" id="aU"/><path fill="#834187" d="M135-143c-3-34-86-38-87 0 15 53 115 12 119 90S17 21 10-45l28-5c4 36 97 45 98 0-10-56-113-15-118-90-4-57 82-63 122-42 12 7 21 19 24 35" id="aV"/><path fill="#834187" d="M143 0L79-87 56-68V0H24v-261h32v163l83-92h37l-77 82L181 0h-38" id="aW"/><path fill="#834187" d="M185-189c-5-48-123-54-124 2 14 75 158 14 163 119 3 78-121 87-175 55-17-10-28-26-33-46l33-7c5 56 141 63 141-1 0-78-155-14-162-118-5-82 145-84 179-34 5 7 8 16 11 25" id="aX"/><path fill="#834187" d="M100-194c63 0 86 42 84 106H49c0 40 14 67 53 68 26 1 43-12 49-29l28 8c-11 28-37 45-77 45C44 4 14-33 15-96c1-61 26-98 85-98zm52 81c6-60-76-77-97-28-3 7-6 17-6 28h103" id="aY"/><path fill="#834187" d="M114-163C36-179 61-72 57 0H25l-1-190h30c1 12-1 29 2 39 6-27 23-49 58-41v29" id="aZ"/><path fill="#834187" d="M108 0H70L1-190h34L89-25l56-165h34" id="ba"/><path fill="#834187" d="M24-231v-30h32v30H24zM24 0v-190h32V0H24" id="bb"/><path fill="#834187" d="M96-169c-40 0-48 33-48 73s9 75 48 75c24 0 41-14 43-38l32 2c-6 37-31 61-74 61-59 0-76-41-82-99-10-93 101-131 147-64 4 7 5 14 7 22l-32 3c-4-21-16-35-41-35" id="bc"/><g id="e"><use transform="matrix(0.05,0,0,0.05,0,0)" xlink:href="#aT"/><use transform="matrix(0.05,0,0,0.05,8.950000000000001,0)" xlink:href="#aU"/><use transform="matrix(0.05,0,0,0.05,18.950000000000003,0)" xlink:href="#aV"/><use transform="matrix(0.05,0,0,0.05,27.950000000000003,0)" xlink:href="#aW"/><use transform="matrix(0.05,0,0,0.05,36.95,0)" xlink:href="#aX"/><use transform="matrix(0.05,0,0,0.05,48.95,0)" xlink:href="#aY"/><use transform="matrix(0.05,0,0,0.05,58.95,0)" xlink:href="#aZ"/><use transform="matrix(0.05,0,0,0.05,64.9,0)" xlink:href="#ba"/><use transform="matrix(0.05,0,0,0.05,73.9,0)" xlink:href="#bb"/><use transform="matrix(0.05,0,0,0.05,77.85000000000001,0)" xlink:href="#bc"/><use transform="matrix(0.05,0,0,0.05,86.85000000000001,0)" xlink:href="#aY"/></g><path fill="#706148" d="M118-107v75H92v-75H18v-26h74v-75h26v75h74v26h-74" id="bd"/><use transform="matrix(0.05,0,0,0.05,0,0)" xlink:href="#bd" id="f"/><path fill="#706148" d="M59-47c-2 24 18 29 38 22v24C64 9 27 4 27-40v-127H5v-23h24l9-43h21v43h35v23H59v120" id="be"/><path fill="#706148" d="M30 0v-248h33v221h125V0H30" id="bf"/><g id="g"><use transform="matrix(0.05,0,0,0.05,0,0)" xlink:href="#be"/><use transform="matrix(0.05,0,0,0.05,5,0)" xlink:href="#aJ"/><use transform="matrix(0.05,0,0,0.05,15,0)" xlink:href="#aK"/><use transform="matrix(0.05,0,0,0.05,24,0)" xlink:href="#aL"/><use transform="matrix(0.05,0,0,0.05,33,0)" xlink:href="#bf"/><use transform="matrix(0.05,0,0,0.05,43,0)" xlink:href="#aQ"/><use transform="matrix(0.05,0,0,0.05,46.95,0)" xlink:href="#aK"/><use transform="matrix(0.05,0,0,0.05,55.95,0)" xlink:href="#be"/></g><path fill="#834187" d="M26 75v-336h71v23H56V52h41v23H26" id="bg"/><g id="h"><use transform="matrix(0.05,0,0,0.05,0,0)" xlink:href="#aT"/><use transform="matrix(0.05,0,0,0.05,8.950000000000001,0)" xlink:href="#aU"/><use transform="matrix(0.05,0,0,0.05,18.950000000000003,0)" xlink:href="#aV"/><use transform="matrix(0.05,0,0,0.05,27.950000000000003,0)" xlink:href="#aW"/><use transform="matrix(0.05,0,0,0.05,36.95,0)" xlink:href="#bg"/></g><path fill="#834187" d="M3 75V52h41v-290H3v-23h71V75H3" id="bh"/><use transform="matrix(0.05,0,0,0.05,0,0)" xlink:href="#bh" id="i"/><path fill="#706148" d="M100-194c62-1 85 37 85 99 1 63-27 99-86 99S16-35 15-95c0-66 28-99 85-99zM99-20c44 1 53-31 53-75 0-43-8-75-51-75s-53 32-53 75 10 74 51 75" id="bi"/><path fill="#706148" d="M177-190C167-65 218 103 67 71c-23-6-38-20-44-43l32-5c15 47 100 32 89-28v-30C133-14 115 1 83 1 29 1 15-40 15-95c0-56 16-97 71-98 29-1 48 16 59 35 1-10 0-23 2-32h30zM94-22c36 0 50-32 50-73 0-42-14-75-50-75-39 0-46 34-46 75s6 73 46 73" id="bj"/><path fill="#706148" d="M24 0v-261h32V0H24" id="bk"/><path fill="#706148" d="M87 75C49 33 22-17 22-94c0-76 28-126 65-167h31c-38 41-64 92-64 168S80 34 118 75H87" id="bl"/><path fill="#706148" d="M85-194c31 0 48 13 60 33l-1-100h32l1 261h-30c-2-10 0-23-3-31C134-8 116 4 85 4 32 4 16-35 15-94c0-66 23-100 70-100zm9 24c-40 0-46 34-46 75 0 40 6 74 45 74 42 0 51-32 51-76 0-42-9-74-50-73" id="bm"/><path fill="#706148" d="M33-261c38 41 65 92 65 168S71 34 33 75H2C39 34 66-17 66-93S39-220 2-261h31" id="bn"/><g id="j"><use transform="matrix(0.05,0,0,0.05,0,0)" xlink:href="#be"/><use transform="matrix(0.05,0,0,0.05,5,0)" xlink:href="#bi"/><use transform="matrix(0.05,0,0,0.05,15,0)" xlink:href="#bj"/><use transform="matrix(0.05,0,0,0.05,25,0)" xlink:href="#bj"/><use transform="matrix(0.05,0,0,0.05,35,0)" xlink:href="#bk"/><use transform="matrix(0.05,0,0,0.05,38.95,0)" xlink:href="#aN"/><use transform="matrix(0.05,0,0,0.05,48.95,0)" xlink:href="#aI"/><use transform="matrix(0.05,0,0,0.05,57.900000000000006,0)" xlink:href="#aJ"/><use transform="matrix(0.05,0,0,0.05,67.9,0)" xlink:href="#aK"/><use transform="matrix(0.05,0,0,0.05,76.9,0)" xlink:href="#aL"/><use transform="matrix(0.05,0,0,0.05,85.9,0)" xlink:href="#aM"/><use transform="matrix(0.05,0,0,0.05,97.9,0)" xlink:href="#be"/><use transform="matrix(0.05,0,0,0.05,102.9,0)" xlink:href="#aJ"/><use transform="matrix(0.05,0,0,0.05,112.9,0)" xlink:href="#be"/><use transform="matrix(0.05,0,0,0.05,117.9,0)" xlink:href="#aN"/><use transform="matrix(0.05,0,0,0.05,127.9,0)" xlink:href="#bl"/><use transform="matrix(0.05,0,0,0.05,133.85,0)" xlink:href="#aK"/><use transform="matrix(0.05,0,0,0.05,142.85,0)" xlink:href="#aN"/><use transform="matrix(0.05,0,0,0.05,152.85,0)" xlink:href="#bk"/><use transform="matrix(0.05,0,0,0.05,156.79999999999998,0)" xlink:href="#aN"/><use transform="matrix(0.05,0,0,0.05,166.79999999999998,0)" xlink:href="#aR"/><use transform="matrix(0.05,0,0,0.05,175.79999999999998,0)" xlink:href="#be"/><use transform="matrix(0.05,0,0,0.05,180.79999999999998,0)" xlink:href="#aN"/><use transform="matrix(0.05,0,0,0.05,190.79999999999998,0)" xlink:href="#bm"/><use transform="matrix(0.05,0,0,0.05,200.79999999999998,0)" xlink:href="#bn"/><use transform="matrix(0.05,0,0,0.05,206.74999999999997,0)" xlink:href="#aS"/></g><path fill="#0c7cba" d="M108 0H70L1-190h34L89-25l56-165h34" id="bo"/><path fill="#0c7cba" d="M100-194c62-1 85 37 85 99 1 63-27 99-86 99S16-35 15-95c0-66 28-99 85-99zM99-20c44 1 53-31 53-75 0-43-8-75-51-75s-53 32-53 75 10 74 51 75" id="bp"/><path fill="#0c7cba" d="M24-231v-30h32v30H24zM24 0v-190h32V0H24" id="bq"/><path fill="#0c7cba" d="M85-194c31 0 48 13 60 33l-1-100h32l1 261h-30c-2-10 0-23-3-31C134-8 116 4 85 4 32 4 16-35 15-94c0-66 23-100 70-100zm9 24c-40 0-46 34-46 75 0 40 6 74 45 74 42 0 51-32 51-76 0-42-9-74-50-73" id="br"/><g id="k"><use transform="matrix(0.05,0,0,0.05,0,0)" xlink:href="#bo"/><use transform="matrix(0.05,0,0,0.05,9,0)" xlink:href="#bp"/><use transform="matrix(0.05,0,0,0.05,19,0)" xlink:href="#bq"/><use transform="matrix(0.05,0,0,0.05,22.95,0)" xlink:href="#br"/></g><path fill="#706148" d="M232-93c-1 65-40 97-104 97C67 4 28-28 28-90v-158h33c8 89-33 224 67 224 102 0 64-133 71-224h33v155" id="bs"/><path fill="#706148" d="M115-194c55 1 70 41 70 98S169 2 115 4C84 4 66-9 55-30l1 105H24l-1-265h31l2 30c10-21 28-34 59-34zm-8 174c40 0 45-34 45-75s-6-73-45-74c-42 0-51 32-51 76 0 43 10 73 51 73" id="bt"/><g id="l"><use transform="matrix(0.05,0,0,0.05,0,0)" xlink:href="#be"/><use transform="matrix(0.05,0,0,0.05,5,0)" xlink:href="#bi"/><use transform="matrix(0.05,0,0,0.05,15,0)" xlink:href="#bj"/><use transform="matrix(0.05,0,0,0.05,25,0)" xlink:href="#bj"/><use transform="matrix(0.05,0,0,0.05,35,0)" xlink:href="#bk"/><use transform="matrix(0.05,0,0,0.05,38.95,0)" xlink:href="#aN"/><use transform="matrix(0.05,0,0,0.05,48.95,0)" xlink:href="#bs"/><use transform="matrix(0.05,0,0,0.05,61.900000000000006,0)" xlink:href="#bt"/><use transform="matrix(0.05,0,0,0.05,71.9,0)" xlink:href="#bm"/><use transform="matrix(0.05,0,0,0.05,81.9,0)" xlink:href="#aJ"/><use transform="matrix(0.05,0,0,0.05,91.9,0)" xlink:href="#be"/><use transform="matrix(0.05,0,0,0.05,96.9,0)" xlink:href="#aN"/><use transform="matrix(0.05,0,0,0.05,106.9,0)" xlink:href="#aI"/><use transform="matrix(0.05,0,0,0.05,115.85000000000001,0)" xlink:href="#aJ"/><use transform="matrix(0.05,0,0,0.05,125.85000000000001,0)" xlink:href="#aK"/><use transform="matrix(0.05,0,0,0.05,134.85000000000002,0)" xlink:href="#aL"/><use transform="matrix(0.05,0,0,0.05,143.85000000000002,0)" xlink:href="#bl"/><use transform="matrix(0.05,0,0,0.05,149.8,0)" xlink:href="#aK"/><use transform="matrix(0.05,0,0,0.05,158.8,0)" xlink:href="#aN"/><use transform="matrix(0.05,0,0,0.05,168.8,0)" xlink:href="#bk"/><use transform="matrix(0.05,0,0,0.05,172.75,0)" xlink:href="#aN"/><use transform="matrix(0.05,0,0,0.05,182.75,0)" xlink:href="#aR"/><use transform="matrix(0.05,0,0,0.05,191.75,0)" xlink:href="#be"/><use transform="matrix(0.05,0,0,0.05,196.75,0)" xlink:href="#aN"/><use transform="matrix(0.05,0,0,0.05,206.75,0)" xlink:href="#bm"/><use transform="matrix(0.05,0,0,0.05,216.75,0)" xlink:href="#bn"/><use transform="matrix(0.05,0,0,0.05,222.69999999999996,0)" xlink:href="#aS"/></g><path fill="#706148" d="M84 4C-5 8 30-112 23-190h32v120c0 31 7 50 39 49 72-2 45-101 50-169h31l1 190h-30c-1-10 1-25-2-33-11 22-28 36-60 37" id="bu"/><path fill="#706148" d="M30-248c87 1 191-15 191 75 0 78-77 80-158 76V0H30v-248zm33 125c57 0 124 11 124-50 0-59-68-47-124-48v98" id="bv"/><path fill="#706148" d="M117-194c89-4 53 116 60 194h-32v-121c0-31-8-49-39-48C34-167 62-67 57 0H25l-1-190h30c1 10-1 24 2 32 11-22 29-35 61-36" id="bw"/><g id="m"><use transform="matrix(0.05,0,0,0.05,0,0)" xlink:href="#bu"/><use transform="matrix(0.05,0,0,0.05,10,0)" xlink:href="#bt"/><use transform="matrix(0.05,0,0,0.05,20,0)" xlink:href="#bm"/><use transform="matrix(0.05,0,0,0.05,30,0)" xlink:href="#aJ"/><use transform="matrix(0.05,0,0,0.05,40,0)" xlink:href="#be"/><use transform="matrix(0.05,0,0,0.05,45,0)" xlink:href="#aN"/><use transform="matrix(0.05,0,0,0.05,55,0)" xlink:href="#aI"/><use transform="matrix(0.05,0,0,0.05,63.95,0)" xlink:href="#aJ"/><use transform="matrix(0.05,0,0,0.05,73.95,0)" xlink:href="#aK"/><use transform="matrix(0.05,0,0,0.05,82.95,0)" xlink:href="#aL"/><use transform="matrix(0.05,0,0,0.05,91.95,0)" xlink:href="#bv"/><use transform="matrix(0.05,0,0,0.05,103.95,0)" xlink:href="#aN"/><use transform="matrix(0.05,0,0,0.05,113.95,0)" xlink:href="#aO"/><use transform="matrix(0.05,0,0,0.05,119.9,0)" xlink:href="#aR"/><use transform="matrix(0.05,0,0,0.05,128.9,0)" xlink:href="#aN"/><use transform="matrix(0.05,0,0,0.05,138.9,0)" xlink:href="#bw"/><use transform="matrix(0.05,0,0,0.05,148.9,0)" xlink:href="#be"/><use transform="matrix(0.05,0,0,0.05,153.9,0)" xlink:href="#aJ"/><use transform="matrix(0.05,0,0,0.05,163.9,0)" xlink:href="#bj"/><use transform="matrix(0.05,0,0,0.05,173.9,0)" xlink:href="#aN"/><use transform="matrix(0.05,0,0,0.05,183.9,0)" xlink:href="#bl"/><use transform="matrix(0.05,0,0,0.05,189.85,0)" xlink:href="#aK"/><use transform="matrix(0.05,0,0,0.05,198.85,0)" xlink:href="#aN"/><use transform="matrix(0.05,0,0,0.05,208.85000000000002,0)" xlink:href="#bk"/><use transform="matrix(0.05,0,0,0.05,212.79999999999995,0)" xlink:href="#aN"/><use transform="matrix(0.05,0,0,0.05,222.79999999999995,0)" xlink:href="#aR"/><use transform="matrix(0.05,0,0,0.05,231.79999999999995,0)" xlink:href="#be"/><use transform="matrix(0.05,0,0,0.05,236.79999999999995,0)" xlink:href="#aN"/><use transform="matrix(0.05,0,0,0.05,246.79999999999995,0)" xlink:href="#bm"/><use transform="matrix(0.05,0,0,0.05,256.79999999999995,0)" xlink:href="#bn"/></g><path fill="#706148" d="M233-177c-1 41-23 64-60 70L243 0h-38l-65-103H63V0H30v-248c88 3 205-21 203 71zM63-129c60-2 137 13 137-47 0-61-80-42-137-45v92" id="bx"/><path fill="#706148" d="M210-169c-67 3-38 105-44 169h-31v-121c0-29-5-50-35-48C34-165 62-65 56 0H25l-1-190h30c1 10-1 24 2 32 10-44 99-50 107 0 11-21 27-35 58-36 85-2 47 119 55 194h-31v-121c0-29-5-49-35-48" id="by"/><path fill="#706148" d="M30-248c118-7 216 8 213 122C240-48 200 0 122 0H30v-248zM63-27c89 8 146-16 146-99s-60-101-146-95v194" id="bz"/><g id="n"><use transform="matrix(0.05,0,0,0.05,0,0)" xlink:href="#bj"/><use transform="matrix(0.05,0,0,0.05,10,0)" xlink:href="#aN"/><use transform="matrix(0.05,0,0,0.05,20,0)" xlink:href="#be"/><use transform="matrix(0.05,0,0,0.05,25,0)" xlink:href="#bx"/><use transform="matrix(0.05,0,0,0.05,37.95,0)" xlink:href="#aN"/><use transform="matrix(0.05,0,0,0.05,47.95,0)" xlink:href="#by"/><use transform="matrix(0.05,0,0,0.05,62.900000000000006,0)" xlink:href="#aJ"/><use transform="matrix(0.05,0,0,0.05,72.9,0)" xlink:href="#aQ"/><use transform="matrix(0.05,0,0,0.05,76.85000000000001,0)" xlink:href="#bw"/><use transform="matrix(0.05,0,0,0.05,86.85000000000001,0)" xlink:href="#aQ"/><use transform="matrix(0.05,0,0,0.05,90.80000000000001,0)" xlink:href="#bw"/><use transform="matrix(0.05,0,0,0.05,100.80000000000001,0)" xlink:href="#bj"/><use transform="matrix(0.05,0,0,0.05,110.80000000000001,0)" xlink:href="#bz"/><use transform="matrix(0.05,0,0,0.05,123.75,0)" xlink:href="#bu"/><use transform="matrix(0.05,0,0,0.05,133.75,0)" xlink:href="#aO"/><use transform="matrix(0.05,0,0,0.05,139.7,0)" xlink:href="#aJ"/><use transform="matrix(0.05,0,0,0.05,149.7,0)" xlink:href="#be"/><use transform="matrix(0.05,0,0,0.05,154.7,0)" xlink:href="#aQ"/><use transform="matrix(0.05,0,0,0.05,158.64999999999998,0)" xlink:href="#bi"/><use transform="matrix(0.05,0,0,0.05,168.64999999999998,0)" xlink:href="#bw"/><use transform="matrix(0.05,0,0,0.05,178.64999999999998,0)" xlink:href="#bl"/><use transform="matrix(0.05,0,0,0.05,184.59999999999997,0)" xlink:href="#aK"/><use transform="matrix(0.05,0,0,0.05,193.59999999999997,0)" xlink:href="#aN"/><use transform="matrix(0.05,0,0,0.05,203.59999999999997,0)" xlink:href="#bk"/><use transform="matrix(0.05,0,0,0.05,207.54999999999995,0)" xlink:href="#aN"/><use transform="matrix(0.05,0,0,0.05,217.54999999999995,0)" xlink:href="#aR"/><use transform="matrix(0.05,0,0,0.05,226.54999999999995,0)" xlink:href="#be"/><use transform="matrix(0.05,0,0,0.05,231.54999999999995,0)" xlink:href="#aN"/><use transform="matrix(0.05,0,0,0.05,241.54999999999995,0)" xlink:href="#bm"/><use transform="matrix(0.05,0,0,0.05,251.54999999999995,0)" xlink:href="#bn"/><use transform="matrix(0.05,0,0,0.05,257.49999999999994,0)" xlink:href="#aS"/></g><path fill="#ef8d22" d="M117-194c89-4 53 116 60 194h-32v-121c0-31-8-49-39-48C34-167 62-67 57 0H25l-1-190h30c1 10-1 24 2 32 11-22 29-35 61-36" id="bA"/><path fill="#ef8d22" d="M84 4C-5 8 30-112 23-190h32v120c0 31 7 50 39 49 72-2 45-101 50-169h31l1 190h-30c-1-10 1-25-2-33-11 22-28 36-60 37" id="bB"/><path fill="#ef8d22" d="M210-169c-67 3-38 105-44 169h-31v-121c0-29-5-50-35-48C34-165 62-65 56 0H25l-1-190h30c1 10-1 24 2 32 10-44 99-50 107 0 11-21 27-35 58-36 85-2 47 119 55 194h-31v-121c0-29-5-49-35-48" id="bC"/><path fill="#ef8d22" d="M115-194c53 0 69 39 70 98 0 66-23 100-70 100C84 3 66-7 56-30L54 0H23l1-261h32v101c10-23 28-34 59-34zm-8 174c40 0 45-34 45-75 0-40-5-75-45-74-42 0-51 32-51 76 0 43 10 73 51 73" id="bD"/><path fill="#ef8d22" d="M100-194c63 0 86 42 84 106H49c0 40 14 67 53 68 26 1 43-12 49-29l28 8c-11 28-37 45-77 45C44 4 14-33 15-96c1-61 26-98 85-98zm52 81c6-60-76-77-97-28-3 7-6 17-6 28h103" id="bE"/><path fill="#ef8d22" d="M114-163C36-179 61-72 57 0H25l-1-190h30c1 12-1 29 2 39 6-27 23-49 58-41v29" id="bF"/><g id="o"><use transform="matrix(0.05,0,0,0.05,0,0)" xlink:href="#bA"/><use transform="matrix(0.05,0,0,0.05,10,0)" xlink:href="#bB"/><use transform="matrix(0.05,0,0,0.05,20,0)" xlink:href="#bC"/><use transform="matrix(0.05,0,0,0.05,34.95,0)" xlink:href="#bD"/><use transform="matrix(0.05,0,0,0.05,44.95,0)" xlink:href="#bE"/><use transform="matrix(0.05,0,0,0.05,54.95,0)" xlink:href="#bF"/></g><path fill="#706148" d="M24-248c120-7 223 5 221 122C244-46 201 0 124 0H24v-248zM76-40c74 7 117-18 117-86 0-67-45-88-117-82v168" id="bG"/><path fill="#706148" d="M25 0v-261h50V0H25" id="bH"/><path fill="#706148" d="M123 10C108 53 80 86 19 72V37c35 8 53-11 59-39L3-190h52l48 148c12-52 28-100 44-148h51" id="bI"/><path fill="#706148" d="M169-182c-1-43-94-46-97-3 18 66 151 10 154 114 3 95-165 93-204 36-6-8-10-19-12-30l50-8c3 46 112 56 116 5-17-69-150-10-154-114-4-87 153-88 188-35 5 8 8 18 10 28" id="bJ"/><path fill="#706148" d="M135-150c-39-12-60 13-60 57V0H25l-1-190h47c2 13-1 29 3 40 6-28 27-53 61-41v41" id="bK"/><path fill="#706148" d="M128 0H69L1-190h53L99-40l48-150h52" id="bL"/><path fill="#706148" d="M190-63c-7 42-38 67-86 67-59 0-84-38-90-98-12-110 154-137 174-36l-49 2c-2-19-15-32-35-32-30 0-35 28-38 64-6 74 65 87 74 30" id="bM"/><g id="p"><use transform="matrix(0.05,0,0,0.05,0,0)" xlink:href="#au"/><use transform="matrix(0.05,0,0,0.05,9.600000000000001,0)" xlink:href="#av"/><use transform="matrix(0.05,0,0,0.05,19.6,0)" xlink:href="#aw"/><use transform="matrix(0.05,0,0,0.05,29.6,0)" xlink:href="#ax"/><use transform="matrix(0.05,0,0,0.05,39.6,0)" xlink:href="#bG"/><use transform="matrix(0.05,0,0,0.05,52.550000000000004,0)" xlink:href="#aG"/><use transform="matrix(0.05,0,0,0.05,62.550000000000004,0)" xlink:href="#bH"/><use transform="matrix(0.05,0,0,0.05,67.55000000000001,0)" xlink:href="#av"/><use transform="matrix(0.05,0,0,0.05,77.55000000000001,0)" xlink:href="#bI"/><use transform="matrix(0.05,0,0,0.05,87.55000000000001,0)" xlink:href="#bJ"/><use transform="matrix(0.05,0,0,0.05,99.55000000000001,0)" xlink:href="#aG"/><use transform="matrix(0.05,0,0,0.05,109.55000000000001,0)" xlink:href="#bK"/><use transform="matrix(0.05,0,0,0.05,116.55000000000001,0)" xlink:href="#bL"/><use transform="matrix(0.05,0,0,0.05,126.55000000000001,0)" xlink:href="#az"/><use transform="matrix(0.05,0,0,0.05,131.55,0)" xlink:href="#bM"/><use transform="matrix(0.05,0,0,0.05,141.55,0)" xlink:href="#aG"/></g><g id="q"><use transform="matrix(0.05,0,0,0.05,0,0)" xlink:href="#aJ"/><use transform="matrix(0.05,0,0,0.05,10,0)" xlink:href="#aR"/><use transform="matrix(0.05,0,0,0.05,19,0)" xlink:href="#be"/><use transform="matrix(0.05,0,0,0.05,24,0)" xlink:href="#bu"/><use transform="matrix(0.05,0,0,0.05,34,0)" xlink:href="#aJ"/><use transform="matrix(0.05,0,0,0.05,44,0)" xlink:href="#bk"/><use transform="matrix(0.05,0,0,0.05,47.95,0)" xlink:href="#bz"/><use transform="matrix(0.05,0,0,0.05,60.900000000000006,0)" xlink:href="#aJ"/><use transform="matrix(0.05,0,0,0.05,70.9,0)" xlink:href="#be"/><use transform="matrix(0.05,0,0,0.05,75.9,0)" xlink:href="#aN"/></g><path fill="#834187" d="M30-248c118-7 216 8 213 122C240-48 200 0 122 0H30v-248zM63-27c89 8 146-16 146-99s-60-101-146-95v194" id="bN"/><path fill="#834187" d="M59-47c-2 24 18 29 38 22v24C64 9 27 4 27-40v-127H5v-23h24l9-43h21v43h35v23H59v120" id="bO"/><g id="r"><use transform="matrix(0.05,0,0,0.05,0,0)" xlink:href="#bN"/><use transform="matrix(0.05,0,0,0.05,12.950000000000001,0)" xlink:href="#aU"/><use transform="matrix(0.05,0,0,0.05,22.950000000000003,0)" xlink:href="#bO"/><use transform="matrix(0.05,0,0,0.05,27.950000000000003,0)" xlink:href="#aY"/></g><g id="s"><use transform="matrix(0.05,0,0,0.05,0,0)" xlink:href="#bj"/><use transform="matrix(0.05,0,0,0.05,10,0)" xlink:href="#aN"/><use transform="matrix(0.05,0,0,0.05,20,0)" xlink:href="#be"/><use transform="matrix(0.05,0,0,0.05,25,0)" xlink:href="#bz"/><use transform="matrix(0.05,0,0,0.05,37.95,0)" xlink:href="#aJ"/><use transform="matrix(0.05,0,0,0.05,47.95,0)" xlink:href="#be"/><use transform="matrix(0.05,0,0,0.05,52.95,0)" xlink:href="#aN"/><use transform="matrix(0.05,0,0,0.05,62.95,0)" xlink:href="#bl"/><use transform="matrix(0.05,0,0,0.05,68.9,0)" xlink:href="#bn"/><use transform="matrix(0.05,0,0,0.05,74.85000000000001,0)" xlink:href="#aS"/></g><path fill="#706148" d="M141 0L90-78 38 0H4l68-98-65-92h35l48 74 47-74h35l-64 92 68 98h-35" id="bP"/><path fill="#706148" d="M179-190L93 31C79 59 56 82 12 73V49c39 6 53-20 64-50L1-190h34L92-34l54-156h33" id="bQ"/><g id="t"><use transform="matrix(0.05,0,0,0.05,0,0)" xlink:href="#bw"/><use transform="matrix(0.05,0,0,0.05,10,0)" xlink:href="#aN"/><use transform="matrix(0.05,0,0,0.05,20,0)" xlink:href="#bP"/><use transform="matrix(0.05,0,0,0.05,29,0)" xlink:href="#be"/><use transform="matrix(0.05,0,0,0.05,34,0)" xlink:href="#bz"/><use transform="matrix(0.05,0,0,0.05,46.95,0)" xlink:href="#aJ"/><use transform="matrix(0.05,0,0,0.05,56.95,0)" xlink:href="#bQ"/><use transform="matrix(0.05,0,0,0.05,65.95,0)" xlink:href="#bl"/><use transform="matrix(0.05,0,0,0.05,71.9,0)" xlink:href="#bn"/><use transform="matrix(0.05,0,0,0.05,77.85000000000001,0)" xlink:href="#aS"/></g><path fill="#706148" d="M106-169C34-169 62-67 57 0H25v-261h32l-1 103c12-21 28-36 61-36 89 0 53 116 60 194h-32v-121c2-32-8-49-39-48" id="bR"/><g id="u"><use transform="matrix(0.05,0,0,0.05,0,0)" xlink:href="#aR"/><use transform="matrix(0.05,0,0,0.05,9,0)" xlink:href="#bR"/><use transform="matrix(0.05,0,0,0.05,19,0)" xlink:href="#aN"/><use transform="matrix(0.05,0,0,0.05,29,0)" xlink:href="#aR"/><use transform="matrix(0.05,0,0,0.05,38,0)" xlink:href="#aL"/><use transform="matrix(0.05,0,0,0.05,47,0)" xlink:href="#bz"/><use transform="matrix(0.05,0,0,0.05,59.95,0)" xlink:href="#aN"/><use transform="matrix(0.05,0,0,0.05,69.95,0)" xlink:href="#bk"/><use transform="matrix(0.05,0,0,0.05,73.9,0)" xlink:href="#aJ"/><use transform="matrix(0.05,0,0,0.05,83.9,0)" xlink:href="#bQ"/><use transform="matrix(0.05,0,0,0.05,92.9,0)" xlink:href="#aK"/><use transform="matrix(0.05,0,0,0.05,101.9,0)" xlink:href="#bl"/><use transform="matrix(0.05,0,0,0.05,107.85000000000001,0)" xlink:href="#be"/><use transform="matrix(0.05,0,0,0.05,112.85000000000001,0)" xlink:href="#aJ"/><use transform="matrix(0.05,0,0,0.05,122.85000000000001,0)" xlink:href="#aK"/><use transform="matrix(0.05,0,0,0.05,131.85000000000002,0)" xlink:href="#aL"/><use transform="matrix(0.05,0,0,0.05,140.85000000000002,0)" xlink:href="#bf"/><use transform="matrix(0.05,0,0,0.05,150.85000000000002,0)" xlink:href="#aQ"/><use transform="matrix(0.05,0,0,0.05,154.8,0)" xlink:href="#aK"/><use transform="matrix(0.05,0,0,0.05,163.8,0)" xlink:href="#be"/><use transform="matrix(0.05,0,0,0.05,168.8,0)" xlink:href="#bn"/><use transform="matrix(0.05,0,0,0.05,174.75,0)" xlink:href="#aS"/></g><g id="v"><use transform="matrix(0.05,0,0,0.05,0,0)" xlink:href="#aR"/><use transform="matrix(0.05,0,0,0.05,9,0)" xlink:href="#aJ"/><use transform="matrix(0.05,0,0,0.05,19,0)" xlink:href="#bk"/><use transform="matrix(0.05,0,0,0.05,22.95,0)" xlink:href="#aR"/><use transform="matrix(0.05,0,0,0.05,31.950000000000003,0)" xlink:href="#bu"/><use transform="matrix(0.05,0,0,0.05,41.95,0)" xlink:href="#bk"/><use transform="matrix(0.05,0,0,0.05,45.900000000000006,0)" xlink:href="#aJ"/><use transform="matrix(0.05,0,0,0.05,55.900000000000006,0)" xlink:href="#be"/><use transform="matrix(0.05,0,0,0.05,60.900000000000006,0)" xlink:href="#aN"/><use transform="matrix(0.05,0,0,0.05,70.9,0)" xlink:href="#bx"/><use transform="matrix(0.05,0,0,0.05,83.85000000000001,0)" xlink:href="#aN"/><use transform="matrix(0.05,0,0,0.05,93.85000000000001,0)" xlink:href="#by"/><use transform="matrix(0.05,0,0,0.05,108.80000000000001,0)" xlink:href="#aJ"/><use transform="matrix(0.05,0,0,0.05,118.80000000000001,0)" xlink:href="#aQ"/><use transform="matrix(0.05,0,0,0.05,122.75,0)" xlink:href="#bw"/><use transform="matrix(0.05,0,0,0.05,132.75,0)" xlink:href="#aQ"/><use transform="matrix(0.05,0,0,0.05,136.7,0)" xlink:href="#bw"/><use transform="matrix(0.05,0,0,0.05,146.7,0)" xlink:href="#bj"/><use transform="matrix(0.05,0,0,0.05,156.7,0)" xlink:href="#bz"/><use transform="matrix(0.05,0,0,0.05,169.64999999999998,0)" xlink:href="#bu"/><use transform="matrix(0.05,0,0,0.05,179.64999999999998,0)" xlink:href="#aO"/><use transform="matrix(0.05,0,0,0.05,185.59999999999997,0)" xlink:href="#aJ"/><use transform="matrix(0.05,0,0,0.05,195.59999999999997,0)" xlink:href="#be"/><use transform="matrix(0.05,0,0,0.05,200.59999999999997,0)" xlink:href="#aQ"/><use transform="matrix(0.05,0,0,0.05,204.54999999999995,0)" xlink:href="#bi"/><use transform="matrix(0.05,0,0,0.05,214.54999999999995,0)" xlink:href="#bw"/><use transform="matrix(0.05,0,0,0.05,224.54999999999995,0)" xlink:href="#bl"/><use transform="matrix(0.05,0,0,0.05,230.49999999999991,0)" xlink:href="#be"/><use transform="matrix(0.05,0,0,0.05,235.49999999999991,0)" xlink:href="#aJ"/><use transform="matrix(0.05,0,0,0.05,245.49999999999991,0)" xlink:href="#aK"/><use transform="matrix(0.05,0,0,0.05,254.49999999999991,0)" xlink:href="#aL"/><use transform="matrix(0.05,0,0,0.05,263.49999999999994,0)" xlink:href="#bn"/></g><g id="w"><use transform="matrix(0.05,0,0,0.05,0,0)" xlink:href="#bA"/><use transform="matrix(0.05,0,0,0.05,10,0)" xlink:href="#bB"/><use transform="matrix(0.05,0,0,0.05,20,0)" xlink:href="#bC"/><use transform="matrix(0.05,0,0,0.05,34.95,0)" xlink:href="#bD"/><use transform="matrix(0.05,0,0,0.05,44.95,0)" xlink:href="#bE"/><use transform="matrix(0.05,0,0,0.05,54.95,0)" xlink:href="#bF"/></g><g id="x"><use transform="matrix(0.05,0,0,0.05,0,0)" xlink:href="#aR"/><use transform="matrix(0.05,0,0,0.05,9,0)" xlink:href="#aJ"/><use transform="matrix(0.05,0,0,0.05,19,0)" xlink:href="#bk"/><use transform="matrix(0.05,0,0,0.05,22.95,0)" xlink:href="#aR"/><use transform="matrix(0.05,0,0,0.05,31.950000000000003,0)" xlink:href="#bu"/><use transform="matrix(0.05,0,0,0.05,41.95,0)" xlink:href="#bk"/><use transform="matrix(0.05,0,0,0.05,45.900000000000006,0)" xlink:href="#aJ"/><use transform="matrix(0.05,0,0,0.05,55.900000000000006,0)" xlink:href="#be"/><use transform="matrix(0.05,0,0,0.05,60.900000000000006,0)" xlink:href="#aN"/><use transform="matrix(0.05,0,0,0.05,70.9,0)" xlink:href="#bz"/><use transform="matrix(0.05,0,0,0.05,83.85000000000001,0)" xlink:href="#aN"/><use transform="matrix(0.05,0,0,0.05,93.85000000000001,0)" xlink:href="#bk"/><use transform="matrix(0.05,0,0,0.05,97.80000000000001,0)" xlink:href="#aJ"/><use transform="matrix(0.05,0,0,0.05,107.80000000000001,0)" xlink:href="#bQ"/><use transform="matrix(0.05,0,0,0.05,116.80000000000001,0)" xlink:href="#bl"/><use transform="matrix(0.05,0,0,0.05,122.75,0)" xlink:href="#be"/><use transform="matrix(0.05,0,0,0.05,127.75,0)" xlink:href="#aJ"/><use transform="matrix(0.05,0,0,0.05,137.75,0)" xlink:href="#aK"/><use transform="matrix(0.05,0,0,0.05,146.75,0)" xlink:href="#aL"/><use transform="matrix(0.05,0,0,0.05,155.75,0)" xlink:href="#bn"/><use transform="matrix(0.05,0,0,0.05,161.7,0)" xlink:href="#aS"/></g><path fill="#706148" d="M24 0v-248h195v40H76v63h132v40H76v65h150V0H24" id="bS"/><path fill="#706148" d="M88-194c31-1 46 15 58 34l-1-101h50l1 261h-48c-2-10 0-23-3-31C134-8 116 4 84 4 32 4 16-41 15-95c0-56 19-97 73-99zm17 164c33 0 40-30 41-66 1-37-9-64-41-64s-38 30-39 65c0 43 13 65 39 65" id="bT"/><g id="y"><use transform="matrix(0.05,0,0,0.05,0,0)" xlink:href="#au"/><use transform="matrix(0.05,0,0,0.05,9.600000000000001,0)" xlink:href="#av"/><use transform="matrix(0.05,0,0,0.05,19.6,0)" xlink:href="#aw"/><use transform="matrix(0.05,0,0,0.05,29.6,0)" xlink:href="#ax"/><use transform="matrix(0.05,0,0,0.05,39.6,0)" xlink:href="#bS"/><use transform="matrix(0.05,0,0,0.05,51.6,0)" xlink:href="#bT"/><use transform="matrix(0.05,0,0,0.05,62.550000000000004,0)" xlink:href="#az"/><use transform="matrix(0.05,0,0,0.05,67.55000000000001,0)" xlink:href="#aA"/><use transform="matrix(0.05,0,0,0.05,73.50000000000001,0)" xlink:href="#bJ"/><use transform="matrix(0.05,0,0,0.05,85.50000000000001,0)" xlink:href="#aG"/><use transform="matrix(0.05,0,0,0.05,95.50000000000001,0)" xlink:href="#bK"/><use transform="matrix(0.05,0,0,0.05,102.5,0)" xlink:href="#bL"/><use transform="matrix(0.05,0,0,0.05,112.5,0)" xlink:href="#az"/><use transform="matrix(0.05,0,0,0.05,117.5,0)" xlink:href="#bM"/><use transform="matrix(0.05,0,0,0.05,127.5,0)" xlink:href="#aG"/></g><g id="z"><use transform="matrix(0.05,0,0,0.05,0,0)" xlink:href="#aO"/><use transform="matrix(0.05,0,0,0.05,5.95,0)" xlink:href="#bi"/><use transform="matrix(0.05,0,0,0.05,15.949999999999998,0)" xlink:href="#bu"/><use transform="matrix(0.05,0,0,0.05,25.950000000000003,0)" xlink:href="#be"/><use transform="matrix(0.05,0,0,0.05,30.950000000000003,0)" xlink:href="#aN"/><use transform="matrix(0.05,0,0,0.05,40.95,0)" xlink:href="#aO"/><use transform="matrix(0.05,0,0,0.05,46.900000000000006,0)" xlink:href="#aS"/></g><path fill="#834187" d="M233-177c-1 41-23 64-60 70L243 0h-38l-65-103H63V0H30v-248c88 3 205-21 203 71zM63-129c60-2 137 13 137-47 0-61-80-42-137-45v92" id="bU"/><path fill="#834187" d="M100-194c62-1 85 37 85 99 1 63-27 99-86 99S16-35 15-95c0-66 28-99 85-99zM99-20c44 1 53-31 53-75 0-43-8-75-51-75s-53 32-53 75 10 74 51 75" id="bV"/><path fill="#834187" d="M84 4C-5 8 30-112 23-190h32v120c0 31 7 50 39 49 72-2 45-101 50-169h31l1 190h-30c-1-10 1-25-2-33-11 22-28 36-60 37" id="bW"/><g id="A"><use transform="matrix(0.05,0,0,0.05,0,0)" xlink:href="#bU"/><use transform="matrix(0.05,0,0,0.05,12.950000000000001,0)" xlink:href="#bV"/><use transform="matrix(0.05,0,0,0.05,22.950000000000003,0)" xlink:href="#bW"/><use transform="matrix(0.05,0,0,0.05,32.95,0)" xlink:href="#bO"/><use transform="matrix(0.05,0,0,0.05,37.95,0)" xlink:href="#aY"/><use transform="matrix(0.05,0,0,0.05,47.95,0)" xlink:href="#aZ"/></g><path fill="#706148" d="M68-38c1 34 0 65-14 84H32c9-13 17-26 17-46H33v-38h35" id="bX"/><g id="B"><use transform="matrix(0.05,0,0,0.05,0,0)" xlink:href="#be"/><use transform="matrix(0.05,0,0,0.05,5,0)" xlink:href="#bi"/><use transform="matrix(0.05,0,0,0.05,15,0)" xlink:href="#bj"/><use transform="matrix(0.05,0,0,0.05,25,0)" xlink:href="#bj"/><use transform="matrix(0.05,0,0,0.05,35,0)" xlink:href="#bk"/><use transform="matrix(0.05,0,0,0.05,38.95,0)" xlink:href="#aN"/><use transform="matrix(0.05,0,0,0.05,48.95,0)" xlink:href="#aM"/><use transform="matrix(0.05,0,0,0.05,60.95,0)" xlink:href="#be"/><use transform="matrix(0.05,0,0,0.05,65.95,0)" xlink:href="#aJ"/><use transform="matrix(0.05,0,0,0.05,75.95,0)" xlink:href="#be"/><use transform="matrix(0.05,0,0,0.05,80.95,0)" xlink:href="#aN"/><use transform="matrix(0.05,0,0,0.05,90.95,0)" xlink:href="#bl"/><use transform="matrix(0.05,0,0,0.05,96.9,0)" xlink:href="#aK"/><use transform="matrix(0.05,0,0,0.05,105.9,0)" xlink:href="#aN"/><use transform="matrix(0.05,0,0,0.05,115.9,0)" xlink:href="#bk"/><use transform="matrix(0.05,0,0,0.05,119.85000000000001,0)" xlink:href="#aN"/><use transform="matrix(0.05,0,0,0.05,129.85000000000002,0)" xlink:href="#aR"/><use transform="matrix(0.05,0,0,0.05,138.85000000000002,0)" xlink:href="#be"/><use transform="matrix(0.05,0,0,0.05,143.85000000000002,0)" xlink:href="#aN"/><use transform="matrix(0.05,0,0,0.05,153.85000000000002,0)" xlink:href="#bm"/><use transform="matrix(0.05,0,0,0.05,163.85000000000002,0)" xlink:href="#bX"/></g><g id="C"><use transform="matrix(0.05,0,0,0.05,0,0)" xlink:href="#aJ"/><use transform="matrix(0.05,0,0,0.05,10,0)" xlink:href="#aR"/><use transform="matrix(0.05,0,0,0.05,19,0)" xlink:href="#be"/><use transform="matrix(0.05,0,0,0.05,24,0)" xlink:href="#bu"/><use transform="matrix(0.05,0,0,0.05,34,0)" xlink:href="#aJ"/><use transform="matrix(0.05,0,0,0.05,44,0)" xlink:href="#bk"/><use transform="matrix(0.05,0,0,0.05,47.95,0)" xlink:href="#bz"/><use transform="matrix(0.05,0,0,0.05,60.900000000000006,0)" xlink:href="#aJ"/><use transform="matrix(0.05,0,0,0.05,70.9,0)" xlink:href="#be"/><use transform="matrix(0.05,0,0,0.05,75.9,0)" xlink:href="#aN"/><use transform="matrix(0.05,0,0,0.05,85.9,0)" xlink:href="#bn"/><use transform="matrix(0.05,0,0,0.05,91.85000000000001,0)" xlink:href="#aS"/></g><path fill="#706148" d="M63-220v92h138v28H63V0H30v-248h175v28H63" id="bY"/><g id="D"><use transform="matrix(0.05,0,0,0.05,0,0)" xlink:href="#be"/><use transform="matrix(0.05,0,0,0.05,5,0)" xlink:href="#bi"/><use transform="matrix(0.05,0,0,0.05,15,0)" xlink:href="#bj"/><use transform="matrix(0.05,0,0,0.05,25,0)" xlink:href="#bj"/><use transform="matrix(0.05,0,0,0.05,35,0)" xlink:href="#bk"/><use transform="matrix(0.05,0,0,0.05,38.95,0)" xlink:href="#aN"/><use transform="matrix(0.05,0,0,0.05,48.95,0)" xlink:href="#bs"/><use transform="matrix(0.05,0,0,0.05,61.900000000000006,0)" xlink:href="#bt"/><use transform="matrix(0.05,0,0,0.05,71.9,0)" xlink:href="#bm"/><use transform="matrix(0.05,0,0,0.05,81.9,0)" xlink:href="#aJ"/><use transform="matrix(0.05,0,0,0.05,91.9,0)" xlink:href="#be"/><use transform="matrix(0.05,0,0,0.05,96.9,0)" xlink:href="#aN"/><use transform="matrix(0.05,0,0,0.05,106.9,0)" xlink:href="#bY"/><use transform="matrix(0.05,0,0,0.05,117.85000000000001,0)" xlink:href="#bi"/><use transform="matrix(0.05,0,0,0.05,127.85000000000001,0)" xlink:href="#aO"/><use transform="matrix(0.05,0,0,0.05,133.8,0)" xlink:href="#by"/><use transform="matrix(0.05,0,0,0.05,148.75,0)" xlink:href="#bl"/><use transform="matrix(0.05,0,0,0.05,154.7,0)" xlink:href="#aK"/><use transform="matrix(0.05,0,0,0.05,163.7,0)" xlink:href="#aN"/><use transform="matrix(0.05,0,0,0.05,173.7,0)" xlink:href="#bk"/><use transform="matrix(0.05,0,0,0.05,177.64999999999998,0)" xlink:href="#aN"/><use transform="matrix(0.05,0,0,0.05,187.64999999999998,0)" xlink:href="#aR"/><use transform="matrix(0.05,0,0,0.05,196.64999999999998,0)" xlink:href="#be"/><use transform="matrix(0.05,0,0,0.05,201.64999999999998,0)" xlink:href="#aN"/><use transform="matrix(0.05,0,0,0.05,211.64999999999998,0)" xlink:href="#bm"/><use transform="matrix(0.05,0,0,0.05,221.64999999999998,0)" xlink:href="#bX"/></g><g id="E"><use transform="matrix(0.05,0,0,0.05,0,0)" xlink:href="#bu"/><use transform="matrix(0.05,0,0,0.05,10,0)" xlink:href="#bt"/><use transform="matrix(0.05,0,0,0.05,20,0)" xlink:href="#bm"/><use transform="matrix(0.05,0,0,0.05,30,0)" xlink:href="#aJ"/><use transform="matrix(0.05,0,0,0.05,40,0)" xlink:href="#be"/><use transform="matrix(0.05,0,0,0.05,45,0)" xlink:href="#aN"/><use transform="matrix(0.05,0,0,0.05,55,0)" xlink:href="#bv"/><use transform="matrix(0.05,0,0,0.05,67,0)" xlink:href="#aN"/><use transform="matrix(0.05,0,0,0.05,77,0)" xlink:href="#aO"/><use transform="matrix(0.05,0,0,0.05,82.95,0)" xlink:href="#aR"/><use transform="matrix(0.05,0,0,0.05,91.95,0)" xlink:href="#aN"/><use transform="matrix(0.05,0,0,0.05,101.95,0)" xlink:href="#bw"/><use transform="matrix(0.05,0,0,0.05,111.95,0)" xlink:href="#be"/><use transform="matrix(0.05,0,0,0.05,116.95,0)" xlink:href="#aJ"/><use transform="matrix(0.05,0,0,0.05,126.95,0)" xlink:href="#bj"/><use transform="matrix(0.05,0,0,0.05,136.95,0)" xlink:href="#aN"/><use transform="matrix(0.05,0,0,0.05,146.95,0)" xlink:href="#bl"/><use transform="matrix(0.05,0,0,0.05,152.89999999999998,0)" xlink:href="#aK"/><use transform="matrix(0.05,0,0,0.05,161.89999999999998,0)" xlink:href="#aN"/><use transform="matrix(0.05,0,0,0.05,171.89999999999998,0)" xlink:href="#bk"/><use transform="matrix(0.05,0,0,0.05,175.84999999999997,0)" xlink:href="#aN"/><use transform="matrix(0.05,0,0,0.05,185.84999999999997,0)" xlink:href="#aR"/><use transform="matrix(0.05,0,0,0.05,194.84999999999997,0)" xlink:href="#be"/><use transform="matrix(0.05,0,0,0.05,199.84999999999997,0)" xlink:href="#aN"/><use transform="matrix(0.05,0,0,0.05,209.84999999999997,0)" xlink:href="#bm"/><use transform="matrix(0.05,0,0,0.05,219.84999999999997,0)" xlink:href="#bn"/><use transform="matrix(0.05,0,0,0.05,225.79999999999995,0)" xlink:href="#aS"/></g><g id="F"><use transform="matrix(0.05,0,0,0.05,0,0)" xlink:href="#bo"/><use transform="matrix(0.05,0,0,0.05,9,0)" xlink:href="#bp"/><use transform="matrix(0.05,0,0,0.05,19,0)" xlink:href="#bq"/><use transform="matrix(0.05,0,0,0.05,22.95,0)" xlink:href="#br"/></g><g id="G"><use transform="matrix(0.05,0,0,0.05,0,0)" xlink:href="#au"/><use transform="matrix(0.05,0,0,0.05,9.600000000000001,0)" xlink:href="#av"/><use transform="matrix(0.05,0,0,0.05,19.6,0)" xlink:href="#aw"/><use transform="matrix(0.05,0,0,0.05,29.6,0)" xlink:href="#ax"/><use transform="matrix(0.05,0,0,0.05,39.6,0)" xlink:href="#bJ"/><use transform="matrix(0.05,0,0,0.05,51.6,0)" xlink:href="#aG"/><use transform="matrix(0.05,0,0,0.05,61.6,0)" xlink:href="#bK"/><use transform="matrix(0.05,0,0,0.05,68.6,0)" xlink:href="#bL"/><use transform="matrix(0.05,0,0,0.05,78.6,0)" xlink:href="#az"/><use transform="matrix(0.05,0,0,0.05,83.6,0)" xlink:href="#bM"/><use transform="matrix(0.05,0,0,0.05,93.6,0)" xlink:href="#aG"/></g><use transform="matrix(0.05,0,0,0.05,0,0)" xlink:href="#aH" id="H"/><path fill="#706148" d="M30 0v-248h187v28H63v79h144v27H63v87h162V0H30" id="bZ"/><g id="I"><use transform="matrix(0.05,0,0,0.05,0,0)" xlink:href="#aI"/><use transform="matrix(0.05,0,0,0.05,8.950000000000001,0)" xlink:href="#aJ"/><use transform="matrix(0.05,0,0,0.05,18.950000000000003,0)" xlink:href="#aK"/><use transform="matrix(0.05,0,0,0.05,27.950000000000003,0)" xlink:href="#aL"/><use transform="matrix(0.05,0,0,0.05,36.95,0)" xlink:href="#bZ"/><use transform="matrix(0.05,0,0,0.05,48.95,0)" xlink:href="#bm"/><use transform="matrix(0.05,0,0,0.05,58.95,0)" xlink:href="#aQ"/><use transform="matrix(0.05,0,0,0.05,62.900000000000006,0)" xlink:href="#be"/><use transform="matrix(0.05,0,0,0.05,67.9,0)" xlink:href="#aM"/><use transform="matrix(0.05,0,0,0.05,79.9,0)" xlink:href="#aN"/><use transform="matrix(0.05,0,0,0.05,89.9,0)" xlink:href="#aO"/><use transform="matrix(0.05,0,0,0.05,95.85000000000001,0)" xlink:href="#aP"/><use transform="matrix(0.05,0,0,0.05,104.85000000000001,0)" xlink:href="#aQ"/><use transform="matrix(0.05,0,0,0.05,108.80000000000001,0)" xlink:href="#aR"/><use transform="matrix(0.05,0,0,0.05,117.80000000000001,0)" xlink:href="#aN"/></g><use transform="matrix(0.05,0,0,0.05,0,0)" xlink:href="#aS" id="J"/><path fill="#834187" d="M30 0v-248h187v28H63v79h144v27H63v87h162V0H30" id="ca"/><path fill="#834187" d="M85-194c31 0 48 13 60 33l-1-100h32l1 261h-30c-2-10 0-23-3-31C134-8 116 4 85 4 32 4 16-35 15-94c0-66 23-100 70-100zm9 24c-40 0-46 34-46 75 0 40 6 74 45 74 42 0 51-32 51-76 0-42-9-74-50-73" id="cb"/><g id="K"><use transform="matrix(0.05,0,0,0.05,0,0)" xlink:href="#aT"/><use transform="matrix(0.05,0,0,0.05,8.950000000000001,0)" xlink:href="#aU"/><use transform="matrix(0.05,0,0,0.05,18.950000000000003,0)" xlink:href="#aV"/><use transform="matrix(0.05,0,0,0.05,27.950000000000003,0)" xlink:href="#aW"/><use transform="matrix(0.05,0,0,0.05,36.95,0)" xlink:href="#ca"/><use transform="matrix(0.05,0,0,0.05,48.95,0)" xlink:href="#cb"/><use transform="matrix(0.05,0,0,0.05,58.95,0)" xlink:href="#bb"/><use transform="matrix(0.05,0,0,0.05,62.900000000000006,0)" xlink:href="#bO"/><use transform="matrix(0.05,0,0,0.05,67.9,0)" xlink:href="#aX"/><use transform="matrix(0.05,0,0,0.05,79.9,0)" xlink:href="#aY"/><use transform="matrix(0.05,0,0,0.05,89.9,0)" xlink:href="#aZ"/><use transform="matrix(0.05,0,0,0.05,95.85000000000001,0)" xlink:href="#ba"/><use transform="matrix(0.05,0,0,0.05,104.85000000000001,0)" xlink:href="#bb"/><use transform="matrix(0.05,0,0,0.05,108.80000000000001,0)" xlink:href="#bc"/><use transform="matrix(0.05,0,0,0.05,117.80000000000001,0)" xlink:href="#aY"/></g><g id="L"><use transform="matrix(0.05,0,0,0.05,0,0)" xlink:href="#aI"/><use transform="matrix(0.05,0,0,0.05,8.950000000000001,0)" xlink:href="#aJ"/><use transform="matrix(0.05,0,0,0.05,18.950000000000003,0)" xlink:href="#aK"/><use transform="matrix(0.05,0,0,0.05,27.950000000000003,0)" xlink:href="#aL"/><use transform="matrix(0.05,0,0,0.05,36.95,0)" xlink:href="#bz"/><use transform="matrix(0.05,0,0,0.05,49.900000000000006,0)" xlink:href="#aN"/><use transform="matrix(0.05,0,0,0.05,59.900000000000006,0)" xlink:href="#bk"/><use transform="matrix(0.05,0,0,0.05,63.85,0)" xlink:href="#aJ"/><use transform="matrix(0.05,0,0,0.05,73.85000000000001,0)" xlink:href="#bQ"/><use transform="matrix(0.05,0,0,0.05,82.85000000000001,0)" xlink:href="#aM"/><use transform="matrix(0.05,0,0,0.05,94.85000000000001,0)" xlink:href="#aN"/><use transform="matrix(0.05,0,0,0.05,104.85000000000001,0)" xlink:href="#aO"/><use transform="matrix(0.05,0,0,0.05,110.80000000000001,0)" xlink:href="#aP"/><use transform="matrix(0.05,0,0,0.05,119.80000000000001,0)" xlink:href="#aQ"/><use transform="matrix(0.05,0,0,0.05,123.75,0)" xlink:href="#aR"/><use transform="matrix(0.05,0,0,0.05,132.75,0)" xlink:href="#aN"/><use transform="matrix(0.05,0,0,0.05,142.75,0)" xlink:href="#aS"/></g><path fill="#834187" d="M24 0v-261h32V0H24" id="cc"/><path fill="#834187" d="M179-190L93 31C79 59 56 82 12 73V49c39 6 53-20 64-50L1-190h34L92-34l54-156h33" id="cd"/><g id="M"><use transform="matrix(0.05,0,0,0.05,0,0)" xlink:href="#aT"/><use transform="matrix(0.05,0,0,0.05,8.950000000000001,0)" xlink:href="#aU"/><use transform="matrix(0.05,0,0,0.05,18.950000000000003,0)" xlink:href="#aV"/><use transform="matrix(0.05,0,0,0.05,27.950000000000003,0)" xlink:href="#aW"/><use transform="matrix(0.05,0,0,0.05,36.95,0)" xlink:href="#bN"/><use transform="matrix(0.05,0,0,0.05,49.900000000000006,0)" xlink:href="#aY"/><use transform="matrix(0.05,0,0,0.05,59.900000000000006,0)" xlink:href="#cc"/><use transform="matrix(0.05,0,0,0.05,63.85,0)" xlink:href="#aU"/><use transform="matrix(0.05,0,0,0.05,73.85000000000001,0)" xlink:href="#cd"/><use transform="matrix(0.05,0,0,0.05,82.85000000000001,0)" xlink:href="#aX"/><use transform="matrix(0.05,0,0,0.05,94.85000000000001,0)" xlink:href="#aY"/><use transform="matrix(0.05,0,0,0.05,104.85000000000001,0)" xlink:href="#aZ"/><use transform="matrix(0.05,0,0,0.05,110.80000000000001,0)" xlink:href="#ba"/><use transform="matrix(0.05,0,0,0.05,119.80000000000001,0)" xlink:href="#bb"/><use transform="matrix(0.05,0,0,0.05,123.75,0)" xlink:href="#bc"/><use transform="matrix(0.05,0,0,0.05,132.75,0)" xlink:href="#aY"/></g><use transform="matrix(0.05,0,0,0.05,0,0)" xlink:href="#bd" id="N"/><g id="O"><use transform="matrix(0.05,0,0,0.05,0,0)" xlink:href="#be"/><use transform="matrix(0.05,0,0,0.05,5,0)" xlink:href="#aJ"/><use transform="matrix(0.05,0,0,0.05,15,0)" xlink:href="#aK"/><use transform="matrix(0.05,0,0,0.05,24,0)" xlink:href="#aL"/><use transform="matrix(0.05,0,0,0.05,33,0)" xlink:href="#bf"/><use transform="matrix(0.05,0,0,0.05,43,0)" xlink:href="#aQ"/><use transform="matrix(0.05,0,0,0.05,46.95,0)" xlink:href="#aK"/><use transform="matrix(0.05,0,0,0.05,55.95,0)" xlink:href="#be"/></g><g id="P"><use transform="matrix(0.05,0,0,0.05,0,0)" xlink:href="#aT"/><use transform="matrix(0.05,0,0,0.05,8.950000000000001,0)" xlink:href="#aU"/><use transform="matrix(0.05,0,0,0.05,18.950000000000003,0)" xlink:href="#aV"/><use transform="matrix(0.05,0,0,0.05,27.950000000000003,0)" xlink:href="#aW"/><use transform="matrix(0.05,0,0,0.05,36.95,0)" xlink:href="#bg"/></g><use transform="matrix(0.05,0,0,0.05,0,0)" xlink:href="#bh" id="Q"/><g id="R"><use transform="matrix(0.05,0,0,0.05,0,0)" xlink:href="#be"/><use transform="matrix(0.05,0,0,0.05,5,0)" xlink:href="#bi"/><use transform="matrix(0.05,0,0,0.05,15,0)" xlink:href="#bj"/><use transform="matrix(0.05,0,0,0.05,25,0)" xlink:href="#bj"/><use transform="matrix(0.05,0,0,0.05,35,0)" xlink:href="#bk"/><use transform="matrix(0.05,0,0,0.05,38.95,0)" xlink:href="#aN"/><use transform="matrix(0.05,0,0,0.05,48.95,0)" xlink:href="#aM"/><use transform="matrix(0.05,0,0,0.05,60.95,0)" xlink:href="#be"/><use transform="matrix(0.05,0,0,0.05,65.95,0)" xlink:href="#aJ"/><use transform="matrix(0.05,0,0,0.05,75.95,0)" xlink:href="#be"/><use transform="matrix(0.05,0,0,0.05,80.95,0)" xlink:href="#aN"/><use transform="matrix(0.05,0,0,0.05,90.95,0)" xlink:href="#bl"/><use transform="matrix(0.05,0,0,0.05,96.9,0)" xlink:href="#aK"/><use transform="matrix(0.05,0,0,0.05,105.9,0)" xlink:href="#aN"/><use transform="matrix(0.05,0,0,0.05,115.9,0)" xlink:href="#bk"/><use transform="matrix(0.05,0,0,0.05,119.85000000000001,0)" xlink:href="#aN"/><use transform="matrix(0.05,0,0,0.05,129.85000000000002,0)" xlink:href="#aR"/><use transform="matrix(0.05,0,0,0.05,138.85000000000002,0)" xlink:href="#be"/><use transform="matrix(0.05,0,0,0.05,143.85000000000002,0)" xlink:href="#aN"/><use transform="matrix(0.05,0,0,0.05,153.85000000000002,0)" xlink:href="#bm"/><use transform="matrix(0.05,0,0,0.05,163.85000000000002,0)" xlink:href="#bn"/></g><g id="S"><use transform="matrix(0.05,0,0,0.05,0,0)" xlink:href="#bo"/><use transform="matrix(0.05,0,0,0.05,9,0)" xlink:href="#bp"/><use transform="matrix(0.05,0,0,0.05,19,0)" xlink:href="#bq"/><use transform="matrix(0.05,0,0,0.05,22.95,0)" xlink:href="#br"/></g><g id="T"><use transform="matrix(0.05,0,0,0.05,0,0)" xlink:href="#bu"/><use transform="matrix(0.05,0,0,0.05,10,0)" xlink:href="#bt"/><use transform="matrix(0.05,0,0,0.05,20,0)" xlink:href="#bm"/><use transform="matrix(0.05,0,0,0.05,30,0)" xlink:href="#aJ"/><use transform="matrix(0.05,0,0,0.05,40,0)" xlink:href="#be"/><use transform="matrix(0.05,0,0,0.05,45,0)" xlink:href="#aN"/><use transform="matrix(0.05,0,0,0.05,55,0)" xlink:href="#bv"/><use transform="matrix(0.05,0,0,0.05,67,0)" xlink:href="#aN"/><use transform="matrix(0.05,0,0,0.05,77,0)" xlink:href="#aO"/><use transform="matrix(0.05,0,0,0.05,82.95,0)" xlink:href="#aR"/><use transform="matrix(0.05,0,0,0.05,91.95,0)" xlink:href="#aN"/><use transform="matrix(0.05,0,0,0.05,101.95,0)" xlink:href="#bw"/><use transform="matrix(0.05,0,0,0.05,111.95,0)" xlink:href="#be"/><use transform="matrix(0.05,0,0,0.05,116.95,0)" xlink:href="#aJ"/><use transform="matrix(0.05,0,0,0.05,126.95,0)" xlink:href="#bj"/><use transform="matrix(0.05,0,0,0.05,136.95,0)" xlink:href="#aN"/><use transform="matrix(0.05,0,0,0.05,146.95,0)" xlink:href="#bl"/><use transform="matrix(0.05,0,0,0.05,152.89999999999998,0)" xlink:href="#aK"/><use transform="matrix(0.05,0,0,0.05,161.89999999999998,0)" xlink:href="#aN"/><use transform="matrix(0.05,0,0,0.05,171.89999999999998,0)" xlink:href="#bk"/><use transform="matrix(0.05,0,0,0.05,175.84999999999997,0)" xlink:href="#aN"/><use transform="matrix(0.05,0,0,0.05,185.84999999999997,0)" xlink:href="#aR"/><use transform="matrix(0.05,0,0,0.05,194.84999999999997,0)" xlink:href="#be"/><use transform="matrix(0.05,0,0,0.05,199.84999999999997,0)" xlink:href="#aN"/><use transform="matrix(0.05,0,0,0.05,209.84999999999997,0)" xlink:href="#bm"/><use transform="matrix(0.05,0,0,0.05,219.84999999999997,0)" xlink:href="#bn"/><use transform="matrix(0.05,0,0,0.05,225.79999999999995,0)" xlink:href="#aS"/></g><g id="U"><use transform="matrix(0.05,0,0,0.05,0,0)" xlink:href="#be"/><use transform="matrix(0.05,0,0,0.05,5,0)" xlink:href="#bi"/><use transform="matrix(0.05,0,0,0.05,15,0)" xlink:href="#bj"/><use transform="matrix(0.05,0,0,0.05,25,0)" xlink:href="#bj"/><use transform="matrix(0.05,0,0,0.05,35,0)" xlink:href="#bk"/><use transform="matrix(0.05,0,0,0.05,38.95,0)" xlink:href="#aN"/><use transform="matrix(0.05,0,0,0.05,48.95,0)" xlink:href="#bs"/><use transform="matrix(0.05,0,0,0.05,61.900000000000006,0)" xlink:href="#bt"/><use transform="matrix(0.05,0,0,0.05,71.9,0)" xlink:href="#bm"/><use transform="matrix(0.05,0,0,0.05,81.9,0)" xlink:href="#aJ"/><use transform="matrix(0.05,0,0,0.05,91.9,0)" xlink:href="#be"/><use transform="matrix(0.05,0,0,0.05,96.9,0)" xlink:href="#aN"/><use transform="matrix(0.05,0,0,0.05,106.9,0)" xlink:href="#bY"/><use transform="matrix(0.05,0,0,0.05,117.85000000000001,0)" xlink:href="#bi"/><use transform="matrix(0.05,0,0,0.05,127.85000000000001,0)" xlink:href="#aO"/><use transform="matrix(0.05,0,0,0.05,133.8,0)" xlink:href="#by"/><use transform="matrix(0.05,0,0,0.05,148.75,0)" xlink:href="#bl"/><use transform="matrix(0.05,0,0,0.05,154.7,0)" xlink:href="#aK"/><use transform="matrix(0.05,0,0,0.05,163.7,0)" xlink:href="#aN"/><use transform="matrix(0.05,0,0,0.05,173.7,0)" xlink:href="#bk"/><use transform="matrix(0.05,0,0,0.05,177.64999999999998,0)" xlink:href="#aN"/><use transform="matrix(0.05,0,0,0.05,187.64999999999998,0)" xlink:href="#aR"/><use transform="matrix(0.05,0,0,0.05,196.64999999999998,0)" xlink:href="#be"/><use transform="matrix(0.05,0,0,0.05,201.64999999999998,0)" xlink:href="#aN"/><use transform="matrix(0.05,0,0,0.05,211.64999999999998,0)" xlink:href="#bm"/><use transform="matrix(0.05,0,0,0.05,221.64999999999998,0)" xlink:href="#bn"/><use transform="matrix(0.05,0,0,0.05,227.59999999999997,0)" xlink:href="#aS"/></g><g id="W"><use transform="matrix(0.05,0,0,0.05,0,0)" xlink:href="#bw"/><use transform="matrix(0.05,0,0,0.05,10,0)" xlink:href="#aN"/><use transform="matrix(0.05,0,0,0.05,20,0)" xlink:href="#bP"/><use transform="matrix(0.05,0,0,0.05,29,0)" xlink:href="#be"/><use transform="matrix(0.05,0,0,0.05,34,0)" xlink:href="#bz"/><use transform="matrix(0.05,0,0,0.05,46.95,0)" xlink:href="#aJ"/><use transform="matrix(0.05,0,0,0.05,56.95,0)" xlink:href="#bQ"/><use transform="matrix(0.05,0,0,0.05,65.95,0)" xlink:href="#bl"/><use transform="matrix(0.05,0,0,0.05,71.9,0)" xlink:href="#bn"/><use transform="matrix(0.05,0,0,0.05,77.85000000000001,0)" xlink:href="#aS"/></g><g id="X"><use transform="matrix(0.05,0,0,0.05,0,0)" xlink:href="#bN"/><use transform="matrix(0.05,0,0,0.05,12.950000000000001,0)" xlink:href="#aU"/><use transform="matrix(0.05,0,0,0.05,22.950000000000003,0)" xlink:href="#bO"/><use transform="matrix(0.05,0,0,0.05,27.950000000000003,0)" xlink:href="#aY"/></g><g id="Y"><use transform="matrix(0.05,0,0,0.05,0,0)" xlink:href="#aR"/><use transform="matrix(0.05,0,0,0.05,9,0)" xlink:href="#bR"/><use transform="matrix(0.05,0,0,0.05,19,0)" xlink:href="#aN"/><use transform="matrix(0.05,0,0,0.05,29,0)" xlink:href="#aR"/><use transform="matrix(0.05,0,0,0.05,38,0)" xlink:href="#aL"/><use transform="matrix(0.05,0,0,0.05,47,0)" xlink:href="#bz"/><use transform="matrix(0.05,0,0,0.05,59.95,0)" xlink:href="#aN"/><use transform="matrix(0.05,0,0,0.05,69.95,0)" xlink:href="#bk"/><use transform="matrix(0.05,0,0,0.05,73.9,0)" xlink:href="#aJ"/><use transform="matrix(0.05,0,0,0.05,83.9,0)" xlink:href="#bQ"/><use transform="matrix(0.05,0,0,0.05,92.9,0)" xlink:href="#aK"/><use transform="matrix(0.05,0,0,0.05,101.9,0)" xlink:href="#bl"/><use transform="matrix(0.05,0,0,0.05,107.85000000000001,0)" xlink:href="#bn"/><use transform="matrix(0.05,0,0,0.05,113.80000000000001,0)" xlink:href="#aS"/></g><g id="Z"><use transform="matrix(0.05,0,0,0.05,0,0)" xlink:href="#aR"/><use transform="matrix(0.05,0,0,0.05,9,0)" xlink:href="#aJ"/><use transform="matrix(0.05,0,0,0.05,19,0)" xlink:href="#bk"/><use transform="matrix(0.05,0,0,0.05,22.95,0)" xlink:href="#aR"/><use transform="matrix(0.05,0,0,0.05,31.950000000000003,0)" xlink:href="#bu"/><use transform="matrix(0.05,0,0,0.05,41.95,0)" xlink:href="#bk"/><use transform="matrix(0.05,0,0,0.05,45.900000000000006,0)" xlink:href="#aJ"/><use transform="matrix(0.05,0,0,0.05,55.900000000000006,0)" xlink:href="#be"/><use transform="matrix(0.05,0,0,0.05,60.900000000000006,0)" xlink:href="#aN"/><use transform="matrix(0.05,0,0,0.05,70.9,0)" xlink:href="#bx"/><use transform="matrix(0.05,0,0,0.05,83.85000000000001,0)" xlink:href="#aN"/><use transform="matrix(0.05,0,0,0.05,93.85000000000001,0)" xlink:href="#by"/><use transform="matrix(0.05,0,0,0.05,108.80000000000001,0)" xlink:href="#aJ"/><use transform="matrix(0.05,0,0,0.05,118.80000000000001,0)" xlink:href="#aQ"/><use transform="matrix(0.05,0,0,0.05,122.75,0)" xlink:href="#bw"/><use transform="matrix(0.05,0,0,0.05,132.75,0)" xlink:href="#bz"/><use transform="matrix(0.05,0,0,0.05,145.7,0)" xlink:href="#bu"/><use transform="matrix(0.05,0,0,0.05,155.7,0)" xlink:href="#aO"/><use transform="matrix(0.05,0,0,0.05,161.64999999999998,0)" xlink:href="#aJ"/><use transform="matrix(0.05,0,0,0.05,171.64999999999998,0)" xlink:href="#be"/><use transform="matrix(0.05,0,0,0.05,176.64999999999998,0)" xlink:href="#aQ"/><use transform="matrix(0.05,0,0,0.05,180.59999999999997,0)" xlink:href="#bi"/><use transform="matrix(0.05,0,0,0.05,190.59999999999997,0)" xlink:href="#bw"/><use transform="matrix(0.05,0,0,0.05,200.59999999999997,0)" xlink:href="#bl"/><use transform="matrix(0.05,0,0,0.05,206.54999999999995,0)" xlink:href="#be"/><use transform="matrix(0.05,0,0,0.05,211.54999999999995,0)" xlink:href="#aJ"/><use transform="matrix(0.05,0,0,0.05,221.54999999999995,0)" xlink:href="#aK"/><use transform="matrix(0.05,0,0,0.05,230.54999999999995,0)" xlink:href="#aL"/><use transform="matrix(0.05,0,0,0.05,239.54999999999995,0)" xlink:href="#bn"/><use transform="matrix(0.05,0,0,0.05,245.49999999999991,0)" xlink:href="#aS"/></g><g id="aa"><use transform="matrix(0.05,0,0,0.05,0,0)" xlink:href="#bA"/><use transform="matrix(0.05,0,0,0.05,10,0)" xlink:href="#bB"/><use transform="matrix(0.05,0,0,0.05,20,0)" xlink:href="#bC"/><use transform="matrix(0.05,0,0,0.05,34.95,0)" xlink:href="#bD"/><use transform="matrix(0.05,0,0,0.05,44.95,0)" xlink:href="#bE"/><use transform="matrix(0.05,0,0,0.05,54.95,0)" xlink:href="#bF"/></g><g id="ab"><use transform="matrix(0.05,0,0,0.05,0,0)" xlink:href="#aK"/><use transform="matrix(0.05,0,0,0.05,9,0)" xlink:href="#bi"/><use transform="matrix(0.05,0,0,0.05,19,0)" xlink:href="#aO"/><use transform="matrix(0.05,0,0,0.05,24.95,0)" xlink:href="#be"/><use transform="matrix(0.05,0,0,0.05,29.950000000000003,0)" xlink:href="#bf"/><use transform="matrix(0.05,0,0,0.05,39.95,0)" xlink:href="#aQ"/><use transform="matrix(0.05,0,0,0.05,43.900000000000006,0)" xlink:href="#aK"/><use transform="matrix(0.05,0,0,0.05,52.900000000000006,0)" xlink:href="#be"/><use transform="matrix(0.05,0,0,0.05,57.900000000000006,0)" xlink:href="#bl"/><use transform="matrix(0.05,0,0,0.05,63.85,0)" xlink:href="#bn"/><use transform="matrix(0.05,0,0,0.05,69.80000000000001,0)" xlink:href="#aS"/></g><g id="ac"><use transform="matrix(0.05,0,0,0.05,0,0)" xlink:href="#bo"/><use transform="matrix(0.05,0,0,0.05,9,0)" xlink:href="#bp"/><use transform="matrix(0.05,0,0,0.05,19,0)" xlink:href="#bq"/><use transform="matrix(0.05,0,0,0.05,22.95,0)" xlink:href="#br"/></g><g id="ad"><use transform="matrix(0.05,0,0,0.05,0,0)" xlink:href="#au"/><use transform="matrix(0.05,0,0,0.05,9.600000000000001,0)" xlink:href="#av"/><use transform="matrix(0.05,0,0,0.05,19.6,0)" xlink:href="#aw"/><use transform="matrix(0.05,0,0,0.05,29.6,0)" xlink:href="#ax"/></g><g id="ae"><use transform="matrix(0.05,0,0,0.05,0,0)" xlink:href="#be"/><use transform="matrix(0.05,0,0,0.05,5,0)" xlink:href="#aQ"/><use transform="matrix(0.05,0,0,0.05,8.95,0)" xlink:href="#be"/><use transform="matrix(0.05,0,0,0.05,13.949999999999998,0)" xlink:href="#bk"/><use transform="matrix(0.05,0,0,0.05,17.9,0)" xlink:href="#aN"/><use transform="matrix(0.05,0,0,0.05,27.899999999999995,0)" xlink:href="#aS"/></g><path fill="#ef8d22" d="M135-143c-3-34-86-38-87 0 15 53 115 12 119 90S17 21 10-45l28-5c4 36 97 45 98 0-10-56-113-15-118-90-4-57 82-63 122-42 12 7 21 19 24 35" id="ce"/><path fill="#ef8d22" d="M59-47c-2 24 18 29 38 22v24C64 9 27 4 27-40v-127H5v-23h24l9-43h21v43h35v23H59v120" id="cf"/><path fill="#ef8d22" d="M24-231v-30h32v30H24zM24 0v-190h32V0H24" id="cg"/><path fill="#ef8d22" d="M177-190C167-65 218 103 67 71c-23-6-38-20-44-43l32-5c15 47 100 32 89-28v-30C133-14 115 1 83 1 29 1 15-40 15-95c0-56 16-97 71-98 29-1 48 16 59 35 1-10 0-23 2-32h30zM94-22c36 0 50-32 50-73 0-42-14-75-50-75-39 0-46 34-46 75s6 73 46 73" id="ch"/><g id="af"><use transform="matrix(0.05,0,0,0.05,0,0)" xlink:href="#ce"/><use transform="matrix(0.05,0,0,0.05,9,0)" xlink:href="#cf"/><use transform="matrix(0.05,0,0,0.05,14,0)" xlink:href="#bF"/><use transform="matrix(0.05,0,0,0.05,19.95,0)" xlink:href="#cg"/><use transform="matrix(0.05,0,0,0.05,23.9,0)" xlink:href="#bA"/><use transform="matrix(0.05,0,0,0.05,33.9,0)" xlink:href="#ch"/></g><g id="ag"><use transform="matrix(0.05,0,0,0.05,0,0)" xlink:href="#be"/><use transform="matrix(0.05,0,0,0.05,5,0)" xlink:href="#bQ"/><use transform="matrix(0.05,0,0,0.05,14,0)" xlink:href="#bt"/><use transform="matrix(0.05,0,0,0.05,24,0)" xlink:href="#aN"/><use transform="matrix(0.05,0,0,0.05,34,0)" xlink:href="#aS"/></g><g id="ah"><use transform="matrix(0.05,0,0,0.05,0,0)" xlink:href="#aR"/><use transform="matrix(0.05,0,0,0.05,9,0)" xlink:href="#aJ"/><use transform="matrix(0.05,0,0,0.05,19,0)" xlink:href="#be"/><use transform="matrix(0.05,0,0,0.05,24,0)" xlink:href="#aN"/><use transform="matrix(0.05,0,0,0.05,34,0)" xlink:href="#bj"/><use transform="matrix(0.05,0,0,0.05,44,0)" xlink:href="#bi"/><use transform="matrix(0.05,0,0,0.05,54,0)" xlink:href="#aO"/><use transform="matrix(0.05,0,0,0.05,59.95,0)" xlink:href="#bQ"/><use transform="matrix(0.05,0,0,0.05,68.95,0)" xlink:href="#aS"/></g><g id="ai"><use transform="matrix(0.05,0,0,0.05,0,0)" xlink:href="#be"/><use transform="matrix(0.05,0,0,0.05,5,0)" xlink:href="#aJ"/><use transform="matrix(0.05,0,0,0.05,15,0)" xlink:href="#aK"/><use transform="matrix(0.05,0,0,0.05,24,0)" xlink:href="#aL"/><use transform="matrix(0.05,0,0,0.05,33,0)" xlink:href="#bv"/><use transform="matrix(0.05,0,0,0.05,45,0)" xlink:href="#aN"/><use transform="matrix(0.05,0,0,0.05,55,0)" xlink:href="#aO"/><use transform="matrix(0.05,0,0,0.05,60.95,0)" xlink:href="#aR"/><use transform="matrix(0.05,0,0,0.05,69.95,0)" xlink:href="#aN"/><use transform="matrix(0.05,0,0,0.05,79.95,0)" xlink:href="#bw"/><use transform="matrix(0.05,0,0,0.05,89.95,0)" xlink:href="#be"/><use transform="matrix(0.05,0,0,0.05,94.95,0)" xlink:href="#aJ"/><use transform="matrix(0.05,0,0,0.05,104.95,0)" xlink:href="#bj"/><use transform="matrix(0.05,0,0,0.05,114.95,0)" xlink:href="#aN"/><use transform="matrix(0.05,0,0,0.05,124.95,0)" xlink:href="#aS"/></g><g id="aj"><use transform="matrix(0.05,0,0,0.05,0,0)" xlink:href="#be"/><use transform="matrix(0.05,0,0,0.05,5,0)" xlink:href="#aJ"/><use transform="matrix(0.05,0,0,0.05,15,0)" xlink:href="#aK"/><use transform="matrix(0.05,0,0,0.05,24,0)" xlink:href="#aL"/><use transform="matrix(0.05,0,0,0.05,33,0)" xlink:href="#bY"/><use transform="matrix(0.05,0,0,0.05,43.95,0)" xlink:href="#aQ"/><use transform="matrix(0.05,0,0,0.05,47.900000000000006,0)" xlink:href="#bw"/><use transform="matrix(0.05,0,0,0.05,57.900000000000006,0)" xlink:href="#aQ"/><use transform="matrix(0.05,0,0,0.05,61.85,0)" xlink:href="#aK"/><use transform="matrix(0.05,0,0,0.05,70.85000000000001,0)" xlink:href="#bR"/><use transform="matrix(0.05,0,0,0.05,80.85000000000001,0)" xlink:href="#aN"/><use transform="matrix(0.05,0,0,0.05,90.85000000000001,0)" xlink:href="#bm"/><use transform="matrix(0.05,0,0,0.05,100.85000000000001,0)" xlink:href="#aS"/></g><path fill="#ef8d22" d="M100-194c62-1 85 37 85 99 1 63-27 99-86 99S16-35 15-95c0-66 28-99 85-99zM99-20c44 1 53-31 53-75 0-43-8-75-51-75s-53 32-53 75 10 74 51 75" id="ci"/><path fill="#ef8d22" d="M24 0v-261h32V0H24" id="cj"/><path fill="#ef8d22" d="M141-36C126-15 110 5 73 4 37 3 15-17 15-53c-1-64 63-63 125-63 3-35-9-54-41-54-24 1-41 7-42 31l-33-3c5-37 33-52 76-52 45 0 72 20 72 64v82c-1 20 7 32 28 27v20c-31 9-61-2-59-35zM48-53c0 20 12 33 32 33 41-3 63-29 60-74-43 2-92-5-92 41" id="ck"/><g id="ak"><use transform="matrix(0.05,0,0,0.05,0,0)" xlink:href="#bD"/><use transform="matrix(0.05,0,0,0.05,10,0)" xlink:href="#ci"/><use transform="matrix(0.05,0,0,0.05,20,0)" xlink:href="#ci"/><use transform="matrix(0.05,0,0,0.05,30,0)" xlink:href="#cj"/><use transform="matrix(0.05,0,0,0.05,33.95,0)" xlink:href="#bE"/><use transform="matrix(0.05,0,0,0.05,43.95,0)" xlink:href="#ck"/><use transform="matrix(0.05,0,0,0.05,53.95,0)" xlink:href="#bA"/></g><g id="al"><use transform="matrix(0.05,0,0,0.05,0,0)" xlink:href="#aK"/><use transform="matrix(0.05,0,0,0.05,9,0)" xlink:href="#be"/><use transform="matrix(0.05,0,0,0.05,14,0)" xlink:href="#aJ"/><use transform="matrix(0.05,0,0,0.05,24,0)" xlink:href="#aO"/><use transform="matrix(0.05,0,0,0.05,29.950000000000003,0)" xlink:href="#be"/><use transform="matrix(0.05,0,0,0.05,34.95,0)" xlink:href="#bz"/><use transform="matrix(0.05,0,0,0.05,47.900000000000006,0)" xlink:href="#aJ"/><use transform="matrix(0.05,0,0,0.05,57.900000000000006,0)" xlink:href="#be"/><use transform="matrix(0.05,0,0,0.05,62.900000000000006,0)" xlink:href="#aN"/><use transform="matrix(0.05,0,0,0.05,72.9,0)" xlink:href="#aS"/></g><g id="am"><use transform="matrix(0.05,0,0,0.05,0,0)" xlink:href="#ce"/><use transform="matrix(0.05,0,0,0.05,9,0)" xlink:href="#cf"/><use transform="matrix(0.05,0,0,0.05,14,0)" xlink:href="#bF"/><use transform="matrix(0.05,0,0,0.05,19.95,0)" xlink:href="#cg"/><use transform="matrix(0.05,0,0,0.05,23.9,0)" xlink:href="#bA"/><use transform="matrix(0.05,0,0,0.05,33.9,0)" xlink:href="#ch"/></g><g id="an"><use transform="matrix(0.05,0,0,0.05,0,0)" xlink:href="#aN"/><use transform="matrix(0.05,0,0,0.05,10,0)" xlink:href="#bw"/><use transform="matrix(0.05,0,0,0.05,20,0)" xlink:href="#bm"/><use transform="matrix(0.05,0,0,0.05,30,0)" xlink:href="#bz"/><use transform="matrix(0.05,0,0,0.05,42.95,0)" xlink:href="#aJ"/><use transform="matrix(0.05,0,0,0.05,52.95,0)" xlink:href="#be"/><use transform="matrix(0.05,0,0,0.05,57.95,0)" xlink:href="#aN"/><use transform="matrix(0.05,0,0,0.05,67.95,0)" xlink:href="#aS"/></g><g id="ao"><use transform="matrix(0.05,0,0,0.05,0,0)" xlink:href="#bm"/><use transform="matrix(0.05,0,0,0.05,10,0)" xlink:href="#bu"/><use transform="matrix(0.05,0,0,0.05,20,0)" xlink:href="#aO"/><use transform="matrix(0.05,0,0,0.05,25.950000000000003,0)" xlink:href="#aJ"/><use transform="matrix(0.05,0,0,0.05,35.95,0)" xlink:href="#be"/><use transform="matrix(0.05,0,0,0.05,40.95,0)" xlink:href="#aQ"/><use transform="matrix(0.05,0,0,0.05,44.900000000000006,0)" xlink:href="#bi"/><use transform="matrix(0.05,0,0,0.05,54.900000000000006,0)" xlink:href="#bw"/><use transform="matrix(0.05,0,0,0.05,64.9,0)" xlink:href="#aS"/></g><g id="ap"><use transform="matrix(0.05,0,0,0.05,0,0)" xlink:href="#aR"/><use transform="matrix(0.05,0,0,0.05,9,0)" xlink:href="#bi"/><use transform="matrix(0.05,0,0,0.05,19,0)" xlink:href="#by"/><use transform="matrix(0.05,0,0,0.05,33.95,0)" xlink:href="#bt"/><use transform="matrix(0.05,0,0,0.05,43.95,0)" xlink:href="#bk"/><use transform="matrix(0.05,0,0,0.05,47.900000000000006,0)" xlink:href="#aN"/><use transform="matrix(0.05,0,0,0.05,57.900000000000006,0)" xlink:href="#be"/><use transform="matrix(0.05,0,0,0.05,62.900000000000006,0)" xlink:href="#aQ"/><use transform="matrix(0.05,0,0,0.05,66.85000000000001,0)" xlink:href="#bi"/><use transform="matrix(0.05,0,0,0.05,76.85000000000001,0)" xlink:href="#bw"/><use transform="matrix(0.05,0,0,0.05,86.85000000000001,0)" xlink:href="#bz"/><use transform="matrix(0.05,0,0,0.05,99.80000000000001,0)" xlink:href="#aJ"/><use transform="matrix(0.05,0,0,0.05,109.80000000000001,0)" xlink:href="#be"/><use transform="matrix(0.05,0,0,0.05,114.80000000000001,0)" xlink:href="#aN"/><use transform="matrix(0.05,0,0,0.05,124.80000000000001,0)" xlink:href="#aS"/></g><g id="aq"><use transform="matrix(0.05,0,0,0.05,0,0)" xlink:href="#aQ"/><use transform="matrix(0.05,0,0,0.05,3.95,0)" xlink:href="#aK"/><use transform="matrix(0.05,0,0,0.05,12.949999999999998,0)" xlink:href="#bf"/><use transform="matrix(0.05,0,0,0.05,22.95,0)" xlink:href="#aJ"/><use transform="matrix(0.05,0,0,0.05,32.95,0)" xlink:href="#be"/><use transform="matrix(0.05,0,0,0.05,37.95,0)" xlink:href="#aN"/><use transform="matrix(0.05,0,0,0.05,47.95,0)" xlink:href="#aS"/></g><g id="ar"><use transform="matrix(0.05,0,0,0.05,0,0)" xlink:href="#bD"/><use transform="matrix(0.05,0,0,0.05,10,0)" xlink:href="#ci"/><use transform="matrix(0.05,0,0,0.05,20,0)" xlink:href="#ci"/><use transform="matrix(0.05,0,0,0.05,30,0)" xlink:href="#cj"/><use transform="matrix(0.05,0,0,0.05,33.95,0)" xlink:href="#bE"/><use transform="matrix(0.05,0,0,0.05,43.95,0)" xlink:href="#ck"/><use transform="matrix(0.05,0,0,0.05,53.95,0)" xlink:href="#bA"/></g><path fill="#0c7cba" d="M18-150v-26h174v26H18zm0 90v-26h174v26H18" id="cl"/><use transform="matrix(0.05,0,0,0.05,0,0)" xlink:href="#cl" id="as"/><path fill="#0c7cba" d="M101-234c-31-9-42 10-38 44h38v23H63V0H32v-167H5v-23h27c-7-52 17-82 69-68v24" id="cm"/><path fill="#0c7cba" d="M141-36C126-15 110 5 73 4 37 3 15-17 15-53c-1-64 63-63 125-63 3-35-9-54-41-54-24 1-41 7-42 31l-33-3c5-37 33-52 76-52 45 0 72 20 72 64v82c-1 20 7 32 28 27v20c-31 9-61-2-59-35zM48-53c0 20 12 33 32 33 41-3 63-29 60-74-43 2-92-5-92 41" id="cn"/><path fill="#0c7cba" d="M24 0v-261h32V0H24" id="co"/><path fill="#0c7cba" d="M135-143c-3-34-86-38-87 0 15 53 115 12 119 90S17 21 10-45l28-5c4 36 97 45 98 0-10-56-113-15-118-90-4-57 82-63 122-42 12 7 21 19 24 35" id="cp"/><path fill="#0c7cba" d="M100-194c63 0 86 42 84 106H49c0 40 14 67 53 68 26 1 43-12 49-29l28 8c-11 28-37 45-77 45C44 4 14-33 15-96c1-61 26-98 85-98zm52 81c6-60-76-77-97-28-3 7-6 17-6 28h103" id="cq"/><g id="at"><use transform="matrix(0.05,0,0,0.05,0,0)" xlink:href="#cm"/><use transform="matrix(0.05,0,0,0.05,5,0)" xlink:href="#cn"/><use transform="matrix(0.05,0,0,0.05,15,0)" xlink:href="#co"/><use transform="matrix(0.05,0,0,0.05,18.95,0)" xlink:href="#cp"/><use transform="matrix(0.05,0,0,0.05,27.950000000000003,0)" xlink:href="#cq"/></g></defs></g></svg>