<svg xmlns="http://www.w3.org/2000/svg" xmlns:xlink="http://www.w3.org/1999/xlink" xmlns:lucid="lucid" width="1660" height="917"><g transform="translate(-120 -200)" lucid:page-tab-id=".8d23KV6bFh1"><path d="M0 0h1870.87v1322.83H0z" fill="#fff"/><path d="M740 668c0-4.42 3.58-8 8-8h344c4.42 0 8 3.58 8 8v421c0 4.42-3.58 8-8 8H748c-4.42 0-8-3.58-8-8z" stroke="#2988fa" stroke-width="4" fill="#fff"/><path d="M740 697.6h360M740 951.1h360" stroke="#2988fa" stroke-width="4" fill="none"/><use xlink:href="#a" transform="matrix(1,0,0,1,748,668) translate(80.42500000000001 14.6)"/><use xlink:href="#b" transform="matrix(1,0,0,1,752,705.6) translate(0 25.400000000000013)"/><use xlink:href="#c" transform="matrix(1,0,0,1,752,705.6) translate(10.95 25.400000000000013)"/><use xlink:href="#d" transform="matrix(1,0,0,1,752,705.6) translate(112.80000000000001 25.400000000000013)"/><use xlink:href="#e" transform="matrix(1,0,0,1,752,705.6) translate(122.80000000000001 25.400000000000013)"/><use xlink:href="#f" transform="matrix(1,0,0,1,752,705.6) translate(0 47.000000000000014)"/><use xlink:href="#g" transform="matrix(1,0,0,1,752,705.6) translate(15.5 47.000000000000014)"/><use xlink:href="#d" transform="matrix(1,0,0,1,752,705.6) translate(81.45 47.000000000000014)"/><use xlink:href="#h" transform="matrix(1,0,0,1,752,705.6) translate(91.45 47.000000000000014)"/><use xlink:href="#i" transform="matrix(1,0,0,1,752,705.6) translate(138.4 47.000000000000014)"/><use xlink:href="#f" transform="matrix(1,0,0,1,752,705.6) translate(0 68.60000000000002)"/><use xlink:href="#j" transform="matrix(1,0,0,1,752,705.6) translate(15.5 68.60000000000002)"/><use xlink:href="#d" transform="matrix(1,0,0,1,752,705.6) translate(108.35000000000001 68.60000000000002)"/><use xlink:href="#k" transform="matrix(1,0,0,1,752,705.6) translate(118.35000000000001 68.60000000000002)"/><use xlink:href="#f" transform="matrix(1,0,0,1,752,705.6) translate(0 90.20000000000003)"/><use xlink:href="#l" transform="matrix(1,0,0,1,752,705.6) translate(15.5 90.20000000000003)"/><use xlink:href="#d" transform="matrix(1,0,0,1,752,705.6) translate(102.4 90.20000000000003)"/><use xlink:href="#k" transform="matrix(1,0,0,1,752,705.6) translate(112.4 90.20000000000003)"/><use xlink:href="#f" transform="matrix(1,0,0,1,752,705.6) translate(0 111.80000000000003)"/><use xlink:href="#m" transform="matrix(1,0,0,1,752,705.6) translate(15.5 111.80000000000003)"/><use xlink:href="#d" transform="matrix(1,0,0,1,752,705.6) translate(82.4 111.80000000000003)"/><use xlink:href="#n" transform="matrix(1,0,0,1,752,705.6) translate(92.4 111.80000000000003)"/><use xlink:href="#f" transform="matrix(1,0,0,1,752,705.6) translate(0 133.4)"/><use xlink:href="#o" transform="matrix(1,0,0,1,752,705.6) translate(15.5 133.4)"/><use xlink:href="#d" transform="matrix(1,0,0,1,752,705.6) translate(102.4 133.4)"/><use xlink:href="#n" transform="matrix(1,0,0,1,752,705.6) translate(112.4 133.4)"/><use xlink:href="#f" transform="matrix(1,0,0,1,752,705.6) translate(0 155.00000000000003)"/><use xlink:href="#p" transform="matrix(1,0,0,1,752,705.6) translate(15.5 155.00000000000003)"/><use xlink:href="#d" transform="matrix(1,0,0,1,752,705.6) translate(131.3 155.00000000000003)"/><use xlink:href="#n" transform="matrix(1,0,0,1,752,705.6) translate(141.3 155.00000000000003)"/><use xlink:href="#f" transform="matrix(1,0,0,1,752,705.6) translate(0 176.6)"/><use xlink:href="#q" transform="matrix(1,0,0,1,752,705.6) translate(15.5 176.6)"/><use xlink:href="#d" transform="matrix(1,0,0,1,752,705.6) translate(149.3 176.6)"/><use xlink:href="#n" transform="matrix(1,0,0,1,752,705.6) translate(159.3 176.6)"/><use xlink:href="#f" transform="matrix(1,0,0,1,752,705.6) translate(0 198.20000000000002)"/><use xlink:href="#r" transform="matrix(1,0,0,1,752,705.6) translate(15.5 198.20000000000002)"/><use xlink:href="#d" transform="matrix(1,0,0,1,752,705.6) translate(169.3 198.20000000000002)"/><use xlink:href="#n" transform="matrix(1,0,0,1,752,705.6) translate(179.3 198.20000000000002)"/><use xlink:href="#f" transform="matrix(1,0,0,1,752,705.6) translate(0 219.79999999999998)"/><use xlink:href="#s" transform="matrix(1,0,0,1,752,705.6) translate(15.5 219.79999999999998)"/><use xlink:href="#d" transform="matrix(1,0,0,1,752,705.6) translate(198.2 219.79999999999998)"/><use xlink:href="#t" transform="matrix(1,0,0,1,752,705.6) translate(208.2 219.79999999999998)"/><use xlink:href="#f" transform="matrix(1,0,0,1,752,959.1) translate(0 25.39999999999999)"/><use xlink:href="#u" transform="matrix(1,0,0,1,752,959.1) translate(15.5 25.39999999999999)"/><use xlink:href="#d" transform="matrix(1,0,0,1,752,959.1) translate(153.15 25.39999999999999)"/><use xlink:href="#v" transform="matrix(1,0,0,1,752,959.1) translate(163.15 25.39999999999999)"/><use xlink:href="#f" transform="matrix(1,0,0,1,752,959.1) translate(0 46.99999999999999)"/><use xlink:href="#w" transform="matrix(1,0,0,1,752,959.1) translate(15.5 46.99999999999999)"/><use xlink:href="#d" transform="matrix(1,0,0,1,752,959.1) translate(222.2 46.99999999999999)"/><use xlink:href="#x" transform="matrix(1,0,0,1,752,959.1) translate(232.2 46.99999999999999)"/><use xlink:href="#f" transform="matrix(1,0,0,1,752,959.1) translate(0 68.6)"/><use xlink:href="#y" transform="matrix(1,0,0,1,752,959.1) translate(15.5 68.6)"/><use xlink:href="#d" transform="matrix(1,0,0,1,752,959.1) translate(224.2 68.6)"/><use xlink:href="#x" transform="matrix(1,0,0,1,752,959.1) translate(234.2 68.6)"/><use xlink:href="#f" transform="matrix(1,0,0,1,752,959.1) translate(0 90.20000000000002)"/><use xlink:href="#z" transform="matrix(1,0,0,1,752,959.1) translate(15.5 90.20000000000002)"/><use xlink:href="#d" transform="matrix(1,0,0,1,752,959.1) translate(211.2 90.20000000000002)"/><use xlink:href="#v" transform="matrix(1,0,0,1,752,959.1) translate(221.2 90.20000000000002)"/><use xlink:href="#f" transform="matrix(1,0,0,1,752,959.1) translate(0 111.80000000000001)"/><use xlink:href="#A" transform="matrix(1,0,0,1,752,959.1) translate(15.5 111.80000000000001)"/><use xlink:href="#B" transform="matrix(1,0,0,1,752,959.1) translate(105.35000000000001 111.80000000000001)"/><path d="M740 228c0-4.42 3.58-8 8-8h344c4.42 0 8 3.58 8 8v291c0 4.42-3.58 8-8 8H748c-4.42 0-8-3.58-8-8z" stroke="#2988fa" stroke-width="4" fill="#fff"/><path d="M740 257.6h360m-360 232h360" stroke="#2988fa" stroke-width="4" fill="none"/><g><use xlink:href="#C" transform="matrix(1,0,0,1,748,228) translate(152.2 14.6)"/></g><g><use xlink:href="#f" transform="matrix(1,0,0,1,752,265.6) translate(0 14.400000000000015)"/><use xlink:href="#D" transform="matrix(1,0,0,1,752,265.6) translate(15.5 14.400000000000015)"/><use xlink:href="#k" transform="matrix(1,0,0,1,752,265.6) translate(53.4 14.400000000000015)"/><use xlink:href="#f" transform="matrix(1,0,0,1,752,265.6) translate(0 36.000000000000014)"/><use xlink:href="#E" transform="matrix(1,0,0,1,752,265.6) translate(15.5 36.000000000000014)"/><use xlink:href="#k" transform="matrix(1,0,0,1,752,265.6) translate(59.5 36.000000000000014)"/><use xlink:href="#f" transform="matrix(1,0,0,1,752,265.6) translate(0 57.600000000000016)"/><use xlink:href="#F" transform="matrix(1,0,0,1,752,265.6) translate(15.5 57.600000000000016)"/><use xlink:href="#k" transform="matrix(1,0,0,1,752,265.6) translate(94.45 57.600000000000016)"/><use xlink:href="#f" transform="matrix(1,0,0,1,752,265.6) translate(0 79.20000000000003)"/><use xlink:href="#G" transform="matrix(1,0,0,1,752,265.6) translate(15.5 79.20000000000003)"/><use xlink:href="#n" transform="matrix(1,0,0,1,752,265.6) translate(150.45 79.20000000000003)"/><use xlink:href="#f" transform="matrix(1,0,0,1,752,265.6) translate(0 100.80000000000003)"/><use xlink:href="#H" transform="matrix(1,0,0,1,752,265.6) translate(15.5 100.80000000000003)"/><use xlink:href="#v" transform="matrix(1,0,0,1,752,265.6) translate(126.35000000000001 100.80000000000003)"/><use xlink:href="#f" transform="matrix(1,0,0,1,752,265.6) translate(0 122.40000000000002)"/><use xlink:href="#I" transform="matrix(1,0,0,1,752,265.6) translate(15.5 122.40000000000002)"/><use xlink:href="#J" transform="matrix(1,0,0,1,752,265.6) translate(98.4 122.40000000000002)"/><use xlink:href="#f" transform="matrix(1,0,0,1,752,265.6) translate(0 144.00000000000003)"/><use xlink:href="#K" transform="matrix(1,0,0,1,752,265.6) translate(15.5 144.00000000000003)"/><use xlink:href="#k" transform="matrix(1,0,0,1,752,265.6) translate(93.45 144.00000000000003)"/><use xlink:href="#f" transform="matrix(1,0,0,1,752,265.6) translate(0 165.6)"/><use xlink:href="#L" transform="matrix(1,0,0,1,752,265.6) translate(15.5 165.6)"/><use xlink:href="#n" transform="matrix(1,0,0,1,752,265.6) translate(90.4 165.6)"/><use xlink:href="#f" transform="matrix(1,0,0,1,752,265.6) translate(0 187.20000000000002)"/><use xlink:href="#M" transform="matrix(1,0,0,1,752,265.6) translate(15.5 187.20000000000002)"/><use xlink:href="#k" transform="matrix(1,0,0,1,752,265.6) translate(150.3 187.20000000000002)"/><use xlink:href="#f" transform="matrix(1,0,0,1,752,265.6) translate(0 208.79999999999998)"/><use xlink:href="#N" transform="matrix(1,0,0,1,752,265.6) translate(15.5 208.79999999999998)"/><use xlink:href="#O" transform="matrix(1,0,0,1,752,265.6) translate(73.45 208.79999999999998)"/><use xlink:href="#P" transform="matrix(1,0,0,1,752,265.6) translate(142.4 208.79999999999998)"/><use xlink:href="#Q" transform="matrix(1,0,0,1,752,265.6) translate(157.9 208.79999999999998)"/></g><path d="M1320 292.5c0-4.42 3.58-8 8-8h424c4.42 0 8 3.58 8 8v162c0 4.42-3.58 8-8 8h-424c-4.42 0-8-3.58-8-8z" stroke="#2988fa" stroke-width="4" fill="#fff"/><path d="M1320 322.1h440m-440 37.6h440" stroke="#2988fa" stroke-width="4" fill="none"/><g><use xlink:href="#R" transform="matrix(1,0,0,1,1328,292.5) translate(138.25 14.6)"/></g><g><use xlink:href="#S" transform="matrix(1,0,0,1,1332,367.70000000000005) translate(0 14.69999999999999)"/><use xlink:href="#T" transform="matrix(1,0,0,1,1332,367.70000000000005) translate(15.5 14.69999999999999)"/><use xlink:href="#U" transform="matrix(1,0,0,1,1332,367.70000000000005) translate(240.04999999999998 14.69999999999999)"/><use xlink:href="#v" transform="matrix(1,0,0,1,1332,367.70000000000005) translate(337.9 14.69999999999999)"/><use xlink:href="#f" transform="matrix(1,0,0,1,1332,367.70000000000005) translate(0 36.29999999999999)"/><use xlink:href="#V" transform="matrix(1,0,0,1,1332,367.70000000000005) translate(15.5 36.29999999999999)"/><use xlink:href="#W" transform="matrix(1,0,0,1,1332,367.70000000000005) translate(288.15 36.29999999999999)"/><use xlink:href="#f" transform="matrix(1,0,0,1,1332,367.70000000000005) translate(0 57.89999999999999)"/><use xlink:href="#X" transform="matrix(1,0,0,1,1332,367.70000000000005) translate(15.5 57.89999999999999)"/><use xlink:href="#W" transform="matrix(1,0,0,1,1332,367.70000000000005) translate(365.09999999999997 57.89999999999999)"/><use xlink:href="#f" transform="matrix(1,0,0,1,1332,367.70000000000005) translate(0 79.5)"/><use xlink:href="#Y" transform="matrix(1,0,0,1,1332,367.70000000000005) translate(15.5 79.5)"/><use xlink:href="#Z" transform="matrix(1,0,0,1,1332,367.70000000000005) translate(291.15 79.5)"/></g><path d="M1340 765.5c0-4.42 3.58-8 8-8h404c4.42 0 8 3.58 8 8v226c0 4.42-3.58 8-8 8h-404c-4.42 0-8-3.58-8-8z" stroke="#2988fa" stroke-width="4" fill="#fff"/><path d="M1340 795.1h420m-420 80.7h420" stroke="#2988fa" stroke-width="4" fill="none"/><g><use xlink:href="#aa" transform="matrix(1,0,0,1,1348,765.5) translate(150.2 14.6)"/></g><g><use xlink:href="#b" transform="matrix(1,0,0,1,1352,803.1) translate(0 25.299999999999997)"/><use xlink:href="#ab" transform="matrix(1,0,0,1,1352,803.1) translate(10.95 25.299999999999997)"/><use xlink:href="#ac" transform="matrix(1,0,0,1,1352,803.1) translate(157.7 25.299999999999997)"/><use xlink:href="#f" transform="matrix(1,0,0,1,1352,803.1) translate(0 46.9)"/><use xlink:href="#g" transform="matrix(1,0,0,1,1352,803.1) translate(15.5 46.9)"/><use xlink:href="#d" transform="matrix(1,0,0,1,1352,803.1) translate(81.45 46.9)"/><use xlink:href="#h" transform="matrix(1,0,0,1,1352,803.1) translate(91.45 46.9)"/><use xlink:href="#ad" transform="matrix(1,0,0,1,1352,803.1) translate(138.4 46.9)"/></g><g><use xlink:href="#f" transform="matrix(1,0,0,1,1352,883.8000000000001) translate(0 25.19999999999999)"/><use xlink:href="#ae" transform="matrix(1,0,0,1,1352,883.8000000000001) translate(15.5 25.19999999999999)"/><use xlink:href="#v" transform="matrix(1,0,0,1,1352,883.8000000000001) translate(228.1 25.19999999999999)"/><use xlink:href="#f" transform="matrix(1,0,0,1,1352,883.8000000000001) translate(0 46.79999999999999)"/><use xlink:href="#V" transform="matrix(1,0,0,1,1352,883.8000000000001) translate(15.5 46.79999999999999)"/><use xlink:href="#af" transform="matrix(1,0,0,1,1352,883.8000000000001) translate(288.15 46.79999999999999)"/><use xlink:href="#f" transform="matrix(1,0,0,1,1352,883.8000000000001) translate(0 68.39999999999999)"/><use xlink:href="#ag" transform="matrix(1,0,0,1,1352,883.8000000000001) translate(15.5 68.39999999999999)"/><use xlink:href="#af" transform="matrix(1,0,0,1,1352,883.8000000000001) translate(343.04999999999995 68.39999999999999)"/><use xlink:href="#f" transform="matrix(1,0,0,1,1352,883.8000000000001) translate(0 90)"/><use xlink:href="#Y" transform="matrix(1,0,0,1,1352,883.8000000000001) translate(15.5 90)"/><use xlink:href="#ah" transform="matrix(1,0,0,1,1352,883.8000000000001) translate(291.15 90)"/></g><path d="M1337 878.5h-204.25" stroke="#c92d39" stroke-width="2" fill="none"/><path d="M1338 879.5h-1.03v-2h1.03z" fill="#c92d39"/><path d="M1103.4 878.5l14.86-14.85 15.15 14.85-15.14 14.85z" stroke="#c92d39" stroke-width="2" fill="#c92d39"/><path d="M1540 465.5v259.25" stroke="#c92d39" stroke-width="2" fill="none"/><path d="M1541 465.53h-2v-1.03h2z" fill="#c92d39"/><path d="M1540 754.1l-14.85-14.86L1540 724.1l14.85 15.14z" stroke="#c92d39" stroke-width="2" fill="#c92d39"/><path d="M1317 373.5h-8.92m-8.9 0h-17.85m-8.9 0h-17.85m-8.9 0h-17.85m-8.9 0h-17.78m-8.85 0h-17.7m-8.84 0h-17.7m-8.85 0h-17.68m-8.85 0h-8.85" stroke="#c92d39" stroke-width="2" fill="none"/><path d="M1318 374.5h-1.03v-2h1.03z" fill="#c92d39"/><path d="M1121.18 363.32l-17.2 10.18 17.2 10.18M1103.07 522.9h11.35m11.35 0h22.7m11.35 0h22.7m11.34 0h11.35l4.17.55 3.83 1.58m5.87 5.87l1.6 3.85.54 4.15v9.68m0 9.68v19.37m0 9.68v19.37m0 9.7v19.35m0 9.68v19.36m0 9.7v19.35m0 9.7v19.36m0 9.68v9.68l.56 4.15 1.6 3.84v.02m5.85 5.86h.03l3.83 1.6 4.15.54h11.45m11.44 0h22.87m11.44 0h22.9m11.43 0h11.44M1120.43 512.72l-17.2 10.18 17.2 10.18" stroke="#c92d39" stroke-width="2" fill="none"/><path d="M1340.9 758.4l-.55.82h-.2v-2h2.5z" fill="#c92d39"/><path d="M920 530.82v10.5m0 10.53v21.03m0 10.5v21.04m0 10.52v21.03m0 10.5V657M930.18 548.18L920 530.96l-10.18 17.22" stroke="#c92d39" stroke-width="2" fill="none"/><path d="M921 658h-2v-1.03h2z" fill="#c92d39"/><path d="M543 878.5h10.73m10.73 0h21.47m10.73 0h21.47m10.73 0h21.46m10.74 0h21.46m10.73 0h21.47m10.73 0h10.73" stroke="#c92d39" stroke-width="2" fill="none"/><path d="M543.03 879.5H542v-2h1.03z" fill="#c92d39"/><path d="M718.82 888.68l17.22-10.18-17.22-10.18" stroke="#c92d39" stroke-width="2" fill="none"/><path d="M392 746h140c4.42 0 8 3.58 8 8v265c0 4.42-3.58 8-8 8H148c-4.42 0-8-3.58-8-8V728c0-4.42 3.58-8 8-8h224c4.42 0 9.5 3.25 11.35 7.26zm-252 0h252" stroke="#19967d" stroke-width="4" fill="#ffeca9"/><g><use xlink:href="#ai" transform="matrix(1,0,0,1,148,720) translate(0 16.6)"/></g><path d="M160 948c0-4.42 3.58-8 8-8h184c4.42 0 8 3.58 8 8v44c0 4.42-3.58 8-8 8H168c-4.42 0-8-3.58-8-8z" stroke="#2988fa" stroke-width="4" fill="#fff"/><g><use xlink:href="#aj" transform="matrix(1,0,0,1,168,948) translate(15.599999999999994 25.6)"/></g><path d="M160 768c0-4.42 3.58-8 8-8h184c4.42 0 8 3.58 8 8v97c0 4.42-3.58 8-8 8H168c-4.42 0-8-3.58-8-8z" stroke="#2988fa" stroke-width="4" fill="#fff"/><path d="M160 797.6h200m-200 37.6h200" stroke="#2988fa" stroke-width="4" fill="none"/><g><use xlink:href="#ak" transform="matrix(1,0,0,1,168,768) translate(64.57499999999999 14.6)"/></g><g><use xlink:href="#f" transform="matrix(1,0,0,1,172,805.6) translate(0 14.6)"/><use xlink:href="#al" transform="matrix(1,0,0,1,172,805.6) translate(15.5 14.6)"/><use xlink:href="#am" transform="matrix(1,0,0,1,172,805.6) translate(75.45 14.6)"/></g><path d="M255.42 937v-10.15m0-10.16V906.5h.06v-9.92m0-9.88v-9.88" stroke="#c92d39" stroke-width="2" fill="none"/><path d="M256.42 938h-2v-1.03h2z" fill="#c92d39"/><path d="M265.67 894.18l-10.18-17.22-10.2 17.22" stroke="#c92d39" stroke-width="2" fill="none"/><defs><path fill="#706148" d="M136-208V0H84v-208H4v-40h212v40h-80" id="an"/><path fill="#706148" d="M133-34C117-15 103 5 69 4 32 3 11-16 11-54c-1-60 55-63 116-61 1-26-3-47-28-47-18 1-26 9-28 27l-52-2c7-38 36-58 82-57s74 22 75 68l1 82c-1 14 12 18 25 15v27c-30 8-71 5-69-32zm-48 3c29 0 43-24 42-57-32 0-66-3-65 30 0 17 8 27 23 27" id="ao"/><path fill="#706148" d="M137-138c1-29-70-34-71-4 15 46 118 7 119 86 1 83-164 76-172 9l43-7c4 19 20 25 44 25 33 8 57-30 24-41C81-84 22-81 20-136c-2-80 154-74 161-7" id="ap"/><path fill="#706148" d="M147 0L96-86 75-71V0H25v-261h50v150l67-79h53l-66 74L201 0h-54" id="aq"/><path fill="#706148" d="M182-130c37 4 62 22 62 59C244 23 116-4 24 0v-248c84 5 203-23 205 63 0 31-19 50-47 55zM76-148c40-3 101 13 101-30 0-44-60-28-101-31v61zm0 110c48-3 116 14 116-37 0-48-69-32-116-35v72" id="ar"/><path fill="#706148" d="M25-224v-37h50v37H25zM25 0v-190h50V0H25" id="as"/><path fill="#706148" d="M25 0v-261h50V0H25" id="at"/><path fill="#706148" d="M135-194c87-1 58 113 63 194h-50c-7-57 23-157-34-157-59 0-34 97-39 157H25l-1-190h47c2 12-1 28 3 38 12-26 28-41 61-42" id="au"/><path fill="#706148" d="M67-125c0 53 21 87 73 88 37 1 54-22 65-47l45 17C233-25 199 4 140 4 58 4 20-42 15-125 8-235 124-281 211-232c18 10 29 29 36 50l-46 12c-8-25-30-41-62-41-52 0-71 34-72 86" id="av"/><path fill="#706148" d="M110-194c64 0 96 36 96 99 0 64-35 99-97 99-61 0-95-36-95-99 0-62 34-99 96-99zm-1 164c35 0 45-28 45-65 0-40-10-65-43-65-34 0-45 26-45 65 0 36 10 65 43 65" id="aw"/><path fill="#706148" d="M220-157c-53 9-28 100-34 157h-49v-107c1-27-5-49-29-50C55-147 81-57 75 0H25l-1-190h47c2 12-1 28 3 38 10-53 101-56 108 0 13-22 24-43 59-42 82 1 51 116 57 194h-49v-107c-1-25-5-48-29-50" id="ax"/><path fill="#706148" d="M135-194c53 0 70 44 70 98 0 56-19 98-73 100-31 1-45-17-59-34 3 33 2 69 2 105H25l-1-265h48c2 10 0 23 3 31 11-24 29-35 60-35zM114-30c33 0 39-31 40-66 0-38-9-64-40-64-56 0-55 130 0 130" id="ay"/><path fill="#706148" d="M185-48c-13 30-37 53-82 52C43 2 14-33 14-96s30-98 90-98c62 0 83 45 84 108H66c0 31 8 55 39 56 18 0 30-7 34-22zm-45-69c5-46-57-63-70-21-2 6-4 13-4 21h74" id="az"/><path fill="#706148" d="M115-3C79 11 28 4 28-45v-112H4v-33h27l15-45h31v45h36v33H77v99c-1 23 16 31 38 25v30" id="aA"/><g id="a"><use transform="matrix(0.05,0,0,0.05,0,0)" xlink:href="#an"/><use transform="matrix(0.05,0,0,0.05,9.600000000000001,0)" xlink:href="#ao"/><use transform="matrix(0.05,0,0,0.05,19.6,0)" xlink:href="#ap"/><use transform="matrix(0.05,0,0,0.05,29.6,0)" xlink:href="#aq"/><use transform="matrix(0.05,0,0,0.05,39.6,0)" xlink:href="#ar"/><use transform="matrix(0.05,0,0,0.05,52.550000000000004,0)" xlink:href="#as"/><use transform="matrix(0.05,0,0,0.05,57.550000000000004,0)" xlink:href="#at"/><use transform="matrix(0.05,0,0,0.05,62.550000000000004,0)" xlink:href="#ao"/><use transform="matrix(0.05,0,0,0.05,72.55000000000001,0)" xlink:href="#au"/><use transform="matrix(0.05,0,0,0.05,83.50000000000001,0)" xlink:href="#av"/><use transform="matrix(0.05,0,0,0.05,96.45000000000002,0)" xlink:href="#aw"/><use transform="matrix(0.05,0,0,0.05,107.40000000000003,0)" xlink:href="#ax"/><use transform="matrix(0.05,0,0,0.05,123.40000000000003,0)" xlink:href="#ay"/><use transform="matrix(0.05,0,0,0.05,134.35000000000002,0)" xlink:href="#aw"/><use transform="matrix(0.05,0,0,0.05,145.3,0)" xlink:href="#au"/><use transform="matrix(0.05,0,0,0.05,156.25,0)" xlink:href="#az"/><use transform="matrix(0.05,0,0,0.05,166.25,0)" xlink:href="#au"/><use transform="matrix(0.05,0,0,0.05,177.2,0)" xlink:href="#aA"/></g><path fill="#706148" d="M16-82v-28h88v28H16" id="aB"/><use transform="matrix(0.05,0,0,0.05,0,0)" xlink:href="#aB" id="b"/><path fill="#706148" d="M127-220V0H93v-220H8v-28h204v28h-85" id="aC"/><path fill="#706148" d="M141-36C126-15 110 5 73 4 37 3 15-17 15-53c-1-64 63-63 125-63 3-35-9-54-41-54-24 1-41 7-42 31l-33-3c5-37 33-52 76-52 45 0 72 20 72 64v82c-1 20 7 32 28 27v20c-31 9-61-2-59-35zM48-53c0 20 12 33 32 33 41-3 63-29 60-74-43 2-92-5-92 41" id="aD"/><path fill="#706148" d="M135-143c-3-34-86-38-87 0 15 53 115 12 119 90S17 21 10-45l28-5c4 36 97 45 98 0-10-56-113-15-118-90-4-57 82-63 122-42 12 7 21 19 24 35" id="aE"/><path fill="#706148" d="M143 0L79-87 56-68V0H24v-261h32v163l83-92h37l-77 82L181 0h-38" id="aF"/><path fill="#706148" d="M185-189c-5-48-123-54-124 2 14 75 158 14 163 119 3 78-121 87-175 55-17-10-28-26-33-46l33-7c5 56 141 63 141-1 0-78-155-14-162-118-5-82 145-84 179-34 5 7 8 16 11 25" id="aG"/><path fill="#706148" d="M100-194c63 0 86 42 84 106H49c0 40 14 67 53 68 26 1 43-12 49-29l28 8c-11 28-37 45-77 45C44 4 14-33 15-96c1-61 26-98 85-98zm52 81c6-60-76-77-97-28-3 7-6 17-6 28h103" id="aH"/><path fill="#706148" d="M114-163C36-179 61-72 57 0H25l-1-190h30c1 12-1 29 2 39 6-27 23-49 58-41v29" id="aI"/><path fill="#706148" d="M108 0H70L1-190h34L89-25l56-165h34" id="aJ"/><path fill="#706148" d="M24-231v-30h32v30H24zM24 0v-190h32V0H24" id="aK"/><path fill="#706148" d="M96-169c-40 0-48 33-48 73s9 75 48 75c24 0 41-14 43-38l32 2c-6 37-31 61-74 61-59 0-76-41-82-99-10-93 101-131 147-64 4 7 5 14 7 22l-32 3c-4-21-16-35-41-35" id="aL"/><g id="c"><use transform="matrix(0.05,0,0,0.05,0,0)" xlink:href="#aC"/><use transform="matrix(0.05,0,0,0.05,8.950000000000001,0)" xlink:href="#aD"/><use transform="matrix(0.05,0,0,0.05,18.950000000000003,0)" xlink:href="#aE"/><use transform="matrix(0.05,0,0,0.05,27.950000000000003,0)" xlink:href="#aF"/><use transform="matrix(0.05,0,0,0.05,36.95,0)" xlink:href="#aG"/><use transform="matrix(0.05,0,0,0.05,48.95,0)" xlink:href="#aH"/><use transform="matrix(0.05,0,0,0.05,58.95,0)" xlink:href="#aI"/><use transform="matrix(0.05,0,0,0.05,64.9,0)" xlink:href="#aJ"/><use transform="matrix(0.05,0,0,0.05,73.9,0)" xlink:href="#aK"/><use transform="matrix(0.05,0,0,0.05,77.85000000000001,0)" xlink:href="#aL"/><use transform="matrix(0.05,0,0,0.05,86.85000000000001,0)" xlink:href="#aH"/></g><path fill="#706148" d="M33-154v-36h34v36H33zM33 0v-36h34V0H33" id="aM"/><use transform="matrix(0.05,0,0,0.05,0,0)" xlink:href="#aM" id="d"/><path fill="#834187" d="M127-220V0H93v-220H8v-28h204v28h-85" id="aN"/><path fill="#834187" d="M141-36C126-15 110 5 73 4 37 3 15-17 15-53c-1-64 63-63 125-63 3-35-9-54-41-54-24 1-41 7-42 31l-33-3c5-37 33-52 76-52 45 0 72 20 72 64v82c-1 20 7 32 28 27v20c-31 9-61-2-59-35zM48-53c0 20 12 33 32 33 41-3 63-29 60-74-43 2-92-5-92 41" id="aO"/><path fill="#834187" d="M135-143c-3-34-86-38-87 0 15 53 115 12 119 90S17 21 10-45l28-5c4 36 97 45 98 0-10-56-113-15-118-90-4-57 82-63 122-42 12 7 21 19 24 35" id="aP"/><path fill="#834187" d="M143 0L79-87 56-68V0H24v-261h32v163l83-92h37l-77 82L181 0h-38" id="aQ"/><path fill="#834187" d="M185-189c-5-48-123-54-124 2 14 75 158 14 163 119 3 78-121 87-175 55-17-10-28-26-33-46l33-7c5 56 141 63 141-1 0-78-155-14-162-118-5-82 145-84 179-34 5 7 8 16 11 25" id="aR"/><path fill="#834187" d="M100-194c63 0 86 42 84 106H49c0 40 14 67 53 68 26 1 43-12 49-29l28 8c-11 28-37 45-77 45C44 4 14-33 15-96c1-61 26-98 85-98zm52 81c6-60-76-77-97-28-3 7-6 17-6 28h103" id="aS"/><path fill="#834187" d="M114-163C36-179 61-72 57 0H25l-1-190h30c1 12-1 29 2 39 6-27 23-49 58-41v29" id="aT"/><path fill="#834187" d="M108 0H70L1-190h34L89-25l56-165h34" id="aU"/><path fill="#834187" d="M24-231v-30h32v30H24zM24 0v-190h32V0H24" id="aV"/><path fill="#834187" d="M96-169c-40 0-48 33-48 73s9 75 48 75c24 0 41-14 43-38l32 2c-6 37-31 61-74 61-59 0-76-41-82-99-10-93 101-131 147-64 4 7 5 14 7 22l-32 3c-4-21-16-35-41-35" id="aW"/><g id="e"><use transform="matrix(0.05,0,0,0.05,0,0)" xlink:href="#aN"/><use transform="matrix(0.05,0,0,0.05,8.950000000000001,0)" xlink:href="#aO"/><use transform="matrix(0.05,0,0,0.05,18.950000000000003,0)" xlink:href="#aP"/><use transform="matrix(0.05,0,0,0.05,27.950000000000003,0)" xlink:href="#aQ"/><use transform="matrix(0.05,0,0,0.05,36.95,0)" xlink:href="#aR"/><use transform="matrix(0.05,0,0,0.05,48.95,0)" xlink:href="#aS"/><use transform="matrix(0.05,0,0,0.05,58.95,0)" xlink:href="#aT"/><use transform="matrix(0.05,0,0,0.05,64.9,0)" xlink:href="#aU"/><use transform="matrix(0.05,0,0,0.05,73.9,0)" xlink:href="#aV"/><use transform="matrix(0.05,0,0,0.05,77.85000000000001,0)" xlink:href="#aW"/><use transform="matrix(0.05,0,0,0.05,86.85000000000001,0)" xlink:href="#aS"/></g><path fill="#706148" d="M118-107v75H92v-75H18v-26h74v-75h26v75h74v26h-74" id="aX"/><use transform="matrix(0.05,0,0,0.05,0,0)" xlink:href="#aX" id="f"/><path fill="#706148" d="M59-47c-2 24 18 29 38 22v24C64 9 27 4 27-40v-127H5v-23h24l9-43h21v43h35v23H59v120" id="aY"/><path fill="#706148" d="M30 0v-248h33v221h125V0H30" id="aZ"/><g id="g"><use transform="matrix(0.05,0,0,0.05,0,0)" xlink:href="#aY"/><use transform="matrix(0.05,0,0,0.05,5,0)" xlink:href="#aD"/><use transform="matrix(0.05,0,0,0.05,15,0)" xlink:href="#aE"/><use transform="matrix(0.05,0,0,0.05,24,0)" xlink:href="#aF"/><use transform="matrix(0.05,0,0,0.05,33,0)" xlink:href="#aZ"/><use transform="matrix(0.05,0,0,0.05,43,0)" xlink:href="#aK"/><use transform="matrix(0.05,0,0,0.05,46.95,0)" xlink:href="#aE"/><use transform="matrix(0.05,0,0,0.05,55.95,0)" xlink:href="#aY"/></g><path fill="#834187" d="M26 75v-336h71v23H56V52h41v23H26" id="ba"/><g id="h"><use transform="matrix(0.05,0,0,0.05,0,0)" xlink:href="#aN"/><use transform="matrix(0.05,0,0,0.05,8.950000000000001,0)" xlink:href="#aO"/><use transform="matrix(0.05,0,0,0.05,18.950000000000003,0)" xlink:href="#aP"/><use transform="matrix(0.05,0,0,0.05,27.950000000000003,0)" xlink:href="#aQ"/><use transform="matrix(0.05,0,0,0.05,36.95,0)" xlink:href="#ba"/></g><path fill="#834187" d="M3 75V52h41v-290H3v-23h71V75H3" id="bb"/><use transform="matrix(0.05,0,0,0.05,0,0)" xlink:href="#bb" id="i"/><path fill="#706148" d="M115-194c55 1 70 41 70 98S169 2 115 4C84 4 66-9 55-30l1 105H24l-1-265h31l2 30c10-21 28-34 59-34zm-8 174c40 0 45-34 45-75s-6-73-45-74c-42 0-51 32-51 76 0 43 10 73 51 73" id="bc"/><path fill="#706148" d="M100-194c62-1 85 37 85 99 1 63-27 99-86 99S16-35 15-95c0-66 28-99 85-99zM99-20c44 1 53-31 53-75 0-43-8-75-51-75s-53 32-53 75 10 74 51 75" id="bd"/><path fill="#706148" d="M85-194c31 0 48 13 60 33l-1-100h32l1 261h-30c-2-10 0-23-3-31C134-8 116 4 85 4 32 4 16-35 15-94c0-66 23-100 70-100zm9 24c-40 0-46 34-46 75 0 40 6 74 45 74 42 0 51-32 51-76 0-42-9-74-50-73" id="be"/><g id="j"><use transform="matrix(0.05,0,0,0.05,0,0)" xlink:href="#bc"/><use transform="matrix(0.05,0,0,0.05,10,0)" xlink:href="#aH"/><use transform="matrix(0.05,0,0,0.05,20,0)" xlink:href="#aI"/><use transform="matrix(0.05,0,0,0.05,25.950000000000003,0)" xlink:href="#aK"/><use transform="matrix(0.05,0,0,0.05,29.899999999999995,0)" xlink:href="#bd"/><use transform="matrix(0.05,0,0,0.05,39.9,0)" xlink:href="#be"/><use transform="matrix(0.05,0,0,0.05,49.9,0)" xlink:href="#aG"/><use transform="matrix(0.05,0,0,0.05,61.900000000000006,0)" xlink:href="#aY"/><use transform="matrix(0.05,0,0,0.05,66.9,0)" xlink:href="#aD"/><use transform="matrix(0.05,0,0,0.05,76.9,0)" xlink:href="#aI"/><use transform="matrix(0.05,0,0,0.05,82.85000000000001,0)" xlink:href="#aY"/></g><path fill="#ef8d22" d="M135-143c-3-34-86-38-87 0 15 53 115 12 119 90S17 21 10-45l28-5c4 36 97 45 98 0-10-56-113-15-118-90-4-57 82-63 122-42 12 7 21 19 24 35" id="bf"/><path fill="#ef8d22" d="M59-47c-2 24 18 29 38 22v24C64 9 27 4 27-40v-127H5v-23h24l9-43h21v43h35v23H59v120" id="bg"/><path fill="#ef8d22" d="M114-163C36-179 61-72 57 0H25l-1-190h30c1 12-1 29 2 39 6-27 23-49 58-41v29" id="bh"/><path fill="#ef8d22" d="M24-231v-30h32v30H24zM24 0v-190h32V0H24" id="bi"/><path fill="#ef8d22" d="M117-194c89-4 53 116 60 194h-32v-121c0-31-8-49-39-48C34-167 62-67 57 0H25l-1-190h30c1 10-1 24 2 32 11-22 29-35 61-36" id="bj"/><path fill="#ef8d22" d="M177-190C167-65 218 103 67 71c-23-6-38-20-44-43l32-5c15 47 100 32 89-28v-30C133-14 115 1 83 1 29 1 15-40 15-95c0-56 16-97 71-98 29-1 48 16 59 35 1-10 0-23 2-32h30zM94-22c36 0 50-32 50-73 0-42-14-75-50-75-39 0-46 34-46 75s6 73 46 73" id="bk"/><g id="k"><use transform="matrix(0.05,0,0,0.05,0,0)" xlink:href="#bf"/><use transform="matrix(0.05,0,0,0.05,9,0)" xlink:href="#bg"/><use transform="matrix(0.05,0,0,0.05,14,0)" xlink:href="#bh"/><use transform="matrix(0.05,0,0,0.05,19.95,0)" xlink:href="#bi"/><use transform="matrix(0.05,0,0,0.05,23.9,0)" xlink:href="#bj"/><use transform="matrix(0.05,0,0,0.05,33.9,0)" xlink:href="#bk"/></g><path fill="#706148" d="M30 0v-248h187v28H63v79h144v27H63v87h162V0H30" id="bl"/><path fill="#706148" d="M117-194c89-4 53 116 60 194h-32v-121c0-31-8-49-39-48C34-167 62-67 57 0H25l-1-190h30c1 10-1 24 2 32 11-22 29-35 61-36" id="bm"/><g id="l"><use transform="matrix(0.05,0,0,0.05,0,0)" xlink:href="#bc"/><use transform="matrix(0.05,0,0,0.05,10,0)" xlink:href="#aH"/><use transform="matrix(0.05,0,0,0.05,20,0)" xlink:href="#aI"/><use transform="matrix(0.05,0,0,0.05,25.950000000000003,0)" xlink:href="#aK"/><use transform="matrix(0.05,0,0,0.05,29.899999999999995,0)" xlink:href="#bd"/><use transform="matrix(0.05,0,0,0.05,39.9,0)" xlink:href="#be"/><use transform="matrix(0.05,0,0,0.05,49.9,0)" xlink:href="#bl"/><use transform="matrix(0.05,0,0,0.05,61.900000000000006,0)" xlink:href="#bm"/><use transform="matrix(0.05,0,0,0.05,71.9,0)" xlink:href="#be"/></g><path fill="#706148" d="M101-234c-31-9-42 10-38 44h38v23H63V0H32v-167H5v-23h27c-7-52 17-82 69-68v24" id="bn"/><path fill="#706148" d="M106-169C34-169 62-67 57 0H25v-261h32l-1 103c12-21 28-36 61-36 89 0 53 116 60 194h-32v-121c2-32-8-49-39-48" id="bo"/><g id="m"><use transform="matrix(0.05,0,0,0.05,0,0)" xlink:href="#bn"/><use transform="matrix(0.05,0,0,0.05,5,0)" xlink:href="#aK"/><use transform="matrix(0.05,0,0,0.05,8.95,0)" xlink:href="#bm"/><use transform="matrix(0.05,0,0,0.05,18.95,0)" xlink:href="#aK"/><use transform="matrix(0.05,0,0,0.05,22.9,0)" xlink:href="#aE"/><use transform="matrix(0.05,0,0,0.05,31.899999999999995,0)" xlink:href="#bo"/><use transform="matrix(0.05,0,0,0.05,41.9,0)" xlink:href="#aH"/><use transform="matrix(0.05,0,0,0.05,51.900000000000006,0)" xlink:href="#be"/></g><path fill="#ef8d22" d="M84 4C-5 8 30-112 23-190h32v120c0 31 7 50 39 49 72-2 45-101 50-169h31l1 190h-30c-1-10 1-25-2-33-11 22-28 36-60 37" id="bp"/><path fill="#ef8d22" d="M210-169c-67 3-38 105-44 169h-31v-121c0-29-5-50-35-48C34-165 62-65 56 0H25l-1-190h30c1 10-1 24 2 32 10-44 99-50 107 0 11-21 27-35 58-36 85-2 47 119 55 194h-31v-121c0-29-5-49-35-48" id="bq"/><path fill="#ef8d22" d="M115-194c53 0 69 39 70 98 0 66-23 100-70 100C84 3 66-7 56-30L54 0H23l1-261h32v101c10-23 28-34 59-34zm-8 174c40 0 45-34 45-75 0-40-5-75-45-74-42 0-51 32-51 76 0 43 10 73 51 73" id="br"/><path fill="#ef8d22" d="M100-194c63 0 86 42 84 106H49c0 40 14 67 53 68 26 1 43-12 49-29l28 8c-11 28-37 45-77 45C44 4 14-33 15-96c1-61 26-98 85-98zm52 81c6-60-76-77-97-28-3 7-6 17-6 28h103" id="bs"/><g id="n"><use transform="matrix(0.05,0,0,0.05,0,0)" xlink:href="#bj"/><use transform="matrix(0.05,0,0,0.05,10,0)" xlink:href="#bp"/><use transform="matrix(0.05,0,0,0.05,20,0)" xlink:href="#bq"/><use transform="matrix(0.05,0,0,0.05,34.95,0)" xlink:href="#br"/><use transform="matrix(0.05,0,0,0.05,44.95,0)" xlink:href="#bs"/><use transform="matrix(0.05,0,0,0.05,54.95,0)" xlink:href="#bh"/></g><path fill="#706148" d="M84 4C-5 8 30-112 23-190h32v120c0 31 7 50 39 49 72-2 45-101 50-169h31l1 190h-30c-1-10 1-25-2-33-11 22-28 36-60 37" id="bt"/><g id="o"><use transform="matrix(0.05,0,0,0.05,0,0)" xlink:href="#bt"/><use transform="matrix(0.05,0,0,0.05,10,0)" xlink:href="#bm"/><use transform="matrix(0.05,0,0,0.05,20,0)" xlink:href="#bn"/><use transform="matrix(0.05,0,0,0.05,25,0)" xlink:href="#aK"/><use transform="matrix(0.05,0,0,0.05,28.950000000000003,0)" xlink:href="#bm"/><use transform="matrix(0.05,0,0,0.05,38.95,0)" xlink:href="#aK"/><use transform="matrix(0.05,0,0,0.05,42.900000000000006,0)" xlink:href="#aE"/><use transform="matrix(0.05,0,0,0.05,51.900000000000006,0)" xlink:href="#bo"/><use transform="matrix(0.05,0,0,0.05,61.900000000000006,0)" xlink:href="#aH"/><use transform="matrix(0.05,0,0,0.05,71.9,0)" xlink:href="#be"/></g><path fill="#706148" d="M24 0v-261h32V0H24" id="bu"/><path fill="#706148" d="M179-190L93 31C79 59 56 82 12 73V49c39 6 53-20 64-50L1-190h34L92-34l54-156h33" id="bv"/><path fill="#706148" d="M63-220v92h138v28H63V0H30v-248h175v28H63" id="bw"/><g id="p"><use transform="matrix(0.05,0,0,0.05,0,0)" xlink:href="#be"/><use transform="matrix(0.05,0,0,0.05,10,0)" xlink:href="#aH"/><use transform="matrix(0.05,0,0,0.05,20,0)" xlink:href="#bu"/><use transform="matrix(0.05,0,0,0.05,23.95,0)" xlink:href="#aD"/><use transform="matrix(0.05,0,0,0.05,33.95,0)" xlink:href="#bv"/><use transform="matrix(0.05,0,0,0.05,42.95,0)" xlink:href="#bw"/><use transform="matrix(0.05,0,0,0.05,53.900000000000006,0)" xlink:href="#aK"/><use transform="matrix(0.05,0,0,0.05,57.85,0)" xlink:href="#bm"/><use transform="matrix(0.05,0,0,0.05,67.85000000000001,0)" xlink:href="#aK"/><use transform="matrix(0.05,0,0,0.05,71.80000000000001,0)" xlink:href="#aE"/><use transform="matrix(0.05,0,0,0.05,80.80000000000001,0)" xlink:href="#bo"/><use transform="matrix(0.05,0,0,0.05,90.80000000000001,0)" xlink:href="#aH"/><use transform="matrix(0.05,0,0,0.05,100.80000000000001,0)" xlink:href="#be"/></g><path fill="#706148" d="M33 0v-248h34V0H33" id="bx"/><path fill="#706148" d="M30-248c87 1 191-15 191 75 0 78-77 80-158 76V0H30v-248zm33 125c57 0 124 11 124-50 0-59-68-47-124-48v98" id="by"/><g id="q"><use transform="matrix(0.05,0,0,0.05,0,0)" xlink:href="#bn"/><use transform="matrix(0.05,0,0,0.05,5,0)" xlink:href="#aK"/><use transform="matrix(0.05,0,0,0.05,8.95,0)" xlink:href="#bm"/><use transform="matrix(0.05,0,0,0.05,18.95,0)" xlink:href="#aK"/><use transform="matrix(0.05,0,0,0.05,22.9,0)" xlink:href="#aE"/><use transform="matrix(0.05,0,0,0.05,31.899999999999995,0)" xlink:href="#bo"/><use transform="matrix(0.05,0,0,0.05,41.9,0)" xlink:href="#aH"/><use transform="matrix(0.05,0,0,0.05,51.900000000000006,0)" xlink:href="#be"/><use transform="matrix(0.05,0,0,0.05,61.900000000000006,0)" xlink:href="#bx"/><use transform="matrix(0.05,0,0,0.05,66.9,0)" xlink:href="#bm"/><use transform="matrix(0.05,0,0,0.05,76.9,0)" xlink:href="#by"/><use transform="matrix(0.05,0,0,0.05,88.9,0)" xlink:href="#aH"/><use transform="matrix(0.05,0,0,0.05,98.9,0)" xlink:href="#aI"/><use transform="matrix(0.05,0,0,0.05,104.85000000000001,0)" xlink:href="#aK"/><use transform="matrix(0.05,0,0,0.05,108.80000000000001,0)" xlink:href="#bd"/><use transform="matrix(0.05,0,0,0.05,118.80000000000001,0)" xlink:href="#be"/></g><g id="r"><use transform="matrix(0.05,0,0,0.05,0,0)" xlink:href="#bt"/><use transform="matrix(0.05,0,0,0.05,10,0)" xlink:href="#bm"/><use transform="matrix(0.05,0,0,0.05,20,0)" xlink:href="#bn"/><use transform="matrix(0.05,0,0,0.05,25,0)" xlink:href="#aK"/><use transform="matrix(0.05,0,0,0.05,28.950000000000003,0)" xlink:href="#bm"/><use transform="matrix(0.05,0,0,0.05,38.95,0)" xlink:href="#aK"/><use transform="matrix(0.05,0,0,0.05,42.900000000000006,0)" xlink:href="#aE"/><use transform="matrix(0.05,0,0,0.05,51.900000000000006,0)" xlink:href="#bo"/><use transform="matrix(0.05,0,0,0.05,61.900000000000006,0)" xlink:href="#aH"/><use transform="matrix(0.05,0,0,0.05,71.9,0)" xlink:href="#be"/><use transform="matrix(0.05,0,0,0.05,81.9,0)" xlink:href="#bx"/><use transform="matrix(0.05,0,0,0.05,86.9,0)" xlink:href="#bm"/><use transform="matrix(0.05,0,0,0.05,96.9,0)" xlink:href="#by"/><use transform="matrix(0.05,0,0,0.05,108.9,0)" xlink:href="#aH"/><use transform="matrix(0.05,0,0,0.05,118.9,0)" xlink:href="#aI"/><use transform="matrix(0.05,0,0,0.05,124.85000000000001,0)" xlink:href="#aK"/><use transform="matrix(0.05,0,0,0.05,128.8,0)" xlink:href="#bd"/><use transform="matrix(0.05,0,0,0.05,138.8,0)" xlink:href="#be"/></g><g id="s"><use transform="matrix(0.05,0,0,0.05,0,0)" xlink:href="#be"/><use transform="matrix(0.05,0,0,0.05,10,0)" xlink:href="#aH"/><use transform="matrix(0.05,0,0,0.05,20,0)" xlink:href="#bu"/><use transform="matrix(0.05,0,0,0.05,23.95,0)" xlink:href="#aD"/><use transform="matrix(0.05,0,0,0.05,33.95,0)" xlink:href="#bv"/><use transform="matrix(0.05,0,0,0.05,42.95,0)" xlink:href="#bw"/><use transform="matrix(0.05,0,0,0.05,53.900000000000006,0)" xlink:href="#aK"/><use transform="matrix(0.05,0,0,0.05,57.85,0)" xlink:href="#bm"/><use transform="matrix(0.05,0,0,0.05,67.85000000000001,0)" xlink:href="#aK"/><use transform="matrix(0.05,0,0,0.05,71.80000000000001,0)" xlink:href="#aE"/><use transform="matrix(0.05,0,0,0.05,80.80000000000001,0)" xlink:href="#bo"/><use transform="matrix(0.05,0,0,0.05,90.80000000000001,0)" xlink:href="#aH"/><use transform="matrix(0.05,0,0,0.05,100.80000000000001,0)" xlink:href="#be"/><use transform="matrix(0.05,0,0,0.05,110.80000000000001,0)" xlink:href="#bx"/><use transform="matrix(0.05,0,0,0.05,115.80000000000001,0)" xlink:href="#bm"/><use transform="matrix(0.05,0,0,0.05,125.80000000000001,0)" xlink:href="#by"/><use transform="matrix(0.05,0,0,0.05,137.8,0)" xlink:href="#aH"/><use transform="matrix(0.05,0,0,0.05,147.8,0)" xlink:href="#aI"/><use transform="matrix(0.05,0,0,0.05,153.75,0)" xlink:href="#aK"/><use transform="matrix(0.05,0,0,0.05,157.7,0)" xlink:href="#bd"/><use transform="matrix(0.05,0,0,0.05,167.7,0)" xlink:href="#be"/></g><g id="t"><use transform="matrix(0.05,0,0,0.05,0,0)" xlink:href="#bj"/><use transform="matrix(0.05,0,0,0.05,10,0)" xlink:href="#bp"/><use transform="matrix(0.05,0,0,0.05,20,0)" xlink:href="#bq"/><use transform="matrix(0.05,0,0,0.05,34.95,0)" xlink:href="#br"/><use transform="matrix(0.05,0,0,0.05,44.95,0)" xlink:href="#bs"/><use transform="matrix(0.05,0,0,0.05,54.95,0)" xlink:href="#bh"/></g><path fill="#706148" d="M87 75C49 33 22-17 22-94c0-76 28-126 65-167h31c-38 41-64 92-64 168S80 34 118 75H87" id="bz"/><path fill="#706148" d="M33-261c38 41 65 92 65 168S71 34 33 75H2C39 34 66-17 66-93S39-220 2-261h31" id="bA"/><g id="u"><use transform="matrix(0.05,0,0,0.05,0,0)" xlink:href="#aY"/><use transform="matrix(0.05,0,0,0.05,5,0)" xlink:href="#aH"/><use transform="matrix(0.05,0,0,0.05,15,0)" xlink:href="#aE"/><use transform="matrix(0.05,0,0,0.05,24,0)" xlink:href="#aY"/><use transform="matrix(0.05,0,0,0.05,29,0)" xlink:href="#by"/><use transform="matrix(0.05,0,0,0.05,41,0)" xlink:href="#aH"/><use transform="matrix(0.05,0,0,0.05,51,0)" xlink:href="#aI"/><use transform="matrix(0.05,0,0,0.05,56.95,0)" xlink:href="#aK"/><use transform="matrix(0.05,0,0,0.05,60.900000000000006,0)" xlink:href="#bd"/><use transform="matrix(0.05,0,0,0.05,70.9,0)" xlink:href="#be"/><use transform="matrix(0.05,0,0,0.05,80.9,0)" xlink:href="#bl"/><use transform="matrix(0.05,0,0,0.05,92.9,0)" xlink:href="#aI"/><use transform="matrix(0.05,0,0,0.05,98.85000000000001,0)" xlink:href="#aI"/><use transform="matrix(0.05,0,0,0.05,104.80000000000001,0)" xlink:href="#bd"/><use transform="matrix(0.05,0,0,0.05,114.80000000000001,0)" xlink:href="#aI"/><use transform="matrix(0.05,0,0,0.05,120.75,0)" xlink:href="#bz"/><use transform="matrix(0.05,0,0,0.05,126.7,0)" xlink:href="#bA"/></g><path fill="#ef8d22" d="M100-194c62-1 85 37 85 99 1 63-27 99-86 99S16-35 15-95c0-66 28-99 85-99zM99-20c44 1 53-31 53-75 0-43-8-75-51-75s-53 32-53 75 10 74 51 75" id="bB"/><path fill="#ef8d22" d="M24 0v-261h32V0H24" id="bC"/><path fill="#ef8d22" d="M141-36C126-15 110 5 73 4 37 3 15-17 15-53c-1-64 63-63 125-63 3-35-9-54-41-54-24 1-41 7-42 31l-33-3c5-37 33-52 76-52 45 0 72 20 72 64v82c-1 20 7 32 28 27v20c-31 9-61-2-59-35zM48-53c0 20 12 33 32 33 41-3 63-29 60-74-43 2-92-5-92 41" id="bD"/><g id="v"><use transform="matrix(0.05,0,0,0.05,0,0)" xlink:href="#br"/><use transform="matrix(0.05,0,0,0.05,10,0)" xlink:href="#bB"/><use transform="matrix(0.05,0,0,0.05,20,0)" xlink:href="#bB"/><use transform="matrix(0.05,0,0,0.05,30,0)" xlink:href="#bC"/><use transform="matrix(0.05,0,0,0.05,33.95,0)" xlink:href="#bs"/><use transform="matrix(0.05,0,0,0.05,43.95,0)" xlink:href="#bD"/><use transform="matrix(0.05,0,0,0.05,53.95,0)" xlink:href="#bj"/></g><path fill="#706148" d="M-5 72V49h209v23H-5" id="bE"/><path fill="#706148" d="M177-190C167-65 218 103 67 71c-23-6-38-20-44-43l32-5c15 47 100 32 89-28v-30C133-14 115 1 83 1 29 1 15-40 15-95c0-56 16-97 71-98 29-1 48 16 59 35 1-10 0-23 2-32h30zM94-22c36 0 50-32 50-73 0-42-14-75-50-75-39 0-46 34-46 75s6 73 46 73" id="bF"/><path fill="#706148" d="M115-194c53 0 69 39 70 98 0 66-23 100-70 100C84 3 66-7 56-30L54 0H23l1-261h32v101c10-23 28-34 59-34zm-8 174c40 0 45-34 45-75 0-40-5-75-45-74-42 0-51 32-51 76 0 43 10 73 51 73" id="bG"/><g id="w"><use transform="matrix(0.05,0,0,0.05,0,0)" xlink:href="#aL"/><use transform="matrix(0.05,0,0,0.05,9,0)" xlink:href="#aD"/><use transform="matrix(0.05,0,0,0.05,19,0)" xlink:href="#bu"/><use transform="matrix(0.05,0,0,0.05,22.95,0)" xlink:href="#aL"/><use transform="matrix(0.05,0,0,0.05,31.950000000000003,0)" xlink:href="#bE"/><use transform="matrix(0.05,0,0,0.05,41.95,0)" xlink:href="#bF"/><use transform="matrix(0.05,0,0,0.05,51.95,0)" xlink:href="#bu"/><use transform="matrix(0.05,0,0,0.05,55.900000000000006,0)" xlink:href="#bd"/><use transform="matrix(0.05,0,0,0.05,65.9,0)" xlink:href="#bG"/><use transform="matrix(0.05,0,0,0.05,75.9,0)" xlink:href="#aD"/><use transform="matrix(0.05,0,0,0.05,85.9,0)" xlink:href="#bu"/><use transform="matrix(0.05,0,0,0.05,89.85000000000001,0)" xlink:href="#bE"/><use transform="matrix(0.05,0,0,0.05,99.85000000000001,0)" xlink:href="#bc"/><use transform="matrix(0.05,0,0,0.05,109.85000000000001,0)" xlink:href="#aH"/><use transform="matrix(0.05,0,0,0.05,119.85000000000001,0)" xlink:href="#aI"/><use transform="matrix(0.05,0,0,0.05,125.80000000000001,0)" xlink:href="#aL"/><use transform="matrix(0.05,0,0,0.05,134.8,0)" xlink:href="#aH"/><use transform="matrix(0.05,0,0,0.05,144.8,0)" xlink:href="#bm"/><use transform="matrix(0.05,0,0,0.05,154.8,0)" xlink:href="#aY"/><use transform="matrix(0.05,0,0,0.05,159.8,0)" xlink:href="#aD"/><use transform="matrix(0.05,0,0,0.05,169.8,0)" xlink:href="#bF"/><use transform="matrix(0.05,0,0,0.05,179.8,0)" xlink:href="#aH"/><use transform="matrix(0.05,0,0,0.05,189.8,0)" xlink:href="#bz"/><use transform="matrix(0.05,0,0,0.05,195.75,0)" xlink:href="#bA"/></g><path fill="#0c7cba" d="M108 0H70L1-190h34L89-25l56-165h34" id="bH"/><path fill="#0c7cba" d="M100-194c62-1 85 37 85 99 1 63-27 99-86 99S16-35 15-95c0-66 28-99 85-99zM99-20c44 1 53-31 53-75 0-43-8-75-51-75s-53 32-53 75 10 74 51 75" id="bI"/><path fill="#0c7cba" d="M24-231v-30h32v30H24zM24 0v-190h32V0H24" id="bJ"/><path fill="#0c7cba" d="M85-194c31 0 48 13 60 33l-1-100h32l1 261h-30c-2-10 0-23-3-31C134-8 116 4 85 4 32 4 16-35 15-94c0-66 23-100 70-100zm9 24c-40 0-46 34-46 75 0 40 6 74 45 74 42 0 51-32 51-76 0-42-9-74-50-73" id="bK"/><g id="x"><use transform="matrix(0.05,0,0,0.05,0,0)" xlink:href="#bH"/><use transform="matrix(0.05,0,0,0.05,9,0)" xlink:href="#bI"/><use transform="matrix(0.05,0,0,0.05,19,0)" xlink:href="#bJ"/><use transform="matrix(0.05,0,0,0.05,22.95,0)" xlink:href="#bK"/></g><g id="y"><use transform="matrix(0.05,0,0,0.05,0,0)" xlink:href="#aL"/><use transform="matrix(0.05,0,0,0.05,9,0)" xlink:href="#aD"/><use transform="matrix(0.05,0,0,0.05,19,0)" xlink:href="#bu"/><use transform="matrix(0.05,0,0,0.05,22.95,0)" xlink:href="#aL"/><use transform="matrix(0.05,0,0,0.05,31.950000000000003,0)" xlink:href="#bE"/><use transform="matrix(0.05,0,0,0.05,41.95,0)" xlink:href="#bc"/><use transform="matrix(0.05,0,0,0.05,51.95,0)" xlink:href="#aH"/><use transform="matrix(0.05,0,0,0.05,61.95,0)" xlink:href="#aI"/><use transform="matrix(0.05,0,0,0.05,67.9,0)" xlink:href="#aK"/><use transform="matrix(0.05,0,0,0.05,71.85000000000001,0)" xlink:href="#bd"/><use transform="matrix(0.05,0,0,0.05,81.85000000000001,0)" xlink:href="#be"/><use transform="matrix(0.05,0,0,0.05,91.85000000000001,0)" xlink:href="#bE"/><use transform="matrix(0.05,0,0,0.05,101.85000000000001,0)" xlink:href="#bc"/><use transform="matrix(0.05,0,0,0.05,111.85000000000001,0)" xlink:href="#aH"/><use transform="matrix(0.05,0,0,0.05,121.85000000000001,0)" xlink:href="#aI"/><use transform="matrix(0.05,0,0,0.05,127.80000000000001,0)" xlink:href="#aL"/><use transform="matrix(0.05,0,0,0.05,136.8,0)" xlink:href="#aH"/><use transform="matrix(0.05,0,0,0.05,146.8,0)" xlink:href="#bm"/><use transform="matrix(0.05,0,0,0.05,156.8,0)" xlink:href="#aY"/><use transform="matrix(0.05,0,0,0.05,161.8,0)" xlink:href="#aD"/><use transform="matrix(0.05,0,0,0.05,171.8,0)" xlink:href="#bF"/><use transform="matrix(0.05,0,0,0.05,181.8,0)" xlink:href="#aH"/><use transform="matrix(0.05,0,0,0.05,191.8,0)" xlink:href="#bz"/><use transform="matrix(0.05,0,0,0.05,197.75,0)" xlink:href="#bA"/></g><path fill="#706148" d="M206 0h-36l-40-164L89 0H53L-1-190h32L70-26l43-164h34l41 164 42-164h31" id="bL"/><g id="z"><use transform="matrix(0.05,0,0,0.05,0,0)" xlink:href="#aE"/><use transform="matrix(0.05,0,0,0.05,9,0)" xlink:href="#bo"/><use transform="matrix(0.05,0,0,0.05,19,0)" xlink:href="#bd"/><use transform="matrix(0.05,0,0,0.05,29,0)" xlink:href="#bL"/><use transform="matrix(0.05,0,0,0.05,41.95,0)" xlink:href="#aC"/><use transform="matrix(0.05,0,0,0.05,50.900000000000006,0)" xlink:href="#aD"/><use transform="matrix(0.05,0,0,0.05,60.900000000000006,0)" xlink:href="#aE"/><use transform="matrix(0.05,0,0,0.05,69.9,0)" xlink:href="#aF"/><use transform="matrix(0.05,0,0,0.05,78.9,0)" xlink:href="#bx"/><use transform="matrix(0.05,0,0,0.05,83.9,0)" xlink:href="#bm"/><use transform="matrix(0.05,0,0,0.05,93.9,0)" xlink:href="#by"/><use transform="matrix(0.05,0,0,0.05,105.9,0)" xlink:href="#aH"/><use transform="matrix(0.05,0,0,0.05,115.9,0)" xlink:href="#aI"/><use transform="matrix(0.05,0,0,0.05,121.85000000000001,0)" xlink:href="#aK"/><use transform="matrix(0.05,0,0,0.05,125.80000000000001,0)" xlink:href="#bd"/><use transform="matrix(0.05,0,0,0.05,135.8,0)" xlink:href="#be"/><use transform="matrix(0.05,0,0,0.05,145.8,0)" xlink:href="#bz"/><use transform="matrix(0.05,0,0,0.05,151.75,0)" xlink:href="#aY"/><use transform="matrix(0.05,0,0,0.05,156.75,0)" xlink:href="#aD"/><use transform="matrix(0.05,0,0,0.05,166.75,0)" xlink:href="#aE"/><use transform="matrix(0.05,0,0,0.05,175.75,0)" xlink:href="#aF"/><use transform="matrix(0.05,0,0,0.05,184.75,0)" xlink:href="#bA"/></g><path fill="#706148" d="M140-251c81 0 123 46 123 126C263-46 219 4 140 4 59 4 17-45 17-125s42-126 123-126zm0 227c63 0 89-41 89-101s-29-99-89-99c-61 0-89 39-89 99S79-25 140-24" id="bM"/><g id="A"><use transform="matrix(0.05,0,0,0.05,0,0)" xlink:href="#bm"/><use transform="matrix(0.05,0,0,0.05,10,0)" xlink:href="#bF"/><use transform="matrix(0.05,0,0,0.05,20,0)" xlink:href="#bM"/><use transform="matrix(0.05,0,0,0.05,34,0)" xlink:href="#bm"/><use transform="matrix(0.05,0,0,0.05,44,0)" xlink:href="#bx"/><use transform="matrix(0.05,0,0,0.05,49,0)" xlink:href="#bm"/><use transform="matrix(0.05,0,0,0.05,59,0)" xlink:href="#aK"/><use transform="matrix(0.05,0,0,0.05,62.95,0)" xlink:href="#aY"/><use transform="matrix(0.05,0,0,0.05,67.95,0)" xlink:href="#bz"/><use transform="matrix(0.05,0,0,0.05,73.9,0)" xlink:href="#bA"/><use transform="matrix(0.05,0,0,0.05,79.85000000000001,0)" xlink:href="#aM"/></g><g id="B"><use transform="matrix(0.05,0,0,0.05,0,0)" xlink:href="#bH"/><use transform="matrix(0.05,0,0,0.05,9,0)" xlink:href="#bI"/><use transform="matrix(0.05,0,0,0.05,19,0)" xlink:href="#bJ"/><use transform="matrix(0.05,0,0,0.05,22.95,0)" xlink:href="#bK"/></g><g id="C"><use transform="matrix(0.05,0,0,0.05,0,0)" xlink:href="#an"/><use transform="matrix(0.05,0,0,0.05,9.600000000000001,0)" xlink:href="#ao"/><use transform="matrix(0.05,0,0,0.05,19.6,0)" xlink:href="#ap"/><use transform="matrix(0.05,0,0,0.05,29.6,0)" xlink:href="#aq"/></g><g id="D"><use transform="matrix(0.05,0,0,0.05,0,0)" xlink:href="#aY"/><use transform="matrix(0.05,0,0,0.05,5,0)" xlink:href="#aK"/><use transform="matrix(0.05,0,0,0.05,8.95,0)" xlink:href="#aY"/><use transform="matrix(0.05,0,0,0.05,13.949999999999998,0)" xlink:href="#bu"/><use transform="matrix(0.05,0,0,0.05,17.9,0)" xlink:href="#aH"/><use transform="matrix(0.05,0,0,0.05,27.899999999999995,0)" xlink:href="#aM"/></g><g id="E"><use transform="matrix(0.05,0,0,0.05,0,0)" xlink:href="#aY"/><use transform="matrix(0.05,0,0,0.05,5,0)" xlink:href="#bv"/><use transform="matrix(0.05,0,0,0.05,14,0)" xlink:href="#bc"/><use transform="matrix(0.05,0,0,0.05,24,0)" xlink:href="#aH"/><use transform="matrix(0.05,0,0,0.05,34,0)" xlink:href="#aM"/></g><g id="F"><use transform="matrix(0.05,0,0,0.05,0,0)" xlink:href="#aL"/><use transform="matrix(0.05,0,0,0.05,9,0)" xlink:href="#aD"/><use transform="matrix(0.05,0,0,0.05,19,0)" xlink:href="#aY"/><use transform="matrix(0.05,0,0,0.05,24,0)" xlink:href="#aH"/><use transform="matrix(0.05,0,0,0.05,34,0)" xlink:href="#bF"/><use transform="matrix(0.05,0,0,0.05,44,0)" xlink:href="#bd"/><use transform="matrix(0.05,0,0,0.05,54,0)" xlink:href="#aI"/><use transform="matrix(0.05,0,0,0.05,59.95,0)" xlink:href="#bv"/><use transform="matrix(0.05,0,0,0.05,68.95,0)" xlink:href="#aM"/></g><g id="G"><use transform="matrix(0.05,0,0,0.05,0,0)" xlink:href="#aY"/><use transform="matrix(0.05,0,0,0.05,5,0)" xlink:href="#aD"/><use transform="matrix(0.05,0,0,0.05,15,0)" xlink:href="#aE"/><use transform="matrix(0.05,0,0,0.05,24,0)" xlink:href="#aF"/><use transform="matrix(0.05,0,0,0.05,33,0)" xlink:href="#by"/><use transform="matrix(0.05,0,0,0.05,45,0)" xlink:href="#aH"/><use transform="matrix(0.05,0,0,0.05,55,0)" xlink:href="#aI"/><use transform="matrix(0.05,0,0,0.05,60.95,0)" xlink:href="#aL"/><use transform="matrix(0.05,0,0,0.05,69.95,0)" xlink:href="#aH"/><use transform="matrix(0.05,0,0,0.05,79.95,0)" xlink:href="#bm"/><use transform="matrix(0.05,0,0,0.05,89.95,0)" xlink:href="#aY"/><use transform="matrix(0.05,0,0,0.05,94.95,0)" xlink:href="#aD"/><use transform="matrix(0.05,0,0,0.05,104.95,0)" xlink:href="#bF"/><use transform="matrix(0.05,0,0,0.05,114.95,0)" xlink:href="#aH"/><use transform="matrix(0.05,0,0,0.05,124.95,0)" xlink:href="#aM"/></g><g id="H"><use transform="matrix(0.05,0,0,0.05,0,0)" xlink:href="#aY"/><use transform="matrix(0.05,0,0,0.05,5,0)" xlink:href="#aD"/><use transform="matrix(0.05,0,0,0.05,15,0)" xlink:href="#aE"/><use transform="matrix(0.05,0,0,0.05,24,0)" xlink:href="#aF"/><use transform="matrix(0.05,0,0,0.05,33,0)" xlink:href="#bw"/><use transform="matrix(0.05,0,0,0.05,43.95,0)" xlink:href="#aK"/><use transform="matrix(0.05,0,0,0.05,47.900000000000006,0)" xlink:href="#bm"/><use transform="matrix(0.05,0,0,0.05,57.900000000000006,0)" xlink:href="#aK"/><use transform="matrix(0.05,0,0,0.05,61.85,0)" xlink:href="#aE"/><use transform="matrix(0.05,0,0,0.05,70.85000000000001,0)" xlink:href="#bo"/><use transform="matrix(0.05,0,0,0.05,80.85000000000001,0)" xlink:href="#aH"/><use transform="matrix(0.05,0,0,0.05,90.85000000000001,0)" xlink:href="#be"/><use transform="matrix(0.05,0,0,0.05,100.85000000000001,0)" xlink:href="#aM"/></g><path fill="#706148" d="M30-248c118-7 216 8 213 122C240-48 200 0 122 0H30v-248zM63-27c89 8 146-16 146-99s-60-101-146-95v194" id="bN"/><g id="I"><use transform="matrix(0.05,0,0,0.05,0,0)" xlink:href="#aE"/><use transform="matrix(0.05,0,0,0.05,9,0)" xlink:href="#aY"/><use transform="matrix(0.05,0,0,0.05,14,0)" xlink:href="#aD"/><use transform="matrix(0.05,0,0,0.05,24,0)" xlink:href="#aI"/><use transform="matrix(0.05,0,0,0.05,29.950000000000003,0)" xlink:href="#aY"/><use transform="matrix(0.05,0,0,0.05,34.95,0)" xlink:href="#bN"/><use transform="matrix(0.05,0,0,0.05,47.900000000000006,0)" xlink:href="#aD"/><use transform="matrix(0.05,0,0,0.05,57.900000000000006,0)" xlink:href="#aY"/><use transform="matrix(0.05,0,0,0.05,62.900000000000006,0)" xlink:href="#aH"/><use transform="matrix(0.05,0,0,0.05,72.9,0)" xlink:href="#aM"/></g><g id="J"><use transform="matrix(0.05,0,0,0.05,0,0)" xlink:href="#bf"/><use transform="matrix(0.05,0,0,0.05,9,0)" xlink:href="#bg"/><use transform="matrix(0.05,0,0,0.05,14,0)" xlink:href="#bh"/><use transform="matrix(0.05,0,0,0.05,19.95,0)" xlink:href="#bi"/><use transform="matrix(0.05,0,0,0.05,23.9,0)" xlink:href="#bj"/><use transform="matrix(0.05,0,0,0.05,33.9,0)" xlink:href="#bk"/></g><g id="K"><use transform="matrix(0.05,0,0,0.05,0,0)" xlink:href="#aH"/><use transform="matrix(0.05,0,0,0.05,10,0)" xlink:href="#bm"/><use transform="matrix(0.05,0,0,0.05,20,0)" xlink:href="#be"/><use transform="matrix(0.05,0,0,0.05,30,0)" xlink:href="#bN"/><use transform="matrix(0.05,0,0,0.05,42.95,0)" xlink:href="#aD"/><use transform="matrix(0.05,0,0,0.05,52.95,0)" xlink:href="#aY"/><use transform="matrix(0.05,0,0,0.05,57.95,0)" xlink:href="#aH"/><use transform="matrix(0.05,0,0,0.05,67.95,0)" xlink:href="#aM"/></g><g id="L"><use transform="matrix(0.05,0,0,0.05,0,0)" xlink:href="#be"/><use transform="matrix(0.05,0,0,0.05,10,0)" xlink:href="#bt"/><use transform="matrix(0.05,0,0,0.05,20,0)" xlink:href="#aI"/><use transform="matrix(0.05,0,0,0.05,25.950000000000003,0)" xlink:href="#aD"/><use transform="matrix(0.05,0,0,0.05,35.95,0)" xlink:href="#aY"/><use transform="matrix(0.05,0,0,0.05,40.95,0)" xlink:href="#aK"/><use transform="matrix(0.05,0,0,0.05,44.900000000000006,0)" xlink:href="#bd"/><use transform="matrix(0.05,0,0,0.05,54.900000000000006,0)" xlink:href="#bm"/><use transform="matrix(0.05,0,0,0.05,64.9,0)" xlink:href="#aM"/></g><path fill="#706148" d="M210-169c-67 3-38 105-44 169h-31v-121c0-29-5-50-35-48C34-165 62-65 56 0H25l-1-190h30c1 10-1 24 2 32 10-44 99-50 107 0 11-21 27-35 58-36 85-2 47 119 55 194h-31v-121c0-29-5-49-35-48" id="bO"/><g id="M"><use transform="matrix(0.05,0,0,0.05,0,0)" xlink:href="#aL"/><use transform="matrix(0.05,0,0,0.05,9,0)" xlink:href="#bd"/><use transform="matrix(0.05,0,0,0.05,19,0)" xlink:href="#bO"/><use transform="matrix(0.05,0,0,0.05,33.95,0)" xlink:href="#bc"/><use transform="matrix(0.05,0,0,0.05,43.95,0)" xlink:href="#bu"/><use transform="matrix(0.05,0,0,0.05,47.900000000000006,0)" xlink:href="#aH"/><use transform="matrix(0.05,0,0,0.05,57.900000000000006,0)" xlink:href="#aY"/><use transform="matrix(0.05,0,0,0.05,62.900000000000006,0)" xlink:href="#aK"/><use transform="matrix(0.05,0,0,0.05,66.85000000000001,0)" xlink:href="#bd"/><use transform="matrix(0.05,0,0,0.05,76.85000000000001,0)" xlink:href="#bm"/><use transform="matrix(0.05,0,0,0.05,86.85000000000001,0)" xlink:href="#bN"/><use transform="matrix(0.05,0,0,0.05,99.80000000000001,0)" xlink:href="#aD"/><use transform="matrix(0.05,0,0,0.05,109.80000000000001,0)" xlink:href="#aY"/><use transform="matrix(0.05,0,0,0.05,114.80000000000001,0)" xlink:href="#aH"/><use transform="matrix(0.05,0,0,0.05,124.80000000000001,0)" xlink:href="#aM"/></g><g id="N"><use transform="matrix(0.05,0,0,0.05,0,0)" xlink:href="#aK"/><use transform="matrix(0.05,0,0,0.05,3.95,0)" xlink:href="#aE"/><use transform="matrix(0.05,0,0,0.05,12.949999999999998,0)" xlink:href="#aZ"/><use transform="matrix(0.05,0,0,0.05,22.95,0)" xlink:href="#aD"/><use transform="matrix(0.05,0,0,0.05,32.95,0)" xlink:href="#aY"/><use transform="matrix(0.05,0,0,0.05,37.95,0)" xlink:href="#aH"/><use transform="matrix(0.05,0,0,0.05,47.95,0)" xlink:href="#aM"/></g><g id="O"><use transform="matrix(0.05,0,0,0.05,0,0)" xlink:href="#br"/><use transform="matrix(0.05,0,0,0.05,10,0)" xlink:href="#bB"/><use transform="matrix(0.05,0,0,0.05,20,0)" xlink:href="#bB"/><use transform="matrix(0.05,0,0,0.05,30,0)" xlink:href="#bC"/><use transform="matrix(0.05,0,0,0.05,33.95,0)" xlink:href="#bs"/><use transform="matrix(0.05,0,0,0.05,43.95,0)" xlink:href="#bD"/><use transform="matrix(0.05,0,0,0.05,53.95,0)" xlink:href="#bj"/></g><path fill="#0c7cba" d="M18-150v-26h174v26H18zm0 90v-26h174v26H18" id="bP"/><use transform="matrix(0.05,0,0,0.05,0,0)" xlink:href="#bP" id="P"/><path fill="#0c7cba" d="M101-234c-31-9-42 10-38 44h38v23H63V0H32v-167H5v-23h27c-7-52 17-82 69-68v24" id="bQ"/><path fill="#0c7cba" d="M141-36C126-15 110 5 73 4 37 3 15-17 15-53c-1-64 63-63 125-63 3-35-9-54-41-54-24 1-41 7-42 31l-33-3c5-37 33-52 76-52 45 0 72 20 72 64v82c-1 20 7 32 28 27v20c-31 9-61-2-59-35zM48-53c0 20 12 33 32 33 41-3 63-29 60-74-43 2-92-5-92 41" id="bR"/><path fill="#0c7cba" d="M24 0v-261h32V0H24" id="bS"/><path fill="#0c7cba" d="M135-143c-3-34-86-38-87 0 15 53 115 12 119 90S17 21 10-45l28-5c4 36 97 45 98 0-10-56-113-15-118-90-4-57 82-63 122-42 12 7 21 19 24 35" id="bT"/><path fill="#0c7cba" d="M100-194c63 0 86 42 84 106H49c0 40 14 67 53 68 26 1 43-12 49-29l28 8c-11 28-37 45-77 45C44 4 14-33 15-96c1-61 26-98 85-98zm52 81c6-60-76-77-97-28-3 7-6 17-6 28h103" id="bU"/><g id="Q"><use transform="matrix(0.05,0,0,0.05,0,0)" xlink:href="#bQ"/><use transform="matrix(0.05,0,0,0.05,5,0)" xlink:href="#bR"/><use transform="matrix(0.05,0,0,0.05,15,0)" xlink:href="#bS"/><use transform="matrix(0.05,0,0,0.05,18.95,0)" xlink:href="#bT"/><use transform="matrix(0.05,0,0,0.05,27.950000000000003,0)" xlink:href="#bU"/></g><path fill="#706148" d="M169-182c-1-43-94-46-97-3 18 66 151 10 154 114 3 95-165 93-204 36-6-8-10-19-12-30l50-8c3 46 112 56 116 5-17-69-150-10-154-114-4-87 153-88 188-35 5 8 8 18 10 28" id="bV"/><path fill="#706148" d="M135-150c-39-12-60 13-60 57V0H25l-1-190h47c2 13-1 29 3 40 6-28 27-53 61-41v41" id="bW"/><path fill="#706148" d="M128 0H69L1-190h53L99-40l48-150h52" id="bX"/><path fill="#706148" d="M190-63c-7 42-38 67-86 67-59 0-84-38-90-98-12-110 154-137 174-36l-49 2c-2-19-15-32-35-32-30 0-35 28-38 64-6 74 65 87 74 30" id="bY"/><g id="R"><use transform="matrix(0.05,0,0,0.05,0,0)" xlink:href="#an"/><use transform="matrix(0.05,0,0,0.05,9.600000000000001,0)" xlink:href="#ao"/><use transform="matrix(0.05,0,0,0.05,19.6,0)" xlink:href="#ap"/><use transform="matrix(0.05,0,0,0.05,29.6,0)" xlink:href="#aq"/><use transform="matrix(0.05,0,0,0.05,39.6,0)" xlink:href="#ar"/><use transform="matrix(0.05,0,0,0.05,52.550000000000004,0)" xlink:href="#as"/><use transform="matrix(0.05,0,0,0.05,57.550000000000004,0)" xlink:href="#at"/><use transform="matrix(0.05,0,0,0.05,62.550000000000004,0)" xlink:href="#ao"/><use transform="matrix(0.05,0,0,0.05,72.55000000000001,0)" xlink:href="#au"/><use transform="matrix(0.05,0,0,0.05,83.50000000000001,0)" xlink:href="#bV"/><use transform="matrix(0.05,0,0,0.05,95.50000000000001,0)" xlink:href="#az"/><use transform="matrix(0.05,0,0,0.05,105.5,0)" xlink:href="#bW"/><use transform="matrix(0.05,0,0,0.05,112.5,0)" xlink:href="#bX"/><use transform="matrix(0.05,0,0,0.05,122.5,0)" xlink:href="#as"/><use transform="matrix(0.05,0,0,0.05,127.5,0)" xlink:href="#bY"/><use transform="matrix(0.05,0,0,0.05,137.5,0)" xlink:href="#az"/></g><use transform="matrix(0.05,0,0,0.05,0,0)" xlink:href="#aX" id="S"/><path fill="#706148" d="M68-38c1 34 0 65-14 84H32c9-13 17-26 17-46H33v-38h35" id="bZ"/><g id="T"><use transform="matrix(0.05,0,0,0.05,0,0)" xlink:href="#aY"/><use transform="matrix(0.05,0,0,0.05,5,0)" xlink:href="#aH"/><use transform="matrix(0.05,0,0,0.05,15,0)" xlink:href="#aE"/><use transform="matrix(0.05,0,0,0.05,24,0)" xlink:href="#aY"/><use transform="matrix(0.05,0,0,0.05,29,0)" xlink:href="#by"/><use transform="matrix(0.05,0,0,0.05,41,0)" xlink:href="#aH"/><use transform="matrix(0.05,0,0,0.05,51,0)" xlink:href="#aI"/><use transform="matrix(0.05,0,0,0.05,56.95,0)" xlink:href="#aK"/><use transform="matrix(0.05,0,0,0.05,60.900000000000006,0)" xlink:href="#bd"/><use transform="matrix(0.05,0,0,0.05,70.9,0)" xlink:href="#be"/><use transform="matrix(0.05,0,0,0.05,80.9,0)" xlink:href="#bl"/><use transform="matrix(0.05,0,0,0.05,92.9,0)" xlink:href="#aI"/><use transform="matrix(0.05,0,0,0.05,98.85000000000001,0)" xlink:href="#aI"/><use transform="matrix(0.05,0,0,0.05,104.80000000000001,0)" xlink:href="#bd"/><use transform="matrix(0.05,0,0,0.05,114.80000000000001,0)" xlink:href="#aI"/><use transform="matrix(0.05,0,0,0.05,120.75,0)" xlink:href="#bz"/><use transform="matrix(0.05,0,0,0.05,126.7,0)" xlink:href="#bc"/><use transform="matrix(0.05,0,0,0.05,136.70000000000002,0)" xlink:href="#aH"/><use transform="matrix(0.05,0,0,0.05,146.70000000000002,0)" xlink:href="#aI"/><use transform="matrix(0.05,0,0,0.05,152.65,0)" xlink:href="#aK"/><use transform="matrix(0.05,0,0,0.05,156.6,0)" xlink:href="#bd"/><use transform="matrix(0.05,0,0,0.05,166.6,0)" xlink:href="#be"/><use transform="matrix(0.05,0,0,0.05,176.6,0)" xlink:href="#aG"/><use transform="matrix(0.05,0,0,0.05,188.6,0)" xlink:href="#aY"/><use transform="matrix(0.05,0,0,0.05,193.6,0)" xlink:href="#aD"/><use transform="matrix(0.05,0,0,0.05,203.6,0)" xlink:href="#aI"/><use transform="matrix(0.05,0,0,0.05,209.54999999999995,0)" xlink:href="#aY"/><use transform="matrix(0.05,0,0,0.05,214.54999999999995,0)" xlink:href="#bZ"/></g><g id="U"><use transform="matrix(0.05,0,0,0.05,0,0)" xlink:href="#bc"/><use transform="matrix(0.05,0,0,0.05,10,0)" xlink:href="#aH"/><use transform="matrix(0.05,0,0,0.05,20,0)" xlink:href="#aI"/><use transform="matrix(0.05,0,0,0.05,25.950000000000003,0)" xlink:href="#aK"/><use transform="matrix(0.05,0,0,0.05,29.899999999999995,0)" xlink:href="#bd"/><use transform="matrix(0.05,0,0,0.05,39.9,0)" xlink:href="#be"/><use transform="matrix(0.05,0,0,0.05,49.9,0)" xlink:href="#bl"/><use transform="matrix(0.05,0,0,0.05,61.900000000000006,0)" xlink:href="#bm"/><use transform="matrix(0.05,0,0,0.05,71.9,0)" xlink:href="#be"/><use transform="matrix(0.05,0,0,0.05,81.9,0)" xlink:href="#bA"/><use transform="matrix(0.05,0,0,0.05,87.85000000000001,0)" xlink:href="#aM"/></g><g id="V"><use transform="matrix(0.05,0,0,0.05,0,0)" xlink:href="#aL"/><use transform="matrix(0.05,0,0,0.05,9,0)" xlink:href="#aD"/><use transform="matrix(0.05,0,0,0.05,19,0)" xlink:href="#bu"/><use transform="matrix(0.05,0,0,0.05,22.95,0)" xlink:href="#aL"/><use transform="matrix(0.05,0,0,0.05,31.950000000000003,0)" xlink:href="#bE"/><use transform="matrix(0.05,0,0,0.05,41.95,0)" xlink:href="#bF"/><use transform="matrix(0.05,0,0,0.05,51.95,0)" xlink:href="#bu"/><use transform="matrix(0.05,0,0,0.05,55.900000000000006,0)" xlink:href="#bd"/><use transform="matrix(0.05,0,0,0.05,65.9,0)" xlink:href="#bG"/><use transform="matrix(0.05,0,0,0.05,75.9,0)" xlink:href="#aD"/><use transform="matrix(0.05,0,0,0.05,85.9,0)" xlink:href="#bu"/><use transform="matrix(0.05,0,0,0.05,89.85000000000001,0)" xlink:href="#bE"/><use transform="matrix(0.05,0,0,0.05,99.85000000000001,0)" xlink:href="#bc"/><use transform="matrix(0.05,0,0,0.05,109.85000000000001,0)" xlink:href="#aH"/><use transform="matrix(0.05,0,0,0.05,119.85000000000001,0)" xlink:href="#aI"/><use transform="matrix(0.05,0,0,0.05,125.80000000000001,0)" xlink:href="#aL"/><use transform="matrix(0.05,0,0,0.05,134.8,0)" xlink:href="#aH"/><use transform="matrix(0.05,0,0,0.05,144.8,0)" xlink:href="#bm"/><use transform="matrix(0.05,0,0,0.05,154.8,0)" xlink:href="#aY"/><use transform="matrix(0.05,0,0,0.05,159.8,0)" xlink:href="#aD"/><use transform="matrix(0.05,0,0,0.05,169.8,0)" xlink:href="#bF"/><use transform="matrix(0.05,0,0,0.05,179.8,0)" xlink:href="#aH"/><use transform="matrix(0.05,0,0,0.05,189.8,0)" xlink:href="#bz"/><use transform="matrix(0.05,0,0,0.05,195.75,0)" xlink:href="#aY"/><use transform="matrix(0.05,0,0,0.05,200.75,0)" xlink:href="#aD"/><use transform="matrix(0.05,0,0,0.05,210.75,0)" xlink:href="#aE"/><use transform="matrix(0.05,0,0,0.05,219.75,0)" xlink:href="#aF"/><use transform="matrix(0.05,0,0,0.05,228.75,0)" xlink:href="#aZ"/><use transform="matrix(0.05,0,0,0.05,238.75,0)" xlink:href="#aK"/><use transform="matrix(0.05,0,0,0.05,242.69999999999996,0)" xlink:href="#aE"/><use transform="matrix(0.05,0,0,0.05,251.69999999999996,0)" xlink:href="#aY"/><use transform="matrix(0.05,0,0,0.05,256.7,0)" xlink:href="#bA"/><use transform="matrix(0.05,0,0,0.05,262.65,0)" xlink:href="#aM"/></g><path fill="#ef8d22" d="M24-231v-30h32v30H24zM-9 49c24 4 33-6 33-30v-209h32V24c2 40-23 58-65 49V49" id="ca"/><path fill="#ef8d22" d="M96-169c-40 0-48 33-48 73s9 75 48 75c24 0 41-14 43-38l32 2c-6 37-31 61-74 61-59 0-76-41-82-99-10-93 101-131 147-64 4 7 5 14 7 22l-32 3c-4-21-16-35-41-35" id="cb"/><g id="W"><use transform="matrix(0.05,0,0,0.05,0,0)" xlink:href="#bB"/><use transform="matrix(0.05,0,0,0.05,10,0)" xlink:href="#br"/><use transform="matrix(0.05,0,0,0.05,20,0)" xlink:href="#ca"/><use transform="matrix(0.05,0,0,0.05,23.95,0)" xlink:href="#bs"/><use transform="matrix(0.05,0,0,0.05,33.95,0)" xlink:href="#cb"/><use transform="matrix(0.05,0,0,0.05,42.95,0)" xlink:href="#bg"/></g><g id="X"><use transform="matrix(0.05,0,0,0.05,0,0)" xlink:href="#aL"/><use transform="matrix(0.05,0,0,0.05,9,0)" xlink:href="#aD"/><use transform="matrix(0.05,0,0,0.05,19,0)" xlink:href="#bu"/><use transform="matrix(0.05,0,0,0.05,22.95,0)" xlink:href="#aL"/><use transform="matrix(0.05,0,0,0.05,31.950000000000003,0)" xlink:href="#bE"/><use transform="matrix(0.05,0,0,0.05,41.95,0)" xlink:href="#bc"/><use transform="matrix(0.05,0,0,0.05,51.95,0)" xlink:href="#aH"/><use transform="matrix(0.05,0,0,0.05,61.95,0)" xlink:href="#aI"/><use transform="matrix(0.05,0,0,0.05,67.9,0)" xlink:href="#aK"/><use transform="matrix(0.05,0,0,0.05,71.85000000000001,0)" xlink:href="#bd"/><use transform="matrix(0.05,0,0,0.05,81.85000000000001,0)" xlink:href="#be"/><use transform="matrix(0.05,0,0,0.05,91.85000000000001,0)" xlink:href="#bE"/><use transform="matrix(0.05,0,0,0.05,101.85000000000001,0)" xlink:href="#bc"/><use transform="matrix(0.05,0,0,0.05,111.85000000000001,0)" xlink:href="#aH"/><use transform="matrix(0.05,0,0,0.05,121.85000000000001,0)" xlink:href="#aI"/><use transform="matrix(0.05,0,0,0.05,127.80000000000001,0)" xlink:href="#aL"/><use transform="matrix(0.05,0,0,0.05,136.8,0)" xlink:href="#aH"/><use transform="matrix(0.05,0,0,0.05,146.8,0)" xlink:href="#bm"/><use transform="matrix(0.05,0,0,0.05,156.8,0)" xlink:href="#aY"/><use transform="matrix(0.05,0,0,0.05,161.8,0)" xlink:href="#aD"/><use transform="matrix(0.05,0,0,0.05,171.8,0)" xlink:href="#bF"/><use transform="matrix(0.05,0,0,0.05,181.8,0)" xlink:href="#aH"/><use transform="matrix(0.05,0,0,0.05,191.8,0)" xlink:href="#bz"/><use transform="matrix(0.05,0,0,0.05,197.75,0)" xlink:href="#aY"/><use transform="matrix(0.05,0,0,0.05,202.75,0)" xlink:href="#aD"/><use transform="matrix(0.05,0,0,0.05,212.75,0)" xlink:href="#aE"/><use transform="matrix(0.05,0,0,0.05,221.75,0)" xlink:href="#aF"/><use transform="matrix(0.05,0,0,0.05,230.75,0)" xlink:href="#aZ"/><use transform="matrix(0.05,0,0,0.05,240.75,0)" xlink:href="#aK"/><use transform="matrix(0.05,0,0,0.05,244.69999999999996,0)" xlink:href="#aE"/><use transform="matrix(0.05,0,0,0.05,253.69999999999996,0)" xlink:href="#aY"/><use transform="matrix(0.05,0,0,0.05,258.7,0)" xlink:href="#bZ"/><use transform="matrix(0.05,0,0,0.05,263.7,0)" xlink:href="#aE"/><use transform="matrix(0.05,0,0,0.05,272.7,0)" xlink:href="#aY"/><use transform="matrix(0.05,0,0,0.05,277.7,0)" xlink:href="#aD"/><use transform="matrix(0.05,0,0,0.05,287.7,0)" xlink:href="#aI"/><use transform="matrix(0.05,0,0,0.05,293.65,0)" xlink:href="#aY"/><use transform="matrix(0.05,0,0,0.05,298.65,0)" xlink:href="#bZ"/><use transform="matrix(0.05,0,0,0.05,303.65,0)" xlink:href="#aH"/><use transform="matrix(0.05,0,0,0.05,313.65,0)" xlink:href="#bm"/><use transform="matrix(0.05,0,0,0.05,323.65,0)" xlink:href="#be"/><use transform="matrix(0.05,0,0,0.05,333.65,0)" xlink:href="#bA"/><use transform="matrix(0.05,0,0,0.05,339.59999999999997,0)" xlink:href="#aM"/></g><g id="Y"><use transform="matrix(0.05,0,0,0.05,0,0)" xlink:href="#aE"/><use transform="matrix(0.05,0,0,0.05,9,0)" xlink:href="#bo"/><use transform="matrix(0.05,0,0,0.05,19,0)" xlink:href="#bd"/><use transform="matrix(0.05,0,0,0.05,29,0)" xlink:href="#bL"/><use transform="matrix(0.05,0,0,0.05,41.95,0)" xlink:href="#aC"/><use transform="matrix(0.05,0,0,0.05,50.900000000000006,0)" xlink:href="#aD"/><use transform="matrix(0.05,0,0,0.05,60.900000000000006,0)" xlink:href="#aE"/><use transform="matrix(0.05,0,0,0.05,69.9,0)" xlink:href="#aF"/><use transform="matrix(0.05,0,0,0.05,78.9,0)" xlink:href="#bx"/><use transform="matrix(0.05,0,0,0.05,83.9,0)" xlink:href="#bm"/><use transform="matrix(0.05,0,0,0.05,93.9,0)" xlink:href="#by"/><use transform="matrix(0.05,0,0,0.05,105.9,0)" xlink:href="#aH"/><use transform="matrix(0.05,0,0,0.05,115.9,0)" xlink:href="#aI"/><use transform="matrix(0.05,0,0,0.05,121.85000000000001,0)" xlink:href="#aK"/><use transform="matrix(0.05,0,0,0.05,125.80000000000001,0)" xlink:href="#bd"/><use transform="matrix(0.05,0,0,0.05,135.8,0)" xlink:href="#be"/><use transform="matrix(0.05,0,0,0.05,145.8,0)" xlink:href="#bz"/><use transform="matrix(0.05,0,0,0.05,151.75,0)" xlink:href="#aY"/><use transform="matrix(0.05,0,0,0.05,156.75,0)" xlink:href="#aD"/><use transform="matrix(0.05,0,0,0.05,166.75,0)" xlink:href="#aE"/><use transform="matrix(0.05,0,0,0.05,175.75,0)" xlink:href="#aF"/><use transform="matrix(0.05,0,0,0.05,184.75,0)" xlink:href="#bZ"/><use transform="matrix(0.05,0,0,0.05,189.75,0)" xlink:href="#aE"/><use transform="matrix(0.05,0,0,0.05,198.75,0)" xlink:href="#aY"/><use transform="matrix(0.05,0,0,0.05,203.75,0)" xlink:href="#aD"/><use transform="matrix(0.05,0,0,0.05,213.75,0)" xlink:href="#aI"/><use transform="matrix(0.05,0,0,0.05,219.69999999999996,0)" xlink:href="#aY"/><use transform="matrix(0.05,0,0,0.05,224.69999999999996,0)" xlink:href="#bZ"/><use transform="matrix(0.05,0,0,0.05,229.69999999999996,0)" xlink:href="#aH"/><use transform="matrix(0.05,0,0,0.05,239.69999999999996,0)" xlink:href="#bm"/><use transform="matrix(0.05,0,0,0.05,249.69999999999996,0)" xlink:href="#be"/><use transform="matrix(0.05,0,0,0.05,259.7,0)" xlink:href="#bA"/><use transform="matrix(0.05,0,0,0.05,265.65,0)" xlink:href="#aM"/></g><g id="Z"><use transform="matrix(0.05,0,0,0.05,0,0)" xlink:href="#bH"/><use transform="matrix(0.05,0,0,0.05,9,0)" xlink:href="#bI"/><use transform="matrix(0.05,0,0,0.05,19,0)" xlink:href="#bJ"/><use transform="matrix(0.05,0,0,0.05,22.95,0)" xlink:href="#bK"/></g><g id="aa"><use transform="matrix(0.05,0,0,0.05,0,0)" xlink:href="#an"/><use transform="matrix(0.05,0,0,0.05,9.600000000000001,0)" xlink:href="#ao"/><use transform="matrix(0.05,0,0,0.05,19.6,0)" xlink:href="#ap"/><use transform="matrix(0.05,0,0,0.05,29.6,0)" xlink:href="#aq"/><use transform="matrix(0.05,0,0,0.05,39.6,0)" xlink:href="#bV"/><use transform="matrix(0.05,0,0,0.05,51.6,0)" xlink:href="#az"/><use transform="matrix(0.05,0,0,0.05,61.6,0)" xlink:href="#bW"/><use transform="matrix(0.05,0,0,0.05,68.6,0)" xlink:href="#bX"/><use transform="matrix(0.05,0,0,0.05,78.6,0)" xlink:href="#as"/><use transform="matrix(0.05,0,0,0.05,83.6,0)" xlink:href="#bY"/><use transform="matrix(0.05,0,0,0.05,93.6,0)" xlink:href="#az"/></g><path fill="#706148" d="M160-131c35 5 61 23 61 61C221 17 115-2 30 0v-248c76 3 177-17 177 60 0 33-19 50-47 57zm-97-11c50-1 110 9 110-42 0-47-63-36-110-37v79zm0 115c55-2 124 14 124-45 0-56-70-42-124-44v89" id="cc"/><g id="ab"><use transform="matrix(0.05,0,0,0.05,0,0)" xlink:href="#aC"/><use transform="matrix(0.05,0,0,0.05,8.950000000000001,0)" xlink:href="#aD"/><use transform="matrix(0.05,0,0,0.05,18.950000000000003,0)" xlink:href="#aE"/><use transform="matrix(0.05,0,0,0.05,27.950000000000003,0)" xlink:href="#aF"/><use transform="matrix(0.05,0,0,0.05,36.95,0)" xlink:href="#cc"/><use transform="matrix(0.05,0,0,0.05,48.95,0)" xlink:href="#aK"/><use transform="matrix(0.05,0,0,0.05,52.900000000000006,0)" xlink:href="#bu"/><use transform="matrix(0.05,0,0,0.05,56.85,0)" xlink:href="#aD"/><use transform="matrix(0.05,0,0,0.05,66.85000000000001,0)" xlink:href="#bm"/><use transform="matrix(0.05,0,0,0.05,76.85000000000001,0)" xlink:href="#aG"/><use transform="matrix(0.05,0,0,0.05,88.85000000000001,0)" xlink:href="#aH"/><use transform="matrix(0.05,0,0,0.05,98.85000000000001,0)" xlink:href="#aI"/><use transform="matrix(0.05,0,0,0.05,104.80000000000001,0)" xlink:href="#aJ"/><use transform="matrix(0.05,0,0,0.05,113.80000000000001,0)" xlink:href="#aK"/><use transform="matrix(0.05,0,0,0.05,117.75,0)" xlink:href="#aL"/><use transform="matrix(0.05,0,0,0.05,126.75,0)" xlink:href="#aH"/><use transform="matrix(0.05,0,0,0.05,136.75,0)" xlink:href="#aM"/></g><path fill="#834187" d="M160-131c35 5 61 23 61 61C221 17 115-2 30 0v-248c76 3 177-17 177 60 0 33-19 50-47 57zm-97-11c50-1 110 9 110-42 0-47-63-36-110-37v79zm0 115c55-2 124 14 124-45 0-56-70-42-124-44v89" id="cd"/><path fill="#834187" d="M24 0v-261h32V0H24" id="ce"/><path fill="#834187" d="M117-194c89-4 53 116 60 194h-32v-121c0-31-8-49-39-48C34-167 62-67 57 0H25l-1-190h30c1 10-1 24 2 32 11-22 29-35 61-36" id="cf"/><g id="ac"><use transform="matrix(0.05,0,0,0.05,0,0)" xlink:href="#aN"/><use transform="matrix(0.05,0,0,0.05,8.950000000000001,0)" xlink:href="#aO"/><use transform="matrix(0.05,0,0,0.05,18.950000000000003,0)" xlink:href="#aP"/><use transform="matrix(0.05,0,0,0.05,27.950000000000003,0)" xlink:href="#aQ"/><use transform="matrix(0.05,0,0,0.05,36.95,0)" xlink:href="#cd"/><use transform="matrix(0.05,0,0,0.05,48.95,0)" xlink:href="#aV"/><use transform="matrix(0.05,0,0,0.05,52.900000000000006,0)" xlink:href="#ce"/><use transform="matrix(0.05,0,0,0.05,56.85,0)" xlink:href="#aO"/><use transform="matrix(0.05,0,0,0.05,66.85000000000001,0)" xlink:href="#cf"/><use transform="matrix(0.05,0,0,0.05,76.85000000000001,0)" xlink:href="#aR"/><use transform="matrix(0.05,0,0,0.05,88.85000000000001,0)" xlink:href="#aS"/><use transform="matrix(0.05,0,0,0.05,98.85000000000001,0)" xlink:href="#aT"/><use transform="matrix(0.05,0,0,0.05,104.80000000000001,0)" xlink:href="#aU"/><use transform="matrix(0.05,0,0,0.05,113.80000000000001,0)" xlink:href="#aV"/><use transform="matrix(0.05,0,0,0.05,117.75,0)" xlink:href="#aW"/><use transform="matrix(0.05,0,0,0.05,126.75,0)" xlink:href="#aS"/></g><use transform="matrix(0.05,0,0,0.05,0,0)" xlink:href="#bb" id="ad"/><g id="ae"><use transform="matrix(0.05,0,0,0.05,0,0)" xlink:href="#aY"/><use transform="matrix(0.05,0,0,0.05,5,0)" xlink:href="#aH"/><use transform="matrix(0.05,0,0,0.05,15,0)" xlink:href="#aE"/><use transform="matrix(0.05,0,0,0.05,24,0)" xlink:href="#aY"/><use transform="matrix(0.05,0,0,0.05,29,0)" xlink:href="#by"/><use transform="matrix(0.05,0,0,0.05,41,0)" xlink:href="#aH"/><use transform="matrix(0.05,0,0,0.05,51,0)" xlink:href="#aI"/><use transform="matrix(0.05,0,0,0.05,56.95,0)" xlink:href="#aK"/><use transform="matrix(0.05,0,0,0.05,60.900000000000006,0)" xlink:href="#bd"/><use transform="matrix(0.05,0,0,0.05,70.9,0)" xlink:href="#be"/><use transform="matrix(0.05,0,0,0.05,80.9,0)" xlink:href="#bl"/><use transform="matrix(0.05,0,0,0.05,92.9,0)" xlink:href="#aI"/><use transform="matrix(0.05,0,0,0.05,98.85000000000001,0)" xlink:href="#aI"/><use transform="matrix(0.05,0,0,0.05,104.80000000000001,0)" xlink:href="#bd"/><use transform="matrix(0.05,0,0,0.05,114.80000000000001,0)" xlink:href="#aI"/><use transform="matrix(0.05,0,0,0.05,120.75,0)" xlink:href="#bz"/><use transform="matrix(0.05,0,0,0.05,126.7,0)" xlink:href="#aE"/><use transform="matrix(0.05,0,0,0.05,135.70000000000002,0)" xlink:href="#aY"/><use transform="matrix(0.05,0,0,0.05,140.70000000000002,0)" xlink:href="#aD"/><use transform="matrix(0.05,0,0,0.05,150.70000000000002,0)" xlink:href="#aI"/><use transform="matrix(0.05,0,0,0.05,156.65,0)" xlink:href="#aY"/><use transform="matrix(0.05,0,0,0.05,161.65,0)" xlink:href="#bZ"/><use transform="matrix(0.05,0,0,0.05,166.65,0)" xlink:href="#aH"/><use transform="matrix(0.05,0,0,0.05,176.65,0)" xlink:href="#bm"/><use transform="matrix(0.05,0,0,0.05,186.65,0)" xlink:href="#be"/><use transform="matrix(0.05,0,0,0.05,196.65,0)" xlink:href="#bA"/><use transform="matrix(0.05,0,0,0.05,202.6,0)" xlink:href="#aM"/></g><path fill="#0c7cba" d="M117-194c89-4 53 116 60 194h-32v-121c0-31-8-49-39-48C34-167 62-67 57 0H25l-1-190h30c1 10-1 24 2 32 11-22 29-35 61-36" id="cg"/><path fill="#0c7cba" d="M179-190L93 31C79 59 56 82 12 73V49c39 6 53-20 64-50L1-190h34L92-34l54-156h33" id="ch"/><g id="af"><use transform="matrix(0.05,0,0,0.05,0,0)" xlink:href="#bR"/><use transform="matrix(0.05,0,0,0.05,10,0)" xlink:href="#cg"/><use transform="matrix(0.05,0,0,0.05,20,0)" xlink:href="#ch"/></g><g id="ag"><use transform="matrix(0.05,0,0,0.05,0,0)" xlink:href="#aL"/><use transform="matrix(0.05,0,0,0.05,9,0)" xlink:href="#aD"/><use transform="matrix(0.05,0,0,0.05,19,0)" xlink:href="#bu"/><use transform="matrix(0.05,0,0,0.05,22.95,0)" xlink:href="#aL"/><use transform="matrix(0.05,0,0,0.05,31.950000000000003,0)" xlink:href="#bE"/><use transform="matrix(0.05,0,0,0.05,41.95,0)" xlink:href="#bc"/><use transform="matrix(0.05,0,0,0.05,51.95,0)" xlink:href="#aH"/><use transform="matrix(0.05,0,0,0.05,61.95,0)" xlink:href="#aI"/><use transform="matrix(0.05,0,0,0.05,67.9,0)" xlink:href="#aK"/><use transform="matrix(0.05,0,0,0.05,71.85000000000001,0)" xlink:href="#bd"/><use transform="matrix(0.05,0,0,0.05,81.85000000000001,0)" xlink:href="#be"/><use transform="matrix(0.05,0,0,0.05,91.85000000000001,0)" xlink:href="#aK"/><use transform="matrix(0.05,0,0,0.05,95.80000000000001,0)" xlink:href="#aL"/><use transform="matrix(0.05,0,0,0.05,104.80000000000001,0)" xlink:href="#bE"/><use transform="matrix(0.05,0,0,0.05,114.80000000000001,0)" xlink:href="#bc"/><use transform="matrix(0.05,0,0,0.05,124.80000000000001,0)" xlink:href="#aH"/><use transform="matrix(0.05,0,0,0.05,134.8,0)" xlink:href="#aI"/><use transform="matrix(0.05,0,0,0.05,140.75,0)" xlink:href="#aL"/><use transform="matrix(0.05,0,0,0.05,149.75,0)" xlink:href="#aH"/><use transform="matrix(0.05,0,0,0.05,159.75,0)" xlink:href="#bm"/><use transform="matrix(0.05,0,0,0.05,169.75,0)" xlink:href="#aY"/><use transform="matrix(0.05,0,0,0.05,174.75,0)" xlink:href="#aD"/><use transform="matrix(0.05,0,0,0.05,184.75,0)" xlink:href="#bF"/><use transform="matrix(0.05,0,0,0.05,194.75,0)" xlink:href="#aH"/><use transform="matrix(0.05,0,0,0.05,204.75,0)" xlink:href="#bz"/><use transform="matrix(0.05,0,0,0.05,210.69999999999996,0)" xlink:href="#aY"/><use transform="matrix(0.05,0,0,0.05,215.69999999999996,0)" xlink:href="#aD"/><use transform="matrix(0.05,0,0,0.05,225.69999999999996,0)" xlink:href="#aE"/><use transform="matrix(0.05,0,0,0.05,234.69999999999996,0)" xlink:href="#aF"/><use transform="matrix(0.05,0,0,0.05,243.69999999999996,0)" xlink:href="#aZ"/><use transform="matrix(0.05,0,0,0.05,253.69999999999996,0)" xlink:href="#aK"/><use transform="matrix(0.05,0,0,0.05,257.65,0)" xlink:href="#aE"/><use transform="matrix(0.05,0,0,0.05,266.65,0)" xlink:href="#aY"/><use transform="matrix(0.05,0,0,0.05,271.65,0)" xlink:href="#bZ"/><use transform="matrix(0.05,0,0,0.05,276.65,0)" xlink:href="#aE"/><use transform="matrix(0.05,0,0,0.05,285.65,0)" xlink:href="#aY"/><use transform="matrix(0.05,0,0,0.05,290.65,0)" xlink:href="#aD"/><use transform="matrix(0.05,0,0,0.05,300.65,0)" xlink:href="#aI"/><use transform="matrix(0.05,0,0,0.05,306.59999999999997,0)" xlink:href="#aY"/><use transform="matrix(0.05,0,0,0.05,311.59999999999997,0)" xlink:href="#bA"/><use transform="matrix(0.05,0,0,0.05,317.54999999999995,0)" xlink:href="#aM"/></g><g id="ah"><use transform="matrix(0.05,0,0,0.05,0,0)" xlink:href="#br"/><use transform="matrix(0.05,0,0,0.05,10,0)" xlink:href="#bB"/><use transform="matrix(0.05,0,0,0.05,20,0)" xlink:href="#bB"/><use transform="matrix(0.05,0,0,0.05,30,0)" xlink:href="#bC"/><use transform="matrix(0.05,0,0,0.05,33.95,0)" xlink:href="#bs"/><use transform="matrix(0.05,0,0,0.05,43.95,0)" xlink:href="#bD"/><use transform="matrix(0.05,0,0,0.05,53.95,0)" xlink:href="#bj"/></g><path d="M133-34C117-15 103 5 69 4 32 3 11-16 11-54c-1-60 55-63 116-61 1-26-3-47-28-47-18 1-26 9-28 27l-52-2c7-38 36-58 82-57s74 22 75 68l1 82c-1 14 12 18 25 15v27c-30 8-71 5-69-32zm-48 3c29 0 43-24 42-57-32 0-66-3-65 30 0 17 8 27 23 27" id="ci"/><path d="M135-194c53 0 70 44 70 98 0 56-19 98-73 100-31 1-45-17-59-34 3 33 2 69 2 105H25l-1-265h48c2 10 0 23 3 31 11-24 29-35 60-35zM114-30c33 0 39-31 40-66 0-38-9-64-40-64-56 0-55 130 0 130" id="cj"/><path d="M4 7l51-268h42L46 7H4" id="ck"/><path d="M14-72v-43h91v43H14" id="cl"/><path d="M135-150c-39-12-60 13-60 57V0H25l-1-190h47c2 13-1 29 3 40 6-28 27-53 61-41v41" id="cm"/><path d="M110-194c64 0 96 36 96 99 0 64-35 99-97 99-61 0-95-36-95-99 0-62 34-99 96-99zm-1 164c35 0 45-28 45-65 0-40-10-65-43-65-34 0-45 26-45 65 0 36 10 65 43 65" id="cn"/><path d="M85 4C-2 5 27-109 22-190h50c7 57-23 150 33 157 60-5 35-97 40-157h50l1 190h-47c-2-12 1-28-3-38-12 25-28 42-61 42" id="co"/><path d="M115-3C79 11 28 4 28-45v-112H4v-33h27l15-45h31v45h36v33H77v99c-1 23 16 31 38 25v30" id="cp"/><path d="M25-224v-37h50v37H25zM25 0v-190h50V0H25" id="cq"/><path d="M135-194c87-1 58 113 63 194h-50c-7-57 23-157-34-157-59 0-34 97-39 157H25l-1-190h47c2 12-1 28 3 38 12-26 28-41 61-42" id="cr"/><path d="M195-6C206 82 75 100 31 46c-4-6-6-13-8-21l49-6c3 16 16 24 34 25 40 0 42-37 40-79-11 22-30 35-61 35-53 0-70-43-70-97 0-56 18-96 73-97 30 0 46 14 59 34l2-30h47zm-90-29c32 0 41-27 41-63 0-35-9-62-40-62-32 0-39 29-40 63 0 36 9 62 39 62" id="cs"/><path d="M24 0v-54h51V0H24" id="ct"/><path d="M220-157c-53 9-28 100-34 157h-49v-107c1-27-5-49-29-50C55-147 81-57 75 0H25l-1-190h47c2 12-1 28 3 38 10-53 101-56 108 0 13-22 24-43 59-42 82 1 51 116 57 194h-49v-107c-1-25-5-48-29-50" id="cu"/><path d="M88-194c31-1 46 15 58 34l-1-101h50l1 261h-48c-2-10 0-23-3-31C134-8 116 4 84 4 32 4 16-41 15-95c0-56 19-97 73-99zm17 164c33 0 40-30 41-66 1-37-9-64-41-64s-38 30-39 65c0 43 13 65 39 65" id="cv"/><path d="M25 0v-261h50V0H25" id="cw"/><path d="M185-48c-13 30-37 53-82 52C43 2 14-33 14-96s30-98 90-98c62 0 83 45 84 108H66c0 31 8 55 39 56 18 0 30-7 34-22zm-45-69c5-46-57-63-70-21-2 6-4 13-4 21h74" id="cx"/><path d="M137-138c1-29-70-34-71-4 15 46 118 7 119 86 1 83-164 76-172 9l43-7c4 19 20 25 44 25 33 8 57-30 24-41C81-84 22-81 20-136c-2-80 154-74 161-7" id="cy"/><g id="ai"><use transform="matrix(0.05,0,0,0.05,0,0)" xlink:href="#ci"/><use transform="matrix(0.05,0,0,0.05,10,0)" xlink:href="#cj"/><use transform="matrix(0.05,0,0,0.05,20.950000000000003,0)" xlink:href="#cj"/><use transform="matrix(0.05,0,0,0.05,31.900000000000006,0)" xlink:href="#ck"/><use transform="matrix(0.05,0,0,0.05,36.900000000000006,0)" xlink:href="#ci"/><use transform="matrix(0.05,0,0,0.05,46.900000000000006,0)" xlink:href="#cj"/><use transform="matrix(0.05,0,0,0.05,57.85,0)" xlink:href="#cj"/><use transform="matrix(0.05,0,0,0.05,68.80000000000001,0)" xlink:href="#cl"/><use transform="matrix(0.05,0,0,0.05,74.75000000000001,0)" xlink:href="#cm"/><use transform="matrix(0.05,0,0,0.05,81.75000000000001,0)" xlink:href="#cn"/><use transform="matrix(0.05,0,0,0.05,92.70000000000002,0)" xlink:href="#co"/><use transform="matrix(0.05,0,0,0.05,103.65000000000003,0)" xlink:href="#cp"/><use transform="matrix(0.05,0,0,0.05,109.60000000000002,0)" xlink:href="#cq"/><use transform="matrix(0.05,0,0,0.05,114.60000000000002,0)" xlink:href="#cr"/><use transform="matrix(0.05,0,0,0.05,125.55000000000003,0)" xlink:href="#cs"/><use transform="matrix(0.05,0,0,0.05,136.50000000000003,0)" xlink:href="#ct"/><use transform="matrix(0.05,0,0,0.05,141.50000000000003,0)" xlink:href="#cu"/><use transform="matrix(0.05,0,0,0.05,157.50000000000003,0)" xlink:href="#cn"/><use transform="matrix(0.05,0,0,0.05,168.45000000000002,0)" xlink:href="#cv"/><use transform="matrix(0.05,0,0,0.05,179.4,0)" xlink:href="#co"/><use transform="matrix(0.05,0,0,0.05,190.35,0)" xlink:href="#cw"/><use transform="matrix(0.05,0,0,0.05,195.35,0)" xlink:href="#cx"/><use transform="matrix(0.05,0,0,0.05,205.35000000000002,0)" xlink:href="#ct"/><use transform="matrix(0.05,0,0,0.05,210.35000000000002,0)" xlink:href="#cp"/><use transform="matrix(0.05,0,0,0.05,216.29999999999995,0)" xlink:href="#cy"/></g><path fill="#706148" d="M205 0l-28-72H64L36 0H1l101-248h38L239 0h-34zm-38-99l-47-123c-12 45-31 82-46 123h93" id="cz"/><path fill="#706148" d="M233-177c-1 41-23 64-60 70L243 0h-38l-65-103H63V0H30v-248c88 3 205-21 203 71zM63-129c60-2 137 13 137-47 0-61-80-42-137-45v92" id="cA"/><path fill="#706148" d="M240 0l2-218c-23 76-54 145-80 218h-23L58-218 59 0H30v-248h44l77 211c21-75 51-140 76-211h43V0h-30" id="cB"/><g id="aj"><use transform="matrix(0.05,0,0,0.05,0,0)" xlink:href="#cz"/><use transform="matrix(0.05,0,0,0.05,12,0)" xlink:href="#bc"/><use transform="matrix(0.05,0,0,0.05,22,0)" xlink:href="#bc"/><use transform="matrix(0.05,0,0,0.05,32,0)" xlink:href="#cA"/><use transform="matrix(0.05,0,0,0.05,44.95,0)" xlink:href="#bd"/><use transform="matrix(0.05,0,0,0.05,54.95,0)" xlink:href="#bt"/><use transform="matrix(0.05,0,0,0.05,64.95,0)" xlink:href="#aY"/><use transform="matrix(0.05,0,0,0.05,69.95,0)" xlink:href="#aK"/><use transform="matrix(0.05,0,0,0.05,73.9,0)" xlink:href="#bm"/><use transform="matrix(0.05,0,0,0.05,83.9,0)" xlink:href="#bF"/><use transform="matrix(0.05,0,0,0.05,93.9,0)" xlink:href="#cB"/><use transform="matrix(0.05,0,0,0.05,108.85000000000001,0)" xlink:href="#bd"/><use transform="matrix(0.05,0,0,0.05,118.85000000000001,0)" xlink:href="#be"/><use transform="matrix(0.05,0,0,0.05,128.85000000000002,0)" xlink:href="#bt"/><use transform="matrix(0.05,0,0,0.05,138.85000000000002,0)" xlink:href="#bu"/><use transform="matrix(0.05,0,0,0.05,142.8,0)" xlink:href="#aH"/></g><path fill="#706148" d="M85 4C-2 5 27-109 22-190h50c7 57-23 150 33 157 60-5 35-97 40-157h50l1 190h-47c-2-12 1-28-3-38-12 25-28 42-61 42" id="cC"/><g id="ak"><use transform="matrix(0.05,0,0,0.05,0,0)" xlink:href="#bW"/><use transform="matrix(0.05,0,0,0.05,7,0)" xlink:href="#aw"/><use transform="matrix(0.05,0,0,0.05,17.950000000000003,0)" xlink:href="#cC"/><use transform="matrix(0.05,0,0,0.05,28.900000000000006,0)" xlink:href="#aA"/><use transform="matrix(0.05,0,0,0.05,34.85000000000001,0)" xlink:href="#az"/><use transform="matrix(0.05,0,0,0.05,44.85000000000001,0)" xlink:href="#ap"/></g><g id="al"><use transform="matrix(0.05,0,0,0.05,0,0)" xlink:href="#aI"/><use transform="matrix(0.05,0,0,0.05,5.95,0)" xlink:href="#bd"/><use transform="matrix(0.05,0,0,0.05,15.949999999999998,0)" xlink:href="#bt"/><use transform="matrix(0.05,0,0,0.05,25.950000000000003,0)" xlink:href="#aY"/><use transform="matrix(0.05,0,0,0.05,30.950000000000003,0)" xlink:href="#aH"/><use transform="matrix(0.05,0,0,0.05,40.95,0)" xlink:href="#aE"/><use transform="matrix(0.05,0,0,0.05,49.95,0)" xlink:href="#aM"/></g><g id="am"><use transform="matrix(0.05,0,0,0.05,0,0)" xlink:href="#cA"/><use transform="matrix(0.05,0,0,0.05,12.950000000000001,0)" xlink:href="#bd"/><use transform="matrix(0.05,0,0,0.05,22.950000000000003,0)" xlink:href="#bt"/><use transform="matrix(0.05,0,0,0.05,32.95,0)" xlink:href="#aY"/><use transform="matrix(0.05,0,0,0.05,37.95,0)" xlink:href="#aH"/><use transform="matrix(0.05,0,0,0.05,47.95,0)" xlink:href="#aE"/></g></defs></g></svg>