<svg xmlns="http://www.w3.org/2000/svg" xmlns:xlink="http://www.w3.org/1999/xlink" xmlns:lucid="lucid" width="1872.87" height="801"><g transform="translate(1 -100)" lucid:page-tab-id="DLY1c_t5T8xj"><path d="M0 0h1870.87v1322.83H0z" fill="#fff"/><path d="M982 146h510c4.42 0 8 3.58 8 8v118c0 4.42-3.58 8-8 8H108c-4.42 0-8-3.58-8-8V128c0-4.42 3.58-8 8-8h824c4.42 0 11.05 1.9 14.8 4.2zm-882 0h882" stroke="#19967d" stroke-width="4" fill="#ffeca9"/><use xlink:href="#a" transform="matrix(1,0,0,1,108,120) translate(0 16.6)"/><path d="M1174 386h669.87c4.4 0 8 3.58 8 8v98c0 4.42-3.6 8-8 8H27c-4.42 0-8-3.58-8-8V368c0-4.42 3.58-8 8-8h1084c4.42 0 11.24 1.53 15.23 3.42zM19 386h1155" stroke="#19967d" stroke-width="4" fill="#ffeca9"/><use xlink:href="#b" transform="matrix(1,0,0,1,27,360) translate(0 16.6)"/><path d="M1174 586h669.87c4.4 0 8 3.58 8 8v256.58c0 4.42-3.6 8-8 8H27c-4.42 0-8-3.58-8-8V568c0-4.42 3.58-8 8-8h1084c4.42 0 11.24 1.53 15.23 3.42zM19 586h1155" stroke="#19967d" stroke-width="4" fill="#ffeca9"/><use xlink:href="#c" transform="matrix(1,0,0,1,27,560) translate(0 16.6)"/><path d="M1302 608c0-4.42 3.58-8 8-8h124c4.42 0 8 3.58 8 8v44c0 4.42-3.58 8-8 8h-124c-4.42 0-8-3.58-8-8z" stroke="#2988fa" stroke-width="4" fill="#fff"/><use xlink:href="#d" transform="matrix(1,0,0,1,1310,608) translate(13.574999999999996 25.6)"/><path d="M1382 428c0-4.42 3.58-8 8-8h164c4.42 0 8 3.58 8 8v44c0 4.42-3.58 8-8 8h-164c-4.42 0-8-3.58-8-8z" stroke="#2988fa" stroke-width="4" fill="#fff"/><use xlink:href="#e" transform="matrix(1,0,0,1,1390,428) translate(-3.8500000000000085 25.6)"/><path d="M1632 748c0-4.42 3.58-8 8-8h144c4.42 0 8 3.58 8 8v44c0 4.42-3.58 8-8 8h-144c-4.42 0-8-3.58-8-8z" stroke="#2988fa" stroke-width="4" fill="#fff"/><use xlink:href="#f" transform="matrix(1,0,0,1,1640,748) translate(3.625 25.6)"/><path d="M1402 748c0-4.42 3.58-8 8-8h144c4.42 0 8 3.58 8 8v44c0 4.42-3.58 8-8 8h-144c-4.42 0-8-3.58-8-8z" stroke="#2988fa" stroke-width="4" fill="#fff"/><use xlink:href="#g" transform="matrix(1,0,0,1,1410,748) translate(2.6499999999999915 25.6)"/><path d="M1172 748c0-4.42 3.58-8 8-8h144c4.42 0 8 3.58 8 8v44c0 4.42-3.58 8-8 8h-144c-4.42 0-8-3.58-8-8z" stroke="#2988fa" stroke-width="4" fill="#fff"/><use xlink:href="#h" transform="matrix(1,0,0,1,1180,748) translate(0.625 25.6)"/><path d="M942 748c0-4.42 3.58-8 8-8h144c4.42 0 8 3.58 8 8v44c0 4.42-3.58 8-8 8H950c-4.42 0-8-3.58-8-8z" stroke="#2988fa" stroke-width="4" fill="#fff"/><use xlink:href="#i" transform="matrix(1,0,0,1,950,748) translate(8.099999999999994 25.6)"/><path d="M560 188c0-4.42 3.58-8 8-8h124c4.42 0 8 3.58 8 8v44c0 4.42-3.58 8-8 8H568c-4.42 0-8-3.58-8-8z" stroke="#2988fa" stroke-width="4" fill="#fff"/><use xlink:href="#j" transform="matrix(1,0,0,1,568,188) translate(36.05 25.6)"/><path d="M195 188c0-4.42 3.58-8 8-8h124c4.42 0 8 3.58 8 8v44c0 4.42-3.58 8-8 8H203c-4.42 0-8-3.58-8-8z" stroke="#2988fa" stroke-width="4" fill="#fff"/><use xlink:href="#k" transform="matrix(1,0,0,1,203,188) translate(25.549999999999997 25.6)"/><path d="M1262 188c0-4.42 3.58-8 8-8h124c4.42 0 8 3.58 8 8v44c0 4.42-3.58 8-8 8h-124c-4.42 0-8-3.58-8-8z" stroke="#2988fa" stroke-width="4" fill="#fff"/><use xlink:href="#l" transform="matrix(1,0,0,1,1270,188) translate(43.525 25.6)"/><path d="M922 428c0-4.42 3.58-8 8-8h184c4.42 0 8 3.58 8 8v44c0 4.42-3.58 8-8 8H930c-4.42 0-8-3.58-8-8z" stroke="#2988fa" stroke-width="4" fill="#fff"/><use xlink:href="#m" transform="matrix(1,0,0,1,930,428) translate(13.099999999999994 25.6)"/><path d="M1592 428c0-4.42 3.58-8 8-8h164c4.42 0 8 3.58 8 8v44c0 4.42-3.58 8-8 8h-164c-4.42 0-8-3.58-8-8z" stroke="#2988fa" stroke-width="4" fill="#fff"/><use xlink:href="#n" transform="matrix(1,0,0,1,1600,428) translate(-2.875 25.6)"/><path d="M560 428c0-4.42 3.58-8 8-8h124c4.42 0 8 3.58 8 8v44c0 4.42-3.58 8-8 8H568c-4.42 0-8-3.58-8-8z" stroke="#2988fa" stroke-width="4" fill="#fff"/><use xlink:href="#o" transform="matrix(1,0,0,1,568,428) translate(-0.45000000000000284 25.6)"/><path d="M1152 428c0-4.42 3.58-8 8-8h184c4.42 0 8 3.58 8 8v44c0 4.42-3.58 8-8 8h-184c-4.42 0-8-3.58-8-8z" stroke="#2988fa" stroke-width="4" fill="#fff"/><use xlink:href="#p" transform="matrix(1,0,0,1,1160,428) translate(27.07499999999999 25.6)"/><path d="M178 428c0-4.42 3.58-8 8-8h164c4.42 0 8 3.58 8 8v44c0 4.42-3.58 8-8 8H186c-4.42 0-8-3.58-8-8z" stroke="#2988fa" stroke-width="4" fill="#fff"/><use xlink:href="#q" transform="matrix(1,0,0,1,186,428) translate(-0.9000000000000057 25.6)"/><path d="M178 608c0-4.42 3.58-8 8-8h164c4.42 0 8 3.58 8 8v44c0 4.42-3.58 8-8 8H186c-4.42 0-8-3.58-8-8z" stroke="#2988fa" stroke-width="4" fill="#fff"/><use xlink:href="#r" transform="matrix(1,0,0,1,186,608) translate(15.599999999999994 25.6)"/><path d="M158 748c0-4.42 3.58-8 8-8h224c4.42 0 8 3.58 8 8v44c0 4.42-3.58 8-8 8H166c-4.42 0-8-3.58-8-8z" stroke="#2988fa" stroke-width="4" fill="#fff"/><use xlink:href="#s" transform="matrix(1,0,0,1,166,748) translate(29.125 25.6)"/><path d="M1252 417v-11.83m0-11.84v-23.66m0-11.84V346l.54-4.15 1.6-3.84m5.86-5.86l3.85-1.6 4.15-.54h14.67m14.66 0H1312l4.15-.54 3.84-1.6m5.86-5.86l1.6-3.85.54-4.15v-11.7m0-11.7v-23.4m0-11.68v-11.7" stroke="#c92d39" stroke-width="2" fill="none"/><path d="M1253 418h-2v-1.03h2z" fill="#c92d39"/><path d="M1338.18 261.18L1328 243.96l-10.18 17.22M1472 417v-11.83m0-11.84v-23.66m0-11.84V346l-.54-4.15-1.6-3.84m-5.86-5.86l-3.85-1.6-4.15-.54h-9m-9 0h-18m-9 0h-18m-9 0h-18m-9 0h-9l-4.15-.54-3.84-1.6m-5.86-5.86l-1.6-3.85-.54-4.15v-11.7m0-11.7v-23.4m0-11.68v-11.7" stroke="#c92d39" stroke-width="2" fill="none"/><path d="M1473 418h-2v-1.03h2z" fill="#c92d39"/><path d="M1342.18 261.18L1332 243.96l-10.18 17.22M1022 417v-11.83m0-11.84v-23.66m0-11.84V346l.54-4.15 1.6-3.84m5.86-5.86l3.85-1.6 4.15-.54h10.3m10.3 0h20.6m10.28 0h20.6m10.3 0h20.58m10.3 0h20.6m10.3 0h20.58m10.3 0h20.6m10.3 0h20.58m10.3 0h20.6m10.28 0h10.3l4.15-.54 3.84-1.6m5.86-5.86l1.6-3.85.54-4.15v-11.7m0-11.7v-23.4m0-11.68v-11.7" stroke="#c92d39" stroke-width="2" fill="none"/><path d="M1023 418h-2v-1.03h2z" fill="#c92d39"/><path d="M1342.18 261.18L1332 243.96l-10.18 17.22M1372 597v-41c0-8.84-7.16-16-16-16h-88c-8.84 0-16-7.16-16-16v-11.25" stroke="#c92d39" stroke-width="2" fill="none"/><path d="M1373 598h-2v-1.03h2z" fill="#c92d39"/><path d="M1252 483.4l14.85 14.86L1252 513.4l-14.85-15.14z" stroke="#c92d39" stroke-width="2" fill="#c92d39"/><path d="M1372 597v-41c0-8.84 7.16-16 16-16h68c8.84 0 16-7.16 16-16v-11.25" stroke="#c92d39" stroke-width="2" fill="none"/><path d="M1373 598h-2v-1.03h2z" fill="#c92d39"/><path d="M1472 483.4l14.85 14.86L1472 513.4l-14.85-15.14z" stroke="#c92d39" stroke-width="2" fill="#c92d39"/><path d="M1372 597v-41c0-8.84-7.16-16-16-16h-318c-8.84 0-16-7.16-16-16v-11.25" stroke="#c92d39" stroke-width="2" fill="none"/><path d="M1373 598h-2v-1.03h2z" fill="#c92d39"/><path d="M1022 483.4l14.85 14.86L1022 513.4l-14.85-15.14z" stroke="#c92d39" stroke-width="2" fill="#c92d39"/><path d="M1372 597v-41c0-8.84 7.16-16 16-16h278c8.84 0 16-7.16 16-16v-11.25" stroke="#c92d39" stroke-width="2" fill="none"/><path d="M1373 598h-2v-1.03h2z" fill="#c92d39"/><path d="M1682 483.4l14.85 14.86L1682 513.4l-14.85-15.14z" stroke="#c92d39" stroke-width="2" fill="#c92d39"/><path d="M1252 737v-21c0-8.84 7.16-16 16-16h96.75c4 0 7.25-3.25 7.25-7.25" stroke="#c92d39" stroke-width="2" fill="none"/><path d="M1253 738h-2v-1.03h2z" fill="#c92d39"/><path d="M1372 663.4l14.85 14.86L1372 693.4l-14.85-15.14z" stroke="#c92d39" stroke-width="2" fill="#c92d39"/><path d="M1022 737v-21c0-8.84 7.16-16 16-16h326.75c4 0 7.25-3.25 7.25-7.25" stroke="#c92d39" stroke-width="2" fill="none"/><path d="M1023 738h-2v-1.03h2z" fill="#c92d39"/><path d="M1372 663.4l14.85 14.86L1372 693.4l-14.85-15.14z" stroke="#c92d39" stroke-width="2" fill="#c92d39"/><path d="M1482 737v-21c0-8.84-7.16-16-16-16h-86.75c-4 0-7.25-3.25-7.25-7.25" stroke="#c92d39" stroke-width="2" fill="none"/><path d="M1483 738h-2v-1.03h2z" fill="#c92d39"/><path d="M1372 663.4l14.85 14.86L1372 693.4l-14.85-15.14z" stroke="#c92d39" stroke-width="2" fill="#c92d39"/><path d="M1712 737v-21c0-8.84-7.16-16-16-16h-316.75c-4 0-7.25-3.25-7.25-7.25" stroke="#c92d39" stroke-width="2" fill="none"/><path d="M1713 738h-2v-1.03h2z" fill="#c92d39"/><path d="M1372 663.4l14.85 14.86L1372 693.4l-14.85-15.14z" stroke="#c92d39" stroke-width="2" fill="#c92d39"/><path d="M1795 770h7.67m7.66 0h7.67l4.15-.54 3.84-1.6m5.86-5.86l1.6-3.85.54-4.15v-9.78m0-9.78V714.9m0-9.8v-19.54m0-9.78v-19.56m0-9.78V626.9m0-9.8v-19.54m0-9.78v-19.56m0-9.78V538.9m0-9.8v-19.54m0-9.78v-19.56m0-9.78V450.9m0-9.8v-19.54m0-9.78v-19.56m0-9.78V362.9m0-9.8v-19.54m0-9.78v-19.56m0-9.78V274.9m0-9.8v-19.54m0-9.78V226l-.54-4.15-1.6-3.84m-5.86-5.86l-3.85-1.6-4.15-.54h-9.8m-9.83 0h-19.63m-9.8 0h-19.64m-9.8 0h-19.64m-9.8 0h-19.64m-9.8 0h-19.64m-9.82 0h-19.62m-9.82 0h-19.62m-9.82 0h-19.63m-9.8 0h-19.64m-9.8 0h-19.63m-9.8 0h-19.64m-9.8 0h-19.64m-9.83 0h-19.62m-9.82 0h-9.8" stroke="#c92d39" stroke-width="2" fill="none"/><path d="M1795.03 771H1794v-2h1.03z" fill="#c92d39"/><path d="M1423.18 199.82L1405.96 210l17.22 10.18M939 770h-7.67m-7.66 0H916l-4.15-.54-3.84-1.6m-5.86-5.86l-1.6-3.85L900 754v-9.78m0-9.78V714.9m0-9.8v-19.54m0-9.78v-19.56m0-9.78V626.9m0-9.8v-19.54m0-9.78v-19.56m0-9.78V538.9m0-9.8v-19.54m0-9.78v-19.56m0-9.78V450.9m0-9.8v-19.54m0-9.78v-19.56m0-9.78V362.9m0-9.8v-19.54m0-9.78v-19.56m0-9.78V274.9m0-9.8v-19.54m0-9.78V226l.54-4.15 1.6-3.84m5.86-5.86l3.85-1.6L916 210h10.37m10.37 0h20.74m10.37 0h20.73m10.37 0h20.74m10.36 0h20.74m10.37 0h20.74m10.38 0H1113m10.38 0h20.74m10.37 0h20.73m10.37 0h20.74m10.37 0h20.74m10.37 0h10.38" stroke="#c92d39" stroke-width="2" fill="none"/><path d="M940 771h-1.03v-2H940z" fill="#c92d39"/><path d="M1240.82 220.18l17.22-10.18-17.22-10.18M1252 803v7.67m0 7.66V826l-.54 4.15-1.6 3.84m-5.86 5.86l-3.85 1.6-4.15.54h-9.64m-9.63 0h-19.28m-9.63 0h-19.27m-9.64 0h-19.26m-9.64 0h-19.27m-9.64 0h-19.28m-9.64 0h-19.27m-9.63 0H1024m-9.64 0H995.1m-9.65 0h-19.27m-9.63 0h-19.28m-9.63 0H918l-4.15-.54-3.84-1.6m-5.86-5.86l-1.6-3.85L902 826v-10m0-10v-20m0-10v-20m0-10v-20m0-10v-20m0-10v-20m0-10v-20m0-10v-20m0-10v-20m0-10v-20m0-10v-20m0-10v-20m0-10v-20m0-10v-20m0-10v-20m0-10v-20m0-10v-20m0-10v-20m0-10v-20m0-10v-20m0-10v-10l.54-4.15 1.6-3.84m5.86-5.86l3.85-1.6L918 210h10.3m10.32 0h20.6m10.32 0h20.62m10.3 0h20.63m10.3 0h20.6m10.32 0h20.62m10.3 0h20.62m10.3 0h20.63m10.3 0h20.6m10.32 0h20.62m10.3 0h20.62m10.3 0h10.32" stroke="#c92d39" stroke-width="2" fill="none"/><path d="M1253 803.03h-2V802h2z" fill="#c92d39"/><path d="M1240.82 220.18l17.22-10.18-17.22-10.18M1482 803v7.67m0 7.66V826l.54 4.15 1.6 3.84m5.86 5.86l3.85 1.6 4.15.54h9.64m9.63 0h19.28m9.63 0h19.27m9.64 0h19.26m9.64 0h19.27m9.64 0h19.28m9.64 0h19.27m9.63 0H1710m9.64 0h19.27m9.65 0h19.27m9.63 0h19.28m9.63 0h9.64l4.15-.54 3.84-1.6m5.86-5.86l1.6-3.85.54-4.15v-10m0-10v-20m0-10v-20m0-10v-20m0-10v-20m0-10v-20m0-10v-20m0-10v-20m0-10v-20m0-10v-20m0-10v-20m0-10v-20m0-10v-20m0-10v-20m0-10v-20m0-10v-20m0-10v-20m0-10v-20m0-10v-20m0-10v-20m0-10v-10l-.54-4.15-1.6-3.84m-5.86-5.86l-3.85-1.6-4.15-.54h-9.77m-9.76 0h-19.53m-9.77 0h-19.53m-9.77 0h-19.53m-9.77 0h-19.53m-9.77 0h-19.53m-9.77 0h-19.53m-9.76 0h-19.54m-9.76 0h-19.54m-9.76 0h-19.53m-9.77 0h-19.53m-9.77 0h-19.53m-9.77 0h-19.53m-9.77 0h-19.53m-9.77 0h-9.76" stroke="#c92d39" stroke-width="2" fill="none"/><path d="M1483 803.03h-2V802h2z" fill="#c92d39"/><path d="M1423.18 199.82L1405.96 210l17.22 10.18M1445 630h10.03m10.03 0h20.06m10.03 0h20.06m10.04 0h20.06m10.03 0h20.06m10.02 0h20.06m10.04 0h20.06m10.03 0h20.07m10.03 0h20.06m10.03 0h20.05m10.03 0h20.06m10.03 0H1776l4.15-.54 3.84-1.6m5.86-5.86l1.6-3.85.54-4.15v-9.95m0-9.95v-19.9m0-9.94v-19.9m0-9.95v-19.9m0-9.94v-19.9m0-9.94v-19.9m0-9.95v-19.9m0-9.94v-19.9m0-9.95v-19.9m0-9.95v-19.9m0-9.94v-19.9m0-9.96v-19.9m0-9.95v-19.9m0-9.95V226l-.54-4.15-1.6-3.84m-5.86-5.86l-3.85-1.6-4.15-.54h-10.28m-10.3 0h-20.55m-10.28 0H1704m-10.28 0h-20.57m-10.28 0h-20.58m-10.28 0h-20.57m-10.28 0h-20.57m-10.3 0h-20.55m-10.3 0h-20.55m-10.28 0h-20.57m-10.28 0h-20.57m-10.28 0h-20.57m-10.28 0h-10.28" stroke="#c92d39" stroke-width="2" fill="none"/><path d="M1445.03 631H1444v-2h1.03z" fill="#c92d39"/><path d="M1423.18 199.82L1405.96 210l17.22 10.18M1682 387.25V316c0-8.84-7.16-16-16-16h-252.1c-8.84 0-16-7.16-16-16v-41.75" stroke="#c92d39" stroke-width="2" fill="none"/><path d="M1682 416.6l-14.85-14.86L1682 386.6l14.85 15.14z" stroke="#c92d39" stroke-width="2" fill="#c92d39"/><path d="M1398.9 242.28h-2v-.83l1-.2 1-.67z" fill="#c92d39"/><path d="M268 597v-84.25" stroke="#c92d39" stroke-width="2" fill="none"/><path d="M269 598h-2v-1.03h2z" fill="#c92d39"/><path d="M268 483.4l14.85 14.86L268 513.4l-14.85-15.14z" stroke="#c92d39" stroke-width="2" fill="#c92d39"/><path d="M265 387.25V243" stroke="#c92d39" stroke-width="2" fill="none"/><path d="M265 416.6l-14.85-14.86L265 386.6l14.85 15.14z" stroke="#c92d39" stroke-width="2" fill="#c92d39"/><path d="M266 243.03h-2V242h2z" fill="#c92d39"/><path d="M390.75 630c5.1 0 9.25-4.14 9.25-9.25V226c0-8.84-7.16-16-16-16h-46" stroke="#c92d39" stroke-width="2" fill="none"/><path d="M361.4 630l14.86-14.85L391.4 630l-15.14 14.85z" stroke="#c92d39" stroke-width="2" fill="#c92d39"/><path d="M338.03 211H337v-2h1.03z" fill="#c92d39"/><path d="M278 737v-44.25" stroke="#c92d39" stroke-width="2" fill="none"/><path d="M279 738h-2v-1.03h2z" fill="#c92d39"/><path d="M278 663.4l14.85 14.86L278 693.4l-14.85-15.14z" stroke="#c92d39" stroke-width="2" fill="#c92d39"/><path d="M155 770h-7.67m-7.66 0H132l-4.15-.54-3.84-1.6m-5.86-5.86l-1.6-3.85L116 754v-9.78m0-9.78V714.9m0-9.8v-19.54m0-9.78v-19.56m0-9.78V626.9m0-9.8v-19.54m0-9.78v-19.56m0-9.78V538.9m0-9.8v-19.54m0-9.78v-19.56m0-9.78V450.9m0-9.8v-19.54m0-9.78v-19.56m0-9.78V362.9m0-9.8v-19.54m0-9.78v-19.56m0-9.78V274.9m0-9.8v-19.54m0-9.78V226l.54-4.15 1.6-3.84m5.86-5.86l3.85-1.6L132 210h9.86m9.87 0h19.72m9.87 0h9.86" stroke="#c92d39" stroke-width="2" fill="none"/><path d="M156 771h-1.03v-2H156z" fill="#c92d39"/><path d="M173.82 220.18L191.04 210l-17.22-10.18M630 417v-9.62m0-9.62v-19.24m0-9.63v-19.25m0-9.62V320.8m0-9.63v-19.25m0-9.62v-19.24m0-9.62v-9.62" stroke="#c92d39" stroke-width="2" fill="none"/><path d="M631 418h-2v-1.03h2z" fill="#c92d39"/><path d="M640.18 261.18L630 243.96l-10.18 17.22M401 770h10.33m10.34 0h20.66m10.34 0H463l4.15-.54 3.84-1.6m5.86-5.86l1.6-3.85.54-4.15v-9.78m0-9.78V714.9m0-9.8v-19.54m0-9.78v-19.56m0-9.78V626.9m0-9.8v-19.54m0-9.78v-19.56m0-9.78V538.9m0-9.8v-19.54m0-9.78v-19.56m0-9.78V450.9m0-9.8v-19.54m0-9.78v-19.56m0-9.78V362.9m0-9.8v-19.54m0-9.78v-19.56m0-9.78V274.9m0-9.8v-19.54m0-9.78V226l.54-4.15 1.6-3.84m5.86-5.86l3.85-1.6L495 210h10.2m10.2 0h20.4m10.18 0h10.2" stroke="#c92d39" stroke-width="2" fill="none"/><path d="M401.03 771H400v-2h1.03z" fill="#c92d39"/><path d="M538.82 220.18L556.04 210l-17.22-10.18M1294 803v10.17m0 10.16v20.34m0 10.16V864l-.54 4.15-1.6 3.84m-5.86 5.86l-3.85 1.6-4.15.54h-9.84m-9.85 0h-19.67m-9.85 0h-19.68m-9.85 0h-19.68m-9.84 0h-19.7m-9.83 0h-19.7m-9.83 0h-19.7m-9.83 0h-19.7m-9.83 0h-19.68m-9.84 0h-19.7m-9.83 0h-19.7m-9.83 0h-19.7m-9.83 0h-19.7m-9.84 0h-19.7m-9.83 0h-19.68m-9.85 0h-19.68m-9.85 0H795.7m-9.86 0H776l-4.15-.54-3.84-1.6m-5.86-5.86l-1.6-3.85L760 864v-10.13m0-10.12V823.5m0-10.13V793.1m0-10.12v-20.25m0-10.13v-20.25m0-10.13v-20.25m0-10.13V671.6m0-10.14V641.2m0-10.12v-20.25m0-10.13v-20.26m0-10.12v-20.26m0-10.12v-20.26m0-10.12V489.3m0-10.13v-20.25m0-10.13v-20.26m0-10.13v-20.24m0-10.13v-20.25m0-10.13V337.4m0-10.13v-20.25m0-10.13v-20.27m0-10.12v-20.25m0-10.12V226l-.54-4.15-1.6-3.84m-5.86-5.86l-3.85-1.6L744 210h-13.4m-13.4 0h-13.38" stroke="#c92d39" stroke-width="2" fill="none"/><path d="M1295 803.03h-2V802h2z" fill="#c92d39"/><path d="M721.18 199.82L703.96 210l17.22 10.18" stroke="#c92d39" stroke-width="2" fill="none"/><path d="M1430.15 803v11.83m0 11.84v23.66m0 11.84V874l-.55 4.15-1.6 3.84m-5.85 5.86h-.02l-3.83 1.6-4.15.54h-9.95m-9.94 0h-19.88m-9.94 0h-19.9m-9.93 0h-19.87m-9.94 0h-19.9m-9.94 0h-19.88m-9.94 0h-19.88m-9.95 0h-19.87m-9.94 0h-19.9m-9.94 0h-19.88m-9.94 0h-19.88m-9.95 0h-19.87m-9.94 0h-19.9m-9.94 0h-19.88m-9.94 0h-19.88m-9.94 0h-19.9m-9.93 0H927m-9.93 0h-19.9m-9.93 0h-19.88m-9.94 0h-19.9m-9.93 0h-19.9m-9.93 0h-19.9m-9.93 0H758l-4.15-.54-3.84-1.6m-5.86-5.86l-1.6-3.85L742 874v-9.82m0-9.82v-19.63m0-9.82v-19.63m0-9.82v-19.63m0-9.82v-19.64m0-9.8V716.9m0-9.8v-19.65m0-9.8V658m0-9.82v-19.63m0-9.82V599.1m0-9.83v-19.63m0-9.82v-19.64m0-9.82v-19.63m0-9.82v-19.63m0-9.82v-19.63m0-9.82v-19.64m0-9.8V392.9m0-9.8v-19.65m0-9.8V334m0-9.82v-19.63m0-9.82V275.1m0-9.83v-19.63m0-9.82V226l-.54-4.15-1.6-3.84m-5.86-5.86l-3.85-1.6L726 210h-7.4m-7.4 0h-7.38" stroke="#c92d39" stroke-width="2" fill="none"/><path d="M1431.15 803.03h-2V802h2z" fill="#c92d39"/><path d="M721.18 199.82L703.96 210l17.22 10.18M1299 629.98l-4.03-.1m-8.05-.17l-2.3-.04-5.74-.37m-8.03-.53l-8.04-.52m-8-.74l-8.02-.8m-8-.82l-8.02-.8m-8-.82l-8.02-.8m-8.02-.83l-8-.8m-8.02-.82l-8-.8m-8.02-.8l-8-.83m-8.02-.8l-8.02-.82m-8-.8l-8.02-.82m-8-.82l-8.02-.8m-8-.8l-8.02-.82m-8.02-.8l-8-.83m-8.02-.8l-.66-.07-7.4-.17m-8.04-.16l-8.05-.18m-8.06.07l-8.05.17m-8.06.23l-8.03.5m-8.03.53l-8 .84m-8 .9l-4.2.57-3.77.64m-7.94 1.35l-1.86.32-6.03 1.28m-7.88 1.67l-2.18.47-5.65 1.44m-7.8 2l-7.8 2.02m-7.74 2.18l-7.75 2.2m-7.74 2.2l-7.75 2.22m-7.75 2.2l-7.75 2.2m-7.74 2.2l-6.04 1.73-1.74.36m-7.9 1.6l-3.86.66-4.1.52m-8.02.47h-1.57l-2.3-.1-2.07-.17-1.86-.23-.23-.04m-7.76-2.08l-.46-.18-1.12-.5-1.07-.53-1.02-.57-.98-.6-.95-.62-.92-.67-.42-.33m-5.53-5.82l-.74-1.07-.8-1.25-.8-1.37-.77-1.5-.8-1.67-.04-.15m-2.67-7.6l-.35-1.25-.72-3.1-.66-3.5m-1.03-8l-.18-1.7-.4-6.32m-.12-8.05l.05-8.05m.05-8.05l.03-3.92.2-4.12m.4-8.05l.38-8.04m.4-8.05v-.3l.7-7.72m.74-8.02l.73-8m.73-8.03l.63-6.95.15-1.07m1.03-7.98l1.04-8m1.04-7.97l1.03-8m1.03-7.97l1.03-8m1.04-7.97l1.03-8m1.04-7.98l1.03-7.98m1.04-8l1.03-7.97m1.04-8l1.04-7.97m1.04-8l1.04-7.98m1.03-7.98l1.04-8m1.02-7.97l1.04-8m1.03-7.97l1.03-8m.6-8.02l.38-8.04m.2-8.05l.06-8.05m-.28-8.05l-.07-1.98-.46-6.05m-.87-8l-.12-.97-.96-5.87-.24-1.1m-1.78-7.86l-.17-.66-1.17-4-1.04-3.03m-3.08-7.44l-1.04-2.14-1.37-2.53-1.4-2.34-.03-.07m-4.73-6.5l-1.2-1.42-1.6-1.7-1.65-1.64-1.14-1.04m-6.36-4.92l-1.74-1.12-2.1-1.24-2.24-1.18-.92-.43m-7.45-3.05l-2.02-.67-3.1-.87-2.62-.63m-7.9-1.43l-.5-.08-4.44-.5-3.1-.2m-8.03-.27l-5.7.1-2.35.13m-8.03.6l-5.26.52-2.75.4m-7.96 1.16l-7.93 1.47m-7.88 1.68l-7.86 1.8m-7.8 2.02l-3.88 1.03" stroke="#c92d39" stroke-width="2" fill="none"/><path d="M1300 629v2l-1.05-.02.04-2z" fill="#c92d39"/><path d="M718 195.33l-14.1 14.18 19.22 5.55" stroke="#c92d39" stroke-width="2" fill="none"/><defs><path d="M220-157c-53 9-28 100-34 157h-49v-107c1-27-5-49-29-50C55-147 81-57 75 0H25l-1-190h47c2 12-1 28 3 38 10-53 101-56 108 0 13-22 24-43 59-42 82 1 51 116 57 194h-49v-107c-1-25-5-48-29-50" id="t"/><path d="M110-194c64 0 96 36 96 99 0 64-35 99-97 99-61 0-95-36-95-99 0-62 34-99 96-99zm-1 164c35 0 45-28 45-65 0-40-10-65-43-65-34 0-45 26-45 65 0 36 10 65 43 65" id="u"/><path d="M88-194c31-1 46 15 58 34l-1-101h50l1 261h-48c-2-10 0-23-3-31C134-8 116 4 84 4 32 4 16-41 15-95c0-56 19-97 73-99zm17 164c33 0 40-30 41-66 1-37-9-64-41-64s-38 30-39 65c0 43 13 65 39 65" id="v"/><path d="M185-48c-13 30-37 53-82 52C43 2 14-33 14-96s30-98 90-98c62 0 83 45 84 108H66c0 31 8 55 39 56 18 0 30-7 34-22zm-45-69c5-46-57-63-70-21-2 6-4 13-4 21h74" id="w"/><path d="M25 0v-261h50V0H25" id="x"/><path d="M137-138c1-29-70-34-71-4 15 46 118 7 119 86 1 83-164 76-172 9l43-7c4 19 20 25 44 25 33 8 57-30 24-41C81-84 22-81 20-136c-2-80 154-74 161-7" id="y"/><g id="a"><use transform="matrix(0.05,0,0,0.05,0,0)" xlink:href="#t"/><use transform="matrix(0.05,0,0,0.05,16,0)" xlink:href="#u"/><use transform="matrix(0.05,0,0,0.05,26.950000000000003,0)" xlink:href="#v"/><use transform="matrix(0.05,0,0,0.05,37.900000000000006,0)" xlink:href="#w"/><use transform="matrix(0.05,0,0,0.05,47.900000000000006,0)" xlink:href="#x"/><use transform="matrix(0.05,0,0,0.05,52.900000000000006,0)" xlink:href="#y"/></g><path d="M190-63c-7 42-38 67-86 67-59 0-84-38-90-98-12-110 154-137 174-36l-49 2c-2-19-15-32-35-32-30 0-35 28-38 64-6 74 65 87 74 30" id="z"/><path d="M135-194c53 0 70 44 70 98 0 56-19 98-73 100-31 1-45-17-59-34 3 33 2 69 2 105H25l-1-265h48c2 10 0 23 3 31 11-24 29-35 60-35zM114-30c33 0 39-31 40-66 0-38-9-64-40-64-56 0-55 130 0 130" id="A"/><path d="M135-194c87-1 58 113 63 194h-50c-7-57 23-157-34-157-59 0-34 97-39 157H25l-1-190h47c2 12-1 28 3 38 12-26 28-41 61-42" id="B"/><path d="M115-3C79 11 28 4 28-45v-112H4v-33h27l15-45h31v45h36v33H77v99c-1 23 16 31 38 25v30" id="C"/><g id="b"><use transform="matrix(0.05,0,0,0.05,0,0)" xlink:href="#z"/><use transform="matrix(0.05,0,0,0.05,10,0)" xlink:href="#u"/><use transform="matrix(0.05,0,0,0.05,20.950000000000003,0)" xlink:href="#t"/><use transform="matrix(0.05,0,0,0.05,36.95,0)" xlink:href="#A"/><use transform="matrix(0.05,0,0,0.05,47.900000000000006,0)" xlink:href="#u"/><use transform="matrix(0.05,0,0,0.05,58.85,0)" xlink:href="#B"/><use transform="matrix(0.05,0,0,0.05,69.80000000000001,0)" xlink:href="#w"/><use transform="matrix(0.05,0,0,0.05,79.80000000000001,0)" xlink:href="#B"/><use transform="matrix(0.05,0,0,0.05,90.75000000000001,0)" xlink:href="#C"/><use transform="matrix(0.05,0,0,0.05,96.70000000000002,0)" xlink:href="#y"/></g><path d="M135-150c-39-12-60 13-60 57V0H25l-1-190h47c2 13-1 29 3 40 6-28 27-53 61-41v41" id="D"/><path d="M128 0H69L1-190h53L99-40l48-150h52" id="E"/><path d="M25-224v-37h50v37H25zM25 0v-190h50V0H25" id="F"/><g id="c"><use transform="matrix(0.05,0,0,0.05,0,0)" xlink:href="#y"/><use transform="matrix(0.05,0,0,0.05,10,0)" xlink:href="#w"/><use transform="matrix(0.05,0,0,0.05,20,0)" xlink:href="#D"/><use transform="matrix(0.05,0,0,0.05,27,0)" xlink:href="#E"/><use transform="matrix(0.05,0,0,0.05,37,0)" xlink:href="#F"/><use transform="matrix(0.05,0,0,0.05,42,0)" xlink:href="#z"/><use transform="matrix(0.05,0,0,0.05,52,0)" xlink:href="#w"/><use transform="matrix(0.05,0,0,0.05,62,0)" xlink:href="#y"/></g><path fill="#706148" d="M127-220V0H93v-220H8v-28h204v28h-85" id="G"/><path fill="#706148" d="M141-36C126-15 110 5 73 4 37 3 15-17 15-53c-1-64 63-63 125-63 3-35-9-54-41-54-24 1-41 7-42 31l-33-3c5-37 33-52 76-52 45 0 72 20 72 64v82c-1 20 7 32 28 27v20c-31 9-61-2-59-35zM48-53c0 20 12 33 32 33 41-3 63-29 60-74-43 2-92-5-92 41" id="H"/><path fill="#706148" d="M135-143c-3-34-86-38-87 0 15 53 115 12 119 90S17 21 10-45l28-5c4 36 97 45 98 0-10-56-113-15-118-90-4-57 82-63 122-42 12 7 21 19 24 35" id="I"/><path fill="#706148" d="M143 0L79-87 56-68V0H24v-261h32v163l83-92h37l-77 82L181 0h-38" id="J"/><path fill="#706148" d="M185-189c-5-48-123-54-124 2 14 75 158 14 163 119 3 78-121 87-175 55-17-10-28-26-33-46l33-7c5 56 141 63 141-1 0-78-155-14-162-118-5-82 145-84 179-34 5 7 8 16 11 25" id="K"/><path fill="#706148" d="M100-194c63 0 86 42 84 106H49c0 40 14 67 53 68 26 1 43-12 49-29l28 8c-11 28-37 45-77 45C44 4 14-33 15-96c1-61 26-98 85-98zm52 81c6-60-76-77-97-28-3 7-6 17-6 28h103" id="L"/><path fill="#706148" d="M114-163C36-179 61-72 57 0H25l-1-190h30c1 12-1 29 2 39 6-27 23-49 58-41v29" id="M"/><path fill="#706148" d="M108 0H70L1-190h34L89-25l56-165h34" id="N"/><path fill="#706148" d="M24-231v-30h32v30H24zM24 0v-190h32V0H24" id="O"/><path fill="#706148" d="M96-169c-40 0-48 33-48 73s9 75 48 75c24 0 41-14 43-38l32 2c-6 37-31 61-74 61-59 0-76-41-82-99-10-93 101-131 147-64 4 7 5 14 7 22l-32 3c-4-21-16-35-41-35" id="P"/><g id="d"><use transform="matrix(0.05,0,0,0.05,0,0)" xlink:href="#G"/><use transform="matrix(0.05,0,0,0.05,8.950000000000001,0)" xlink:href="#H"/><use transform="matrix(0.05,0,0,0.05,18.950000000000003,0)" xlink:href="#I"/><use transform="matrix(0.05,0,0,0.05,27.950000000000003,0)" xlink:href="#J"/><use transform="matrix(0.05,0,0,0.05,36.95,0)" xlink:href="#K"/><use transform="matrix(0.05,0,0,0.05,48.95,0)" xlink:href="#L"/><use transform="matrix(0.05,0,0,0.05,58.95,0)" xlink:href="#M"/><use transform="matrix(0.05,0,0,0.05,64.9,0)" xlink:href="#N"/><use transform="matrix(0.05,0,0,0.05,73.9,0)" xlink:href="#O"/><use transform="matrix(0.05,0,0,0.05,77.85000000000001,0)" xlink:href="#P"/><use transform="matrix(0.05,0,0,0.05,86.85000000000001,0)" xlink:href="#L"/></g><path fill="#706148" d="M63-220v92h138v28H63V0H30v-248h175v28H63" id="Q"/><path fill="#706148" d="M100-194c62-1 85 37 85 99 1 63-27 99-86 99S16-35 15-95c0-66 28-99 85-99zM99-20c44 1 53-31 53-75 0-43-8-75-51-75s-53 32-53 75 10 74 51 75" id="R"/><path fill="#706148" d="M210-169c-67 3-38 105-44 169h-31v-121c0-29-5-50-35-48C34-165 62-65 56 0H25l-1-190h30c1 10-1 24 2 32 10-44 99-50 107 0 11-21 27-35 58-36 85-2 47 119 55 194h-31v-121c0-29-5-49-35-48" id="S"/><path fill="#706148" d="M212-179c-10-28-35-45-73-45-59 0-87 40-87 99 0 60 29 101 89 101 43 0 62-24 78-52l27 14C228-24 195 4 139 4 59 4 22-46 18-125c-6-104 99-153 187-111 19 9 31 26 39 46" id="T"/><path fill="#706148" d="M115-194c55 1 70 41 70 98S169 2 115 4C84 4 66-9 55-30l1 105H24l-1-265h31l2 30c10-21 28-34 59-34zm-8 174c40 0 45-34 45-75s-6-73-45-74c-42 0-51 32-51 76 0 43 10 73 51 73" id="U"/><path fill="#706148" d="M117-194c89-4 53 116 60 194h-32v-121c0-31-8-49-39-48C34-167 62-67 57 0H25l-1-190h30c1 10-1 24 2 32 11-22 29-35 61-36" id="V"/><path fill="#706148" d="M59-47c-2 24 18 29 38 22v24C64 9 27 4 27-40v-127H5v-23h24l9-43h21v43h35v23H59v120" id="W"/><g id="e"><use transform="matrix(0.05,0,0,0.05,0,0)" xlink:href="#G"/><use transform="matrix(0.05,0,0,0.05,8.950000000000001,0)" xlink:href="#H"/><use transform="matrix(0.05,0,0,0.05,18.950000000000003,0)" xlink:href="#I"/><use transform="matrix(0.05,0,0,0.05,27.950000000000003,0)" xlink:href="#J"/><use transform="matrix(0.05,0,0,0.05,36.95,0)" xlink:href="#Q"/><use transform="matrix(0.05,0,0,0.05,47.900000000000006,0)" xlink:href="#R"/><use transform="matrix(0.05,0,0,0.05,57.900000000000006,0)" xlink:href="#M"/><use transform="matrix(0.05,0,0,0.05,63.85,0)" xlink:href="#S"/><use transform="matrix(0.05,0,0,0.05,78.80000000000001,0)" xlink:href="#T"/><use transform="matrix(0.05,0,0,0.05,91.75000000000001,0)" xlink:href="#R"/><use transform="matrix(0.05,0,0,0.05,101.75000000000001,0)" xlink:href="#S"/><use transform="matrix(0.05,0,0,0.05,116.7,0)" xlink:href="#U"/><use transform="matrix(0.05,0,0,0.05,126.7,0)" xlink:href="#R"/><use transform="matrix(0.05,0,0,0.05,136.70000000000002,0)" xlink:href="#V"/><use transform="matrix(0.05,0,0,0.05,146.70000000000002,0)" xlink:href="#L"/><use transform="matrix(0.05,0,0,0.05,156.70000000000002,0)" xlink:href="#V"/><use transform="matrix(0.05,0,0,0.05,166.70000000000002,0)" xlink:href="#W"/></g><path fill="#706148" d="M160-131c35 5 61 23 61 61C221 17 115-2 30 0v-248c76 3 177-17 177 60 0 33-19 50-47 57zm-97-11c50-1 110 9 110-42 0-47-63-36-110-37v79zm0 115c55-2 124 14 124-45 0-56-70-42-124-44v89" id="X"/><path fill="#706148" d="M24 0v-261h32V0H24" id="Y"/><g id="f"><use transform="matrix(0.05,0,0,0.05,0,0)" xlink:href="#G"/><use transform="matrix(0.05,0,0,0.05,8.950000000000001,0)" xlink:href="#H"/><use transform="matrix(0.05,0,0,0.05,18.950000000000003,0)" xlink:href="#I"/><use transform="matrix(0.05,0,0,0.05,27.950000000000003,0)" xlink:href="#J"/><use transform="matrix(0.05,0,0,0.05,36.95,0)" xlink:href="#X"/><use transform="matrix(0.05,0,0,0.05,48.95,0)" xlink:href="#O"/><use transform="matrix(0.05,0,0,0.05,52.900000000000006,0)" xlink:href="#Y"/><use transform="matrix(0.05,0,0,0.05,56.85,0)" xlink:href="#H"/><use transform="matrix(0.05,0,0,0.05,66.85000000000001,0)" xlink:href="#V"/><use transform="matrix(0.05,0,0,0.05,76.85000000000001,0)" xlink:href="#K"/><use transform="matrix(0.05,0,0,0.05,88.85000000000001,0)" xlink:href="#L"/><use transform="matrix(0.05,0,0,0.05,98.85000000000001,0)" xlink:href="#M"/><use transform="matrix(0.05,0,0,0.05,104.80000000000001,0)" xlink:href="#N"/><use transform="matrix(0.05,0,0,0.05,113.80000000000001,0)" xlink:href="#O"/><use transform="matrix(0.05,0,0,0.05,117.75,0)" xlink:href="#P"/><use transform="matrix(0.05,0,0,0.05,126.75,0)" xlink:href="#L"/></g><g id="g"><use transform="matrix(0.05,0,0,0.05,0,0)" xlink:href="#G"/><use transform="matrix(0.05,0,0,0.05,8.950000000000001,0)" xlink:href="#H"/><use transform="matrix(0.05,0,0,0.05,18.950000000000003,0)" xlink:href="#I"/><use transform="matrix(0.05,0,0,0.05,27.950000000000003,0)" xlink:href="#J"/><use transform="matrix(0.05,0,0,0.05,36.95,0)" xlink:href="#Q"/><use transform="matrix(0.05,0,0,0.05,47.900000000000006,0)" xlink:href="#R"/><use transform="matrix(0.05,0,0,0.05,57.900000000000006,0)" xlink:href="#M"/><use transform="matrix(0.05,0,0,0.05,63.85,0)" xlink:href="#S"/><use transform="matrix(0.05,0,0,0.05,78.80000000000001,0)" xlink:href="#K"/><use transform="matrix(0.05,0,0,0.05,90.80000000000001,0)" xlink:href="#L"/><use transform="matrix(0.05,0,0,0.05,100.80000000000001,0)" xlink:href="#M"/><use transform="matrix(0.05,0,0,0.05,106.75,0)" xlink:href="#N"/><use transform="matrix(0.05,0,0,0.05,115.75,0)" xlink:href="#O"/><use transform="matrix(0.05,0,0,0.05,119.7,0)" xlink:href="#P"/><use transform="matrix(0.05,0,0,0.05,128.70000000000002,0)" xlink:href="#L"/></g><path fill="#706148" d="M30-248c118-7 216 8 213 122C240-48 200 0 122 0H30v-248zM63-27c89 8 146-16 146-99s-60-101-146-95v194" id="Z"/><path fill="#706148" d="M179-190L93 31C79 59 56 82 12 73V49c39 6 53-20 64-50L1-190h34L92-34l54-156h33" id="aa"/><g id="h"><use transform="matrix(0.05,0,0,0.05,0,0)" xlink:href="#G"/><use transform="matrix(0.05,0,0,0.05,8.950000000000001,0)" xlink:href="#H"/><use transform="matrix(0.05,0,0,0.05,18.950000000000003,0)" xlink:href="#I"/><use transform="matrix(0.05,0,0,0.05,27.950000000000003,0)" xlink:href="#J"/><use transform="matrix(0.05,0,0,0.05,36.95,0)" xlink:href="#Z"/><use transform="matrix(0.05,0,0,0.05,49.900000000000006,0)" xlink:href="#L"/><use transform="matrix(0.05,0,0,0.05,59.900000000000006,0)" xlink:href="#Y"/><use transform="matrix(0.05,0,0,0.05,63.85,0)" xlink:href="#H"/><use transform="matrix(0.05,0,0,0.05,73.85000000000001,0)" xlink:href="#aa"/><use transform="matrix(0.05,0,0,0.05,82.85000000000001,0)" xlink:href="#K"/><use transform="matrix(0.05,0,0,0.05,94.85000000000001,0)" xlink:href="#L"/><use transform="matrix(0.05,0,0,0.05,104.85000000000001,0)" xlink:href="#M"/><use transform="matrix(0.05,0,0,0.05,110.80000000000001,0)" xlink:href="#N"/><use transform="matrix(0.05,0,0,0.05,119.80000000000001,0)" xlink:href="#O"/><use transform="matrix(0.05,0,0,0.05,123.75,0)" xlink:href="#P"/><use transform="matrix(0.05,0,0,0.05,132.75,0)" xlink:href="#L"/></g><path fill="#706148" d="M30 0v-248h187v28H63v79h144v27H63v87h162V0H30" id="ab"/><path fill="#706148" d="M85-194c31 0 48 13 60 33l-1-100h32l1 261h-30c-2-10 0-23-3-31C134-8 116 4 85 4 32 4 16-35 15-94c0-66 23-100 70-100zm9 24c-40 0-46 34-46 75 0 40 6 74 45 74 42 0 51-32 51-76 0-42-9-74-50-73" id="ac"/><g id="i"><use transform="matrix(0.05,0,0,0.05,0,0)" xlink:href="#G"/><use transform="matrix(0.05,0,0,0.05,8.950000000000001,0)" xlink:href="#H"/><use transform="matrix(0.05,0,0,0.05,18.950000000000003,0)" xlink:href="#I"/><use transform="matrix(0.05,0,0,0.05,27.950000000000003,0)" xlink:href="#J"/><use transform="matrix(0.05,0,0,0.05,36.95,0)" xlink:href="#ab"/><use transform="matrix(0.05,0,0,0.05,48.95,0)" xlink:href="#ac"/><use transform="matrix(0.05,0,0,0.05,58.95,0)" xlink:href="#O"/><use transform="matrix(0.05,0,0,0.05,62.900000000000006,0)" xlink:href="#W"/><use transform="matrix(0.05,0,0,0.05,67.9,0)" xlink:href="#K"/><use transform="matrix(0.05,0,0,0.05,79.9,0)" xlink:href="#L"/><use transform="matrix(0.05,0,0,0.05,89.9,0)" xlink:href="#M"/><use transform="matrix(0.05,0,0,0.05,95.85000000000001,0)" xlink:href="#N"/><use transform="matrix(0.05,0,0,0.05,104.85000000000001,0)" xlink:href="#O"/><use transform="matrix(0.05,0,0,0.05,108.80000000000001,0)" xlink:href="#P"/><use transform="matrix(0.05,0,0,0.05,117.80000000000001,0)" xlink:href="#L"/></g><path fill="#706148" d="M101-234c-31-9-42 10-38 44h38v23H63V0H32v-167H5v-23h27c-7-52 17-82 69-68v24" id="ad"/><path fill="#706148" d="M177-190C167-65 218 103 67 71c-23-6-38-20-44-43l32-5c15 47 100 32 89-28v-30C133-14 115 1 83 1 29 1 15-40 15-95c0-56 16-97 71-98 29-1 48 16 59 35 1-10 0-23 2-32h30zM94-22c36 0 50-32 50-73 0-42-14-75-50-75-39 0-46 34-46 75s6 73 46 73" id="ae"/><g id="j"><use transform="matrix(0.05,0,0,0.05,0,0)" xlink:href="#T"/><use transform="matrix(0.05,0,0,0.05,12.950000000000001,0)" xlink:href="#R"/><use transform="matrix(0.05,0,0,0.05,22.950000000000003,0)" xlink:href="#V"/><use transform="matrix(0.05,0,0,0.05,32.95,0)" xlink:href="#ad"/><use transform="matrix(0.05,0,0,0.05,37.95,0)" xlink:href="#O"/><use transform="matrix(0.05,0,0,0.05,41.900000000000006,0)" xlink:href="#ae"/></g><g id="k"><use transform="matrix(0.05,0,0,0.05,0,0)" xlink:href="#T"/><use transform="matrix(0.05,0,0,0.05,12.950000000000001,0)" xlink:href="#H"/><use transform="matrix(0.05,0,0,0.05,22.950000000000003,0)" xlink:href="#W"/><use transform="matrix(0.05,0,0,0.05,27.950000000000003,0)" xlink:href="#L"/><use transform="matrix(0.05,0,0,0.05,37.95,0)" xlink:href="#ae"/><use transform="matrix(0.05,0,0,0.05,47.95,0)" xlink:href="#R"/><use transform="matrix(0.05,0,0,0.05,57.95,0)" xlink:href="#M"/><use transform="matrix(0.05,0,0,0.05,63.900000000000006,0)" xlink:href="#aa"/></g><g id="l"><use transform="matrix(0.05,0,0,0.05,0,0)" xlink:href="#G"/><use transform="matrix(0.05,0,0,0.05,8.950000000000001,0)" xlink:href="#H"/><use transform="matrix(0.05,0,0,0.05,18.950000000000003,0)" xlink:href="#I"/><use transform="matrix(0.05,0,0,0.05,27.950000000000003,0)" xlink:href="#J"/></g><path fill="#706148" d="M30 0v-248h33v221h125V0H30" id="af"/><g id="m"><use transform="matrix(0.05,0,0,0.05,0,0)" xlink:href="#G"/><use transform="matrix(0.05,0,0,0.05,8.950000000000001,0)" xlink:href="#H"/><use transform="matrix(0.05,0,0,0.05,18.950000000000003,0)" xlink:href="#I"/><use transform="matrix(0.05,0,0,0.05,27.950000000000003,0)" xlink:href="#J"/><use transform="matrix(0.05,0,0,0.05,36.95,0)" xlink:href="#af"/><use transform="matrix(0.05,0,0,0.05,46.95,0)" xlink:href="#O"/><use transform="matrix(0.05,0,0,0.05,50.900000000000006,0)" xlink:href="#I"/><use transform="matrix(0.05,0,0,0.05,59.900000000000006,0)" xlink:href="#W"/><use transform="matrix(0.05,0,0,0.05,64.9,0)" xlink:href="#T"/><use transform="matrix(0.05,0,0,0.05,77.85000000000001,0)" xlink:href="#R"/><use transform="matrix(0.05,0,0,0.05,87.85000000000001,0)" xlink:href="#S"/><use transform="matrix(0.05,0,0,0.05,102.80000000000001,0)" xlink:href="#U"/><use transform="matrix(0.05,0,0,0.05,112.80000000000001,0)" xlink:href="#R"/><use transform="matrix(0.05,0,0,0.05,122.80000000000001,0)" xlink:href="#V"/><use transform="matrix(0.05,0,0,0.05,132.8,0)" xlink:href="#L"/><use transform="matrix(0.05,0,0,0.05,142.8,0)" xlink:href="#V"/><use transform="matrix(0.05,0,0,0.05,152.8,0)" xlink:href="#W"/></g><g id="n"><use transform="matrix(0.05,0,0,0.05,0,0)" xlink:href="#G"/><use transform="matrix(0.05,0,0,0.05,8.950000000000001,0)" xlink:href="#H"/><use transform="matrix(0.05,0,0,0.05,18.950000000000003,0)" xlink:href="#I"/><use transform="matrix(0.05,0,0,0.05,27.950000000000003,0)" xlink:href="#J"/><use transform="matrix(0.05,0,0,0.05,36.95,0)" xlink:href="#X"/><use transform="matrix(0.05,0,0,0.05,48.95,0)" xlink:href="#O"/><use transform="matrix(0.05,0,0,0.05,52.900000000000006,0)" xlink:href="#Y"/><use transform="matrix(0.05,0,0,0.05,56.85,0)" xlink:href="#H"/><use transform="matrix(0.05,0,0,0.05,66.85000000000001,0)" xlink:href="#V"/><use transform="matrix(0.05,0,0,0.05,76.85000000000001,0)" xlink:href="#T"/><use transform="matrix(0.05,0,0,0.05,89.80000000000001,0)" xlink:href="#R"/><use transform="matrix(0.05,0,0,0.05,99.80000000000001,0)" xlink:href="#S"/><use transform="matrix(0.05,0,0,0.05,114.75,0)" xlink:href="#U"/><use transform="matrix(0.05,0,0,0.05,124.75,0)" xlink:href="#R"/><use transform="matrix(0.05,0,0,0.05,134.75,0)" xlink:href="#V"/><use transform="matrix(0.05,0,0,0.05,144.75,0)" xlink:href="#L"/><use transform="matrix(0.05,0,0,0.05,154.75,0)" xlink:href="#V"/><use transform="matrix(0.05,0,0,0.05,164.75,0)" xlink:href="#W"/></g><path fill="#706148" d="M205 0l-28-72H64L36 0H1l101-248h38L239 0h-34zm-38-99l-47-123c-12 45-31 82-46 123h93" id="ag"/><g id="o"><use transform="matrix(0.05,0,0,0.05,0,0)" xlink:href="#ag"/><use transform="matrix(0.05,0,0,0.05,12,0)" xlink:href="#U"/><use transform="matrix(0.05,0,0,0.05,22,0)" xlink:href="#U"/><use transform="matrix(0.05,0,0,0.05,32,0)" xlink:href="#T"/><use transform="matrix(0.05,0,0,0.05,44.95,0)" xlink:href="#R"/><use transform="matrix(0.05,0,0,0.05,54.95,0)" xlink:href="#S"/><use transform="matrix(0.05,0,0,0.05,69.9,0)" xlink:href="#U"/><use transform="matrix(0.05,0,0,0.05,79.9,0)" xlink:href="#R"/><use transform="matrix(0.05,0,0,0.05,89.9,0)" xlink:href="#V"/><use transform="matrix(0.05,0,0,0.05,99.9,0)" xlink:href="#L"/><use transform="matrix(0.05,0,0,0.05,109.9,0)" xlink:href="#V"/><use transform="matrix(0.05,0,0,0.05,119.9,0)" xlink:href="#W"/></g><g id="p"><use transform="matrix(0.05,0,0,0.05,0,0)" xlink:href="#G"/><use transform="matrix(0.05,0,0,0.05,8.950000000000001,0)" xlink:href="#H"/><use transform="matrix(0.05,0,0,0.05,18.950000000000003,0)" xlink:href="#I"/><use transform="matrix(0.05,0,0,0.05,27.950000000000003,0)" xlink:href="#J"/><use transform="matrix(0.05,0,0,0.05,36.95,0)" xlink:href="#T"/><use transform="matrix(0.05,0,0,0.05,49.900000000000006,0)" xlink:href="#R"/><use transform="matrix(0.05,0,0,0.05,59.900000000000006,0)" xlink:href="#S"/><use transform="matrix(0.05,0,0,0.05,74.85000000000001,0)" xlink:href="#U"/><use transform="matrix(0.05,0,0,0.05,84.85000000000001,0)" xlink:href="#R"/><use transform="matrix(0.05,0,0,0.05,94.85000000000001,0)" xlink:href="#V"/><use transform="matrix(0.05,0,0,0.05,104.85000000000001,0)" xlink:href="#L"/><use transform="matrix(0.05,0,0,0.05,114.85000000000001,0)" xlink:href="#V"/><use transform="matrix(0.05,0,0,0.05,124.85000000000001,0)" xlink:href="#W"/></g><g id="q"><use transform="matrix(0.05,0,0,0.05,0,0)" xlink:href="#T"/><use transform="matrix(0.05,0,0,0.05,12.950000000000001,0)" xlink:href="#H"/><use transform="matrix(0.05,0,0,0.05,22.950000000000003,0)" xlink:href="#W"/><use transform="matrix(0.05,0,0,0.05,27.950000000000003,0)" xlink:href="#L"/><use transform="matrix(0.05,0,0,0.05,37.95,0)" xlink:href="#ae"/><use transform="matrix(0.05,0,0,0.05,47.95,0)" xlink:href="#R"/><use transform="matrix(0.05,0,0,0.05,57.95,0)" xlink:href="#M"/><use transform="matrix(0.05,0,0,0.05,63.900000000000006,0)" xlink:href="#aa"/><use transform="matrix(0.05,0,0,0.05,72.9,0)" xlink:href="#T"/><use transform="matrix(0.05,0,0,0.05,85.85000000000001,0)" xlink:href="#R"/><use transform="matrix(0.05,0,0,0.05,95.85000000000001,0)" xlink:href="#S"/><use transform="matrix(0.05,0,0,0.05,110.80000000000001,0)" xlink:href="#U"/><use transform="matrix(0.05,0,0,0.05,120.80000000000001,0)" xlink:href="#R"/><use transform="matrix(0.05,0,0,0.05,130.8,0)" xlink:href="#V"/><use transform="matrix(0.05,0,0,0.05,140.8,0)" xlink:href="#L"/><use transform="matrix(0.05,0,0,0.05,150.8,0)" xlink:href="#V"/><use transform="matrix(0.05,0,0,0.05,160.8,0)" xlink:href="#W"/></g><g id="r"><use transform="matrix(0.05,0,0,0.05,0,0)" xlink:href="#T"/><use transform="matrix(0.05,0,0,0.05,12.950000000000001,0)" xlink:href="#H"/><use transform="matrix(0.05,0,0,0.05,22.950000000000003,0)" xlink:href="#W"/><use transform="matrix(0.05,0,0,0.05,27.950000000000003,0)" xlink:href="#L"/><use transform="matrix(0.05,0,0,0.05,37.95,0)" xlink:href="#ae"/><use transform="matrix(0.05,0,0,0.05,47.95,0)" xlink:href="#R"/><use transform="matrix(0.05,0,0,0.05,57.95,0)" xlink:href="#M"/><use transform="matrix(0.05,0,0,0.05,63.900000000000006,0)" xlink:href="#aa"/><use transform="matrix(0.05,0,0,0.05,72.9,0)" xlink:href="#K"/><use transform="matrix(0.05,0,0,0.05,84.9,0)" xlink:href="#L"/><use transform="matrix(0.05,0,0,0.05,94.9,0)" xlink:href="#M"/><use transform="matrix(0.05,0,0,0.05,100.85000000000001,0)" xlink:href="#N"/><use transform="matrix(0.05,0,0,0.05,109.85000000000001,0)" xlink:href="#O"/><use transform="matrix(0.05,0,0,0.05,113.80000000000001,0)" xlink:href="#P"/><use transform="matrix(0.05,0,0,0.05,122.80000000000001,0)" xlink:href="#L"/></g><path fill="#706148" d="M197 0v-115H63V0H30v-248h33v105h134v-105h34V0h-34" id="ah"/><g id="s"><use transform="matrix(0.05,0,0,0.05,0,0)" xlink:href="#T"/><use transform="matrix(0.05,0,0,0.05,12.950000000000001,0)" xlink:href="#H"/><use transform="matrix(0.05,0,0,0.05,22.950000000000003,0)" xlink:href="#W"/><use transform="matrix(0.05,0,0,0.05,27.950000000000003,0)" xlink:href="#L"/><use transform="matrix(0.05,0,0,0.05,37.95,0)" xlink:href="#ae"/><use transform="matrix(0.05,0,0,0.05,47.95,0)" xlink:href="#R"/><use transform="matrix(0.05,0,0,0.05,57.95,0)" xlink:href="#M"/><use transform="matrix(0.05,0,0,0.05,63.900000000000006,0)" xlink:href="#aa"/><use transform="matrix(0.05,0,0,0.05,72.9,0)" xlink:href="#ah"/><use transform="matrix(0.05,0,0,0.05,85.85000000000001,0)" xlink:href="#W"/><use transform="matrix(0.05,0,0,0.05,90.85000000000001,0)" xlink:href="#W"/><use transform="matrix(0.05,0,0,0.05,95.85000000000001,0)" xlink:href="#U"/><use transform="matrix(0.05,0,0,0.05,105.85000000000001,0)" xlink:href="#K"/><use transform="matrix(0.05,0,0,0.05,117.85000000000001,0)" xlink:href="#L"/><use transform="matrix(0.05,0,0,0.05,127.85000000000001,0)" xlink:href="#M"/><use transform="matrix(0.05,0,0,0.05,133.8,0)" xlink:href="#N"/><use transform="matrix(0.05,0,0,0.05,142.8,0)" xlink:href="#O"/><use transform="matrix(0.05,0,0,0.05,146.75,0)" xlink:href="#P"/><use transform="matrix(0.05,0,0,0.05,155.75,0)" xlink:href="#L"/></g></defs></g></svg>